<svg width="50" height="50" viewBox="0 0 50 50" fill="none" xmlns="http://www.w3.org/2000/svg">
<path d="M7.00888 28.6211C8.12992 14.1 23.3117 7.73288 35.3725 15.0492C38.9742 17.2346 41.9876 20.7296 42.8614 24.9507C43.666 28.8198 40.8838 33.1083 36.674 32.9979C33.1897 32.9084 30.7177 30.4668 27.7748 29.0908C25.1916 27.8841 21.8421 28.1894 19.778 30.2411C19.0524 30.9622 17.9932 29.7616 18.8077 29.1374C20.1349 28.1179 21.7043 27.4544 23.3648 27.2108C28.886 26.4014 31.6818 31.503 36.5343 30.5967C42.9529 29.3998 39.1003 21.3183 35.7606 18.3971C30.3519 13.6684 21.407 12.6873 15.8277 17.4835C12.666 20.2035 11.0802 24.5031 11.4585 28.6211C11.7625 31.8341 6.76168 31.8452 7.00888 28.6211Z" fill="#2B3467"/>
<path d="M6.3186 34.2438C12.0446 36.8941 18.4572 38.6946 24.9506 38.6946C31.444 38.6946 38.0762 37.2197 43.5826 34.2438C45.2662 33.3359 47.0205 35.5755 45.2814 36.4397C44.0786 37.0362 42.5591 37.2984 41.2326 37.6622C35.1822 39.3206 28.7696 40.2787 22.4025 39.928C16.6714 39.6123 11.1561 38.0183 5.60174 36.7925C2.93498 36.2037 3.89289 33.1218 6.3186 34.2438Z" fill="#2B3467"/>
<path d="M2.27372 38.2573C15.2482 45.3003 33.2432 45.3757 46.434 38.9307C46.8539 38.7323 47.2616 38.5075 47.6548 38.2573C49.2896 37.184 50.9911 39.8034 49.3007 40.8333C48.5037 41.3175 47.5893 41.5156 46.7182 41.8056C39.7169 44.1362 32.2942 45 24.9704 45C16.9967 44.9898 9.07236 43.3811 1.35439 41.1668C-1.04034 40.4729 0.0396363 37.0448 2.27372 38.2573Z" fill="#2B3467"/>
<path d="M28.5548 10.0174C29.0105 6.1905 23.0006 5.85627 21.5646 8.7194C21.1872 9.47243 21.853 10.7328 20.8632 10.9812C20.3683 11.1073 19.928 10.5785 20.0099 10.0174C20.6175 5.9113 25.3279 5.16364 28.0801 6.82138C28.6064 7.14928 29.0551 7.61561 29.3885 8.18099C29.7219 8.74637 29.9301 9.3942 29.9955 10.0698C30.0976 11.3074 28.4124 11.2496 28.5548 10.0174Z" fill="#2B3467"/>
</svg>
