<svg width="601" height="444" viewBox="0 0 601 444" fill="none" xmlns="http://www.w3.org/2000/svg">
<path d="M439.184 9.7487C450.084 6.2587 461.704 5.5887 473.124 6.2487C489.534 7.1987 506.584 11.2787 518.644 22.4487C526.244 29.4787 531.284 38.7687 537.404 47.1387C555.134 71.3987 582.534 88.7587 594.494 116.319C604.714 139.879 600.874 169.499 583.284 188.209C565.694 206.919 534.714 212.229 512.934 198.619C492.024 185.559 482.784 159.559 463.684 143.969C450.034 132.829 432.394 127.859 417.564 118.339C402.384 108.599 390.034 93.2887 387.244 75.4787C384.924 60.6887 390.254 44.6187 401.784 34.8887C413.064 25.3687 424.934 14.3087 439.184 9.7487Z" fill="#DBF6FF"/>
<path d="M533.943 190.809C515.083 193.839 496.653 188.959 477.813 185.489C459.723 182.159 441.703 175.889 427.343 164.069C420.763 158.659 414.933 151.919 412.353 143.799C408.673 132.209 412.033 119.709 412.003 107.549C411.963 93.2787 408.413 79.5287 398.503 69.0087C392.473 62.6087 385.463 56.9887 380.733 49.5687C370.873 34.1087 378.503 13.4187 393.943 4.6887C408.003 -3.2613 425.903 -0.111296 440.503 6.7787C455.113 13.6787 467.933 23.9487 482.603 30.7187C498.683 38.1387 516.273 41.0487 534.013 42.7187C547.573 43.9987 561.393 42.4387 572.463 50.3887C580.383 56.0687 585.973 64.6087 589.233 73.7987C595.383 91.1887 594.153 111.629 591.313 129.579C589.413 141.609 585.593 153.509 578.613 163.489C570.053 175.739 556.963 184.559 542.643 188.829C539.723 189.699 536.823 190.349 533.943 190.809Z" fill="#BCDFEB"/>
<path d="M504.428 444H65.445C32.3031 417.219 9.27085 379.002 3.04485 335.348C0.462359 317.193 1.93378 295.7 15.9073 284.827C37.398 268.103 69.6391 289.183 93.9125 277.503C109.548 269.979 117.255 250.425 117.415 232.239C117.575 214.052 111.77 196.502 107.426 178.898C103.081 161.306 100.219 142.303 106.084 125.208C111.95 108.114 129.237 94.2512 145.873 98.7872C160.126 102.677 169.175 117.97 182.828 123.778C197.042 129.829 213.548 124.318 226.17 115.119C238.792 105.92 248.832 93.3292 260.633 82.9748C281.343 64.799 308.69 53.6604 335.295 57.8996C361.891 62.1389 386.505 83.9604 390.659 112.098C394.052 135.118 384.913 161.719 398.236 180.255C413.26 201.165 444.681 195.294 466.402 207.99C484.079 218.323 493.518 242.275 488.013 262.857C482.387 283.862 463.279 301.498 466.392 323.086C468.624 338.559 481.576 349.253 490.705 361.568C508.252 385.233 516.19 416.614 504.428 444Z" fill="#DBF6FF"/>
<path d="M483.663 422.379H107.923C96.4933 411.969 83.6733 402.369 77.1833 388.339C70.6933 374.309 70.7133 356.079 81.3833 344.889C94.2633 331.389 115.803 333.229 133.913 328.769C154.803 323.619 173.803 306.839 176.483 285.489C179.933 257.929 156.853 232.739 158.293 204.999C159.423 183.129 177.993 163.479 199.763 161.099C214.483 159.489 229.743 164.879 243.963 160.759C257.143 156.929 266.643 145.749 278.103 138.189C291.543 129.319 308.703 125.459 324.203 129.869C339.693 134.279 352.803 147.679 354.893 163.649C357.113 180.629 347.873 199.919 357.673 213.969C364.973 224.429 379.533 226.449 392.283 226.039C405.033 225.629 418.633 223.919 429.843 230.019C440.263 235.689 446.463 247.419 447.623 259.229C448.783 271.039 445.493 282.889 440.633 293.709C436.383 303.169 430.913 312.109 427.713 321.969C424.513 331.829 423.853 343.159 429.063 352.119C434.543 361.559 445.173 366.459 453.843 373.089C469.133 384.819 482.513 403.129 483.663 422.379Z" fill="#BCDFEB"/>
<path d="M452.214 57.2287L473.914 112.409L520.154 86.3087L452.214 57.2287Z" fill="#FAFAFA"/>
<path d="M452.214 57.2287L494.864 100.579L506.474 94.0287L452.214 57.2287Z" fill="#D9D9D9"/>
<path d="M506.474 94.0287L498.394 114.039L494.864 100.579L506.474 94.0287Z" fill="#D9D9D9"/>
<path d="M498.394 114.039L488.414 104.229L494.864 100.579L498.394 114.039Z" fill="#B0B0B0"/>
<path d="M168.344 405.259C119.404 392.369 76.7335 357.439 54.4135 312.019C45.2035 293.279 39.2935 272.469 40.6835 251.629C42.0735 230.789 51.4035 209.969 68.1335 197.469C84.8635 184.969 109.244 182.259 126.934 193.359C144.024 204.079 152.164 224.649 166.984 238.349C184.684 254.729 212.774 259.509 234.114 248.279C255.454 237.049 267.454 209.749 259.664 186.929C252.454 165.809 232.084 152.669 214.384 139.069C196.684 125.469 179.084 106.349 181.624 84.1787C183.804 65.1187 200.584 50.7987 218.264 43.3587C252.114 29.1287 295.774 35.4587 318.844 64.0287C343.664 94.7687 338.894 139.619 327.704 177.509C316.514 215.399 300.004 253.759 305.574 292.879C310.204 325.379 330.354 354.609 357.084 373.669C383.814 392.729 416.614 402.169 449.384 404.179C482.084 406.189 517.184 400.109 541.364 378.009C565.554 355.909 573.724 314.709 552.334 289.889C541.264 277.049 524.734 270.539 508.844 264.629C492.954 258.729 476.364 252.549 464.844 240.109C453.324 227.669 448.864 206.879 459.694 193.839C472.244 178.729 505.674 177.079 517.494 161.399C525.924 150.209 516.074 128.659 506.504 118.079" stroke="#52BFDE" stroke-width="2.5409" stroke-miterlimit="10" stroke-dasharray="7.62 7.62"/>
<path d="M141.113 347.369C119.963 333.479 101.113 316.109 85.5433 296.169C79.0133 287.809 73.0233 278.919 69.0633 269.079C65.1033 259.239 63.2633 248.359 65.2133 237.929C66.6033 230.449 70.6733 222.669 77.8933 220.279C83.5333 218.409 89.9033 220.359 94.6033 223.989C99.3033 227.629 102.593 232.749 105.513 237.929C116.763 257.899 123.673 279.959 131.993 301.319C135.983 311.569 140.343 321.709 145.643 331.359C148.273 336.159 151.133 340.829 154.283 345.299C157.143 349.349 162.333 353.709 164.133 358.089C160.023 361.369 144.953 349.889 141.113 347.369Z" fill="#429C9B"/>
<path d="M81.5732 231.629C91.9132 275.449 116.203 315.869 150.043 345.569" stroke="#57BABD" stroke-width="2.0199" stroke-miterlimit="10"/>
<path d="M422.613 347.589C440.773 338.769 457.473 326.969 471.843 312.789C477.863 306.849 483.523 300.429 487.673 293.049C491.813 285.669 494.393 277.249 493.923 268.799C493.593 262.739 491.173 256.169 485.703 253.529C481.433 251.469 476.193 252.359 472.103 254.749C468.013 257.149 464.873 260.859 462.033 264.659C451.073 279.309 443.343 296.049 434.563 312.099C430.353 319.799 425.853 327.379 420.673 334.469C418.093 337.989 415.353 341.399 412.403 344.609C409.723 347.519 405.163 350.439 403.293 353.719C406.213 356.719 419.323 349.189 422.613 347.589Z" fill="#429C9B"/>
<path d="M481.623 262.129C468.933 295.739 445.563 325.229 415.723 345.249" stroke="#57BABD" stroke-width="1.6117" stroke-miterlimit="10"/>
<path d="M150.253 318.679C161.623 262.609 149.503 202.149 117.403 154.789" stroke="#61A9B8" stroke-width="2.5409" stroke-miterlimit="10"/>
<path d="M120.763 160.339C111.603 157.339 103.583 150.969 98.5934 142.709C93.6034 134.459 91.6934 124.399 93.2934 114.889C103.013 117.499 112.153 123.539 117.323 132.169C122.513 140.799 123.043 150.529 120.763 160.339Z" fill="#61A9B8"/>
<path d="M131.003 178.489C128.903 171.349 129.453 163.459 132.523 156.679C135.593 149.899 141.153 144.279 147.913 141.139C150.503 148.469 150.653 156.919 147.433 163.989C144.193 171.059 138.233 175.649 131.003 178.489Z" fill="#61A9B8"/>
<path d="M131.644 177.809C126.034 172.909 118.644 170.109 111.194 170.059C103.754 170.009 96.3136 172.709 90.6436 177.529C96.2136 182.949 103.824 186.629 111.594 186.659C119.374 186.689 126.034 183.199 131.644 177.809Z" fill="#61A9B8"/>
<path d="M142.544 207.289C141.724 199.889 143.634 192.219 147.844 186.069C152.044 179.929 158.504 175.359 165.704 173.449C166.984 181.119 165.654 189.469 161.244 195.869C156.834 202.279 150.164 205.759 142.544 207.289Z" fill="#61A9B8"/>
<path d="M143.303 206.739C138.633 200.939 131.843 196.889 124.523 195.539C117.203 194.189 109.413 195.549 102.983 199.309C107.523 205.619 114.373 210.569 122.023 211.949C129.673 213.339 136.843 211.059 143.303 206.739Z" fill="#61A9B8"/>
<path d="M150.193 236.099C150.013 228.659 152.593 221.179 157.313 215.429C162.033 209.679 168.863 205.689 176.203 204.409C176.813 212.159 174.763 220.359 169.813 226.349C164.863 232.349 157.913 235.239 150.193 236.099Z" fill="#61A9B8"/>
<path d="M150.994 235.619C146.844 229.439 140.434 224.809 133.254 222.829C126.074 220.849 118.194 221.529 111.464 224.709C115.434 231.389 121.834 236.919 129.334 238.959C136.844 240.999 144.184 239.359 150.994 235.619Z" fill="#61A9B8"/>
<path d="M154.613 267.809C155.593 260.429 159.303 253.449 164.863 248.489C170.423 243.539 177.793 240.659 185.233 240.539C184.623 248.289 181.333 256.069 175.513 261.219C169.693 266.379 162.383 268.149 154.613 267.809Z" fill="#61A9B8"/>
<path d="M155.484 267.449C152.354 260.699 146.734 255.129 139.954 252.059C133.174 248.989 125.284 248.439 118.144 250.529C121.024 257.749 126.494 264.199 133.584 267.379C140.664 270.569 148.174 270.089 155.484 267.449Z" fill="#61A9B8"/>
<path d="M415.014 338.009C402.714 282.139 413.814 221.489 445.124 173.599" stroke="#61A9B8" stroke-width="2.5409" stroke-miterlimit="10"/>
<path d="M441.844 179.199C450.954 176.049 458.864 169.539 463.714 161.209C468.564 152.879 470.314 142.779 468.544 133.309C458.864 136.079 449.834 142.269 444.804 150.989C439.774 159.699 439.404 169.429 441.844 179.199Z" fill="#61A9B8"/>
<path d="M431.913 197.519C433.893 190.339 433.213 182.459 430.023 175.729C426.843 168.999 421.183 163.469 414.383 160.449C411.913 167.819 411.903 176.269 415.253 183.289C418.603 190.309 424.633 194.799 431.913 197.519Z" fill="#61A9B8"/>
<path d="M431.254 196.859C436.774 191.869 444.124 188.939 451.564 188.769C459.004 188.589 466.484 191.169 472.234 195.889C466.754 201.409 459.204 205.209 451.434 205.369C443.674 205.519 436.954 202.139 431.254 196.859Z" fill="#61A9B8"/>
<path d="M420.854 226.509C421.554 219.099 419.504 211.459 415.204 205.389C410.894 199.319 404.364 194.859 397.134 193.069C395.984 200.759 397.454 209.079 401.964 215.409C406.484 221.729 413.204 225.099 420.854 226.509Z" fill="#61A9B8"/>
<path d="M420.084 225.969C424.654 220.089 431.374 215.929 438.674 214.459C445.974 212.989 453.784 214.219 460.274 217.869C455.844 224.259 449.074 229.319 441.444 230.829C433.824 232.339 426.624 230.179 420.084 225.969Z" fill="#61A9B8"/>
<path d="M413.693 255.449C413.743 248.009 411.043 240.569 406.223 234.899C401.403 229.229 394.503 225.359 387.153 224.199C386.673 231.959 388.863 240.129 393.913 246.029C398.963 251.939 405.953 254.709 413.693 255.449Z" fill="#61A9B8"/>
<path d="M412.884 254.969C416.924 248.719 423.264 243.989 430.404 241.889C437.544 239.789 445.434 240.339 452.214 243.409C448.354 250.159 442.044 255.789 434.584 257.959C427.124 260.119 419.754 258.599 412.884 254.969Z" fill="#61A9B8"/>
<path d="M409.794 287.219C408.684 279.859 404.864 272.939 399.224 268.079C393.584 263.219 386.164 260.469 378.724 260.469C379.464 268.209 382.884 275.939 388.794 280.989C394.694 286.039 402.034 287.689 409.794 287.219Z" fill="#61A9B8"/>
<path d="M408.924 286.879C411.944 280.079 417.474 274.419 424.204 271.229C430.934 268.049 438.814 267.359 445.994 269.339C443.234 276.599 437.874 283.149 430.834 286.449C423.794 289.749 416.274 289.399 408.924 286.879Z" fill="#61A9B8"/>
<path d="M141.413 375.639C144.523 369.989 148.643 364.759 151.353 358.939C144.123 349.759 135.453 341.509 126.353 334.279C120.403 329.549 114.203 325.119 107.793 320.989C101.913 325.669 96.0334 330.349 90.1534 335.019C91.1834 326.859 91.7734 319.749 92.6334 312.009C79.5734 304.929 65.8234 299.059 51.6634 294.589C48.3934 299.849 45.6134 305.439 41.2234 309.939C41.2934 303.909 40.7134 297.609 39.8934 291.219C26.8034 287.849 13.4334 285.659 0.00343418 284.769C-0.0365658 290.189 0.273436 295.609 0.903436 300.989C4.41344 299.929 7.13344 296.969 10.8434 296.419C8.39344 302.359 6.17344 308.879 3.26344 314.909C6.46344 329.229 11.9434 343.049 19.4134 355.689C25.5934 352.049 31.3934 347.049 38.8434 343.949C37.5434 355.339 37.5234 367.259 36.5434 378.789C40.4734 383.059 44.6634 387.079 49.1234 390.799C56.9734 397.349 65.5934 402.929 74.7134 407.519C76.5634 400.459 78.4834 393.419 83.0634 387.489C88.4634 397.749 94.3134 406.889 99.2134 417.039C119.643 422.839 141.393 424.029 162.253 420.029C165.703 419.369 168.603 413.839 169.673 410.489C170.743 407.139 170.543 403.519 170.053 400.039C168.533 389.089 164.453 378.879 158.733 369.499C152.633 370.939 146.463 372.639 141.413 375.639Z" fill="#61A9B8"/>
<path d="M147.263 409.409C99.233 381.159 55.323 345.929 17.333 305.159" stroke="#85CCE0" stroke-width="2.5409" stroke-miterlimit="10"/>
<path d="M425.214 386.949C422.304 383.069 418.674 379.619 416.034 375.579C420.434 367.979 426.014 360.909 432.004 354.559C435.924 350.409 440.074 346.449 444.404 342.689C449.284 345.539 454.154 348.399 459.034 351.249C457.394 345.279 456.194 340.059 454.734 334.389C463.694 327.729 473.304 321.889 483.364 317.049C486.354 320.619 489.024 324.479 492.774 327.359C492.084 322.879 491.834 318.129 491.764 313.279C501.144 309.379 510.864 306.319 520.764 304.219C521.374 308.249 521.714 312.319 521.824 316.389C519.104 315.979 516.764 314.069 513.934 314.049C516.394 318.209 518.734 322.829 521.554 326.999C520.704 337.999 518.104 348.869 513.884 359.069C508.894 357.019 504.044 353.919 498.164 352.409C500.344 360.749 501.634 369.619 503.594 378.089C501.124 381.689 498.434 385.129 495.514 388.369C490.364 394.079 484.554 399.159 478.254 403.539C476.124 398.479 473.944 393.449 469.904 389.529C466.984 397.739 463.604 405.169 461.034 413.239C446.444 419.739 430.394 422.939 414.434 422.199C411.794 422.079 409.044 418.269 407.894 415.889C406.734 413.509 406.504 410.799 406.494 408.149C406.454 399.829 408.404 391.809 411.664 384.209C416.364 384.649 421.134 385.259 425.214 386.949Z" fill="#61A9B8"/>
<path d="M424.464 412.699C457.194 386.549 486.114 355.639 510.034 321.239" stroke="#85CCE0" stroke-width="1.9105" stroke-miterlimit="10"/>
<path d="M101.675 206.811L251.222 90.9333C260.671 83.6054 273.881 83.6054 283.33 90.9333L432.877 206.811V401H101.675V206.811Z" fill="#EE8F23"/>
<path d="M394.56 103.873H139.992V383.837H394.56V103.873Z" fill="#FAFAFA"/>
<path d="M379.23 120.727H155.305V129.27H379.23V120.727Z" fill="#DBDBDB"/>
<path d="M345.599 137.89H155.305V146.433H345.599V137.89Z" fill="#DBDBDB"/>
<path d="M314.725 155.033H155.305V163.576H314.725V155.033Z" fill="#DBDBDB"/>
<path d="M314.725 187.97H155.305V196.513H314.725V187.97Z" fill="#DBDBDB"/>
<path d="M273.554 204.439H155.305V212.981H273.554V204.439Z" fill="#DBDBDB"/>
<path d="M385.516 238.957H267.267V247.5H385.516V238.957Z" fill="#DBDBDB"/>
<path d="M385.535 255.753H289.347V264.296H385.535V255.753Z" fill="#DBDBDB"/>
<path d="M267.266 303.963L101.675 206.926V401L267.266 303.963Z" fill="#FFAC42"/>
<path d="M267.267 303.963L432.858 206.926V401L267.267 303.963Z" fill="#FFAC42"/>
<path d="M251.203 285.123L101.656 401H432.858L283.311 285.123C273.881 277.795 260.672 277.795 251.203 285.123Z" fill="#FFBE6E"/>
<path d="M457.837 213.884C461.666 200.102 453.598 185.827 439.817 181.998C426.036 178.169 411.76 186.236 407.931 200.018C404.102 213.799 412.17 228.075 425.951 231.904C439.732 235.733 454.008 227.665 457.837 213.884Z" fill="#FC6D5F"/>
<path d="M436.705 195V219.973H429.647V200.457H425V195H436.705Z" fill="white"/>
<path d="M354.014 40.1587C353.694 40.0387 353.384 39.9387 353.064 39.8487C352.974 39.5387 352.874 39.2187 352.754 38.9087C352.244 37.6487 351.574 36.3887 350.234 35.1287C348.894 36.3887 348.224 37.6487 347.714 38.9087C347.594 39.2287 347.494 39.5387 347.404 39.8587C347.084 39.9487 346.774 40.0487 346.454 40.1687C345.194 40.6787 343.934 41.3487 342.674 42.6887C343.934 44.0287 345.194 44.6987 346.454 45.2087C346.764 45.3287 347.084 45.4287 347.394 45.5187C347.484 45.8387 347.584 46.1487 347.704 46.4687C348.214 47.7287 348.884 48.9887 350.234 50.2487C351.584 48.9887 352.254 47.7287 352.764 46.4687C352.884 46.1587 352.984 45.8387 353.074 45.5287C353.384 45.4387 353.704 45.3387 354.014 45.2187C355.274 44.7087 356.534 44.0387 357.794 42.6887C356.534 41.3387 355.274 40.6687 354.014 40.1587Z" fill="#BCDFEB"/>
<path d="M13.6535 251.749C13.3335 251.629 13.0235 251.529 12.7035 251.439C12.6135 251.129 12.5135 250.809 12.3935 250.499C11.8835 249.239 11.2135 247.979 9.87347 246.719C8.53347 247.979 7.86348 249.239 7.35348 250.499C7.23348 250.819 7.13347 251.129 7.04347 251.449C6.72347 251.539 6.41348 251.639 6.09348 251.759C4.83348 252.269 3.57348 252.939 2.31348 254.279C3.57348 255.619 4.83348 256.289 6.09348 256.799C6.40348 256.919 6.72348 257.019 7.03348 257.109C7.12348 257.429 7.22348 257.739 7.34348 258.059C7.85348 259.319 8.52347 260.579 9.87347 261.839C11.2235 260.579 11.8935 259.319 12.4035 258.059C12.5235 257.749 12.6235 257.429 12.7135 257.119C13.0235 257.029 13.3435 256.929 13.6535 256.809C14.9135 256.299 16.1735 255.629 17.4335 254.279C16.1835 252.929 14.9135 252.259 13.6535 251.749Z" fill="#BCDFEB"/>
<path d="M380.094 190.489C379.774 190.369 379.464 190.269 379.144 190.179C379.054 189.869 378.954 189.549 378.834 189.239C378.324 187.979 377.654 186.719 376.314 185.459C374.974 186.719 374.304 187.979 373.794 189.239C373.674 189.559 373.574 189.869 373.484 190.189C373.164 190.279 372.854 190.379 372.534 190.499C371.274 191.009 370.014 191.679 368.754 193.019C370.014 194.359 371.274 195.029 372.534 195.539C372.844 195.659 373.164 195.759 373.474 195.849C373.564 196.169 373.664 196.479 373.784 196.799C374.294 198.059 374.964 199.319 376.314 200.579C377.664 199.319 378.334 198.059 378.844 196.799C378.964 196.489 379.064 196.169 379.154 195.859C379.464 195.769 379.784 195.669 380.094 195.549C381.354 195.039 382.614 194.369 383.874 193.019C382.614 191.669 381.354 190.999 380.094 190.489Z" fill="#BCDFEB"/>
<path d="M511.713 59.7487C511.553 59.6887 511.393 59.6387 511.233 59.5887C511.193 59.4287 511.143 59.2787 511.083 59.1187C510.823 58.4887 510.493 57.8587 509.823 57.2187C509.153 57.8487 508.813 58.4787 508.563 59.1187C508.503 59.2787 508.453 59.4387 508.403 59.5987C508.243 59.6387 508.083 59.6987 507.923 59.7587C507.293 60.0187 506.663 60.3487 506.023 61.0187C506.653 61.6887 507.283 62.0287 507.923 62.2787C508.083 62.3387 508.233 62.3887 508.393 62.4287C508.433 62.5887 508.493 62.7487 508.553 62.9087C508.803 63.5387 509.143 64.1687 509.823 64.8087C510.503 64.1787 510.833 63.5487 511.093 62.9087C511.153 62.7487 511.203 62.5887 511.243 62.4387C511.403 62.3987 511.563 62.3487 511.713 62.2887C512.343 62.0387 512.973 61.6987 513.613 61.0187C512.973 60.3387 512.343 60.0087 511.713 59.7487Z" fill="#DBF6FF"/>
<path d="M550.664 172.329C550.504 172.269 550.344 172.219 550.184 172.169C550.144 172.009 550.094 171.859 550.034 171.699C549.774 171.069 549.444 170.439 548.774 169.799C548.104 170.429 547.764 171.059 547.514 171.699C547.454 171.859 547.404 172.019 547.354 172.179C547.194 172.219 547.034 172.279 546.874 172.339C546.244 172.599 545.614 172.929 544.974 173.599C545.604 174.269 546.234 174.609 546.874 174.859C547.034 174.919 547.184 174.969 547.344 175.009C547.384 175.169 547.444 175.329 547.504 175.489C547.754 176.119 548.094 176.749 548.774 177.389C549.454 176.759 549.784 176.129 550.044 175.489C550.104 175.329 550.154 175.169 550.194 175.019C550.354 174.979 550.514 174.929 550.664 174.869C551.294 174.619 551.924 174.279 552.564 173.599C551.934 172.919 551.304 172.589 550.664 172.329Z" fill="#DBF6FF"/>
<path d="M549.183 169.689C549.023 169.629 548.863 169.579 548.703 169.529C548.663 169.369 548.613 169.219 548.553 169.059C548.293 168.429 547.963 167.799 547.293 167.159C546.623 167.789 546.283 168.419 546.033 169.059C545.973 169.219 545.923 169.379 545.873 169.539C545.713 169.579 545.553 169.639 545.393 169.699C544.763 169.959 544.133 170.289 543.493 170.959C544.123 171.629 544.753 171.969 545.393 172.219C545.553 172.279 545.703 172.329 545.863 172.369C545.903 172.529 545.963 172.689 546.023 172.849C546.273 173.479 546.613 174.109 547.293 174.749C547.973 174.119 548.303 173.489 548.563 172.849C548.623 172.689 548.673 172.529 548.713 172.379C548.873 172.339 549.033 172.289 549.183 172.229C549.813 171.979 550.443 171.639 551.083 170.959C550.443 170.289 549.813 169.949 549.183 169.689Z" fill="#DBF6FF"/>
<path d="M92.5435 204.099C92.3835 204.039 92.2235 203.989 92.0635 203.939C92.0235 203.779 91.9735 203.629 91.9135 203.469C91.6535 202.839 91.3235 202.209 90.6535 201.569C89.9835 202.199 89.6435 202.829 89.3935 203.469C89.3335 203.629 89.2835 203.789 89.2335 203.949C89.0735 203.989 88.9135 204.049 88.7535 204.109C88.1235 204.369 87.4935 204.699 86.8535 205.369C87.4835 206.039 88.1135 206.379 88.7535 206.629C88.9135 206.689 89.0635 206.739 89.2235 206.779C89.2635 206.939 89.3135 207.099 89.3835 207.259C89.6335 207.889 89.9735 208.519 90.6535 209.159C91.3335 208.529 91.6635 207.899 91.9235 207.259C91.9835 207.099 92.0335 206.939 92.0735 206.789C92.2335 206.749 92.3935 206.699 92.5435 206.639C93.1735 206.389 93.8035 206.049 94.4435 205.369C93.8035 204.689 93.1735 204.349 92.5435 204.099Z" fill="#BCDFEB"/>
<path d="M23.0132 403.989C22.8532 403.929 22.6932 403.879 22.5332 403.829C22.4932 403.669 22.4432 403.519 22.3832 403.359C22.1232 402.729 21.7932 402.099 21.1232 401.459C20.4532 402.089 20.1132 402.719 19.8632 403.359C19.8032 403.519 19.7532 403.679 19.7032 403.839C19.5432 403.879 19.3832 403.939 19.2232 403.999C18.5932 404.259 17.9632 404.589 17.3232 405.259C17.9532 405.929 18.5832 406.269 19.2232 406.519C19.3832 406.579 19.5332 406.629 19.6932 406.669C19.7332 406.829 19.7932 406.989 19.8532 407.149C20.1032 407.779 20.4432 408.409 21.1232 409.049C21.8032 408.419 22.1332 407.789 22.3932 407.149C22.4532 406.989 22.5032 406.829 22.5432 406.679C22.7032 406.639 22.8632 406.589 23.0132 406.529C23.6432 406.279 24.2732 405.939 24.9132 405.259C24.2832 404.579 23.6532 404.249 23.0132 403.989Z" fill="#BCDFEB"/>
<path d="M292.084 103.759C291.924 103.699 291.764 103.649 291.604 103.599C291.564 103.439 291.514 103.289 291.454 103.129C291.194 102.499 290.864 101.869 290.194 101.229C289.524 101.859 289.184 102.489 288.934 103.129C288.874 103.289 288.824 103.449 288.774 103.609C288.614 103.649 288.454 103.709 288.294 103.769C287.664 104.029 287.034 104.359 286.394 105.029C287.024 105.699 287.654 106.039 288.294 106.289C288.454 106.349 288.604 106.399 288.764 106.439C288.804 106.599 288.864 106.759 288.924 106.919C289.174 107.549 289.514 108.179 290.194 108.819C290.874 108.189 291.204 107.559 291.464 106.919C291.524 106.759 291.574 106.599 291.614 106.449C291.774 106.409 291.934 106.359 292.084 106.299C292.714 106.049 293.344 105.709 293.984 105.029C293.344 104.349 292.714 104.019 292.084 103.759Z" fill="#BCDFEB"/>
<path d="M108.433 39.3987C108.273 39.3387 108.113 39.2887 107.953 39.2387C107.913 39.0787 107.863 38.9287 107.803 38.7687C107.543 38.1387 107.213 37.5087 106.543 36.8687C105.873 37.4987 105.533 38.1287 105.283 38.7687C105.223 38.9287 105.173 39.0887 105.123 39.2487C104.963 39.2887 104.803 39.3487 104.643 39.4087C104.013 39.6687 103.383 39.9987 102.743 40.6687C103.373 41.3387 104.003 41.6787 104.643 41.9287C104.803 41.9887 104.953 42.0387 105.113 42.0787C105.153 42.2387 105.213 42.3987 105.273 42.5587C105.523 43.1887 105.863 43.8187 106.543 44.4587C107.223 43.8287 107.553 43.1987 107.813 42.5587C107.873 42.3987 107.923 42.2387 107.963 42.0887C108.123 42.0487 108.283 41.9987 108.433 41.9387C109.063 41.6887 109.693 41.3487 110.333 40.6687C109.693 39.9887 109.063 39.6487 108.433 39.3987Z" fill="#BCDFEB"/>
<path d="M500.883 209.889C500.723 209.829 500.563 209.779 500.403 209.729C500.363 209.569 500.313 209.419 500.253 209.259C499.993 208.629 499.663 207.999 498.993 207.359C498.323 207.989 497.983 208.619 497.733 209.259C497.673 209.419 497.623 209.579 497.573 209.739C497.413 209.779 497.253 209.839 497.093 209.899C496.463 210.159 495.833 210.489 495.193 211.159C495.823 211.829 496.453 212.169 497.093 212.419C497.253 212.479 497.403 212.529 497.563 212.569C497.603 212.729 497.663 212.889 497.723 213.049C497.973 213.679 498.313 214.309 498.993 214.949C499.673 214.319 500.003 213.689 500.263 213.049C500.323 212.889 500.373 212.729 500.413 212.579C500.573 212.539 500.733 212.489 500.883 212.429C501.513 212.179 502.143 211.839 502.783 211.159C502.143 210.479 501.513 210.139 500.883 209.889Z" fill="#BCDFEB"/>
<path d="M313.223 143.659C313.063 143.599 312.903 143.549 312.743 143.499C312.703 143.339 312.653 143.189 312.593 143.029C312.333 142.399 312.003 141.769 311.333 141.129C310.663 141.759 310.323 142.389 310.073 143.029C310.013 143.189 309.963 143.349 309.913 143.509C309.753 143.549 309.593 143.609 309.433 143.669C308.803 143.929 308.173 144.259 307.533 144.929C308.163 145.599 308.793 145.939 309.433 146.189C309.593 146.249 309.743 146.299 309.903 146.339C309.943 146.499 310.003 146.659 310.063 146.819C310.313 147.449 310.653 148.079 311.333 148.719C312.013 148.089 312.343 147.459 312.603 146.819C312.663 146.659 312.713 146.499 312.753 146.349C312.913 146.309 313.073 146.259 313.223 146.199C313.853 145.949 314.483 145.609 315.123 144.929C314.483 144.249 313.853 143.919 313.223 143.659Z" fill="#DBF6FF"/>
<path d="M241.734 68.6287C241.454 68.5187 241.174 68.4287 240.894 68.3587C240.814 68.0787 240.724 67.8087 240.624 67.5287C240.174 66.4187 239.584 65.3087 238.404 64.1987C237.224 65.3087 236.634 66.4187 236.184 67.5287C236.074 67.8087 235.984 68.0887 235.914 68.3587C235.634 68.4387 235.354 68.5287 235.084 68.6287C233.974 69.0787 232.864 69.6687 231.754 70.8487C232.864 72.0287 233.974 72.6187 235.084 73.0687C235.364 73.1787 235.634 73.2587 235.914 73.3387C235.994 73.6187 236.084 73.8987 236.184 74.1787C236.634 75.2887 237.224 76.3987 238.414 77.5087C239.604 76.3987 240.194 75.2887 240.644 74.1787C240.744 73.8987 240.834 73.6287 240.914 73.3487C241.194 73.2687 241.464 73.1787 241.744 73.0787C242.854 72.6287 243.964 72.0387 245.074 70.8487C243.954 69.6687 242.844 69.0787 241.734 68.6287Z" fill="#BCDFEB"/>
<path d="M71.9634 149.369C71.6834 149.259 71.4034 149.169 71.1234 149.099C71.0434 148.819 70.9534 148.549 70.8534 148.269C70.4034 147.159 69.8134 146.049 68.6334 144.939C67.4534 146.049 66.8634 147.159 66.4134 148.269C66.3034 148.549 66.2134 148.829 66.1434 149.099C65.8634 149.179 65.5834 149.269 65.3134 149.369C64.2034 149.819 63.0934 150.409 61.9834 151.589C63.0934 152.769 64.2034 153.359 65.3134 153.809C65.5934 153.919 65.8634 154.009 66.1434 154.079C66.2234 154.359 66.3134 154.639 66.4134 154.919C66.8634 156.029 67.4534 157.139 68.6434 158.249C69.8334 157.139 70.4234 156.029 70.8734 154.919C70.9734 154.639 71.0634 154.369 71.1434 154.089C71.4234 154.009 71.6934 153.919 71.9734 153.819C73.0834 153.369 74.1934 152.779 75.3034 151.589C74.1834 150.399 73.0734 149.809 71.9634 149.369Z" fill="#BCDFEB"/>
<path d="M430.784 122.509C430.504 122.399 430.224 122.309 429.944 122.239C429.864 121.959 429.774 121.689 429.674 121.409C429.224 120.299 428.634 119.189 427.454 118.079C426.274 119.189 425.684 120.299 425.234 121.409C425.124 121.689 425.034 121.969 424.964 122.239C424.684 122.319 424.404 122.409 424.134 122.509C423.024 122.959 421.914 123.549 420.804 124.729C421.914 125.909 423.024 126.499 424.134 126.949C424.414 127.059 424.684 127.139 424.964 127.219C425.044 127.499 425.134 127.779 425.234 128.059C425.684 129.169 426.274 130.279 427.464 131.389C428.654 130.279 429.244 129.169 429.694 128.059C429.794 127.779 429.884 127.509 429.964 127.229C430.244 127.149 430.514 127.059 430.794 126.959C431.904 126.509 433.014 125.919 434.124 124.729C432.994 123.539 431.884 122.949 430.784 122.509Z" fill="#DBF6FF"/>
<path d="M596.963 85.1487C596.683 85.0387 596.403 84.9487 596.123 84.8787C596.043 84.5987 595.953 84.3287 595.853 84.0487C595.403 82.9387 594.813 81.8287 593.633 80.7187C592.453 81.8287 591.863 82.9387 591.413 84.0487C591.303 84.3287 591.213 84.6087 591.143 84.8787C590.863 84.9587 590.583 85.0487 590.313 85.1487C589.203 85.5987 588.093 86.1887 586.983 87.3687C588.093 88.5487 589.203 89.1387 590.313 89.5887C590.593 89.6987 590.863 89.7787 591.143 89.8587C591.223 90.1387 591.313 90.4187 591.413 90.6987C591.863 91.8087 592.453 92.9187 593.643 94.0287C594.833 92.9187 595.423 91.8087 595.873 90.6987C595.973 90.4187 596.063 90.1487 596.143 89.8687C596.423 89.7887 596.693 89.6987 596.973 89.5987C598.083 89.1487 599.193 88.5587 600.303 87.3687C599.183 86.1887 598.073 85.5987 596.963 85.1487Z" fill="#DBF6FF"/>
<path d="M422.603 33.8187C422.323 33.7087 422.043 33.6187 421.763 33.5487C421.683 33.2687 421.593 32.9987 421.493 32.7187C421.043 31.6087 420.453 30.4987 419.273 29.3887C418.093 30.4987 417.503 31.6087 417.053 32.7187C416.943 32.9987 416.853 33.2787 416.783 33.5487C416.503 33.6287 416.223 33.7187 415.953 33.8187C414.843 34.2687 413.733 34.8587 412.623 36.0387C413.733 37.2187 414.843 37.8087 415.953 38.2587C416.233 38.3587 416.503 38.4487 416.783 38.5287C416.863 38.8087 416.953 39.0887 417.053 39.3687C417.503 40.4787 418.093 41.5887 419.283 42.6987C420.473 41.5887 421.063 40.4787 421.513 39.3687C421.613 39.0887 421.703 38.8187 421.783 38.5387C422.063 38.4587 422.333 38.3687 422.613 38.2687C423.723 37.8187 424.833 37.2287 425.943 36.0387C424.823 34.8587 423.713 34.2687 422.603 33.8187Z" fill="#DBF6FF"/>
</svg>
