<svg width="527" height="531" viewBox="0 0 527 531" fill="none" xmlns="http://www.w3.org/2000/svg">
<path d="M504.586 154.39C518.479 27.8513 395.799 -16.1118 308.829 16.2883C221.153 48.9498 200.827 -5.19276 77.5406 10.2766C-47.291 25.941 16.0887 221.899 16.0887 221.899C16.0887 221.899 35.9521 392.295 59.4839 470.838C82.8889 548.957 306.925 520.694 361.424 518.362C415.61 516.044 462.695 520.518 509.84 434.744C556.898 349.128 490.74 280.512 504.586 154.39Z" fill="#F4F7FA"/>
<path d="M375.945 7.71654C368.15 2.27847 356.809 -0.102022 347.397 0.00334413C280.671 0.752615 282.382 140.213 295.096 170.367C307.808 200.521 302.058 211.237 251.143 231.743C200.227 252.248 227.857 281.405 235.726 299.138C243.595 316.871 257.471 331.255 220.873 352.523C184.276 373.792 198.434 383.944 198.434 383.944C198.434 383.944 274.575 450.02 268.807 427.337C263.037 404.652 267.213 369.343 329.97 361.532C357.001 358.168 397.477 341.815 404.289 312.016C405.875 305.077 406.517 294.625 404.312 287.758C401.254 278.234 394.251 271.105 389.963 262.258C379.965 241.637 399.37 224.34 410.103 209.126C415.707 201.184 421.294 193.05 425.356 184.185C433.791 165.781 428.542 147.217 416.451 131.883C410.652 124.531 402.804 116.868 399.793 107.777C396.558 98.0115 397.545 84.226 397.278 73.9275C397.067 65.8513 397.174 57.7811 396.062 49.7576C393.99 34.8347 388.975 16.8092 375.945 7.71654Z" fill="url(#paint0_linear_2773_798)"/>
<mask id="mask0_2773_798" style="mask-type:luminance" maskUnits="userSpaceOnUse" x="195" y="0" width="235" height="433">
<path d="M375.945 7.71654C368.15 2.27847 356.809 -0.102022 347.397 0.00334413C280.671 0.752615 282.382 140.213 295.096 170.367C307.808 200.521 302.058 211.237 251.143 231.743C200.227 252.248 227.857 281.405 235.726 299.138C243.595 316.871 257.471 331.255 220.873 352.523C184.276 373.792 198.434 383.944 198.434 383.944C198.434 383.944 274.575 450.02 268.807 427.337C263.037 404.652 267.213 369.343 329.97 361.532C357.001 358.168 397.477 341.815 404.289 312.016C405.875 305.077 406.517 294.625 404.312 287.758C401.254 278.234 394.251 271.105 389.963 262.258C379.965 241.637 399.37 224.34 410.103 209.126C415.707 201.184 421.294 193.05 425.356 184.185C433.791 165.781 428.542 147.217 416.451 131.883C410.652 124.531 402.804 116.868 399.793 107.777C396.558 98.0115 397.545 84.226 397.278 73.9275C397.067 65.8513 397.174 57.7811 396.062 49.7576C393.99 34.8347 388.975 16.8092 375.945 7.71654Z" fill="white"/>
</mask>
<g mask="url(#mask0_2773_798)">
<g opacity="0.8">
<path d="M196.224 424.721C195.783 424.922 195.252 424.772 194.985 424.35C194.694 423.892 194.831 423.283 195.291 422.992C195.574 422.814 223.865 404.83 254.747 376.504C283.202 350.402 319.742 309.93 332.22 265.347C342.642 228.109 349.945 167.368 352.259 98.6944C354.333 37.1157 351.748 -8.09033 348.049 -16.2172C347.824 -16.7128 348.043 -17.2962 348.536 -17.5206C349.032 -17.745 349.615 -17.5265 349.84 -17.0328C354.168 -7.52643 356.095 43.3362 354.228 98.7607C351.91 167.584 344.579 228.496 334.117 265.877C321.51 310.919 284.708 351.7 256.052 377.979C225.043 406.418 196.626 424.479 196.343 424.656C196.306 424.682 196.265 424.703 196.224 424.721Z" fill="white"/>
<path d="M353.124 110.529C352.632 110.753 352.104 110.653 351.875 110.162C351.575 109.512 321.38 45.0084 288.254 32.6064C287.744 32.4152 287.498 31.8766 287.69 31.3693C287.881 30.86 288.455 30.6161 288.964 30.8074C322.847 43.4923 352.414 106.642 353.659 109.329C353.887 109.822 353.624 110.302 353.13 110.527C353.128 110.527 353.126 110.529 353.124 110.529Z" fill="white"/>
<path d="M347.405 188.677C347.038 188.845 346.589 188.773 346.29 188.466C345.912 188.076 345.92 187.454 346.31 187.075C346.48 186.911 363.459 170.478 384.895 156.099C413.859 136.671 436.734 130.033 452.884 136.369C453.389 136.568 453.639 137.137 453.44 137.645C453.241 138.15 452.671 138.4 452.164 138.201C415.007 123.623 348.349 187.836 347.68 188.486C347.598 188.568 347.504 188.632 347.405 188.677Z" fill="white"/>
<path d="M281.09 352.904C280.994 352.947 280.889 352.976 280.778 352.988C280.237 353.041 279.755 352.644 279.703 352.104C279.675 351.819 276.825 323.314 268.38 293.727C260.635 266.599 246.485 232.986 223.053 226.896C222.526 226.759 222.212 226.223 222.348 225.696C222.485 225.169 223.022 224.853 223.548 224.991C243.088 230.068 258.811 253.021 270.28 293.212C278.772 322.968 281.634 351.628 281.664 351.913C281.705 352.342 281.463 352.734 281.09 352.904Z" fill="white"/>
<path d="M317.834 303.454C317.447 303.63 316.979 303.54 316.684 303.206C316.327 302.796 316.368 302.176 316.778 301.817C319.744 299.222 389.758 238.32 419.247 241.165C419.787 241.218 420.185 241.698 420.132 242.238C420.08 242.779 419.6 243.177 419.059 243.124C390.406 240.361 318.796 302.67 318.076 303.298C317.999 303.364 317.918 303.415 317.834 303.454Z" fill="white"/>
</g>
</g>
<path d="M508.515 68.7431C503.674 60.5635 494.337 53.6991 485.726 49.8962C424.686 22.9361 368.467 150.572 367.546 183.284C366.625 215.996 356.949 223.366 302.116 220.937C247.283 218.505 260.348 256.49 260.163 275.889C259.977 295.288 266.648 314.129 224.527 318.326C182.408 322.521 191.089 337.628 191.089 337.628C191.089 337.628 233.015 429.312 237.162 406.276C241.308 383.24 259.737 352.832 320.093 371.722C346.089 379.858 389.701 381.743 408.247 357.442C412.565 351.784 417.48 342.537 418.317 335.374C419.48 325.439 416.06 316.049 415.822 306.219C415.265 283.31 440.091 275.604 456.163 266.205C464.553 261.298 473.006 256.209 480.378 249.825C495.679 236.568 498.595 217.499 493.941 198.533C491.711 189.438 487.742 179.214 488.766 169.692C489.867 159.463 496.477 147.325 500.501 137.842C503.656 130.404 507.096 123.102 509.406 115.34C513.703 100.899 516.608 82.4153 508.515 68.7431Z" fill="url(#paint1_linear_2773_798)"/>
<mask id="mask1_2773_798" style="mask-type:luminance" maskUnits="userSpaceOnUse" x="190" y="46" width="324" height="364">
<path d="M508.515 68.7431C503.674 60.5635 494.337 53.6991 485.726 49.8962C424.686 22.9361 368.467 150.572 367.546 183.284C366.625 215.996 356.949 223.366 302.116 220.937C247.283 218.505 260.348 256.49 260.163 275.889C259.977 295.288 266.648 314.129 224.527 318.326C182.408 322.521 191.089 337.628 191.089 337.628C191.089 337.628 233.015 429.312 237.162 406.276C241.308 383.24 259.737 352.832 320.093 371.722C346.089 379.858 389.701 381.743 408.247 357.442C412.565 351.784 417.48 342.537 418.317 335.374C419.48 325.439 416.06 316.049 415.822 306.219C415.265 283.31 440.091 275.604 456.163 266.205C464.553 261.298 473.006 256.209 480.378 249.825C495.679 236.568 498.595 217.499 493.941 198.533C491.711 189.438 487.742 179.214 488.766 169.692C489.867 159.463 496.477 147.325 500.501 137.842C503.656 130.404 507.096 123.102 509.406 115.34C513.703 100.899 516.608 82.4153 508.515 68.7431Z" fill="white"/>
</mask>
<g mask="url(#mask1_2773_798)">
<g opacity="0.8">
<path d="M172.182 373.823C171.698 373.823 171.277 373.466 171.209 372.972C171.134 372.434 171.511 371.936 172.05 371.864C172.379 371.819 205.581 367.171 245.423 354.184C282.136 342.217 332.159 320.519 361.986 285.111C386.897 255.538 418.71 203.278 449.266 141.735C476.665 86.548 493.038 44.3332 493.038 35.4025C493.038 34.8581 493.479 34.4191 494.021 34.4191C494.566 34.4191 495.005 34.86 495.005 35.4025C495.005 45.8474 475.688 92.9383 451.026 142.609C420.403 204.287 388.497 256.689 363.488 286.377C333.355 322.149 282.963 344.018 245.995 356.065C205.991 369.101 172.645 373.766 172.313 373.811C172.272 373.821 172.227 373.823 172.182 373.823Z" fill="white"/>
<path d="M445.151 153.128C444.61 153.128 444.169 152.687 444.167 152.144C444.164 151.428 443.405 80.1441 418.394 55.1333C418.009 54.7489 418.009 54.1245 418.394 53.7401C418.778 53.3557 419.401 53.3557 419.785 53.7401C445.367 79.3226 446.117 149.171 446.136 152.133C446.14 152.675 445.703 153.128 445.159 153.128C445.155 153.128 445.153 153.128 445.151 153.128Z" fill="white"/>
<path d="M407.569 221.62C407.165 221.62 406.786 221.37 406.642 220.968C406.458 220.457 406.726 219.893 407.237 219.709C407.459 219.629 429.721 211.709 455.188 207.503C489.598 201.819 513.167 205.255 525.243 217.711C525.622 218.102 525.612 218.724 525.222 219.103C524.831 219.481 524.209 219.471 523.83 219.081C496.051 190.42 408.78 221.247 407.902 221.561C407.791 221.6 407.678 221.62 407.569 221.62Z" fill="white"/>
<path d="M279.175 343.616C279.07 343.616 278.963 343.599 278.857 343.563C278.342 343.388 278.069 342.828 278.245 342.313C278.336 342.041 287.552 314.918 292.124 284.49C296.313 256.591 297.361 220.135 278.557 204.886C278.135 204.543 278.069 203.924 278.412 203.501C278.754 203.077 279.374 203.013 279.798 203.356C295.478 216.072 300.28 243.475 294.067 284.808C289.468 315.407 280.202 342.68 280.108 342.951C279.966 343.359 279.583 343.616 279.175 343.616Z" fill="white"/>
<path d="M333.105 313.833C332.682 313.833 332.292 313.557 332.163 313.13C332.007 312.609 332.301 312.061 332.822 311.905C336.596 310.773 425.551 284.348 451.211 299.154C451.681 299.425 451.843 300.028 451.572 300.498C451.301 300.968 450.698 301.13 450.228 300.859C425.293 286.474 334.303 313.516 333.388 313.792C333.295 313.819 333.199 313.833 333.105 313.833Z" fill="white"/>
</g>
</g>
<path d="M395.675 61.3206L62.7046 42.0581C55.0362 41.6835 48.1328 50.0523 48.1328 57.0786V485.841C48.1328 495.585 58.088 497.548 65.7563 496.764L395.675 463.07C401.703 462.456 406.567 456.939 406.567 450.75V73.0592C406.567 66.8699 401.703 61.6152 395.675 61.3206Z" fill="url(#paint2_linear_2773_798)"/>
<path d="M401.152 57.9138L67.5236 41.502C59.8552 41.1254 53.6094 46.5576 53.6094 53.6406V485.751C53.6094 492.832 59.8552 497.931 67.5236 497.142L401.152 462.803C407.179 462.182 412.044 456.625 412.044 450.387V69.746C412.044 63.5079 407.177 58.2103 401.152 57.9138Z" fill="#D8DEE8"/>
<path opacity="0.3" d="M67.5239 491.283C63.3873 491.7 60.0137 488.936 60.0137 485.121V53.9274C60.0137 50.1108 63.3873 47.1664 67.5239 47.3615L401.152 63.1216C404.411 63.2757 407.055 66.146 407.055 69.5216V450.879C407.055 454.255 404.411 457.267 401.152 457.595L67.5239 491.283Z" fill="url(#paint3_linear_2773_798)"/>
<path d="M379.65 447.371L94.2949 474.863V77.0514L379.65 87.7987V447.371Z" fill="white"/>
<path opacity="0.3" d="M265.516 89.7461L151.473 91.1724L154.031 65.4533C154.224 62.1109 156.64 59.3674 159.82 58.8796L179.133 55.9118C181.406 55.5625 183.365 54.0601 184.359 51.902L186.452 47.3537L236.97 50.4737L265.516 89.7461Z" fill="#97A6B7"/>
<path d="M326.416 73.0611C325.876 70.1519 323.544 68.1089 320.607 67.9782L302.385 67.1606C294.114 66.7899 288.051 60.0699 288.354 51.5606L289.056 31.8376C289.187 28.1907 286.582 25.2678 283.001 25.0532L277.015 24.6961C272.449 24.4229 269.409 20.3995 270.051 15.7458C271.171 7.61312 265.598 0.594563 257.522 0.0443177C249.384 -0.50983 241.786 5.70873 240.574 13.9449C240.394 15.1683 239.981 16.378 239.307 17.4571C237.427 20.4737 234.131 22.1341 230.904 21.9429L224.728 21.5741C220.985 21.3497 217.43 23.9781 216.482 27.6737L211.346 47.6932C209.126 56.3508 200.747 62.6084 191.852 62.2084L171.861 61.3128C168.587 61.1665 165.376 63.0748 163.867 66.066L151.822 89.9685C150.835 91.9256 152.051 94.0407 154.201 94.1129L327.554 99.871C329.45 99.9334 331.06 98.0427 330.711 96.1617L326.416 73.0611ZM255.062 17.1117C252.673 16.9634 251.017 14.8873 251.364 12.4756C251.711 10.0639 253.93 8.23361 256.318 8.38971C258.701 8.5458 260.35 10.62 260.002 13.0258C259.655 15.4297 257.446 17.26 255.062 17.1117Z" fill="url(#paint4_linear_2773_798)"/>
<path d="M327.443 73.5958C326.903 70.6865 324.571 68.6436 321.633 68.5128L303.41 67.6953C295.139 67.3245 289.076 60.6045 289.379 52.0933L290.081 32.3703C290.212 28.7234 287.607 25.8005 284.027 25.5859L278.04 25.2288C273.474 24.9556 270.434 20.9322 271.076 16.2785C272.196 8.1458 266.624 1.12725 258.548 0.577002C250.409 0.022854 242.811 6.24141 241.599 14.4775C241.42 15.7009 241.006 16.9107 240.333 17.9897C238.452 21.0063 235.156 22.6668 231.929 22.4756L225.753 22.1068C222.011 21.8824 218.456 24.5107 217.507 28.2064L212.372 48.2259C210.151 56.8835 201.773 63.1411 192.877 62.7411L172.889 61.8435C169.615 61.6972 166.403 63.6055 164.895 66.5967L152.85 90.4992C151.862 92.4563 153.078 94.5714 155.228 94.6436L328.581 100.402C330.478 100.464 332.087 98.5734 331.738 96.6924L327.443 73.5958ZM256.089 17.6463C253.701 17.498 252.044 15.4219 252.391 13.0102C252.739 10.5985 254.957 8.76825 257.346 8.92435C259.728 9.08044 261.377 11.1546 261.03 13.5605C260.684 15.9644 258.473 17.7946 256.089 17.6463Z" fill="#97A6B7"/>
<path opacity="0.5" d="M297.777 84.5792C282.313 75.0338 270.448 81.8026 260.811 71.0358C250.495 59.5099 257.453 44.3371 246.778 37.1761C239.945 32.5927 233.847 36.6357 225.9 35.3947C222.99 34.94 219.884 33.783 216.657 31.5293L212.374 48.2259C210.153 56.8835 201.775 63.1411 192.879 62.7411L172.889 61.8455C169.615 61.6991 166.403 63.6074 164.895 66.5987L152.85 90.5012C151.862 92.4583 153.078 94.5734 155.228 94.6436L312.77 99.8768C308.799 93.5744 303.871 88.3412 297.777 84.5792Z" fill="white"/>
<path d="M163.013 218.223C132.299 219.216 106.314 195.319 106.314 164.507C106.314 133.241 132.986 108.632 164.477 110.013C194.631 111.336 217.612 136.179 216.859 165.087C216.118 193.604 192.453 217.27 163.013 218.223Z" fill="#D8DEE8"/>
<path d="M213.326 165.067C212.652 191.741 190.578 213.762 163.064 214.582C134.44 215.434 110.397 193.196 110.426 164.529C110.453 135.469 135.13 112.632 164.428 113.838C192.563 114.995 214.007 138.055 213.326 165.067Z" fill="white"/>
<mask id="mask2_2773_798" style="mask-type:luminance" maskUnits="userSpaceOnUse" x="114" y="117" width="96" height="94">
<path d="M209.769 165.05C209.164 189.822 188.645 210.24 163.109 210.937C136.623 211.659 114.455 191.036 114.506 164.552C114.559 137.735 137.308 116.616 164.369 117.656C190.44 118.657 210.379 139.982 209.769 165.05Z" fill="white"/>
</mask>
<g mask="url(#mask2_2773_798)">
<path d="M110.389 199.633C110.389 199.633 157.271 172.794 212.5 197.735C212.5 197.735 205.037 219.487 162.961 222.018C118.26 224.705 110.389 199.633 110.389 199.633Z" fill="url(#paint5_linear_2773_798)"/>
<path d="M155.564 164.765L153.689 177.296C153.098 185.237 144.953 188.302 144.953 188.302C154.348 199.06 172.331 198.34 178.739 188.021C174.45 186.5 169.693 180.033 169.572 175.467L169.289 164.835L155.564 164.765Z" fill="url(#paint6_linear_2773_798)"/>
<path d="M176.613 153.85C176.439 164.394 169.796 175.68 161.747 175.7C153.606 175.719 147.048 164.23 147.152 153.463C147.255 142.642 154.039 136.866 162.252 137.071C170.369 137.274 176.787 143.253 176.613 153.85Z" fill="url(#paint7_linear_2773_798)"/>
<path d="M146.682 156.181C147.508 156.064 148.333 155.947 149.156 155.83C148.788 154.944 147.266 151.011 149.238 147.614C151.133 144.353 155.525 142.833 158.852 143.118C162.622 143.44 164.858 145.186 166.76 143.906C167.83 143.188 168.193 141.85 168.327 140.804C168.401 141.475 168.575 142.472 169.047 143.576C170.397 146.745 172.749 147.44 173.999 149.532C174.84 150.938 175.363 153.274 173.875 157.352C174.585 157.319 175.295 157.284 176.003 157.251C176.79 154.962 177.74 151.713 178.364 147.727C179.293 141.795 179.935 137.705 177.611 135.645C177.147 135.233 175.09 133.594 170.07 134.954C168.915 133.719 166.468 131.444 162.661 130.218C161.34 129.793 154.77 127.68 148.852 131.664C144.819 134.378 141.629 139.565 142.602 143.934C143.115 146.238 144.565 147.295 145.806 151.742C146.335 153.616 146.567 155.186 146.682 156.181Z" fill="url(#paint8_linear_2773_798)"/>
<path d="M174.533 157.727C174.533 157.727 175.54 153.108 178.358 153.604C181.165 154.099 177.003 161.621 174.455 162.511L174.533 157.727Z" fill="url(#paint9_linear_2773_798)"/>
<path d="M148.965 157.463C148.965 157.463 148.044 152.734 145.09 153.163C142.124 153.594 146.29 161.389 148.916 162.336L148.965 157.463Z" fill="url(#paint10_linear_2773_798)"/>
</g>
<path d="M370.815 152.862L253.354 152.283V136.56L370.815 137.77V152.862Z" fill="#D8DEE8"/>
<path d="M370.815 171.891L253.354 172.109V160.488L370.815 160.736V171.891Z" fill="#D8DEE8"/>
<path d="M370.815 190.921L253.354 191.936V180.314L370.815 179.766V190.921Z" fill="#D8DEE8"/>
<path d="M128.104 257.858L112.527 258.349V241.153L128.104 240.751V257.858Z" fill="url(#paint11_linear_2773_798)"/>
<path d="M370.814 248.664L139.783 255.411V243.337L370.814 237.508V248.664Z" fill="#D8DEE8"/>
<path d="M128.104 284.229L112.527 284.863V267.667L128.104 267.122V284.229Z" fill="url(#paint12_linear_2773_798)"/>
<path d="M370.814 272.943L139.783 281.69V269.616L370.814 261.788V272.943Z" fill="#D8DEE8"/>
<path d="M128.104 309.887L112.527 310.66V294.178L128.104 293.495V309.887Z" fill="url(#paint13_linear_2773_798)"/>
<path d="M370.814 297.222L139.783 307.971V295.895L370.814 286.067V297.222Z" fill="#D8DEE8"/>
<path d="M128.104 336.258L112.527 337.171V320.691L128.104 319.866V336.258Z" fill="url(#paint14_linear_2773_798)"/>
<path d="M370.814 321.499L139.783 334.25V322.176L370.814 310.346V321.499Z" fill="#D8DEE8"/>
<path d="M370.814 357.589L113.826 375.052V362.159L370.814 345.778V357.589Z" fill="#D8DEE8"/>
<path d="M370.814 379.899L113.826 399.404V387.228L370.814 368.744V379.899Z" fill="#D8DEE8"/>
<path d="M370.814 402.209L113.826 423.755V411.579L370.814 391.054V402.209Z" fill="#D8DEE8"/>
<path d="M370.814 424.52L113.826 448.106V435.93L370.814 413.365V424.52Z" fill="#D8DEE8"/>
<path d="M134.866 498.549C140.154 502.824 148.191 501.65 152.822 495.925C157.45 490.2 156.917 482.093 151.629 477.818C151.356 477.595 151.069 477.398 150.783 477.205C152.642 473.888 154.236 470.485 155.557 467.021C155.897 467.094 156.24 467.16 156.593 467.203C163.487 468.042 170.182 462.973 171.548 455.876C172.913 448.781 168.431 442.348 161.538 441.507C161.177 441.464 160.818 441.445 160.461 441.433C160.502 437.78 160.262 434.155 159.747 430.584C160.096 430.469 160.447 430.346 160.794 430.2C167.446 427.38 171.003 419.772 168.74 413.207C166.476 406.643 159.247 403.607 152.595 406.426C152.254 406.57 151.928 406.736 151.604 406.904C149.858 403.889 147.85 401.013 145.592 398.297C145.85 398.026 146.104 397.749 146.344 397.452C150.972 391.727 156.728 385.624 151.374 381.431C138.989 371.733 131.826 376.246 127.196 381.969C126.956 382.266 126.74 382.572 126.527 382.881C123.399 381.242 120.166 379.882 116.853 378.805C116.95 378.451 117.042 378.098 117.112 377.735C118.478 370.641 121.389 367.263 114.626 365.683C99.881 362.237 93.5141 367.597 92.1483 374.693C92.0761 375.064 92.0312 375.431 91.9902 375.798C88.3902 376.042 84.7941 376.566 81.2312 377.37C81.1434 377.023 81.0517 376.676 80.9326 376.332C78.6692 369.768 71.4399 366.732 64.7882 369.552C58.1365 372.373 54.5794 379.981 56.8428 386.545C56.9579 386.881 57.0965 387.203 57.237 387.519C54.1267 389.534 51.1335 391.807 48.2789 394.319C48.0311 394.077 47.7774 393.841 47.5023 393.618C42.2145 389.343 34.1774 390.518 29.5471 396.243C24.9188 401.968 25.4515 410.075 30.7393 414.35C31.0125 414.572 31.2993 414.77 31.5861 414.963C29.7266 418.28 28.1325 421.683 26.8115 425.146C26.472 425.074 26.1286 425.008 25.7754 424.965C18.8817 424.126 12.1871 429.197 10.8212 436.292C9.45535 443.386 13.9373 449.819 20.831 450.66C21.192 450.705 21.551 450.723 21.9081 450.735C21.8671 454.387 22.1071 458.013 22.6222 461.583C22.273 461.698 21.9217 461.821 21.5744 461.968C14.9227 464.787 11.3656 472.397 13.629 478.961C15.8924 485.525 26.9208 490.703 33.5725 487.884C33.914 487.739 30.4408 485.433 30.7647 485.263C32.511 488.278 34.5188 491.154 36.7764 493.87C36.5188 494.141 36.2652 494.419 36.0252 494.715C31.3969 500.44 31.9296 508.547 37.2174 512.822C42.5052 517.098 50.5423 515.923 55.1726 510.198C55.4126 509.902 55.6292 509.595 55.8418 509.287C58.9696 510.926 62.2028 512.286 65.516 513.363C65.4184 513.716 65.3267 514.069 65.2565 514.432C63.8906 521.527 68.3726 527.96 75.2663 528.801C82.16 529.64 88.8546 524.569 90.2205 517.474C90.2927 517.104 90.3375 516.737 90.3785 516.37C93.9785 516.126 97.5746 515.601 101.138 514.797C101.225 515.144 101.317 515.492 101.436 515.835C103.7 522.399 110.929 525.435 117.581 522.616C124.232 519.796 127.789 512.188 125.526 505.622C125.411 505.287 125.272 504.967 125.132 504.649C128.242 502.633 131.235 500.36 134.09 497.849C134.34 498.091 134.593 498.329 134.866 498.549ZM60.7531 483.722C41.5569 468.2 39.6193 438.768 56.4272 417.981C73.2351 397.195 102.421 392.928 121.618 408.45C140.814 423.972 142.751 453.404 125.944 474.19C109.136 494.977 79.9492 499.244 60.7531 483.722Z" fill="url(#paint15_linear_2773_798)"/>
<path d="M156.594 467.205C163.488 468.044 170.183 462.973 171.548 455.878C172.914 448.783 168.432 442.35 161.539 441.509C161.178 441.464 160.819 441.447 160.462 441.435C160.503 437.782 160.262 434.157 159.747 430.586C160.097 430.471 160.448 430.348 160.795 430.2C167.447 427.38 176.698 419.109 173.771 412.812C168.218 400.859 159.248 403.607 152.594 406.428C152.253 406.572 151.927 406.738 151.603 406.906C149.857 403.891 147.849 401.015 145.591 398.299C145.849 398.028 146.102 397.751 146.342 397.454C148.861 394.338 149.841 390.52 149.367 386.994C141.679 395.64 134.056 404.344 126.522 413.123C141.012 429.371 141.189 455.337 125.944 474.192C113.025 490.169 92.7969 496.372 75.4096 491.345C74.1861 493.22 72.9744 495.109 71.7003 496.951C68.2408 501.952 64.4944 506.776 60.7441 511.589C62.3149 512.247 63.909 512.84 65.5207 513.365C65.4232 513.718 65.3315 514.071 65.2612 514.436C63.8954 521.531 66.9042 528.45 79.3042 530.415C86.1628 531.502 88.8594 524.575 90.2252 517.478C90.2974 517.107 90.3423 516.741 90.3833 516.374C93.9833 516.13 97.5794 515.605 101.142 514.801C101.23 515.148 101.322 515.496 101.441 515.839C103.704 522.405 115.337 527.468 121.989 524.649C128.641 521.829 127.796 512.19 125.531 505.626C125.416 505.291 125.277 504.969 125.137 504.653C128.247 502.637 131.24 500.366 134.095 497.853C134.342 498.095 134.596 498.333 134.871 498.553C140.159 502.828 148.196 501.654 152.826 495.929C157.455 490.204 156.922 482.096 151.634 477.823C151.361 477.601 151.074 477.404 150.787 477.211C152.647 473.894 154.241 470.491 155.562 467.027C155.898 467.094 156.241 467.162 156.594 467.205Z" fill="url(#paint16_linear_2773_798)"/>
<path d="M167.76 443.595C167.399 443.552 167.04 443.533 166.681 443.521C166.722 439.868 166.482 436.243 165.967 432.672C166.316 432.557 166.668 432.434 167.015 432.286C173.667 429.466 177.224 421.858 174.96 415.292C172.697 408.729 165.468 405.692 158.816 408.512C158.475 408.656 158.149 408.822 157.825 408.99C156.078 405.975 154.071 403.099 151.813 400.383C152.071 400.112 152.324 399.835 152.564 399.538C157.193 393.813 156.66 385.706 151.372 381.433C146.084 377.158 138.047 378.332 133.417 384.057C133.177 384.354 132.96 384.66 132.748 384.968C129.62 383.329 126.387 381.969 123.073 380.892C123.171 380.539 123.263 380.186 123.333 379.823C124.699 372.728 120.217 366.295 113.323 365.454C106.429 364.615 99.7348 369.686 98.369 376.781C98.2987 377.152 98.2519 377.519 98.2109 377.886C94.6109 378.129 91.0148 378.654 87.4519 379.458C87.3641 379.111 87.2724 378.764 87.1533 378.42C84.8899 371.856 77.6606 368.82 71.0089 371.64C64.3552 374.459 60.7981 382.069 63.0635 388.633C63.1786 388.968 63.3172 389.29 63.4577 389.607C60.3474 391.624 57.3542 393.893 54.4996 396.407C54.2518 396.165 53.9981 395.927 53.723 395.706C48.4352 391.431 40.3981 392.606 35.7678 398.33C31.1395 404.055 31.6722 412.163 36.96 416.438C37.2332 416.66 37.52 416.857 37.8069 417.05C35.9473 420.368 34.3532 423.771 33.0322 427.234C32.6927 427.162 32.3493 427.095 31.9961 427.052C25.1024 426.213 18.4078 431.283 17.0419 438.379C15.6761 445.474 20.158 451.907 27.0517 452.748C27.4127 452.793 27.7717 452.811 28.1288 452.822C28.0878 456.475 28.3278 460.1 28.8429 463.671C28.4937 463.786 28.1424 463.909 27.7951 464.056C21.1434 466.875 17.5843 474.485 19.8497 481.049C22.1151 487.613 29.3424 490.649 35.9942 487.829C36.3356 487.685 36.6615 487.519 36.9873 487.351C38.7337 490.366 40.7415 493.242 42.9991 495.958C42.7415 496.231 42.4878 496.506 42.2478 496.803C37.6195 502.528 38.1522 510.635 43.44 514.91C48.7279 519.185 56.765 518.011 61.3952 512.286C61.6352 511.989 61.8518 511.683 62.0645 511.375C65.1923 513.014 68.4255 514.374 71.7387 515.451C71.6411 515.804 71.5474 516.157 71.4792 516.522C70.1133 523.617 74.5953 530.05 81.4889 530.891C88.3826 531.73 95.0773 526.659 96.4431 519.564C96.5153 519.193 96.5602 518.826 96.6012 518.46C100.201 518.216 103.797 517.691 107.36 516.887C107.446 517.234 107.54 517.582 107.659 517.925C109.922 524.489 117.151 527.525 123.803 524.705C130.457 521.886 134.014 514.278 131.749 507.712C131.633 507.377 131.495 507.057 131.354 506.739C134.465 504.723 137.458 502.452 140.313 499.939C140.56 500.179 140.814 500.417 141.089 500.639C146.377 504.914 154.414 503.74 159.044 498.015C163.673 492.29 163.14 484.182 157.852 479.909C157.579 479.689 157.292 479.49 157.005 479.297C158.865 475.979 160.459 472.577 161.78 469.113C162.119 469.185 162.463 469.252 162.816 469.295C169.71 470.134 176.404 465.064 177.77 457.968C179.136 450.871 174.654 444.434 167.76 443.595ZM132.166 476.276C115.358 497.062 86.1719 501.328 66.9757 485.808C47.7796 470.286 45.842 440.853 62.6499 420.067C79.4577 399.281 108.644 395.015 127.84 410.537C147.036 426.057 148.974 455.492 132.166 476.276Z" fill="url(#paint17_linear_2773_798)"/>
<path d="M420.391 488.91L349.408 498.975C347.396 499.26 345.535 497.86 345.25 495.849C344.965 493.837 346.364 491.976 348.376 491.691L419.359 481.626C421.371 481.341 423.232 482.74 423.517 484.752C423.804 486.764 422.403 488.625 420.391 488.91Z" fill="#D8DEE8"/>
<path d="M439.306 478.797L423.634 481.019L422.371 472.112L438.043 469.89C438.223 469.864 438.391 469.989 438.416 470.171L439.587 478.424C439.612 478.604 439.487 478.772 439.306 478.797Z" fill="#D8DEE8"/>
<path d="M151.654 516.983L145.036 517.921C144.29 518.026 143.601 517.509 143.496 516.764C143.391 516.019 143.908 515.33 144.653 515.224L151.272 514.286L151.654 516.983Z" fill="#26264F"/>
<path d="M147.64 516.177C147.833 517.543 148.959 518.583 150.337 518.668L178.743 520.444L176.331 503.429L149.537 513.031C148.239 513.498 147.447 514.811 147.64 516.177Z" fill="#D8DEE8"/>
<path d="M149.283 514.739C149.336 515.113 150.341 515.299 151.689 515.185L179.18 510.501L178.519 505.841L151.469 513.642C150.144 513.905 149.231 514.364 149.283 514.739Z" fill="white"/>
<path d="M425.095 485.199L178.076 520.54C173.377 521.205 170.965 504.19 175.664 503.525L422.683 468.184C425.487 467.786 428.08 469.738 428.478 472.539L429.452 479.406C429.848 482.208 427.899 484.801 425.095 485.199Z" fill="url(#paint18_linear_2773_798)"/>
<path d="M369.898 482.971L175.72 510.821L175.152 506.811L369.329 478.961L369.898 482.971Z" fill="white"/>
<path d="M372.929 492.664L370.668 492.984L368.246 475.901L370.506 475.581L372.929 492.664Z" fill="url(#paint19_linear_2773_798)"/>
<path d="M422.307 468.249L420.047 468.569L422.468 485.653L424.728 485.333L422.307 468.249Z" fill="white"/>
<path opacity="0.3" d="M422.683 468.184L304.316 485.285C291.373 498.419 282.011 500.881 275.402 500.036C270.813 499.449 264.799 496.918 255.841 498.705C247.19 500.432 246.883 503.974 239.794 504.549C229.285 505.402 225.303 497.997 217.558 500.725C213.394 502.192 214.181 504.461 208.508 508.29C206.405 509.71 197.642 515.621 187.164 513.595C181.068 512.417 176.61 508.982 173.617 505.757C172.071 510.502 174.354 521.066 178.075 520.538L425.094 485.197C427.896 484.799 429.848 482.206 429.45 479.402L428.476 472.537C428.08 469.736 425.485 467.786 422.683 468.184Z" fill="url(#paint20_linear_2773_798)"/>
<path d="M339.109 314.213L467.642 402.204C470.751 404.344 475.051 403.651 477.241 400.648L478.616 398.766C480.811 395.759 480.052 391.577 476.919 389.443L474.347 387.696L369.732 316.574L348.229 301.954L339.109 314.213Z" fill="url(#paint21_linear_2773_798)"/>
<path d="M218.658 218.726C241.843 180.964 290.229 168.956 326.834 193.099C364.11 217.684 373.701 269.388 348.192 307.335C323.281 344.393 274.723 353.415 239.77 328.666C205.421 304.344 196.001 255.628 218.658 218.726ZM337.507 300.026C358.727 268.227 350.682 225.017 319.587 204.384C288.961 184.064 248.311 193.945 228.728 225.614C209.521 256.675 217.445 297.778 246.477 318.225C275.936 338.972 316.705 331.197 337.507 300.026Z" fill="url(#paint22_linear_2773_798)"/>
<path d="M214.93 221.421C238.115 183.659 286.501 171.651 323.106 195.791C360.382 220.377 369.973 272.08 344.464 310.028C319.553 347.085 270.995 356.108 236.043 331.358C201.695 307.038 192.275 258.324 214.93 221.421ZM333.779 302.72C354.999 270.921 346.954 227.711 315.859 207.079C285.233 186.759 244.583 196.64 225.001 228.308C205.793 259.37 213.717 300.473 242.749 320.919C272.21 341.669 312.979 333.893 333.779 302.72Z" fill="url(#paint23_linear_2773_798)"/>
<path d="M218.485 223.854C240.401 188.25 286.052 177.001 320.538 199.793C355.619 222.98 364.663 271.671 340.678 307.44C317.227 342.418 271.424 351.009 238.409 327.677C205.933 304.724 197.041 258.693 218.485 223.854ZM333.779 302.72C354.998 270.921 346.954 227.711 315.859 207.079C285.232 186.759 244.583 196.64 225 228.308C205.792 259.37 213.716 300.473 242.748 320.919C272.21 341.669 312.979 333.893 333.779 302.72Z" fill="url(#paint24_linear_2773_798)"/>
<defs>
<linearGradient id="paint0_linear_2773_798" x1="333.418" y1="-30.3821" x2="274.362" y2="829.21" gradientUnits="userSpaceOnUse">
<stop stop-color="#FFC444"/>
<stop offset="0.9964" stop-color="#F36F56"/>
</linearGradient>
<linearGradient id="paint1_linear_2773_798" x1="190.351" y1="228.084" x2="513.637" y2="228.084" gradientUnits="userSpaceOnUse">
<stop stop-color="#FF9085"/>
<stop offset="1" stop-color="#FB6FBB"/>
</linearGradient>
<linearGradient id="paint2_linear_2773_798" x1="48.1324" y1="269.483" x2="406.568" y2="269.483" gradientUnits="userSpaceOnUse">
<stop stop-color="#444B8C"/>
<stop offset="0.9964" stop-color="#26264F"/>
</linearGradient>
<linearGradient id="paint3_linear_2773_798" x1="60.013" y1="269.339" x2="407.054" y2="269.339" gradientUnits="userSpaceOnUse">
<stop offset="0.00359712" stop-color="#E38DDD"/>
<stop offset="1" stop-color="#9571F6"/>
</linearGradient>
<linearGradient id="paint4_linear_2773_798" x1="151.473" y1="49.9377" x2="330.757" y2="49.9377" gradientUnits="userSpaceOnUse">
<stop stop-color="#444B8C"/>
<stop offset="0.9964" stop-color="#26264F"/>
</linearGradient>
<linearGradient id="paint5_linear_2773_798" x1="110.388" y1="204.67" x2="212.499" y2="204.67" gradientUnits="userSpaceOnUse">
<stop stop-color="#AB316D"/>
<stop offset="1" stop-color="#792D3D"/>
</linearGradient>
<linearGradient id="paint6_linear_2773_798" x1="161.748" y1="168.94" x2="161.935" y2="205.204" gradientUnits="userSpaceOnUse">
<stop offset="0.003597" stop-color="#F36F56"/>
<stop offset="1" stop-color="#FFC444"/>
</linearGradient>
<linearGradient id="paint7_linear_2773_798" x1="167.603" y1="118.338" x2="158.343" y2="175.524" gradientUnits="userSpaceOnUse">
<stop offset="0.003597" stop-color="#F36F56"/>
<stop offset="1" stop-color="#FFC444"/>
</linearGradient>
<linearGradient id="paint8_linear_2773_798" x1="162.774" y1="130" x2="158.232" y2="158.052" gradientUnits="userSpaceOnUse">
<stop stop-color="#444B8C"/>
<stop offset="0.9964" stop-color="#26264F"/>
</linearGradient>
<linearGradient id="paint9_linear_2773_798" x1="182.587" y1="121.435" x2="173.444" y2="177.897" gradientUnits="userSpaceOnUse">
<stop offset="0.003597" stop-color="#F36F56"/>
<stop offset="1" stop-color="#FFC444"/>
</linearGradient>
<linearGradient id="paint10_linear_2773_798" x1="153.434" y1="115.489" x2="144.06" y2="173.375" gradientUnits="userSpaceOnUse">
<stop offset="0.003597" stop-color="#F36F56"/>
<stop offset="1" stop-color="#FFC444"/>
</linearGradient>
<linearGradient id="paint11_linear_2773_798" x1="112.528" y1="249.551" x2="128.103" y2="249.551" gradientUnits="userSpaceOnUse">
<stop stop-color="#FF9085"/>
<stop offset="1" stop-color="#FB6FBB"/>
</linearGradient>
<linearGradient id="paint12_linear_2773_798" x1="112.528" y1="275.993" x2="128.103" y2="275.993" gradientUnits="userSpaceOnUse">
<stop stop-color="#FF9085"/>
<stop offset="1" stop-color="#FB6FBB"/>
</linearGradient>
<linearGradient id="paint13_linear_2773_798" x1="112.528" y1="302.077" x2="128.103" y2="302.077" gradientUnits="userSpaceOnUse">
<stop stop-color="#FF9085"/>
<stop offset="1" stop-color="#FB6FBB"/>
</linearGradient>
<linearGradient id="paint14_linear_2773_798" x1="112.528" y1="328.519" x2="128.103" y2="328.519" gradientUnits="userSpaceOnUse">
<stop stop-color="#FF9085"/>
<stop offset="1" stop-color="#FB6FBB"/>
</linearGradient>
<linearGradient id="paint15_linear_2773_798" x1="275.127" y1="542.413" x2="101.16" y2="450.533" gradientUnits="userSpaceOnUse">
<stop stop-color="#311944"/>
<stop offset="1" stop-color="#A03976"/>
</linearGradient>
<linearGradient id="paint16_linear_2773_798" x1="274.277" y1="544.025" x2="100.309" y2="452.143" gradientUnits="userSpaceOnUse">
<stop stop-color="#311944"/>
<stop offset="1" stop-color="#A03976"/>
</linearGradient>
<linearGradient id="paint17_linear_2773_798" x1="96.6246" y1="384.895" x2="99.5272" y2="619.284" gradientUnits="userSpaceOnUse">
<stop stop-color="#FF9085"/>
<stop offset="1" stop-color="#FB6FBB"/>
</linearGradient>
<linearGradient id="paint18_linear_2773_798" x1="285.694" y1="457.549" x2="310.256" y2="515.129" gradientUnits="userSpaceOnUse">
<stop stop-color="#FFC444"/>
<stop offset="0.9964" stop-color="#F36F56"/>
</linearGradient>
<linearGradient id="paint19_linear_2773_798" x1="369.456" y1="484.443" x2="371.718" y2="484.122" gradientUnits="userSpaceOnUse">
<stop stop-color="#AA80F9"/>
<stop offset="0.9964" stop-color="#6165D7"/>
</linearGradient>
<linearGradient id="paint20_linear_2773_798" x1="285.617" y1="457.369" x2="310.239" y2="515.089" gradientUnits="userSpaceOnUse">
<stop offset="0.003597" stop-color="#F36F56"/>
<stop offset="1" stop-color="#FFC444"/>
</linearGradient>
<linearGradient id="paint21_linear_2773_798" x1="479.869" y1="352.701" x2="339.11" y2="352.701" gradientUnits="userSpaceOnUse">
<stop stop-color="#444B8C"/>
<stop offset="0.9964" stop-color="#26264F"/>
</linearGradient>
<linearGradient id="paint22_linear_2773_798" x1="209.865" y1="238.321" x2="358.875" y2="284.858" gradientUnits="userSpaceOnUse">
<stop stop-color="#444B8C"/>
<stop offset="0.9964" stop-color="#26264F"/>
</linearGradient>
<linearGradient id="paint23_linear_2773_798" x1="238.101" y1="339.055" x2="296.438" y2="236.483" gradientUnits="userSpaceOnUse">
<stop stop-color="#444B8C"/>
<stop offset="0.9964" stop-color="#26264F"/>
</linearGradient>
<linearGradient id="paint24_linear_2773_798" x1="324.041" y1="189.13" x2="244.499" y2="326.282" gradientUnits="userSpaceOnUse">
<stop stop-color="#444B8C"/>
<stop offset="0.9964" stop-color="#26264F"/>
</linearGradient>
</defs>
</svg>
