<svg width="500" height="500" viewBox="0 0 500 500" fill="none" xmlns="http://www.w3.org/2000/svg">
<g clip-path="url(#clip0_2773_904)">
<path d="M450.24 0H50.2402C22.626 0 0.240234 22.3858 0.240234 50V450C0.240234 477.614 22.626 500 50.2402 500H450.24C477.854 500 500.24 477.614 500.24 450V50C500.24 22.3858 477.854 0 450.24 0Z" fill="#C9DDE8"/>
<path d="M393.762 157.443C414.921 136.284 414.921 101.98 393.762 80.8213C372.604 59.6629 338.299 59.6629 317.141 80.8213C295.982 101.98 295.982 136.284 317.141 157.443C338.299 178.601 372.604 178.601 393.762 157.443Z" fill="#B5CCD6"/>
<path d="M371.551 144.62C371.551 144.62 370.471 134.66 384.471 135.74C384.471 135.74 387.401 126.22 397.731 124.97C409.381 123.56 413.271 132.03 414.611 133.91C414.611 133.91 433.241 129.28 435.391 144.62H371.551Z" fill="#EDF3F5"/>
<path d="M53.8711 199.81C53.8711 199.81 54.6311 185.7 69.8511 190.12C69.8511 190.12 75.7111 180.57 86.6611 183.33C90.2611 184.24 93.4611 186.45 95.2611 189.7C96.6011 192.13 97.4511 195.49 96.3011 199.81H53.8711Z" fill="#EDF3F5"/>
<path d="M194.32 295.07H138.48V409.73H194.32V295.07Z" fill="#B5CCD6"/>
<path d="M115.17 298.84H67.4102V409.73H115.17V298.84Z" fill="#B5CCD6"/>
<path d="M109.22 298.84H62.4004V305.22H109.22V298.84Z" fill="#B5CCD6"/>
<path d="M148.43 237.49H92.5898V409.73H148.43V237.49Z" fill="#B5CCD6"/>
<path d="M204.601 259.89H161.631V409.73H204.601V259.89Z" fill="#B5CCD6"/>
<path d="M430.039 265.95H379.039V274.17H383.569V285.26H368.609V214.47H332.189V410.68H424.879V274.17H430.039V265.95Z" fill="#B5CCD6"/>
<path d="M141.15 193.71H158.84" stroke="#8E6A8F" stroke-width="2.9512" stroke-miterlimit="10"/>
<path d="M141.15 266.84H158.84" stroke="#8E6A8F" stroke-width="2.9512" stroke-miterlimit="10"/>
<path d="M141.15 228.55H158.84" stroke="#8E6A8F" stroke-width="2.9512" stroke-miterlimit="10"/>
<path d="M147.181 173.43H119.061V287.78H147.181V173.43Z" fill="#ECE4DA"/>
<path d="M148.611 289.21H117.631V172H148.611V289.21ZM120.491 286.36H145.761V174.86H120.491V286.36Z" fill="#3E2D63"/>
<path d="M128.91 187.184H132.12V191.489H135.962V187.184H139.171V198H135.962V193.973H132.12V198H128.91V187.184ZM134.187 205.983C135.298 205.983 136.301 206.225 137.196 206.709C138.101 207.192 138.806 207.861 139.31 208.714C139.824 209.558 140.081 210.509 140.081 211.569C140.081 212.639 139.824 213.606 139.31 214.47C138.806 215.323 138.101 215.997 137.196 216.491C136.301 216.974 135.298 217.216 134.187 217.216C133.066 217.216 132.058 216.974 131.163 216.491C130.268 215.997 129.564 215.323 129.049 214.47C128.545 213.606 128.293 212.639 128.293 211.569C128.293 210.509 128.545 209.558 129.049 208.714C129.564 207.861 130.268 207.192 131.163 206.709C132.058 206.225 133.066 205.983 134.187 205.983ZM134.233 208.653C133.76 208.653 133.318 208.781 132.907 209.038C132.505 209.296 132.181 209.65 131.934 210.103C131.698 210.545 131.58 211.039 131.58 211.584C131.58 212.129 131.698 212.628 131.934 213.081C132.181 213.534 132.505 213.894 132.907 214.161C133.318 214.418 133.76 214.547 134.233 214.547C134.696 214.547 135.123 214.418 135.514 214.161C135.915 213.894 136.229 213.539 136.455 213.096C136.682 212.644 136.795 212.14 136.795 211.584C136.795 211.039 136.682 210.545 136.455 210.103C136.229 209.65 135.92 209.296 135.53 209.038C135.139 208.781 134.707 208.653 134.233 208.653ZM128.093 225.184H137.597V227.745H134.449V236H131.225V227.745H128.093V225.184ZM128.91 244.184H137.751V246.653H132.12V248.35H137.227V250.819H132.12V252.531H137.906V255H128.91V244.184ZM128.91 263.184H132.12V271.315H136.656V274H128.91V263.184Z" fill="#3E2D63"/>
<path d="M309.363 118.58H188.883V138.06H309.363V118.58Z" fill="#ECE4DA"/>
<path d="M276.205 184.384C300.985 169.426 308.947 137.211 293.988 112.431C279.029 87.6508 246.814 79.6892 222.034 94.6481C197.254 109.607 189.293 141.822 204.252 166.602C219.21 191.382 251.425 199.343 276.205 184.384Z" fill="#ECE4DA"/>
<path d="M216.072 117.81C216.072 117.81 226.602 96.62 248.952 96.62C271.302 96.62 282.172 117.81 282.172 117.81H216.072Z" fill="#C4DBF0"/>
<path d="M241.613 117.81L237.033 116.83L250.013 95.79L254.683 96.62L241.613 117.81Z" fill="#DEF0FD"/>
<path d="M247.113 118.58L244.613 117.04L257.143 97.07L259.643 98.61L247.113 118.58Z" fill="#DEF0FD"/>
<path d="M284.552 119.27H213.732L214.772 117.17C214.882 116.95 225.972 95.17 248.952 95.17C271.922 95.17 283.002 116.26 283.462 117.16L284.552 119.27ZM218.602 116.36H279.592C276.182 111.14 265.962 98.08 248.942 98.08C231.892 98.07 221.902 111.15 218.602 116.36Z" fill="#3E2D63"/>
<path d="M250.402 96.62H247.492V117.81H250.402V96.62Z" fill="#3E2D63"/>
<path d="M339.412 129.85H158.842V409.37H339.412V129.85Z" fill="#ECE4DA"/>
<path d="M339.412 133.34H158.842V142.78H339.412V133.34Z" fill="#3E2D63"/>
<path d="M339.412 124.82H158.842V129.85H339.412V124.82Z" fill="#3E2D63"/>
<path d="M339.412 233.71H158.842V237.52H339.412V233.71Z" fill="#DFD5C8"/>
<path d="M339.412 317.94H158.842V321.75H339.412V317.94Z" fill="#DFD5C8"/>
<path d="M313.721 164.17H290.061V212.91H313.721V164.17Z" fill="#C4DBF0"/>
<path d="M291.932 200.28L289.832 195.29L309.762 163.02L313.512 165.33L291.932 200.28Z" fill="#DEF0FD"/>
<path d="M312.205 171.952L288.799 209.847L291.3 211.392L314.706 173.497L312.205 171.952Z" fill="#DEF0FD"/>
<path d="M318.401 214.39H284.871V220.16H318.401V214.39Z" fill="#8E6A8F"/>
<path d="M318.401 220.15H284.871V223.85H318.401V220.15Z" fill="#DFD5C8"/>
<path d="M315.172 214.37H288.602V162.72H315.172V214.37ZM291.512 211.46H312.262V165.63H291.512V211.46Z" fill="#3E2D63"/>
<path d="M313.721 187.09H290.061V190H313.721V187.09Z" fill="#3E2D63"/>
<path d="M261.031 164.17H237.371V212.91H261.031V164.17Z" fill="#C4DBF0"/>
<path d="M239.25 200.28L237.15 195.29L257.07 163.02L260.82 165.33L239.25 200.28Z" fill="#DEF0FD"/>
<path d="M259.525 171.954L236.119 209.849L238.62 211.393L262.026 173.499L259.525 171.954Z" fill="#DEF0FD"/>
<path d="M265.721 214.39H232.191V220.16H265.721V214.39Z" fill="#8E6A8F"/>
<path d="M265.721 220.15H232.191V223.85H265.721V220.15Z" fill="#DFD5C8"/>
<path d="M262.492 214.37H235.922V162.72H262.492V214.37ZM238.832 211.46H259.582V165.63H238.832V211.46Z" fill="#3E2D63"/>
<path d="M261.031 187.09H237.371V190H261.031V187.09Z" fill="#3E2D63"/>
<path d="M208.351 164.17H184.691V212.91H208.351V164.17Z" fill="#C4DBF0"/>
<path d="M186.561 200.28L184.461 195.29L204.391 163.02L208.141 165.33L186.561 200.28Z" fill="#DEF0FD"/>
<path d="M206.837 171.954L183.432 209.848L185.933 211.393L209.339 173.499L206.837 171.954Z" fill="#DEF0FD"/>
<path d="M213.032 214.39H179.502V220.16H213.032V214.39Z" fill="#8E6A8F"/>
<path d="M213.032 220.15H179.502V223.85H213.032V220.15Z" fill="#DFD5C8"/>
<path d="M209.802 214.37H183.232V162.72H209.802V214.37ZM186.142 211.46H206.892V165.63H186.142V211.46Z" fill="#3E2D63"/>
<path d="M208.342 187.09H184.682V190H208.342V187.09Z" fill="#3E2D63"/>
<path d="M313.723 249.17H290.062V297.91H313.723V249.17Z" fill="#C4DBF0"/>
<path d="M291.932 285.28L289.832 280.28L309.762 248.01L313.512 250.33L291.932 285.28Z" fill="#DEF0FD"/>
<path d="M312.205 256.954L288.799 294.849L291.3 296.394L314.706 258.499L312.205 256.954Z" fill="#DEF0FD"/>
<path d="M318.401 299.38H284.871V305.15H318.401V299.38Z" fill="#8E6A8F"/>
<path d="M318.401 305.15H284.871V308.85H318.401V305.15Z" fill="#DFD5C8"/>
<path d="M315.172 299.37H288.602V247.72H315.172V299.37ZM291.512 296.46H312.262V250.63H291.512V296.46Z" fill="#3E2D63"/>
<path d="M313.721 272.09H290.061V275H313.721V272.09Z" fill="#3E2D63"/>
<path d="M261.031 249.17H237.371V297.91H261.031V249.17Z" fill="#C4DBF0"/>
<path d="M239.25 285.28L237.15 280.28L257.07 248.01L260.82 250.33L239.25 285.28Z" fill="#DEF0FD"/>
<path d="M259.523 256.957L236.117 294.851L238.619 296.396L262.024 258.502L259.523 256.957Z" fill="#DEF0FD"/>
<path d="M265.721 299.38H232.191V305.15H265.721V299.38Z" fill="#8E6A8F"/>
<path d="M265.721 305.15H232.191V308.85H265.721V305.15Z" fill="#DFD5C8"/>
<path d="M262.492 299.37H235.922V247.72H262.492V299.37ZM238.832 296.46H259.582V250.63H238.832V296.46Z" fill="#3E2D63"/>
<path d="M261.031 272.09H237.371V275H261.031V272.09Z" fill="#3E2D63"/>
<path d="M208.353 249.17H184.693V297.91H208.353V249.17Z" fill="#C4DBF0"/>
<path d="M186.563 285.28L184.463 280.28L204.393 248.01L208.143 250.33L186.563 285.28Z" fill="#DEF0FD"/>
<path d="M206.835 256.954L183.43 294.849L185.931 296.394L209.337 258.499L206.835 256.954Z" fill="#DEF0FD"/>
<path d="M213.032 299.38H179.502V305.15H213.032V299.38Z" fill="#8E6A8F"/>
<path d="M213.032 305.15H179.502V308.85H213.032V305.15Z" fill="#DFD5C8"/>
<path d="M209.802 299.37H183.232V247.72H209.802V299.37ZM186.142 296.46H206.892V250.63H186.142V296.46Z" fill="#3E2D63"/>
<path d="M208.342 272.09H184.682V275H208.342V272.09Z" fill="#3E2D63"/>
<path d="M301.463 338.45H196.473V409.37H301.463V338.45Z" fill="#8E6A8F"/>
<path d="M268.115 348.676C270.633 338.102 264.103 327.489 253.53 324.971C242.957 322.453 232.344 328.983 229.825 339.556C227.307 350.129 233.837 360.742 244.41 363.261C254.984 365.779 265.597 359.249 268.115 348.676Z" fill="#8E6A8F"/>
<path d="M292.502 347.1H205.422V409.37H292.502V347.1Z" fill="#3E2D63"/>
<path d="M248.963 346.15V407.96" stroke="#8E6A8F" stroke-width="2.8383" stroke-miterlimit="10"/>
<path d="M248.962 329.67L250.552 333.48L254.662 333.82L251.532 336.5L252.492 340.52L248.962 338.37L245.442 340.52L246.392 336.5L243.262 333.82L247.372 333.48L248.962 329.67Z" fill="#ECE4DA"/>
<path d="M241.924 376.62C241.924 377.82 240.954 378.78 239.764 378.78C238.564 378.78 237.604 377.81 237.604 376.62C237.604 375.42 238.574 374.46 239.764 374.46C240.954 374.45 241.924 375.42 241.924 376.62Z" fill="#8E6A8F"/>
<path d="M260.343 376.62C260.343 377.82 259.373 378.78 258.183 378.78C256.983 378.78 256.023 377.81 256.023 376.62C256.023 375.42 256.993 374.46 258.183 374.46C259.373 374.45 260.343 375.42 260.343 376.62Z" fill="#8E6A8F"/>
<path d="M403.84 344.1C403.84 338.3 402 332.96 398.91 328.68C397.84 327.2 397.4 325.4 397.63 323.59C397.75 322.62 397.82 321.62 397.82 320.61C397.82 308.95 389.75 299.49 379.79 299.49C369.83 299.49 361.76 308.95 361.76 320.61C361.76 321.62 361.82 322.62 361.95 323.59C362.18 325.4 361.73 327.2 360.67 328.68C357.58 332.96 355.74 338.3 355.74 344.1C355.74 349.71 357.47 354.89 360.38 359.1C361.43 360.62 361.93 362.44 361.82 364.29C361.79 364.78 361.77 365.28 361.77 365.78C361.77 377.44 369.84 386.9 379.8 386.9C389.76 386.9 397.83 377.44 397.83 365.78C397.83 365.28 397.81 364.78 397.78 364.29C397.67 362.44 398.16 360.63 399.22 359.1C402.11 354.89 403.84 349.72 403.84 344.1Z" fill="#ECE4DA"/>
<path d="M379.781 320.99H377.781V408.65H379.781V320.99Z" fill="#3E2D63"/>
<path d="M371.302 332.107L369.799 333.411L378.036 342.906L379.539 341.602L371.302 332.107Z" fill="#3E2D63"/>
<path d="M388.37 347.791L378.109 358.038L379.516 359.446L389.776 349.199L388.37 347.791Z" fill="#3E2D63"/>
<path d="M142.221 344.1C142.221 338.3 140.381 332.96 137.291 328.68C136.221 327.2 135.781 325.4 136.011 323.59C136.131 322.62 136.201 321.62 136.201 320.61C136.201 308.95 128.131 299.49 118.171 299.49C108.211 299.49 100.141 308.95 100.141 320.61C100.141 321.62 100.201 322.62 100.331 323.59C100.561 325.4 100.111 327.2 99.0511 328.68C95.9611 332.96 94.1211 338.3 94.1211 344.1C94.1211 349.71 95.8511 354.89 98.7611 359.1C99.8111 360.62 100.311 362.44 100.201 364.29C100.171 364.78 100.151 365.28 100.151 365.78C100.151 377.44 108.221 386.9 118.181 386.9C128.141 386.9 136.211 377.44 136.211 365.78C136.211 365.28 136.191 364.78 136.161 364.29C136.051 362.44 136.541 360.63 137.601 359.1C140.491 354.89 142.221 349.72 142.221 344.1Z" fill="#ECE4DA"/>
<path d="M118.16 320.99H116.16V408.65H118.16V320.99Z" fill="#3E2D63"/>
<path d="M109.677 332.11L108.174 333.414L116.411 342.909L117.914 341.605L109.677 332.11Z" fill="#3E2D63"/>
<path d="M126.712 347.785L116.453 358.032L117.859 359.44L128.118 349.192L126.712 347.785Z" fill="#3E2D63"/>
<path d="M452.151 407.96H41.3809V410.78H452.151V407.96Z" fill="#3E2D63"/>
</g>
<defs>
<clipPath id="clip0_2773_904">
<rect width="500" height="500" fill="white"/>
</clipPath>
</defs>
</svg>
