<svg width="200" height="200" viewBox="0 0 200 200" fill="none" xmlns="http://www.w3.org/2000/svg">
<g clip-path="url(#clip0_3376_1553)">
<circle cx="100" cy="100" r="95" stroke="#2B3467" stroke-width="10"/>
<path d="M136.657 69.9524L136.66 69.9497C138.376 67.944 141.386 67.6744 143.418 69.3489L143.423 69.353L143.423 69.3531C145.454 71.0719 145.698 74.0858 144.003 76.1153L144.002 76.1172L98.4058 130.152C98.405 130.153 98.4043 130.154 98.4036 130.155C97.5797 131.156 96.3836 131.756 95.1029 131.852C94.9662 131.875 94.8379 131.875 94.7521 131.875L94.7395 131.875C93.5609 131.875 92.4213 131.452 91.5466 130.668L136.657 69.9524ZM136.657 69.9524L94.2489 120.239L63.7335 93.0027C63.7333 93.0025 63.7332 93.0024 63.733 93.0022C61.7653 91.2363 58.7298 91.4176 56.9674 93.3807C55.2011 95.3484 55.3821 98.3843 57.3455 100.147L57.3466 100.148L91.5456 130.667L136.657 69.9524Z" fill="#2B3467" stroke="#2B3467"/>
</g>
<defs>
<clipPath id="clip0_3376_1553">
<rect width="200" height="200" fill="white"/>
</clipPath>
</defs>
</svg>
