<svg width="100" height="100" viewBox="0 0 100 100" fill="none" xmlns="http://www.w3.org/2000/svg">
<rect width="100" height="100" rx="50" fill="#F8F7EA"/>
<path fill-rule="evenodd" clip-rule="evenodd" d="M61.4209 26.0372C60.8342 26.5632 59.968 26.4795 59.4801 25.834C58.9921 25.1885 59.0744 24.2502 59.6665 23.7182L67.9285 16.2771C68.5152 15.7512 69.3814 15.8349 69.8693 16.4744C70.3518 17.1139 70.275 18.0582 69.6829 18.5902L61.4209 26.0372ZM21.2838 52.2573C20.3737 52.5502 19.7049 53.1957 19.2608 54.0504C18.7509 55.0365 18.5206 56.3096 18.5371 57.6723C18.5426 58.258 18.5974 58.8617 18.6906 59.4713C18.7838 60.0869 18.9263 60.7025 19.1018 61.3062C19.2827 61.9158 19.502 62.5075 19.7597 63.0753C20.0119 63.6252 20.297 64.1511 20.6095 64.6293C21.377 65.7947 22.3309 66.7211 23.4329 67.1873C24.3924 67.5997 25.4724 67.6595 26.6347 67.2232L26.6566 67.2172C26.7882 67.1694 26.9198 67.1515 27.0513 67.1634C27.1445 67.1694 27.2377 67.1873 27.3309 67.2172L27.3584 67.2052C27.6709 67.0917 27.9943 66.9841 28.3123 66.8765L29.184 66.5837C29.502 66.4821 29.8035 66.3864 30.0886 66.2968C30.3682 66.2071 30.6533 66.1234 30.9439 66.0398C31.2454 65.9501 31.547 66.0039 31.7991 66.1593L31.8266 66.1772C32.0623 66.3326 32.2432 66.5837 32.3255 66.9004C32.3419 66.9542 32.3474 66.9961 32.3529 67.0439C32.4296 67.4204 32.5228 67.8089 32.5886 68.1854C33.1862 71.1021 33.7673 73.9112 34.5404 76.1883C34.6062 76.4155 34.6884 76.6366 34.7652 76.8637C35.0009 77.5809 35.2476 78.322 35.5217 78.9974C35.7849 79.6549 36.0645 80.2406 36.3825 80.6709V80.6769C36.6182 80.9996 36.8923 81.2029 37.2158 81.2208C37.5722 81.2387 38.0163 81.0534 38.5755 80.5813C38.8167 80.3362 39.036 80.127 39.2608 79.9178L39.3101 79.87C39.968 79.2484 40.6259 78.6328 40.911 77.7901C40.8671 77.7543 40.8178 77.7184 40.763 77.6885C40.6369 77.6108 40.4779 77.5331 40.3189 77.4614L40.3024 77.4554C39.7158 77.1865 39.1347 76.9115 38.7125 76.3378C38.2849 75.758 38.0546 74.9153 38.2136 73.5406C38.2191 73.457 38.2301 73.3852 38.241 73.3135C38.252 73.2298 38.263 73.1462 38.2684 73.0625C38.3397 72.4409 38.3781 72.1182 38.3562 72.0285V72.0165C38.3397 71.9926 38.2246 71.903 37.9943 71.6699C37.9285 71.6042 37.8573 71.5384 37.797 71.4667C37.457 71.12 37.2158 70.7076 37.0623 70.2534C36.8924 69.7514 36.8266 69.2015 36.832 68.6277C36.8375 68.0659 36.9143 67.4802 37.0294 66.9243C37.172 66.249 37.3748 65.6035 37.5777 65.0715L37.5886 65.0536C37.6654 64.8564 37.786 64.695 37.9285 64.5755C38.082 64.444 38.2684 64.3603 38.4603 64.3304H38.4713C42.6215 63.7029 45.9713 63.7865 48.7838 64.181C51.3222 64.5396 53.411 65.1433 55.2695 65.717C53.8496 63.9539 52.5448 61.8799 51.366 59.6207C49.8474 56.704 48.5426 53.4706 47.4899 50.1953C46.4263 46.8842 45.6204 43.5253 45.116 40.3934C44.6939 37.7637 44.4801 35.2893 44.5075 33.1436C42.923 35.624 40.7904 38.6363 37.6544 41.6725C34.0744 45.133 29.184 48.6235 22.2981 51.3847C22.2268 51.4086 22.1555 51.4385 22.0842 51.4624L22.0513 51.5222C22.0513 51.5222 22.0568 51.5162 21.9307 51.7314L21.9198 51.7493C21.8485 51.8688 21.7608 51.9704 21.6621 52.0541C21.5524 52.1438 21.4318 52.2155 21.3002 52.2573H21.2838ZM52.5612 56.8834C53.5919 59.041 54.7323 61.0492 55.9658 62.7884C57.1391 64.438 58.4 65.8545 59.7268 66.9243L59.8638 66.9363C59.9296 66.9423 59.9954 66.9423 60.0502 66.9363H60.0722C60.1763 66.9303 60.2805 66.9124 60.3902 66.8765C60.4943 66.8407 60.604 66.7869 60.7191 66.7151C60.9987 66.4044 61.229 65.9979 61.4154 65.5198C61.6237 64.9938 61.7772 64.3723 61.8759 63.6789C62.1774 61.6289 62.0349 59.0051 61.5689 56.1064C61.059 52.9387 60.1544 49.4542 59.0141 46.0415C57.8956 42.6885 56.547 39.4132 55.1105 36.5802C53.7454 33.8787 52.3035 31.5837 50.911 30.0118C50.3902 29.4201 49.8858 28.9479 49.4088 28.6072C48.9647 28.2905 48.5535 28.0873 48.1752 28.0215H48.1643C48.0766 28.0036 48.0053 27.9976 47.9505 27.9916C47.9285 27.9916 47.9505 27.9737 47.9395 27.9797C47.934 27.9797 47.934 27.9916 47.9066 28.0155C47.8573 28.0633 47.786 28.1351 47.7038 28.2247C47.6325 28.2964 47.5612 28.3861 47.4954 28.4698L47.4735 28.5176C46.8375 29.952 46.6182 32.2232 46.7553 34.9904C46.8978 37.7995 47.4132 41.1047 48.252 44.5353C50.6369 43.9377 52.5009 44.4875 53.7838 45.653C54.5349 46.3343 55.0777 47.2189 55.4121 48.2051C55.741 49.1853 55.8616 50.2671 55.763 51.3489C55.5766 53.4766 54.5294 55.5804 52.5612 56.8834ZM59.5349 69.3688C59.4252 69.3868 59.3156 69.3868 59.2059 69.3688C59.1018 69.3509 58.9976 69.321 58.8989 69.2672C58.7509 69.2373 58.6029 69.2075 58.4603 69.1716C57.4241 68.9385 56.4154 68.6217 55.3298 68.287L55.2586 68.2631C51.536 67.1096 46.8814 65.6632 39.4252 66.6673C39.3266 66.9781 39.2443 67.3128 39.1785 67.6415C39.1127 67.9882 39.0744 68.3349 39.0689 68.6516C39.0689 68.9026 39.0908 69.1357 39.1402 69.327C39.1785 69.4704 39.2388 69.59 39.3211 69.6737L39.4527 69.8051C40.0612 70.4088 40.3573 70.7076 40.5272 71.389C40.6643 71.9389 40.604 72.4469 40.4834 73.451C40.4669 73.5884 40.4559 73.7259 40.434 73.8634C40.3792 74.3475 40.4505 74.6284 40.582 74.8017C40.7191 74.981 40.9548 75.0946 41.1961 75.2022L41.2235 75.2141C41.991 75.5727 42.7586 75.9373 43.1533 77.1267C43.1972 77.2343 43.2246 77.3538 43.2355 77.4733C43.2465 77.5929 43.2465 77.7124 43.2246 77.8379V77.8439C43.0546 78.8062 42.6928 79.5413 42.2377 80.1689C41.7937 80.7845 41.2673 81.2746 40.7465 81.7647L40.6259 81.8782C40.445 82.0456 40.2695 82.2129 40.0996 82.3922L40.0119 82.4759C38.8222 83.5099 37.8079 83.8804 36.9143 83.7788C36.0097 83.6772 35.2586 83.0915 34.6226 82.2189C34.184 81.6212 33.8222 80.8861 33.4987 80.1031C33.1807 79.3261 32.9066 78.5073 32.6434 77.7124C32.5722 77.4913 32.4954 77.2701 32.4187 77.049C31.6073 74.6643 31.0097 71.7655 30.3956 68.7712C30.1983 68.8309 30.0009 68.9027 29.8035 68.9624C29.4965 69.064 29.195 69.1597 28.9044 69.2613C28.6084 69.3629 28.3178 69.4645 28.0327 69.5601L28.0163 69.5661C27.9724 69.578 27.9395 69.596 27.9121 69.6079L27.8956 69.6139C27.6873 69.7095 27.5338 69.7753 27.3584 69.7932C27.1994 69.8111 27.0513 69.7932 26.8759 69.7215C25.2915 70.1996 23.8277 70.0562 22.5228 69.4824C21.0426 68.825 19.7706 67.5997 18.7619 66.0637L18.7509 66.0517C18.3726 65.46 18.0327 64.8265 17.7312 64.1571C17.4241 63.4817 17.1665 62.7765 16.9527 62.0592C16.7388 61.342 16.5744 60.6069 16.4647 59.8717C16.3551 59.1426 16.2948 58.4134 16.2838 57.6962C16.2674 55.8912 16.5908 54.1819 17.309 52.8012C17.9559 51.564 18.9209 50.5958 20.2312 50.0579C20.2805 49.9742 20.3189 49.9025 20.3627 49.8427C20.434 49.7411 20.5108 49.6515 20.6149 49.5558L20.6369 49.5379C20.7465 49.4363 20.8507 49.3705 20.9713 49.3048C21.0809 49.251 21.207 49.1972 21.377 49.1315L21.5305 49.0717C28.4987 46.2746 33.3178 42.7005 36.7772 39.2041C40.2366 35.7076 42.3419 32.2889 43.8605 29.8026L43.8934 29.7488C44.7432 28.3622 45.4285 27.2565 46.1138 26.5094C46.2893 26.3181 46.4428 26.1627 46.6073 26.0312C46.7772 25.8938 46.9527 25.7862 47.1555 25.7025C47.3693 25.6188 47.5777 25.571 47.8024 25.5591C48.0217 25.5471 48.2575 25.571 48.5316 25.6188C49.1785 25.7324 49.8364 26.0253 50.4998 26.4795C51.1741 26.9397 51.854 27.5673 52.5283 28.3323C54.0305 30.0297 55.5766 32.4802 57.0294 35.3431C58.5426 38.3195 59.957 41.7382 61.1193 45.2346C62.3145 48.8207 63.2575 52.4904 63.7893 55.8554C64.2772 58.9573 64.4198 61.8082 64.0798 64.0854C63.9373 65.0417 63.7125 65.9143 63.4 66.6673C63.093 67.4085 62.6928 68.048 62.1994 68.568C62.1774 68.5919 62.15 68.6158 62.1281 68.6397C62.0952 68.6636 62.0623 68.6935 62.0294 68.7174C61.7059 68.9505 61.3934 69.1178 61.0809 69.2254C60.763 69.339 60.445 69.3927 60.127 69.4107H60.1051C59.9954 69.4107 59.8913 69.4107 59.7926 69.4047C59.7158 69.3868 59.6226 69.3808 59.5349 69.3688ZM73.0272 62.8362C72.2652 62.8721 71.6292 62.2266 71.6018 61.3958C71.5689 60.565 72.161 59.8717 72.923 59.8419L82.5722 59.4474C83.3288 59.4235 83.9647 60.069 83.9976 60.8878C84.025 61.7186 83.4384 62.4119 82.6763 62.4477L73.0272 62.8362ZM72.7531 52.6159C71.9965 52.7235 71.3057 52.1438 71.207 51.3309C71.1084 50.5061 71.6402 49.7531 72.3858 49.6455L81.3002 48.3545C82.0568 48.2469 82.7476 48.8267 82.8463 49.6395C82.945 50.4643 82.4132 51.2174 81.6676 51.325L72.7531 52.6159ZM70.8781 43.2324C70.1599 43.5014 69.3704 43.089 69.1237 42.306C68.8715 41.523 69.2553 40.6624 69.9735 40.3934L79.1127 36.9329C79.8309 36.652 80.6204 37.0763 80.8671 37.8593C81.1193 38.6422 80.7355 39.5029 80.0173 39.7718L70.8781 43.2324ZM66.5689 34.2015C65.911 34.6139 65.0667 34.3629 64.6939 33.6397C64.3156 32.9225 64.5459 32.008 65.2092 31.5956L73.8715 26.1807C74.5294 25.7683 75.3737 26.0193 75.7465 26.7425C76.1248 27.4597 75.8945 28.3741 75.2312 28.7865L66.5689 34.2015Z" fill="#2B3467"/>
</svg>
