<svg width="53" height="43" viewBox="0 0 53 43" fill="none" xmlns="http://www.w3.org/2000/svg">
<path d="M38.4941 1.63892e-06L52.6207 10.022L36.8781 17.245L38.4941 1.63892e-06ZM38.4941 39.6835L39.0114 41.0915L38.4941 39.6835ZM45.5366 11.7654C47.3617 16.8502 48.8812 22.9056 48.4148 28.3072C48.1798 31.0283 47.4357 33.6475 45.9145 35.8932C44.3827 38.1547 42.1221 39.9487 39.0114 41.0915L37.9769 38.2755C40.5455 37.3318 42.2789 35.9112 43.4307 34.2107C44.5933 32.4944 45.2226 30.4041 45.4259 28.0491C45.8361 23.2983 44.4917 17.7344 42.7129 12.7789L45.5366 11.7654ZM39.0114 41.0915C35.4076 42.4154 31.1646 42.6822 26.9211 42.397C22.6613 42.1107 18.2952 41.2602 14.3866 40.2646C10.4733 39.2678 6.98704 38.1173 4.48002 37.2168C3.2255 36.7661 2.21363 36.3771 1.51317 36.0998C1.16288 35.9611 0.89029 35.8503 0.703988 35.7737C0.610831 35.7353 0.539232 35.7055 0.490263 35.685C0.465778 35.6747 0.446948 35.6668 0.433909 35.6613C0.427389 35.6586 0.422317 35.6564 0.418708 35.6549C0.416904 35.6541 0.415466 35.6535 0.414396 35.653C0.413861 35.6528 0.413334 35.6526 0.413067 35.6525C0.412633 35.6523 0.412291 35.6521 0.999999 34.2721C1.58771 32.892 1.58755 32.8919 1.58748 32.8919C1.58758 32.892 1.58761 32.892 1.58781 32.892C1.58821 32.8922 1.58898 32.8925 1.59011 32.893C1.59238 32.894 1.59609 32.8956 1.60125 32.8977C1.61156 32.9021 1.62763 32.9089 1.64931 32.9179C1.69268 32.9361 1.75853 32.9635 1.84577 32.9994C2.02026 33.0713 2.28031 33.177 2.61738 33.3104C3.29162 33.5773 4.27332 33.9548 5.49425 34.3934C7.93813 35.2713 11.3303 36.3903 15.1271 37.3574C18.9287 38.3258 23.1044 39.1337 27.1223 39.4037C31.1565 39.6749 34.927 39.3959 37.9769 38.2755L39.0114 41.0915Z" fill="#2B3467"/>
</svg>
