<svg width="53" height="43" viewBox="0 0 53 43" fill="none" xmlns="http://www.w3.org/2000/svg">
<path d="M14.5059 43L0.379342 32.978L16.1219 25.755L14.5059 43ZM14.5059 3.31654L13.9886 1.90855L14.5059 3.31654ZM7.46344 31.2346C5.63834 26.1498 4.1188 20.0944 4.5852 14.6928C4.82016 11.9717 5.56434 9.3525 7.08546 7.10683C8.61732 4.84533 10.8779 3.05133 13.9886 1.90855L15.0231 4.72453C12.4545 5.66818 10.7211 7.08876 9.56929 8.78928C8.4067 10.5056 7.77742 12.5959 7.57408 14.9509C7.16387 19.7017 8.50834 25.2656 10.2871 30.2211L7.46344 31.2346ZM13.9886 1.90855C17.5924 0.584628 21.8354 0.317839 26.0789 0.60303C30.3387 0.889323 34.7048 1.73979 38.6134 2.73539C42.5267 3.73219 46.013 4.88266 48.52 5.78324C49.7745 6.2339 50.7864 6.62291 51.4868 6.90019C51.8371 7.03886 52.1097 7.14965 52.296 7.22633C52.3892 7.26467 52.4608 7.29448 52.5097 7.31499C52.5342 7.32525 52.5531 7.33318 52.5661 7.33869C52.5726 7.34145 52.5777 7.34359 52.5813 7.34512C52.5831 7.34589 52.5845 7.3465 52.5856 7.34695C52.5861 7.34718 52.5867 7.3474 52.5869 7.34752C52.5874 7.34771 52.5877 7.34785 52 8.72792C51.4123 10.108 51.4125 10.1081 51.4125 10.1081C51.4124 10.108 51.4124 10.108 51.4122 10.108C51.4118 10.1078 51.411 10.1075 51.4099 10.107C51.4076 10.106 51.4039 10.1044 51.3987 10.1023C51.3884 10.0979 51.3724 10.0911 51.3507 10.0821C51.3073 10.0639 51.2415 10.0365 51.1542 10.0006C50.9797 9.92874 50.7197 9.82302 50.3826 9.68959C49.7084 9.42268 48.7267 9.04519 47.5058 8.6066C45.0619 7.72869 41.6697 6.60969 37.8729 5.64256C34.0713 4.67423 29.8956 3.86631 25.8777 3.59628C21.8435 3.32515 18.073 3.60411 15.0231 4.72453L13.9886 1.90855Z" fill="#2B3467"/>
</svg>
