<svg width="343" height="278" viewBox="0 0 343 278" fill="none" xmlns="http://www.w3.org/2000/svg">
<path d="M180.322 192.51L177.322 164.01C139.322 142.41 125.822 144.01 123.822 147.51C116.622 160.71 158.489 183.01 180.322 192.51Z" fill="#2B3467"/>
<path fill-rule="evenodd" clip-rule="evenodd" d="M293.822 163.51C303.489 187.844 319.622 237.31 306.822 240.51C304.156 242.01 296.322 238.91 286.322 214.51C270.822 282.01 198.222 294.31 179.822 193.51L176.822 163.51C194.489 171.01 242.622 181.51 293.822 163.51ZM233.822 222.01C208.322 222.01 205.322 182.51 233.822 182.51C257.322 182.51 255.822 222.01 233.822 222.01Z" fill="url(#paint0_linear_2466_763)"/>
<path d="M293.822 163.51C285.022 150.31 249.822 148.344 233.322 149.01C195.722 148.21 179.989 158.344 176.822 163.51C215.222 183.11 271 172.5 293.822 163.51Z" fill="url(#paint1_linear_2466_763)"/>
<path fill-rule="evenodd" clip-rule="evenodd" d="M232.822 145.51C259.321 146.01 293.822 144.91 293.822 110.51C293.822 67.5101 261.823 59.0101 237.822 58.0101C237.489 58.0101 237.116 58.0081 236.706 58.0058C226.059 57.947 190.556 57.7511 177.322 90.0102C161.323 129.01 187.321 147.51 232.822 145.51ZM241.913 124.055C239.02 124.033 235.987 124.01 232.822 124.01H201C197.167 124.01 186.9 121.2 186.5 112C186.1 102.8 193.526 96.5103 201 96.5103C211.004 96.5103 213.27 96.3675 224.314 96.2296C245.287 95.9679 260.998 95.4436 266.5 96.2296C274.9 97.4296 280.822 106.344 280.822 110.51C280.376 124.347 265.983 124.238 241.913 124.055Z" fill="#2B3467"/>
<path fill-rule="evenodd" clip-rule="evenodd" d="M79.5989 16.167C77.6609 8.21095 66.3389 8.21095 64.4009 16.167C64.1116 17.3625 63.544 18.4728 62.7445 19.4075C61.945 20.3423 60.9361 21.0751 59.7999 21.5463C58.6637 22.0175 57.4323 22.2137 56.2059 22.1191C54.9795 22.0245 53.7928 21.6417 52.7423 21.0018C45.7451 16.7382 37.7381 24.7452 42.0017 31.7424C44.7557 36.261 42.3128 42.1566 37.172 43.4061C29.2109 45.339 29.2109 56.6661 37.172 58.5939C38.3678 58.8836 39.4783 59.4516 40.4131 60.2517C41.3479 61.0518 42.0804 62.0614 42.5512 63.1982C43.0219 64.3351 43.2175 65.567 43.122 66.7937C43.0265 68.0204 42.6427 69.2073 42.0017 70.2576C37.7381 77.2548 45.7451 85.2618 52.7423 80.9982C53.7926 80.3572 54.9794 79.9733 56.2061 79.8778C57.4329 79.7824 58.6648 79.978 59.8016 80.4487C60.9384 80.9194 61.948 81.652 62.7481 82.5868C63.5483 83.5215 64.1163 84.632 64.406 85.8279C66.3389 93.789 77.666 93.789 79.5938 85.8279C79.8845 84.6326 80.4531 83.5229 81.2534 82.5888C82.0537 81.6547 83.0631 80.9226 84.1995 80.452C85.336 79.9814 86.5675 79.7856 87.7939 79.8805C89.0203 79.9754 90.207 80.3583 91.2575 80.9982C98.2547 85.2618 106.262 77.2548 101.998 70.2576C101.358 69.207 100.975 68.0203 100.88 66.7939C100.786 65.5676 100.981 64.3361 101.452 63.1996C101.922 62.0631 102.655 61.0537 103.589 60.2534C104.523 59.4531 105.633 58.8845 106.828 58.5939C114.789 56.661 114.789 45.3339 106.828 43.4061C105.632 43.1163 104.521 42.5483 103.587 41.7482C102.652 40.9481 101.919 39.9385 101.449 38.8017C100.978 37.6648 100.782 36.4329 100.878 35.2062C100.973 33.9795 101.357 32.7926 101.998 31.7424C106.262 24.7452 98.2547 16.7382 91.2575 21.0018C90.2072 21.6427 89.0204 22.0266 87.7937 22.1221C86.5669 22.2175 85.335 22.022 84.1982 21.5512C83.0614 21.0805 82.0518 20.3479 81.2517 19.4132C80.4515 18.4784 79.8835 17.3679 79.5938 16.1721L79.5989 16.167ZM71.9999 66.3C76.0577 66.3 79.9493 64.688 82.8186 61.8187C85.6879 58.9494 87.2999 55.0578 87.2999 51C87.2999 46.9421 85.6879 43.0505 82.8186 40.1812C79.9493 37.3119 76.0577 35.7 71.9999 35.7C67.9421 35.7 64.0505 37.3119 61.1812 40.1812C58.3119 43.0505 56.6999 46.9421 56.6999 51C56.6999 55.0578 58.3119 58.9494 61.1812 61.8187C64.0505 64.688 67.9421 66.3 71.9999 66.3Z" fill="#2B3467"/>
<path fill-rule="evenodd" clip-rule="evenodd" d="M30.4486 92.4005C29.4416 88.2665 23.5586 88.2665 22.5516 92.4005C22.4013 93.0218 22.1064 93.5987 21.691 94.0844C21.2755 94.5701 20.7513 94.9509 20.1609 95.1957C19.5705 95.4405 18.9307 95.5425 18.2934 95.4933C17.6562 95.4442 17.0396 95.2452 16.4937 94.9127C12.8579 92.6973 8.69742 96.8578 10.9128 100.494C12.3438 102.842 11.0745 105.905 8.40327 106.554C4.26662 107.559 4.26662 113.444 8.40327 114.446C9.02464 114.596 9.60167 114.892 10.0874 115.307C10.5731 115.723 10.9537 116.248 11.1983 116.838C11.4429 117.429 11.5446 118.069 11.4949 118.707C11.4453 119.344 11.2459 119.961 10.9128 120.506C8.69742 124.142 12.8579 128.303 16.4937 126.087C17.0395 125.754 17.6561 125.555 18.2936 125.505C18.931 125.456 19.5711 125.557 20.1618 125.802C20.7525 126.046 21.2771 126.427 21.6928 126.913C22.1086 127.399 22.4037 127.976 22.5543 128.597C23.5586 132.734 29.4443 132.734 30.446 128.597C30.597 127.976 30.8925 127.399 31.3083 126.914C31.7241 126.428 32.2486 126.048 32.8391 125.804C33.4297 125.559 34.0696 125.457 34.7068 125.507C35.344 125.556 35.9606 125.755 36.5065 126.087C40.1423 128.303 44.3028 124.142 42.0874 120.506C41.755 119.961 41.556 119.344 41.5067 118.707C41.4573 118.069 41.5591 117.43 41.8036 116.839C42.0481 116.249 42.4285 115.724 42.9139 115.308C43.3993 114.892 43.9759 114.597 44.597 114.446C48.7336 113.442 48.7336 107.556 44.597 106.554C43.9756 106.404 43.3986 106.109 42.9129 105.693C42.4272 105.277 42.0465 104.752 41.8019 104.162C41.5573 103.571 41.4557 102.931 41.5053 102.293C41.5549 101.656 41.7544 101.039 42.0874 100.494C44.3028 96.8578 40.1423 92.6973 36.5065 94.9127C35.9608 95.2458 35.3441 95.4453 34.7067 95.4949C34.0693 95.5445 33.4291 95.4429 32.8384 95.1983C32.2477 94.9537 31.7232 94.573 31.3074 94.0873C30.8917 93.6016 30.5965 93.0246 30.446 92.4032L30.4486 92.4005ZM26.5001 118.45C28.6086 118.45 30.6307 117.612 32.1216 116.122C33.6125 114.631 34.4501 112.609 34.4501 110.5C34.4501 108.392 33.6125 106.369 32.1216 104.879C30.6307 103.388 28.6086 102.55 26.5001 102.55C24.3916 102.55 22.3695 103.388 20.8786 104.879C19.3877 106.369 18.5501 108.392 18.5501 110.5C18.5501 112.609 19.3877 114.631 20.8786 116.122C22.3695 117.612 24.3916 118.45 26.5001 118.45Z" fill="#2B3467"/>
<defs>
<linearGradient id="paint0_linear_2466_763" x1="269.5" y1="241.5" x2="177" y2="164" gradientUnits="userSpaceOnUse">
<stop stop-color="#192257"/>
<stop offset="1" stop-color="#2D3C92"/>
</linearGradient>
<linearGradient id="paint1_linear_2466_763" x1="177" y1="164" x2="265.5" y2="154.5" gradientUnits="userSpaceOnUse">
<stop stop-color="#2D3B8F"/>
<stop offset="1" stop-color="#2B3467"/>
</linearGradient>
</defs>
</svg>
