<svg width="100" height="80" viewBox="0 0 100 80" fill="none" xmlns="http://www.w3.org/2000/svg">
<path d="M85.3583 77.1516C87.6816 75.3681 92.708 74.9449 92.5739 76.1238C92.5367 76.4563 93.2069 76.3505 93.3781 76.0633C94.3387 74.4688 96.5354 73.6752 98.2183 74.1589C99.1268 74.4234 100.05 74.6426 99.998 73.6904C99.8193 70.3047 97.5183 61.6669 96.2674 54.8956C92.4697 34.2419 92.0303 27.6293 88.3741 10.6257C87.2274 5.28274 82.9755 8.38874 83.5712 8.02599C83.1691 30.7278 84.6211 53.4447 85.887 76.1162L85.3583 77.1516Z" fill="#C0CCD9"/>
<g opacity="0.6">
<path d="M89.7965 75.6474C89.0668 49.9151 86.9743 23.6842 85.4478 7.99545C84.6734 7.80652 83.9734 7.77629 83.5713 8.02567C83.1692 30.7275 84.0926 54.4872 85.3585 77.1588C86.0137 76.1915 88.4264 75.7229 89.7965 75.6474Z" fill="#E6E1DC"/>
</g>
<g opacity="0.6">
<path d="M86.4009 6.0835C86.9743 22.014 90.8315 54.8424 92.5665 76.1235C92.5665 76.1235 95.3962 74.3098 96.2674 74.1284C95.076 65.0824 87.0338 10.8521 86.4009 6.0835Z" fill="#E6E1DC"/>
</g>
<path d="M5.06371 13.55C31.8559 10.9956 55.6398 8.87963 82.499 7.19438C82.9979 7.16415 83.5341 7.14147 83.9585 7.40598C84.6362 7.83674 84.7255 8.77383 84.7479 9.58245C85.2989 31.1355 85.8499 52.6886 86.401 74.2342C86.4159 74.9219 86.4233 75.6473 86.0957 76.2444C85.4925 77.3175 84.0926 77.5366 82.8788 77.6273C56.794 79.6602 30.59 80.2043 4.44566 79.2597C3.58187 79.2294 2.66596 79.1765 1.97344 78.6551C0.930942 77.8767 0.796908 76.3728 0.759676 75.0654C0.208641 57.2456 0.119284 39.4106 0.506498 21.5908C0.566069 18.8929 0.804355 15.8322 2.88935 14.1621L5.06371 13.55Z" fill="#DCECFF"/>
<path d="M12.2344 53.3008H8.16862C6.98464 53.3008 6.0166 52.3184 6.0166 51.1168V47.1039C6.0166 45.9024 6.98464 44.9199 8.16862 44.9199H12.2344C13.4183 44.9199 14.3864 45.9024 14.3864 47.1039V51.1168C14.3864 52.3184 13.4183 53.3008 12.2344 53.3008Z" fill="#6290CB"/>
<path d="M44.6863 41.7232H39.9206C39.1387 41.7232 38.5132 41.0808 38.5132 40.2949V35.5263C38.5132 34.3247 39.4812 33.3423 40.6652 33.3423H44.6863C45.8702 33.3423 46.8383 34.3247 46.8383 35.5263V39.5392C46.8383 40.7332 45.8702 41.7232 44.6863 41.7232Z" fill="#6290CB"/>
<path d="M85.1569 24.8103L84.7399 9.59018C84.7176 8.78156 84.6282 7.84447 83.9506 7.41371C83.5261 7.14921 82.99 7.16432 82.4911 7.20211C55.6318 8.8798 31.848 11.0034 5.05575 13.5577L2.87395 14.1774C0.788949 15.8475 0.550663 18.9082 0.491092 21.6061C0.438967 24.032 0.416627 27.4931 0.379395 29.919C5.26425 29.1784 77.9711 24.7726 85.1569 24.8103Z" fill="#D1590C"/>
<path d="M10.6851 17.3286C10.6851 18.2279 9.96281 18.961 9.07669 18.961C8.19056 18.961 7.46826 18.2279 7.46826 17.3286C7.46826 16.4293 8.19056 15.6963 9.07669 15.6963C9.96281 15.6963 10.6851 16.4293 10.6851 17.3286Z" fill="#182E57"/>
<path d="M20.5069 16.5806C20.5069 17.4799 19.7846 18.2129 18.8985 18.2129C18.0123 18.2129 17.29 17.4799 17.29 16.5806C17.29 15.6813 18.0123 14.9482 18.8985 14.9482C19.792 14.9482 20.5069 15.6813 20.5069 16.5806Z" fill="#182E57"/>
<path d="M28.6983 17.0796C29.5866 17.0796 30.3067 16.3488 30.3067 15.4473C30.3067 14.5458 29.5866 13.8149 28.6983 13.8149C27.81 13.8149 27.0898 14.5458 27.0898 15.4473C27.0898 16.3488 27.81 17.0796 28.6983 17.0796Z" fill="#182E57"/>
<path d="M39.5552 16.0215C40.4435 16.0215 41.1636 15.2907 41.1636 14.3892C41.1636 13.4877 40.4435 12.7568 39.5552 12.7568C38.6669 12.7568 37.9468 13.4877 37.9468 14.3892C37.9468 15.2907 38.6669 16.0215 39.5552 16.0215Z" fill="#182E57"/>
<path d="M50.3076 15.107C51.196 15.107 51.9161 14.3762 51.9161 13.4746C51.9161 12.5731 51.196 11.8423 50.3076 11.8423C49.4193 11.8423 48.6992 12.5731 48.6992 13.4746C48.6992 14.3762 49.4193 15.107 50.3076 15.107Z" fill="#182E57"/>
<path d="M61.8868 12.7569C61.8868 13.6562 61.1645 14.3892 60.2784 14.3892C59.3922 14.3892 58.6699 13.6562 58.6699 12.7569C58.6699 11.8576 59.3922 11.1245 60.2784 11.1245C61.1719 11.1245 61.8868 11.85 61.8868 12.7569Z" fill="#182E57"/>
<path d="M72.2593 11.7818C72.2593 12.6811 71.537 13.4141 70.6509 13.4141C69.7648 13.4141 69.0425 12.6811 69.0425 11.7818C69.0425 10.8825 69.7648 10.1494 70.6509 10.1494C71.537 10.1494 72.2593 10.8825 72.2593 11.7818Z" fill="#182E57"/>
<path d="M17.6037 6.74879C17.3803 6.89994 16.6952 5.81926 14.9751 5.46407C14.1411 5.29025 13.0763 5.31292 12.0933 5.75124C11.1179 6.182 10.2019 7.09642 9.62857 8.27534C9.04775 9.46182 8.8318 10.7541 8.90627 11.933C8.96584 13.1195 9.26369 14.1851 9.569 15.0692C10.2168 16.8376 10.8572 17.8881 10.6487 18.0468C10.4849 18.1828 9.48709 17.3893 8.47437 15.5756C7.99036 14.6687 7.51379 13.4898 7.34252 12.069C7.15636 10.6559 7.36486 9.00839 8.10205 7.49695C8.8467 5.99307 10.0902 4.78392 11.5125 4.27003C12.9348 3.75614 14.3049 3.89973 15.3176 4.29271C16.3452 4.69324 17.0154 5.32804 17.3356 5.83437C17.6633 6.35581 17.693 6.70345 17.6037 6.74879Z" fill="#466398"/>
<path d="M27.3954 6.44595C27.1944 6.62732 26.3306 5.64489 24.603 4.91184C23.7467 4.55665 22.6521 4.30726 21.5202 4.49619C20.3884 4.67001 19.1671 5.28214 18.4225 6.31747C17.6779 7.33769 17.5215 8.7131 17.5513 9.97515C17.5959 11.2523 17.7449 12.4539 17.931 13.4061C18.3034 15.3256 18.9884 16.3761 18.7948 16.5348C18.7055 16.6028 18.4076 16.4365 18.0129 15.9756C17.6183 15.5221 17.1492 14.7589 16.7768 13.7386C16.412 12.7109 16.129 11.4941 15.9875 10.0658C15.9279 9.34791 15.9131 8.56952 16.0545 7.73822C16.196 6.91449 16.4939 6.04542 17.0449 5.2897C18.147 3.77826 19.8224 3.03766 21.3266 2.90919C22.868 2.77316 24.1935 3.24926 25.1317 3.81605C26.0849 4.39039 26.6806 5.05542 27.0306 5.54664C27.388 6.03786 27.4848 6.37038 27.3954 6.44595Z" fill="#466398"/>
<path d="M38.8032 4.66293C38.6245 4.88209 37.6639 4.03568 35.9066 3.71828C35.0353 3.56714 33.9631 3.58981 32.8535 3.92988C31.7515 4.26995 30.5898 4.91987 29.7037 5.89475C28.8027 6.86207 28.2666 8.08633 27.9761 9.23502C27.7006 10.3988 27.6708 11.5097 27.7676 12.4317C27.9538 14.2908 28.5272 15.3941 28.2963 15.5302C28.1474 15.6511 27.1421 14.7291 26.5837 12.6509C26.3156 11.6231 26.2039 10.3233 26.4422 8.91006C26.6954 7.50443 27.2985 5.96276 28.4602 4.71583C29.6069 3.46134 31.0664 2.71317 32.4589 2.38821C33.8588 2.06326 35.1917 2.18417 36.2119 2.53936C37.2395 2.88699 37.932 3.43866 38.3416 3.85431C38.7288 4.28507 38.8777 4.5798 38.8032 4.66293Z" fill="#466398"/>
<path d="M49.7944 4.23921C49.5859 4.4357 48.6998 3.42304 46.8307 2.89403C45.9148 2.62953 44.7606 2.50862 43.5543 2.72777C42.3554 2.95449 41.1044 3.56662 40.2481 4.62463C39.3917 5.70531 38.9152 7.0656 38.729 8.33521C38.5354 9.61237 38.5875 10.7988 38.7588 11.7737C39.0939 13.7386 39.8832 14.7739 39.6821 14.9553C39.6002 15.0309 39.2949 14.8571 38.863 14.4036C38.446 13.9426 37.9471 13.1567 37.5897 12.0836C37.2397 11.0104 37.0387 9.65771 37.1727 8.14628C37.2993 6.64996 37.7907 4.97226 38.9375 3.52884C40.114 2.0703 41.8118 1.33725 43.316 1.16344C44.8425 0.982064 46.2127 1.2768 47.2403 1.7529C48.2828 2.21389 48.9827 2.84869 49.3625 3.33991C49.7646 3.83113 49.8763 4.1712 49.7944 4.23921Z" fill="#466398"/>
<path d="M61.366 3.15146C61.1723 3.37817 60.182 2.42597 58.2533 1.95742C57.3077 1.70803 56.1237 1.57956 54.8876 1.82139C53.6515 2.05566 52.3856 2.67535 51.4473 3.73336C50.4942 4.77625 50.0251 6.13654 49.8761 7.42882C49.69 8.75888 49.6751 10.0285 49.7272 11.0336C49.7868 12.0538 49.9804 12.8322 50.2038 13.3234C50.4197 13.8146 50.6506 14.0565 50.5761 14.1774C50.5314 14.2681 50.1293 14.2076 49.6602 13.7088C49.1836 13.2176 48.7666 12.3259 48.5358 11.2074C48.3124 10.0814 48.2007 8.76644 48.3124 7.27012C48.3868 5.74357 48.923 3.96007 50.174 2.57711C51.4175 1.17903 53.1153 0.438425 54.6418 0.249496C56.1832 0.0530091 57.5757 0.34774 58.6257 0.793614C58.8937 0.8843 59.1395 1.01277 59.3554 1.1488C59.5788 1.27727 59.7948 1.39063 59.9735 1.5191C60.3234 1.80628 60.6362 2.03299 60.8447 2.27482C61.2766 2.7736 61.4479 3.06833 61.366 3.15146Z" fill="#466398"/>
<path d="M72.5879 2.90951C72.4464 3.13623 71.3295 2.49387 69.4604 1.97242C68.5296 1.71548 67.3978 1.50388 66.1914 1.58701C64.9851 1.65502 63.7341 2.08578 62.7288 2.99264C61.6864 3.92218 60.9417 5.09354 60.4949 6.24979C60.0332 7.41359 59.8471 8.54717 59.8098 9.51449C59.7354 11.4491 60.1971 12.6583 59.9439 12.7716C59.7801 12.8774 58.8642 11.7816 58.6035 9.55983C58.4769 8.46404 58.5588 7.11886 59.0131 5.71323C59.4599 4.30759 60.3088 2.8415 61.6044 1.69281C62.2672 1.1109 63.0342 0.665028 63.816 0.385412C64.6053 0.105796 65.3947 0.0151144 66.1393 0C67.6286 0 68.887 0.392971 69.8625 0.82373C71.8284 1.72303 72.7145 2.74326 72.5879 2.90951Z" fill="#466398"/>
<path d="M84.3233 7.97259C84.0477 8.00281 83.9807 6.40069 82.5585 4.60208C81.851 3.72545 80.8085 2.8337 79.4607 2.35004C78.1353 1.85882 76.4822 1.86638 74.9259 2.44073C73.3696 3.03019 72.0962 4.09575 71.3516 5.33513C70.5772 6.57451 70.257 7.92724 70.1527 9.06082C69.9814 11.3733 70.6442 12.8016 70.391 12.915C70.2942 12.9603 70.0038 12.6807 69.6761 12.0308C69.3485 11.3884 69.0134 10.3682 68.9464 9.0457C68.8943 7.73075 69.1251 6.0984 69.9963 4.51895C70.8452 2.93195 72.4164 1.53387 74.3376 0.815933C76.2588 0.098001 78.3587 0.135791 80.0267 0.86128C81.6947 1.5641 82.8489 2.76569 83.5414 3.89171C84.2339 5.03284 84.4871 6.10596 84.5169 6.83145C84.5615 7.57961 84.4275 7.97259 84.3233 7.97259Z" fill="#466398"/>
<path d="M85.1573 24.8103C85.1648 24.9161 83.9882 25.0823 81.8437 25.2864C79.7065 25.498 76.6014 25.7549 72.7739 26.0345C65.1115 26.6013 54.5153 27.289 42.817 27.9465C31.1186 28.6115 20.5224 29.1254 12.8451 29.4202C9.01021 29.5637 5.8976 29.6771 3.74559 29.6847C1.61591 29.6847 0.506395 30.123 0.461716 30.0172C0.409591 29.9416 1.51911 29.2841 3.70836 29.1027C5.85293 28.9214 8.94319 28.6418 12.7781 28.3697C20.4405 27.8029 31.0218 27.1152 42.7202 26.4577C54.4185 25.8003 65.0147 25.2788 72.6995 24.9841C76.5418 24.8329 79.6544 24.7423 81.8064 24.7045C83.9585 24.6742 85.1499 24.7045 85.1573 24.8103Z" fill="#E4B93A"/>
<path d="M7.95286 53.1346C7.94542 53.2027 7.70713 53.2707 7.30502 53.112C6.91036 52.9533 6.40401 52.5301 6.10615 51.8121C5.80085 51.1018 5.76361 50.2025 5.74872 49.3334C5.74128 48.8875 5.73383 48.419 5.72638 47.9353C5.74127 47.4365 5.67426 46.9982 5.80085 46.3105C5.87531 45.9704 6.06892 45.6228 6.31465 45.3885C6.56038 45.1467 6.8359 44.988 7.10397 44.8746C7.64011 44.6555 8.14647 44.595 8.59325 44.5572C9.48683 44.4741 10.291 44.459 10.9687 44.4817C12.3165 44.5346 13.143 44.7386 13.1356 44.8898C13.1281 45.056 12.3016 45.1392 11.0059 45.2903C10.3581 45.3659 9.58363 45.4641 8.73474 45.6001C7.90818 45.7135 7.00717 45.978 6.91781 46.575C6.84335 46.9 6.87313 47.4743 6.85079 47.9429C6.8359 48.4265 6.82101 48.8951 6.80611 49.3409C6.76143 50.2403 6.73165 50.9733 6.88058 51.5476C7.01461 52.1069 7.31247 52.5074 7.55075 52.7341C7.77415 52.9533 7.96775 53.044 7.95286 53.1346Z" fill="#567A98"/>
<path d="M11.4006 44.973C11.3634 44.9126 11.557 44.6858 12.0559 44.6027C12.525 44.5271 13.3664 44.6405 13.9696 45.4491C14.2675 45.8723 14.3568 46.4013 14.4164 46.8699C14.4685 47.3309 14.5281 47.8296 14.5951 48.3511C14.6472 48.8801 14.7068 49.4242 14.7589 49.9985C14.7962 50.588 14.8259 51.2606 14.5653 51.9861C14.3121 52.7191 13.642 53.2859 13.0016 53.49C12.3612 53.7091 11.758 53.7242 11.2219 53.7167C10.1645 53.6789 9.25601 53.6109 8.46669 53.5504C8.06459 53.5126 7.66993 53.4522 7.33484 53.301C6.99975 53.1574 6.75402 52.9383 6.60509 52.7267C6.30723 52.2808 6.40403 51.9559 6.47105 51.9634C6.55296 51.9559 6.62743 52.1901 6.92528 52.4168C7.22314 52.6587 7.72205 52.7796 8.48159 52.7267C9.24857 52.6889 10.2092 52.6662 11.207 52.6511C12.1899 52.6284 13.2175 52.4168 13.5005 51.5704C13.8058 50.7089 13.5675 49.4695 13.5452 48.4342C13.5228 47.9128 13.493 47.414 13.4707 46.9454C13.4558 46.492 13.4186 46.1293 13.2771 45.8799C12.9941 45.3358 12.4207 45.1015 12.0484 45.0486C11.6761 44.9881 11.4378 45.0561 11.4006 44.973Z" fill="#567A98"/>
<path d="M8.57823 64.1229C8.57078 64.1909 8.33249 64.259 7.93039 64.1003C7.53573 63.9416 7.02937 63.5184 6.73152 62.8004C6.42621 62.09 6.38898 61.1907 6.37409 60.3217C6.36664 59.8758 6.35919 59.4072 6.35919 58.9236C6.37409 58.4248 6.30707 57.9865 6.43366 57.2988C6.50812 56.9587 6.70173 56.6111 6.94746 56.3768C7.19319 56.135 7.46871 55.9763 7.73678 55.8629C8.27292 55.6438 8.77928 55.5833 9.22607 55.5455C10.1196 55.4624 10.9238 55.4473 11.6015 55.47C12.9493 55.5229 13.7758 55.7269 13.7684 55.878C13.7609 56.0443 12.9344 56.1274 11.6387 56.2786C10.9909 56.3541 10.2164 56.4524 9.36755 56.5884C8.54099 56.7018 7.63998 56.9663 7.55062 57.5633C7.47616 57.8882 7.50594 58.4626 7.4836 58.9311C7.46871 59.4148 7.45382 59.8833 7.43892 60.3292C7.39425 61.2285 7.36446 61.9616 7.51339 62.5359C7.64743 63.0951 7.94528 63.4957 8.18357 63.7224C8.39951 63.9491 8.59312 64.0398 8.57823 64.1229Z" fill="#879CAE"/>
<path d="M12.0256 55.9691C11.9884 55.9086 12.182 55.6819 12.6809 55.5988C13.15 55.5232 13.9914 55.6366 14.5946 56.4452C14.8925 56.8684 14.9818 57.3974 15.0414 57.866C15.0935 58.3269 15.1531 58.8257 15.2201 59.3472C15.2722 59.8686 15.3318 60.4203 15.3839 60.9946C15.4212 61.5841 15.4509 62.2642 15.1903 62.9822C14.9371 63.7152 14.267 64.282 13.6266 64.486C12.9862 64.7052 12.383 64.7203 11.8469 64.7128C10.7895 64.675 9.88101 64.607 9.09169 64.5465C8.68959 64.5087 8.29493 64.4483 7.95984 64.2971C7.62475 64.1535 7.37902 63.9344 7.23009 63.7228C6.93223 63.2769 7.02903 62.9519 7.09605 62.9595C7.17796 62.9519 7.25243 63.1862 7.55028 63.4129C7.84814 63.6548 8.34705 63.7757 9.10659 63.7228C9.87357 63.685 10.8342 63.6623 11.832 63.6472C12.8149 63.6245 13.8425 63.4129 14.1255 62.5665C14.4308 61.705 14.1925 60.4656 14.1702 59.4303C14.1478 58.9088 14.118 58.4101 14.0957 57.9415C14.0808 57.4881 14.0436 57.1254 13.9021 56.876C13.6191 56.3319 13.0457 56.0976 12.6734 56.0447C12.3011 55.9842 12.0628 56.0522 12.0256 55.9691Z" fill="#879CAE"/>
<path d="M7.40892 42.5848C7.40147 42.6529 7.16318 42.7209 6.76108 42.5622C6.36642 42.4035 5.86006 41.9803 5.5622 41.2623C5.2569 40.552 5.21967 39.6527 5.20477 38.7836C5.19733 38.3377 5.18988 37.8692 5.18244 37.3855C5.19733 36.8867 5.13031 36.4484 5.2569 35.7607C5.33137 35.4206 5.52497 35.073 5.7707 34.8387C6.01644 34.5969 6.29195 34.4382 6.56003 34.3248C7.09617 34.1057 7.60252 34.0452 8.04931 34.0074C8.94288 33.9243 9.74709 33.9092 10.4247 33.9319C11.78 33.9848 12.5991 34.1888 12.5916 34.34C12.5842 34.5062 11.7651 34.5893 10.4619 34.7405C9.81411 34.8161 9.03968 34.9143 8.19079 35.0503C7.36424 35.1637 6.46322 35.4282 6.37386 36.0252C6.2994 36.3502 6.32919 36.9245 6.30685 37.3931C6.29195 37.8767 6.27706 38.3453 6.26217 38.7911C6.21749 39.6904 6.1877 40.4235 6.33663 40.9978C6.47067 41.5571 6.76852 41.9576 7.00681 42.1843C7.2302 42.411 7.42381 42.5017 7.40892 42.5848Z" fill="#879CAE"/>
<path d="M10.8566 34.4232C10.8194 34.3628 11.013 34.136 11.5119 34.0529C11.981 33.9773 12.8225 34.0907 13.4257 34.8993C13.7235 35.3225 13.8129 35.8515 13.8724 36.3201C13.9246 36.781 13.9841 37.2798 14.0512 37.8013C14.1033 38.3303 14.1629 38.8744 14.215 39.4487C14.2522 40.0382 14.282 40.7108 14.0214 41.4363C13.7682 42.1693 13.098 42.7361 12.4576 42.9402C11.8172 43.1593 11.2141 43.1744 10.6779 43.1669C9.62053 43.1291 8.71207 43.0611 7.92275 43.0006C7.52064 42.9628 7.12598 42.9024 6.79089 42.7512C6.4558 42.6076 6.21007 42.3885 6.06114 42.1769C5.76329 41.731 5.86009 41.406 5.92711 41.4136C6.00902 41.3985 6.08348 41.6403 6.38134 41.867C6.6792 42.1089 7.17811 42.2298 7.93764 42.1769C8.70462 42.1391 9.66521 42.1164 10.663 42.1013C11.646 42.0786 12.6736 41.867 12.9565 41.0206C13.2618 40.1591 13.0235 38.9197 13.0012 37.8844C12.9789 37.363 12.9491 36.8642 12.9267 36.3956C12.9119 35.9422 12.8746 35.5795 12.7331 35.3301C12.4502 34.786 11.8768 34.5517 11.5045 34.4988C11.1322 34.4383 10.8864 34.5063 10.8566 34.4232Z" fill="#879CAE"/>
<path d="M18.6681 52.9008C18.6606 52.9688 18.4223 53.0368 18.0202 52.8781C17.6256 52.7194 17.1192 52.2962 16.8214 51.5783C16.5161 50.8679 16.4788 49.9686 16.4639 49.0995C16.4565 48.6536 16.449 48.1851 16.449 47.7014C16.4639 47.2027 16.3969 46.7643 16.5235 46.0766C16.598 45.7365 16.7916 45.3889 17.0373 45.1546C17.283 44.9128 17.5586 44.7541 17.8266 44.6408C18.3628 44.4216 18.8691 44.3611 19.3159 44.3234C20.2095 44.2402 21.0137 44.2251 21.6913 44.2478C23.0466 44.3007 23.8657 44.5047 23.8582 44.6559C23.8508 44.8221 23.0317 44.9053 21.7285 45.0564C21.0807 45.132 20.3063 45.2302 19.4574 45.3662C18.6308 45.4796 17.7298 45.7441 17.6405 46.3411C17.566 46.6661 17.5958 47.2404 17.5734 47.709C17.5586 48.1926 17.5437 48.6612 17.5288 49.1071C17.4841 50.0064 17.4543 50.7394 17.6032 51.3138C17.7373 51.873 18.0351 52.2735 18.2734 52.5002C18.4894 52.7269 18.683 52.8176 18.6681 52.9008Z" fill="#879CAE"/>
<path d="M22.1154 44.7465C22.0782 44.686 22.2718 44.4593 22.7707 44.3761C23.2398 44.3006 24.0813 44.4139 24.6844 45.2226C24.9823 45.6458 25.0717 46.1748 25.1312 46.6433C25.1834 47.1043 25.2429 47.6031 25.3099 48.1245C25.3621 48.646 25.4216 49.1976 25.4738 49.772C25.511 50.3614 25.5408 51.034 25.2802 51.7595C25.027 52.4926 24.3568 53.0594 23.7164 53.2634C23.076 53.4826 22.4729 53.4977 21.9367 53.4901C20.8793 53.4523 19.9709 53.3843 19.1815 53.3239C18.7794 53.2861 18.3848 53.2256 18.0497 53.0745C17.7146 52.9309 17.4689 52.7117 17.3199 52.5001C17.0221 52.0542 17.1189 51.7293 17.1859 51.7368C17.2678 51.7217 17.3423 51.9636 17.6401 52.1903C17.938 52.4321 18.4369 52.553 19.1964 52.5001C19.9634 52.4623 20.924 52.4397 21.9218 52.4246C22.9047 52.4019 23.9324 52.1903 24.2153 51.3439C24.5206 50.4824 24.2823 49.243 24.26 48.2076C24.2377 47.6862 24.2079 47.1874 24.1855 46.7189C24.1706 46.2654 24.1334 45.9027 23.9919 45.6533C23.709 45.1092 23.1356 44.8749 22.7633 44.822C22.3909 44.7616 22.1527 44.822 22.1154 44.7465Z" fill="#879CAE"/>
<path d="M19.2937 63.8959C19.2862 63.9639 19.048 64.0319 18.6458 63.8732C18.2512 63.7145 17.7448 63.2913 17.447 62.5734C17.1417 61.863 17.1044 60.9637 17.0895 60.0946C17.0821 59.6487 17.0746 59.1802 17.0672 58.6965C17.0821 58.1978 17.0151 57.7594 17.1417 57.0717C17.2161 56.7317 17.4097 56.384 17.6555 56.1498C17.9012 55.9079 18.1767 55.7492 18.4448 55.6359C18.9809 55.4167 19.4873 55.3563 19.9341 55.3185C20.8276 55.2353 21.6319 55.2202 22.3095 55.2429C23.6573 55.2958 24.4838 55.4998 24.4764 55.651C24.4689 55.8172 23.6498 55.9004 22.3467 56.0515C21.6989 56.1271 20.9244 56.2253 20.0756 56.3614C19.249 56.4747 18.348 56.7392 18.2586 57.3362C18.1842 57.6612 18.214 58.2356 18.1916 58.7041C18.1767 59.1878 18.1618 59.6563 18.1469 60.1022C18.1023 61.0015 18.0725 61.7345 18.2214 62.3089C18.3554 62.8681 18.6533 63.2686 18.8916 63.4953C19.1224 63.7221 19.3086 63.8127 19.2937 63.8959Z" fill="#879CAE"/>
<path d="M22.7414 55.7342C22.7042 55.6738 22.8978 55.4471 23.3967 55.3639C23.8658 55.2884 24.7073 55.4017 25.3104 56.2103C25.6083 56.6335 25.6976 57.1626 25.7572 57.6311C25.8093 58.0921 25.8689 58.5909 25.9359 59.1123C25.988 59.6413 26.0476 60.1854 26.0997 60.7598C26.137 61.3492 26.1668 62.0294 25.9061 62.7473C25.653 63.4803 24.9828 64.0471 24.3424 64.2512C23.702 64.4703 23.0988 64.4855 22.5627 64.4779C21.5053 64.4401 20.5968 64.3721 19.8075 64.3116C19.4054 64.2739 19.0107 64.2134 18.6757 64.0623C18.3406 63.9187 18.0948 63.6995 17.9459 63.4879C17.6481 63.042 17.7449 62.7171 17.8119 62.7246C17.8938 62.7095 17.9682 62.9514 18.2661 63.1781C18.564 63.4199 19.0629 63.5408 19.8224 63.4879C20.5894 63.4501 21.55 63.4275 22.5478 63.4123C23.5307 63.3897 24.5583 63.1781 24.8413 62.3317C25.1466 61.4701 24.9083 60.2308 24.886 59.1954C24.8636 58.674 24.8338 58.1752 24.8115 57.7067C24.7966 57.2532 24.7594 56.8905 24.6179 56.6411C24.3349 56.097 23.7616 55.8627 23.3892 55.8098C23.0169 55.7569 22.7786 55.8174 22.7414 55.7342Z" fill="#879CAE"/>
<path d="M18.1246 42.351C18.1172 42.419 17.8789 42.487 17.4768 42.3283C17.0821 42.1696 16.5758 41.7464 16.2779 41.0284C15.9726 40.3181 15.9354 39.4188 15.9205 38.5497C15.913 38.1038 15.9056 37.6353 15.9056 37.1516C15.9205 36.6528 15.8535 36.2145 15.98 35.5268C16.0545 35.1867 16.2481 34.8391 16.4938 34.6048C16.7396 34.363 17.0151 34.2043 17.2832 34.0909C17.8193 33.8718 18.3257 33.8113 18.7725 33.7735C19.666 33.6904 20.4702 33.6753 21.1479 33.698C22.5031 33.7509 23.3222 33.9549 23.3148 34.1061C23.3073 34.2723 22.4808 34.3555 21.1851 34.5066C20.5373 34.5822 19.7628 34.6804 18.9139 34.8164C18.0874 34.9298 17.1864 35.1943 17.097 35.7913C17.0225 36.1163 17.0523 36.6906 17.03 37.1592C17.0151 37.6428 17.0002 38.1114 16.9853 38.5572C16.9406 39.4566 16.9108 40.1896 17.0598 40.7639C17.1938 41.3232 17.4917 41.7237 17.73 41.9504C17.9459 42.1771 18.1395 42.2678 18.1246 42.351Z" fill="#879CAE"/>
<path d="M21.572 34.1966C21.5347 34.1362 21.7283 33.9095 22.2273 33.8263C22.6964 33.7508 23.5378 33.8641 24.141 34.6727C24.4388 35.0959 24.5282 35.625 24.5878 36.0935C24.6399 36.5545 24.6995 37.0533 24.7665 37.5747C24.8186 38.0961 24.8782 38.6478 24.9303 39.2222C24.9675 39.8116 24.9973 40.4842 24.7367 41.2097C24.4835 41.9428 23.8133 42.5095 23.173 42.7136C22.5326 42.9327 21.9294 42.9479 21.3933 42.9403C20.3359 42.9025 19.4274 42.8345 18.6381 42.774C18.236 42.7363 17.8413 42.6758 17.5062 42.5247C17.1711 42.3811 16.9254 42.1619 16.7765 41.9503C16.4786 41.5044 16.5754 41.1795 16.6424 41.187C16.7243 41.1719 16.7988 41.4138 17.0967 41.6405C17.3945 41.8823 17.8934 42.0032 18.653 41.9503C19.42 41.9125 20.3805 41.8899 21.3784 41.8747C22.3613 41.8521 23.3889 41.6405 23.6719 40.7941C23.9772 39.9326 23.7389 38.6932 23.7165 37.6578C23.6942 37.1364 23.6644 36.6376 23.6421 36.1691C23.6272 35.7156 23.59 35.3529 23.4485 35.1035C23.1655 34.5594 22.5921 34.3251 22.2198 34.2722C21.8475 34.2118 21.6018 34.2722 21.572 34.1966Z" fill="#879CAE"/>
<path d="M29.8898 52.6664C29.8823 52.7344 29.644 52.8024 29.2419 52.6437C28.8473 52.485 28.3409 52.0618 28.043 51.3439C27.7377 50.6335 27.7005 49.7342 27.6856 48.8651C27.6782 48.4192 27.6707 47.9507 27.6707 47.467C27.6856 46.9683 27.6186 46.53 27.7452 45.8422C27.8196 45.5022 28.0133 45.1545 28.259 44.9203C28.5047 44.6784 28.7802 44.5197 29.0483 44.4064C29.5844 44.1872 30.0908 44.1268 30.5376 44.089C31.4312 44.0059 32.2354 43.9907 32.913 44.0134C34.2608 44.0663 35.0874 44.2703 35.0799 44.4215C35.0725 44.5878 34.2459 44.6709 32.9502 44.822C32.3024 44.8976 31.528 44.9958 30.6791 45.1319C29.8525 45.2452 28.9515 45.5097 28.8621 46.1068C28.7877 46.4317 28.8175 47.0061 28.7951 47.4746C28.7802 47.9583 28.7653 48.4268 28.7504 48.8727C28.7058 49.772 28.676 50.505 28.8249 51.0794C28.959 51.6386 29.2568 52.0391 29.4951 52.2659C29.711 52.4926 29.9046 52.5833 29.8898 52.6664Z" fill="#879CAE"/>
<path d="M33.3371 44.5126C33.2999 44.4521 33.4935 44.2254 33.9924 44.1423C34.4615 44.0667 35.303 44.18 35.9061 44.9887C36.204 45.4119 36.2933 45.9409 36.3529 46.4094C36.405 46.8704 36.4646 47.3692 36.5316 47.8906C36.5837 48.4121 36.6433 48.9637 36.6954 49.5381C36.7327 50.1276 36.7625 50.8001 36.5018 51.5256C36.2487 52.2587 35.5785 52.8255 34.9381 53.0295C34.2977 53.2487 33.6945 53.2638 33.1584 53.2562C32.101 53.2184 31.1925 53.1504 30.4032 53.09C30.0011 53.0522 29.6065 52.9917 29.2714 52.8406C28.9363 52.697 28.6905 52.4778 28.5416 52.2662C28.2438 51.8204 28.3406 51.4954 28.4076 51.503C28.4895 51.4954 28.564 51.7297 28.8618 51.9564C29.1597 52.1982 29.6586 52.3191 30.4181 52.2662C31.1851 52.2284 32.1457 52.2058 33.1435 52.1907C34.1264 52.168 35.154 51.9564 35.437 51.11C35.7423 50.2485 35.504 49.0091 35.4817 47.9738C35.4593 47.4523 35.4296 46.9535 35.4072 46.485C35.3923 46.0316 35.3551 45.6688 35.2136 45.4194C34.9306 44.8753 34.3573 44.641 33.985 44.5881C33.6126 44.5277 33.3669 44.5881 33.3371 44.5126Z" fill="#879CAE"/>
<path d="M30.5152 63.662C30.5078 63.73 30.2695 63.798 29.8674 63.6393C29.4727 63.4806 28.9664 63.0574 28.6685 62.3395C28.3632 61.6291 28.326 60.7298 28.3111 59.8607C28.3037 59.4149 28.2962 58.9463 28.2962 58.4626C28.3111 57.9639 28.2441 57.5256 28.3707 56.8379C28.4451 56.4978 28.6387 56.1502 28.8845 55.9159C29.1302 55.674 29.4057 55.5153 29.6738 55.402C30.2099 55.1828 30.7163 55.1224 31.1631 55.0846C32.0567 55.0015 32.8609 54.9863 33.5385 55.009C34.8937 55.0619 35.7128 55.266 35.7054 55.4171C35.698 55.5834 34.8714 55.6665 33.5757 55.8176C32.9279 55.8932 32.1535 55.9914 31.3046 56.1275C30.478 56.2408 29.577 56.5053 29.4876 57.1023C29.4132 57.4273 29.443 58.0017 29.4206 58.4702C29.4057 58.9539 29.3908 59.4224 29.3759 59.8683C29.3313 60.7676 29.3015 61.5006 29.4504 62.075C29.5844 62.6342 29.8823 63.0347 30.1206 63.2615C30.3365 63.4882 30.5301 63.5789 30.5152 63.662Z" fill="#879CAE"/>
<path d="M33.9626 55.5077C33.9254 55.4472 34.119 55.2205 34.6179 55.1374C35.087 55.0618 35.9285 55.1752 36.5316 55.9838C36.8295 56.407 36.9188 56.936 36.9784 57.4045C37.0305 57.8655 37.0901 58.3643 37.1571 58.8857C37.2092 59.4147 37.2688 59.9589 37.3209 60.5332C37.3582 61.1227 37.3879 61.8028 37.1273 62.5208C36.8741 63.2538 36.204 63.8206 35.5636 64.0246C34.9232 64.2438 34.32 64.2589 33.7839 64.2513C32.7265 64.2136 31.818 64.1455 31.0287 64.0851C30.6266 64.0473 30.2319 63.9868 29.8968 63.8357C29.5618 63.6921 29.316 63.473 29.1671 63.2614C28.8692 62.8155 28.966 62.4905 29.0331 62.4981C29.115 62.4905 29.1894 62.7248 29.4873 62.9515C29.7852 63.1933 30.2841 63.3143 31.0436 63.2614C31.8106 63.2236 32.7712 63.2009 33.769 63.1858C34.7519 63.1631 35.7795 62.9515 36.0625 62.1051C36.3678 61.2436 36.1295 60.0042 36.1072 58.9689C36.0848 58.4474 36.055 57.9486 36.0327 57.4801C36.0178 57.0267 35.9806 56.6639 35.8391 56.4145C35.5561 55.8704 34.9828 55.6362 34.6104 55.5833C34.2381 55.5228 33.9924 55.5832 33.9626 55.5077Z" fill="#879CAE"/>
<path d="M29.3463 42.1166C29.3388 42.1846 29.1006 42.2526 28.6985 42.0939C28.3038 41.9352 27.7974 41.512 27.4996 40.7941C27.1943 40.0837 27.157 39.1844 27.1422 38.3153C27.1347 37.8694 27.1273 37.4009 27.1273 36.9172C27.1422 36.4185 27.0751 35.9801 27.2017 35.2924C27.2762 34.9524 27.4698 34.6047 27.7155 34.3705C27.9613 34.1286 28.2368 33.9699 28.5049 33.8566C29.041 33.6374 29.5473 33.577 29.9941 33.5392C30.8877 33.4561 31.6919 33.4409 32.3695 33.4636C33.7248 33.5165 34.5439 33.7206 34.5365 33.8717C34.529 34.038 33.7099 34.1211 32.4068 34.2722C31.7589 34.3478 30.9845 34.446 30.1356 34.5821C29.3091 34.6954 28.408 34.9599 28.3187 35.5569C28.2442 35.8819 28.274 36.4563 28.2517 36.9248C28.2368 37.4085 28.2219 37.877 28.207 38.3229C28.1623 39.2222 28.1325 39.9552 28.2815 40.5296C28.4155 41.0888 28.7133 41.4893 28.9516 41.716C29.1676 41.9428 29.3612 42.0335 29.3463 42.1166Z" fill="#879CAE"/>
<path d="M32.7868 33.9628C32.7496 33.9023 32.9432 33.6756 33.4421 33.5925C33.9112 33.5169 34.7527 33.6303 35.3558 34.4389C35.6537 34.8621 35.743 35.3911 35.8026 35.8596C35.8547 36.3206 35.9143 36.8194 35.9813 37.3408C36.0335 37.8623 36.093 38.414 36.1451 38.9883C36.1824 39.5778 36.2122 40.2579 35.9515 40.9758C35.6984 41.7089 35.0282 42.2757 34.3878 42.4797C33.7474 42.6989 33.1442 42.714 32.6081 42.7064C31.5507 42.6686 30.6422 42.6006 29.8529 42.5402C29.4508 42.5024 29.0562 42.4419 28.7211 42.2908C28.386 42.1472 28.1402 41.928 27.9913 41.7164C27.6935 41.2706 27.7903 40.9456 27.8573 40.9532C27.9392 40.9456 28.0137 41.1799 28.3115 41.4066C28.6094 41.6484 29.1083 41.7693 29.8678 41.7164C30.6348 41.6786 31.5954 41.656 32.5932 41.6409C33.5761 41.6182 34.6037 41.4066 34.8867 40.5602C35.192 39.6987 34.9537 38.4593 34.9314 37.424C34.909 36.9025 34.8793 36.4037 34.8569 35.9352C34.842 35.4818 34.8048 35.119 34.6633 34.8696C34.3803 34.3255 33.807 34.0912 33.4347 34.0383C33.0698 33.9779 32.824 34.0459 32.7868 33.9628Z" fill="#879CAE"/>
<path d="M40.8283 52.4396C40.8209 52.5076 40.5826 52.5756 40.1805 52.4169C39.7859 52.2582 39.2795 51.835 38.9816 51.1171C38.6763 50.4067 38.6391 49.5074 38.6242 48.6307C38.6168 48.1849 38.6093 47.7163 38.6019 47.2327C38.6168 46.7339 38.5497 46.2956 38.6763 45.6079C38.7508 45.2678 38.9444 44.9202 39.1901 44.6859C39.4359 44.4441 39.7114 44.2854 39.9795 44.172C40.5156 43.9528 41.022 43.8924 41.4687 43.8546C42.3623 43.7715 43.1665 43.7564 43.8442 43.779C45.192 43.8319 46.0185 44.036 46.0111 44.1871C46.0036 44.3534 45.1771 44.4365 43.8814 44.5877C43.2335 44.6632 42.4591 44.7615 41.6102 44.8975C40.7837 45.0109 39.8827 45.2754 39.7933 45.8724C39.7188 46.1973 39.7486 46.7717 39.7263 47.2402C39.7114 47.7239 39.6965 48.1924 39.6816 48.6383C39.6369 49.5376 39.6071 50.2706 39.7561 50.845C39.8901 51.4042 40.188 51.8048 40.4262 52.0315C40.6496 52.2582 40.8432 52.3564 40.8283 52.4396Z" fill="#879CAE"/>
<path d="M44.2761 44.2777C44.2388 44.2172 44.4324 43.9905 44.9314 43.9074C45.4005 43.8318 46.2419 43.9452 46.8451 44.7538C47.1429 45.177 47.2323 45.706 47.2919 46.1746C47.344 46.6355 47.4036 47.1343 47.4706 47.6558C47.5227 48.1772 47.5823 48.7289 47.6344 49.3032C47.6716 49.8927 47.7014 50.5653 47.4408 51.2908C47.1876 52.0238 46.5174 52.5906 45.877 52.7946C45.2367 53.0138 44.6335 53.0289 44.0974 53.0214C43.04 52.9836 42.1315 52.9156 41.3422 52.8551C40.9401 52.8173 40.5454 52.7569 40.2103 52.6057C39.8752 52.4621 39.6295 52.243 39.4806 52.0314C39.1827 51.5855 39.2795 51.2605 39.3465 51.2681C39.4285 51.2605 39.5029 51.4948 39.8008 51.7215C40.0986 51.9634 40.5975 52.0843 41.3571 52.0314C42.1241 51.9936 43.0846 51.9709 44.0825 51.9558C45.0654 51.9331 46.093 51.7215 46.376 50.8751C46.6813 50.0136 46.443 48.7742 46.4206 47.7389C46.3983 47.2174 46.3685 46.7187 46.3462 46.2501C46.3313 45.7967 46.2941 45.434 46.1526 45.1846C45.8696 44.6404 45.2962 44.4062 44.9239 44.3533C44.5516 44.2928 44.3059 44.3608 44.2761 44.2777Z" fill="#879CAE"/>
<path d="M41.4542 63.4354C41.4468 63.5034 41.2085 63.5715 40.8064 63.4128C40.4117 63.2541 39.9053 62.8309 39.6075 62.1129C39.3022 61.4025 39.265 60.5032 39.2501 59.6342C39.2426 59.1883 39.2352 58.7197 39.2352 58.2361C39.2501 57.7373 39.183 57.299 39.3096 56.6113C39.3841 56.2712 39.5777 55.9236 39.8234 55.6893C40.0692 55.4475 40.3447 55.2888 40.6128 55.1754C41.1489 54.9563 41.6553 54.8958 42.102 54.858C42.9956 54.7749 43.7998 54.7598 44.4775 54.7825C45.8253 54.8354 46.6518 55.0394 46.6444 55.1905C46.6369 55.3568 45.8104 55.4399 44.5147 55.5911C43.8668 55.6666 43.0924 55.7649 42.2435 55.9009C41.417 56.0143 40.516 56.2788 40.4266 56.8758C40.3521 57.2008 40.3819 57.7751 40.3596 58.2436C40.3447 58.7273 40.3298 59.1958 40.3149 59.6417C40.2702 60.541 40.2404 61.2741 40.3894 61.8484C40.5234 62.4077 40.8213 62.8082 41.0595 63.0349C41.2755 63.2541 41.4691 63.3447 41.4542 63.4354Z" fill="#879CAE"/>
<path d="M44.9021 55.2738C44.8648 55.2133 45.0584 54.9866 45.5573 54.9035C46.0265 54.8279 46.8679 54.9413 47.4711 55.7499C47.7689 56.1731 47.8583 56.7021 47.9179 57.1706C47.97 57.6316 48.0295 58.1304 48.0966 58.6518C48.1487 59.1733 48.2083 59.725 48.2604 60.2993C48.2976 60.8888 48.3274 61.5614 48.0668 62.2869C47.8136 63.0199 47.1434 63.5867 46.503 63.7907C45.8626 64.0099 45.2595 64.025 44.7233 64.0175C43.6659 63.9797 42.7575 63.9117 41.9682 63.8512C41.5661 63.8134 41.1714 63.753 40.8363 63.6018C40.5012 63.4582 40.2555 63.2391 40.1066 63.0275C39.8087 62.5816 39.9055 62.2566 39.9725 62.2642C40.0544 62.2491 40.1289 62.4909 40.4267 62.7176C40.7246 62.9594 41.2235 63.0804 41.9831 63.0275C42.75 62.9897 43.7106 62.967 44.7084 62.9519C45.6914 62.9292 46.719 62.7176 47.0019 61.8712C47.3072 61.0097 47.069 59.7703 47.0466 58.735C47.0243 58.2135 46.9945 57.7148 46.9722 57.2462C46.9573 56.7928 46.92 56.43 46.7785 56.1807C46.4956 55.6365 45.9222 55.4023 45.5499 55.3494C45.1776 55.2889 44.9318 55.3569 44.9021 55.2738Z" fill="#879CAE"/>
<path d="M40.2849 41.89C40.2774 41.958 40.0392 42.026 39.6371 41.8673C39.2424 41.7086 38.736 41.2854 38.4382 40.5675C38.1329 39.8571 38.0956 38.9578 38.0808 38.0888C38.0733 37.6429 38.0659 37.1743 38.0584 36.6907C38.0733 36.1919 38.0063 35.7536 38.1329 35.0659C38.2073 34.7258 38.4009 34.3782 38.6467 34.1439C38.8924 33.9021 39.1679 33.7434 39.436 33.63C39.9721 33.4109 40.4785 33.3504 40.9253 33.3126C41.8189 33.2295 42.6231 33.2144 43.3007 33.237C44.6559 33.2899 45.4751 33.494 45.4676 33.6451C45.4602 33.8114 44.6336 33.8945 43.3379 34.0457C42.6901 34.1212 41.9157 34.2195 41.0668 34.3555C40.2402 34.4689 39.3392 34.7334 39.2498 35.3304C39.1754 35.6553 39.2052 36.2297 39.1828 36.6982C39.1679 37.1819 39.153 37.6504 39.1381 38.0963C39.0935 38.9956 39.0637 39.7287 39.2126 40.303C39.3466 40.8622 39.6445 41.2628 39.8828 41.4895C40.1062 41.7162 40.2998 41.8069 40.2849 41.89Z" fill="#567A98"/>
<path d="M43.7248 33.7284C43.6876 33.6679 43.8812 33.4412 44.3801 33.3581C44.8492 33.2825 45.6907 33.3959 46.2938 34.2045C46.5917 34.6277 46.681 35.1567 46.7406 35.6252C46.7927 36.0862 46.8523 36.585 46.9193 37.1065C46.9714 37.6355 47.031 38.1796 47.0831 38.7539C47.1204 39.3434 47.1502 40.0235 46.8895 40.7415C46.6364 41.4745 45.9662 42.0413 45.3258 42.2453C44.6854 42.4645 44.0822 42.4796 43.5461 42.472C42.4887 42.4343 41.5802 42.3663 40.7909 42.3058C40.3888 42.268 39.9941 42.2076 39.6591 42.0564C39.324 41.9128 39.0782 41.6937 38.9293 41.4821C38.6315 41.0362 38.7283 40.7112 38.7953 40.7188C38.8772 40.7037 38.9516 40.9455 39.2495 41.1722C39.5474 41.414 40.0463 41.535 40.8058 41.4821C41.5728 41.4443 42.5334 41.4216 43.5312 41.4065C44.5141 41.3838 45.5417 41.1722 45.8247 40.3258C46.13 39.4643 45.8917 38.2249 45.8694 37.1896C45.847 36.6681 45.8172 36.1694 45.7949 35.7008C45.78 35.2474 45.7428 34.8846 45.6013 34.6352C45.3183 34.0911 44.745 33.8569 44.3726 33.804C44.0003 33.7511 43.762 33.8115 43.7248 33.7284Z" fill="#567A98"/>
<path d="M51.7302 52.2054C51.7228 52.2735 51.4845 52.3415 51.0824 52.1828C50.6877 52.0241 50.1814 51.6009 49.8835 50.8829C49.5782 50.1726 49.541 49.2733 49.5261 48.4042C49.5186 47.9583 49.5112 47.4898 49.5037 47.0061C49.5186 46.5073 49.4516 46.069 49.5782 45.3813C49.6527 45.0412 49.8463 44.6936 50.092 44.4593C50.3377 44.2175 50.6132 44.0588 50.8813 43.9454C51.4175 43.7263 51.9238 43.6658 52.3706 43.628C53.2642 43.5449 54.0684 43.5298 54.746 43.5525C56.1013 43.6054 56.9204 43.8094 56.9129 43.9606C56.9055 44.1268 56.0789 44.2099 54.7832 44.3611C54.1354 44.4367 53.361 44.5349 52.5121 44.6709C51.6855 44.7843 50.7845 45.0488 50.6952 45.6458C50.6207 45.9708 50.6505 46.5451 50.6281 47.0137C50.6132 47.4973 50.5983 47.9659 50.5835 48.4117C50.5388 49.311 50.509 50.0441 50.6579 50.6184C50.792 51.1777 51.0898 51.5782 51.3281 51.8049C51.5589 52.0316 51.7525 52.1223 51.7302 52.2054Z" fill="#879CAE"/>
<path d="M55.1779 44.0511C55.1407 43.9907 55.3343 43.764 55.8332 43.6808C56.3023 43.6053 57.1438 43.7186 57.7469 44.5272C58.0448 44.9429 58.1342 45.4794 58.1937 45.948C58.2459 46.409 58.3054 46.9078 58.3724 47.4292C58.4246 47.9582 58.4841 48.5023 58.5363 49.0767C58.5735 49.6661 58.6033 50.3387 58.3427 51.0642C58.0895 51.7973 57.4193 52.364 56.7789 52.5681C56.1385 52.7872 55.5354 52.8024 54.9992 52.7948C53.9418 52.757 53.0334 52.689 52.244 52.6285C51.8419 52.5908 51.4473 52.5303 51.1122 52.3792C50.7771 52.2356 50.5314 52.0164 50.3824 51.8048C50.0846 51.3589 50.1814 51.034 50.2484 51.0415C50.3303 51.034 50.4048 51.2682 50.7026 51.495C51.0005 51.7368 51.4994 51.8577 52.2589 51.8048C53.0259 51.767 53.9865 51.7443 54.9843 51.7292C55.9672 51.7066 56.9949 51.495 57.2778 50.6486C57.5831 49.787 57.3448 48.5477 57.3225 47.5123C57.3002 46.9909 57.2704 46.4921 57.248 46.0236C57.2331 45.5701 57.1959 45.2074 57.0544 44.958C56.7715 44.4139 56.1981 44.1796 55.8258 44.1267C55.4534 44.0663 55.2152 44.1267 55.1779 44.0511Z" fill="#879CAE"/>
<path d="M52.3629 63.2013C52.3554 63.2693 52.1172 63.3373 51.7151 63.1786C51.3204 63.0199 50.814 62.5967 50.5162 61.8788C50.2109 61.1684 50.1736 60.2691 50.1588 59.4C50.1513 58.9542 50.1439 58.4856 50.1439 58.0019C50.1588 57.5032 50.0917 57.0649 50.2183 56.3772C50.2928 56.0371 50.4864 55.6895 50.7321 55.4476C50.9779 55.2058 51.2534 55.0471 51.5214 54.9337C52.0576 54.7146 52.5639 54.6541 53.0107 54.6163C53.9043 54.5332 54.7085 54.5181 55.3861 54.5408C56.7339 54.5937 57.5605 54.7977 57.5531 54.9488C57.5456 55.1151 56.7191 55.1982 55.4234 55.3494C54.7755 55.425 54.0011 55.5232 53.1522 55.6592C52.3257 55.7726 51.4246 56.0371 51.3353 56.6341C51.2608 56.9591 51.2906 57.5334 51.2683 58.0019C51.2534 58.4856 51.2385 58.9542 51.2236 59.4C51.1789 60.2993 51.1491 61.0324 51.2981 61.6067C51.4321 62.166 51.7299 62.5665 51.9682 62.7932C52.1842 63.0275 52.3778 63.1182 52.3629 63.2013Z" fill="#879CAE"/>
<path d="M55.8029 55.0472C55.7657 54.9868 55.9593 54.7601 56.4582 54.6769C56.9273 54.6014 57.7688 54.7147 58.3719 55.5233C58.6698 55.9465 58.7592 56.4755 58.8187 56.9441C58.8709 57.4051 58.9304 57.9038 58.9974 58.4253C59.0496 58.9467 59.1091 59.4984 59.1613 60.0728C59.1985 60.6622 59.2283 61.3424 58.9677 62.0603C58.7145 62.7933 58.0443 63.3601 57.4039 63.5642C56.7635 63.7833 56.1604 63.7985 55.6242 63.7909C54.5668 63.7531 53.6584 63.6851 52.869 63.6246C52.4669 63.5868 52.0723 63.5264 51.7372 63.3752C51.4021 63.2317 51.1564 63.0125 51.0074 62.8009C50.7096 62.355 50.8064 62.0301 50.8734 62.0376C50.9553 62.0301 51.0298 62.2643 51.3276 62.4911C51.6255 62.7329 52.1244 62.8538 52.8839 62.8009C53.6509 62.7631 54.6115 62.7404 55.6093 62.7253C56.5922 62.7027 57.6199 62.4911 57.9028 61.6447C58.2081 60.7831 57.9698 59.5438 57.9475 58.5084C57.9252 57.987 57.8954 57.4882 57.873 57.0197C57.8581 56.5662 57.8209 56.2035 57.6794 55.9541C57.3965 55.41 56.8231 55.1757 56.4508 55.1228C56.0784 55.0623 55.8402 55.1228 55.8029 55.0472Z" fill="#879CAE"/>
<path d="M51.1868 41.6557C51.1793 41.7237 50.941 41.7917 50.5389 41.633C50.1442 41.4743 49.6379 41.0511 49.34 40.3331C49.0347 39.6228 48.9975 38.7235 48.9826 37.8544C48.9752 37.4085 48.9677 36.94 48.9603 36.4563C48.9752 35.9575 48.9081 35.5192 49.0347 34.8315C49.1092 34.4914 49.3028 34.1438 49.5485 33.9095C49.7943 33.6677 50.0698 33.509 50.3379 33.3956C50.874 33.1765 51.3804 33.116 51.8271 33.0782C52.7207 32.9951 53.5249 32.98 54.2025 33.0027C55.5578 33.0556 56.3769 33.2596 56.3695 33.4108C56.362 33.577 55.5355 33.6601 54.2398 33.8113C53.5919 33.8869 52.8175 33.9851 51.9686 34.1211C51.1421 34.2345 50.2411 34.499 50.1517 35.096C50.0772 35.421 50.107 35.9953 50.0847 36.4639C50.0698 36.9475 50.0549 37.4161 50.04 37.8619C49.9953 38.7612 49.9655 39.4943 50.1145 40.0686C50.2485 40.6279 50.5464 41.0284 50.7846 41.2551C51.0155 41.4818 51.2016 41.5725 51.1868 41.6557Z" fill="#879CAE"/>
<path d="M54.6345 33.5018C54.5972 33.4414 54.7908 33.2146 55.2898 33.1315C55.7589 33.0559 56.6003 33.1693 57.2035 33.9779C57.5013 34.4011 57.5907 34.9301 57.6503 35.3987C57.7024 35.8597 57.762 36.3584 57.829 36.8799C57.8811 37.4089 57.9407 37.953 57.9928 38.5273C58.03 39.1168 58.0598 39.7969 57.7992 40.5149C57.546 41.2479 56.8758 41.8147 56.2355 42.0188C55.5951 42.2379 54.9919 42.253 54.4558 42.2455C53.3984 42.2077 52.4899 42.1397 51.7006 42.0792C51.2985 42.0414 50.9038 41.981 50.5687 41.8298C50.2336 41.6862 49.9879 41.4671 49.839 41.2555C49.5411 40.8096 49.6379 40.4847 49.7049 40.4922C49.7868 40.4847 49.8613 40.7189 50.1592 40.9456C50.457 41.1875 50.9559 41.3084 51.7155 41.2555C52.4825 41.2177 53.443 41.195 54.4409 41.1799C55.4238 41.1572 56.4514 40.9456 56.7344 40.0992C57.0397 39.2377 56.8014 37.9983 56.779 36.963C56.7567 36.4416 56.7269 35.9428 56.7046 35.4742C56.6897 35.0208 56.6525 34.6581 56.511 34.4087C56.228 33.8646 55.6546 33.6303 55.2823 33.5774C54.91 33.5169 54.6717 33.5774 54.6345 33.5018Z" fill="#879CAE"/>
<path d="M62.4309 51.9711C62.4234 52.0391 62.1852 52.1071 61.783 51.9484C61.3884 51.7897 60.882 51.3665 60.5842 50.6486C60.2789 49.9382 60.2416 49.0389 60.2267 48.1698C60.2193 47.7239 60.2119 47.2554 60.2044 46.7717C60.2193 46.273 60.1523 45.8346 60.2789 45.1469C60.3533 44.8069 60.5469 44.4592 60.7927 44.225C61.0384 43.9831 61.3139 43.8244 61.582 43.7111C62.1181 43.4919 62.6245 43.4315 63.0713 43.3937C63.9649 43.3105 64.7691 43.2954 65.4467 43.3181C66.7945 43.371 67.621 43.575 67.6136 43.7262C67.6062 43.8924 66.787 43.9756 65.4839 44.1267C64.8361 44.2023 64.0617 44.3005 63.2128 44.4366C62.3862 44.5499 61.4852 44.8144 61.3958 45.4114C61.3214 45.7364 61.3512 46.3107 61.3288 46.7793C61.3139 47.263 61.299 47.7315 61.2841 48.1774C61.2395 49.0767 61.2097 49.8097 61.3586 50.3841C61.4926 50.9433 61.7905 51.3438 62.0288 51.5705C62.2522 51.7973 62.4458 51.8879 62.4309 51.9711Z" fill="#879CAE"/>
<path d="M65.8708 43.8173C65.8336 43.7568 66.0272 43.5301 66.5261 43.4469C66.9952 43.3714 67.8367 43.4847 68.4398 44.2934C68.7377 44.709 68.827 45.2456 68.8866 45.7141C68.9387 46.1751 68.9983 46.6739 69.0653 47.1953C69.1174 47.7243 69.177 48.2684 69.2291 48.8428C69.2664 49.4322 69.2961 50.1048 69.0355 50.8303C68.7823 51.5634 68.1122 52.1302 67.4718 52.3342C66.8314 52.5534 66.2282 52.5685 65.6921 52.5609C64.6347 52.5231 63.7262 52.4551 62.9369 52.3947C62.5348 52.3569 62.1401 52.2964 61.805 52.1453C61.47 52.0017 61.2242 51.7825 61.0753 51.5709C60.7774 51.125 60.8742 50.8001 60.9413 50.8077C61.0232 50.8001 61.0976 51.0344 61.3955 51.2611C61.6934 51.5029 62.1923 51.6238 62.9518 51.5709C63.7188 51.5331 64.6794 51.5105 65.6772 51.4953C66.6601 51.4727 67.6877 51.2611 67.9707 50.4147C68.276 49.5532 68.0377 48.3138 68.0154 47.2784C67.993 46.757 67.9632 46.2582 67.9409 45.7897C67.926 45.3363 67.8888 44.9735 67.7473 44.7241C67.4643 44.18 66.891 43.9457 66.5186 43.8928C66.1538 43.8324 65.908 43.8928 65.8708 43.8173Z" fill="#879CAE"/>
<path d="M63.0564 62.9667C63.0489 63.0347 62.8106 63.1027 62.4085 62.944C62.0139 62.7853 61.5075 62.3621 61.2097 61.6442C60.9044 60.9338 60.8671 60.0345 60.8522 59.1654C60.8448 58.7195 60.8373 58.251 60.8299 57.7673C60.8448 57.2686 60.7778 56.8302 60.9044 56.1425C60.9788 55.8025 61.1724 55.4548 61.4182 55.2206C61.6639 54.9787 61.9394 54.82 62.2075 54.7067C62.7436 54.4875 63.25 54.4271 63.6968 54.3893C64.5903 54.3061 65.3946 54.291 66.0722 54.3137C67.42 54.3666 68.2465 54.5706 68.2391 54.7218C68.2316 54.888 67.4051 54.9712 66.1094 55.1223C65.4616 55.1979 64.6871 55.2961 63.8383 55.4322C63.0117 55.5455 62.1107 55.81 62.0213 56.407C61.9469 56.732 61.9766 57.3063 61.9543 57.7749C61.9394 58.2585 61.9245 58.7271 61.9096 59.173C61.865 60.0723 61.8352 60.8053 61.9841 61.3797C62.1181 61.9389 62.416 62.3394 62.6543 62.5661C62.8777 62.7929 63.0713 62.8835 63.0564 62.9667Z" fill="#879CAE"/>
<path d="M66.5041 54.8129C66.4669 54.7524 66.6605 54.5257 67.1594 54.4426C67.6285 54.367 68.47 54.4803 69.0731 55.289C69.371 55.7122 69.4603 56.2412 69.5199 56.7097C69.572 57.1707 69.6316 57.6695 69.6986 58.1909C69.7507 58.7124 69.8103 59.264 69.8624 59.8384C69.8997 60.4278 69.9295 61.108 69.6688 61.8259C69.4157 62.559 68.7455 63.1258 68.1051 63.3298C67.4647 63.549 66.8615 63.5641 66.3254 63.5565C65.268 63.5187 64.3595 63.4507 63.5702 63.3903C63.1681 63.3525 62.7734 63.292 62.4384 63.1409C62.1033 62.9973 61.8501 62.7781 61.7086 62.5665C61.4107 62.1207 61.5076 61.7957 61.5746 61.8032C61.6565 61.7957 61.7309 62.03 62.0288 62.2567C62.3267 62.4985 62.8256 62.6194 63.5851 62.5665C64.3521 62.5287 65.3127 62.5061 66.3105 62.491C67.2934 62.4683 68.321 62.2567 68.604 61.4103C68.9093 60.5488 68.671 59.3094 68.6487 58.274C68.6263 57.7526 68.5965 57.2538 68.5742 56.7853C68.5593 56.3318 68.5221 55.9691 68.3806 55.7197C68.0976 55.1756 67.5243 54.9413 67.1519 54.8884C66.7796 54.828 66.5339 54.8884 66.5041 54.8129Z" fill="#879CAE"/>
<path d="M61.8796 41.4213C61.8722 41.4893 61.6339 41.5573 61.2318 41.3986C60.8371 41.2399 60.3308 40.8167 60.0329 40.0988C59.7276 39.3884 59.6904 38.4891 59.6755 37.62C59.668 37.1741 59.6606 36.7056 59.6531 36.2219C59.668 35.7232 59.601 35.2848 59.7276 34.5971C59.8021 34.2571 59.9957 33.9094 60.2414 33.6752C60.4871 33.4333 60.7627 33.2746 61.0307 33.1613C61.5669 32.9421 62.0732 32.8817 62.52 32.8439C63.4136 32.7607 64.2178 32.7456 64.8954 32.7683C66.2507 32.8212 67.0698 33.0252 67.0623 33.1764C67.0549 33.3426 66.2283 33.4258 64.9327 33.5769C64.2848 33.6525 63.5104 33.7507 62.6615 33.8868C61.8349 34.0001 60.9339 34.2646 60.8446 34.8616C60.7701 35.1866 60.7999 35.7609 60.7775 36.2295C60.7627 36.7131 60.7478 37.1817 60.7329 37.6276C60.6882 38.5269 60.6584 39.2599 60.8073 39.8343C60.9414 40.3935 61.2392 40.794 61.4775 41.0207C61.7084 41.2475 61.902 41.3381 61.8796 41.4213Z" fill="#879CAE"/>
<path d="M65.3273 33.2675C65.2901 33.207 65.4837 32.9803 65.9826 32.8971C66.4518 32.8216 67.2932 32.9349 67.8964 33.7436C68.1942 34.1668 68.2836 34.6958 68.3431 35.1643C68.3953 35.6253 68.4548 36.1241 68.5219 36.6455C68.574 37.167 68.6336 37.7186 68.6857 38.293C68.7229 38.8824 68.7527 39.555 68.4921 40.2805C68.2389 41.0136 67.5687 41.5804 66.9283 41.7844C66.2879 42.0036 65.6848 42.0187 65.1486 42.0111C64.0912 41.9733 63.1828 41.9053 62.3935 41.8449C61.9913 41.8071 61.5967 41.7466 61.2616 41.5955C60.9265 41.4519 60.6808 41.2327 60.5318 41.0211C60.234 40.5752 60.3308 40.2503 60.3978 40.2578C60.4797 40.2427 60.5542 40.4846 60.852 40.7113C61.1499 40.9531 61.6488 41.074 62.4083 41.0211C63.1753 40.9833 64.1359 40.9607 65.1337 40.9456C66.1167 40.9229 67.1443 40.7113 67.4272 39.8649C67.7325 39.0033 67.4943 37.764 67.4719 36.7286C67.4496 36.2072 67.4198 35.7084 67.3974 35.2399C67.3826 34.7864 67.3453 34.4237 67.2038 34.1743C66.9209 33.6302 66.3475 33.3959 65.9752 33.343C65.6029 33.2826 65.3646 33.3506 65.3273 33.2675Z" fill="#879CAE"/>
<path d="M73.2579 51.7445C73.2505 51.8125 73.0122 51.8805 72.6101 51.7218C72.2154 51.5631 71.7091 51.1399 71.4112 50.422C71.1059 49.7116 71.0687 48.8123 71.0538 47.9432C71.0463 47.4974 71.0389 47.0288 71.0389 46.5452C71.0538 46.0464 70.9868 45.6081 71.1133 44.9204C71.1878 44.5803 71.3814 44.2327 71.6272 43.9984C71.8729 43.7566 72.1484 43.5979 72.4165 43.4845C72.9526 43.2654 73.459 43.2049 73.9058 43.1671C74.7993 43.084 75.6035 43.0689 76.2812 43.0915C77.629 43.1444 78.4555 43.3485 78.4481 43.4996C78.4406 43.6659 77.6215 43.749 76.3184 43.9002C75.6706 43.9757 74.8961 44.074 74.0472 44.21C73.2207 44.3234 72.3197 44.5879 72.2303 45.1849C72.1558 45.5098 72.1856 46.0842 72.1633 46.5527C72.1484 47.0364 72.1335 47.5049 72.1186 47.9508C72.0739 48.8501 72.0441 49.5832 72.1931 50.1575C72.3271 50.7167 72.625 51.1173 72.8633 51.344C73.0792 51.5707 73.2728 51.6614 73.2579 51.7445Z" fill="#879CAE"/>
<path d="M76.7053 43.5829C76.668 43.5224 76.8616 43.2957 77.3606 43.2126C77.8297 43.137 78.6711 43.2504 79.2743 44.059C79.5721 44.4822 79.6615 45.0112 79.7211 45.4797C79.7732 45.9407 79.8328 46.4395 79.8998 46.9609C79.9519 47.4824 80.0115 48.0341 80.0636 48.6084C80.1008 49.1979 80.1306 49.8704 79.87 50.5959C79.6168 51.329 78.9466 51.8958 78.3062 52.0998C77.6659 52.319 77.0627 52.3341 76.5266 52.3265C75.4692 52.2888 74.5607 52.2207 73.7714 52.1603C73.3693 52.1225 72.9746 52.062 72.6395 51.9109C72.3044 51.7673 72.0587 51.5481 71.9098 51.3365C71.6119 50.8907 71.7087 50.5657 71.7757 50.5733C71.8577 50.5657 71.9321 50.8 72.23 51.0267C72.5278 51.2685 73.0267 51.3894 73.7863 51.3365C74.5533 51.2988 75.5138 51.2761 76.5117 51.261C77.4946 51.2383 78.5222 51.0267 78.8052 50.1803C79.1105 49.3188 78.8722 48.0794 78.8498 47.0441C78.8275 46.5226 78.7977 46.0238 78.7754 45.5553C78.7605 45.1019 78.7233 44.7391 78.5818 44.4897C78.2988 43.9456 77.7254 43.7113 77.3531 43.6584C76.9808 43.598 76.7425 43.666 76.7053 43.5829Z" fill="#879CAE"/>
<path d="M73.883 62.7401C73.8756 62.8081 73.6373 62.8761 73.2352 62.7174C72.8405 62.5587 72.3342 62.1355 72.0363 61.4176C71.731 60.7072 71.6938 59.8079 71.6789 58.9389C71.6714 58.493 71.664 58.0244 71.6566 57.5408C71.6714 57.042 71.6044 56.6037 71.731 55.916C71.8055 55.5759 71.9991 55.2283 72.2448 54.994C72.4905 54.7522 72.7661 54.5935 73.0341 54.4801C73.5703 54.261 74.0766 54.2005 74.5234 54.1627C75.417 54.0796 76.2212 54.0645 76.8988 54.0871C78.2541 54.14 79.0732 54.3441 79.0657 54.4952C79.0583 54.6615 78.2317 54.7446 76.9361 54.8958C76.2882 54.9713 75.5138 55.0696 74.6649 55.2056C73.8384 55.319 72.9373 55.5835 72.848 56.1805C72.7735 56.5054 72.8033 57.0798 72.781 57.5483C72.7661 58.032 72.7512 58.5005 72.7363 58.9464C72.6916 59.8457 72.6618 60.5788 72.8108 61.1531C72.9448 61.7123 73.2426 62.1129 73.4809 62.3396C73.7118 62.5587 73.8979 62.6494 73.883 62.7401Z" fill="#879CAE"/>
<path d="M77.3308 54.5785C77.2935 54.518 77.4871 54.2913 77.986 54.2082C78.4552 54.1326 79.2966 54.246 79.8998 55.0546C80.1976 55.4778 80.287 56.0068 80.3466 56.4753C80.3987 56.9363 80.4583 57.4351 80.5253 57.9565C80.5774 58.4855 80.637 59.0297 80.6891 59.604C80.7263 60.1935 80.7561 60.8661 80.4955 61.5915C80.2423 62.3246 79.5721 62.8914 78.9317 63.0954C78.2914 63.3146 77.6882 63.3297 77.1521 63.3221C76.0947 63.2844 75.1862 63.2163 74.3969 63.1559C73.9948 63.1181 73.6001 63.0576 73.265 62.9065C72.9299 62.7629 72.6842 62.5438 72.5353 62.3322C72.2374 61.8863 72.3342 61.5613 72.4012 61.5689C72.4831 61.5613 72.5576 61.7956 72.8555 62.0223C73.1533 62.2641 73.6522 62.3851 74.4118 62.3322C75.1787 62.2944 76.1393 62.2717 77.1372 62.2566C78.1201 62.2339 79.1477 62.0223 79.4307 61.1759C79.736 60.3144 79.4977 59.075 79.4753 58.0397C79.453 57.5182 79.4232 57.0194 79.4009 56.5509C79.386 56.0975 79.3487 55.7347 79.2073 55.4853C78.9243 54.9412 78.3509 54.707 77.9786 54.6541C77.6063 54.5936 77.368 54.6616 77.3308 54.5785Z" fill="#879CAE"/>
<path d="M9.11436 74.8766C9.10691 74.9446 8.86863 75.0126 8.46652 74.8539C8.07186 74.6952 7.5655 74.272 7.26765 73.5541C6.96234 72.8437 6.92511 71.9444 6.91022 71.0753C6.90277 70.6294 6.89533 70.1609 6.89533 69.6772C6.91022 69.1785 6.8432 68.7401 6.96979 68.0524C7.04426 67.7124 7.23786 67.3647 7.48359 67.1229C7.72933 66.8811 8.00484 66.7224 8.27292 66.609C8.80906 66.3899 9.31541 66.3294 9.7622 66.2916C10.6558 66.2085 11.46 66.1934 12.1376 66.216C13.4854 66.2689 14.312 66.473 14.3045 66.6241C14.2971 66.7904 13.4705 66.8735 12.1748 67.0247C11.527 67.1002 10.7526 67.1985 9.90368 67.3345C9.07713 67.4479 8.17611 67.7124 8.08676 68.3094C8.01229 68.6343 8.04208 69.2087 8.01974 69.6772C8.00484 70.1609 7.98995 70.6294 7.97506 71.0753C7.93038 71.9746 7.9006 72.7077 8.04952 73.282C8.18356 73.8412 8.48141 74.2418 8.7197 74.4685C8.93565 74.7028 9.12925 74.7934 9.11436 74.8766Z" fill="#879CAE"/>
<path d="M12.5622 66.7152C12.525 66.6547 12.7186 66.428 13.2175 66.3449C13.6866 66.2693 14.5281 66.3827 15.1312 67.1913C15.4291 67.6145 15.5184 68.1435 15.578 68.6121C15.6301 69.073 15.6897 69.5718 15.7567 70.0933C15.8088 70.6147 15.8684 71.1664 15.9205 71.7407C15.9578 72.3302 15.9876 73.0103 15.7269 73.7283C15.4738 74.4613 14.8036 75.0281 14.1632 75.2321C13.5228 75.4513 12.9196 75.4664 12.3835 75.4589C11.3261 75.4211 10.4176 75.3531 9.62831 75.2926C9.22621 75.2548 8.83155 75.1944 8.49646 75.0432C8.16137 74.8996 7.91564 74.6805 7.76671 74.4689C7.46885 74.023 7.56566 73.698 7.63267 73.7056C7.71458 73.698 7.78905 73.9323 8.08691 74.159C8.38476 74.4009 8.88367 74.5218 9.64321 74.4689C10.4102 74.4311 11.3708 74.4084 12.3686 74.3933C13.3515 74.3706 14.3791 74.159 14.6621 73.3126C14.9674 72.4511 14.7291 71.2117 14.7068 70.1764C14.6844 69.6549 14.6546 69.1562 14.6323 68.6876C14.6174 68.2342 14.5802 67.8715 14.4387 67.6221C14.1557 67.0779 13.5824 66.8437 13.21 66.7908C12.8377 66.7303 12.5994 66.7983 12.5622 66.7152Z" fill="#879CAE"/>
<path d="M19.8297 74.6425C19.8222 74.7105 19.584 74.7785 19.1819 74.6198C18.7872 74.4611 18.2808 74.0379 17.983 73.32C17.6777 72.6096 17.6404 71.7103 17.6256 70.8412C17.6181 70.3953 17.6107 69.9268 17.6107 69.4431C17.6256 68.9443 17.5585 68.506 17.6851 67.8183C17.7596 67.4783 17.9532 67.1306 18.1989 66.8963C18.4447 66.6545 18.7202 66.4958 18.9882 66.3825C19.5244 66.1633 20.0307 66.1028 20.4775 66.0651C21.3711 65.9819 22.1753 65.9668 22.8529 65.9895C24.2007 66.0424 25.0273 66.2464 25.0199 66.3976C25.0124 66.5638 24.1933 66.647 22.8902 66.7981C22.2423 66.8737 21.4679 66.9719 20.619 67.1079C19.7925 67.2213 18.8914 67.4858 18.8021 68.0828C18.7276 68.4078 18.7574 68.9821 18.7351 69.4507C18.7202 69.9343 18.7053 70.4029 18.6904 70.8488C18.6457 71.7481 18.6159 72.4811 18.7649 73.0554C18.8989 73.6147 19.1967 74.0152 19.435 74.2419C19.651 74.4686 19.8446 74.5593 19.8297 74.6425Z" fill="#879CAE"/>
<path d="M23.277 66.4886C23.2398 66.4282 23.4334 66.2015 23.9323 66.1183C24.4015 66.0428 25.2429 66.1561 25.8461 66.9647C26.1439 67.3879 26.2333 67.9169 26.2929 68.3855C26.345 68.8465 26.4045 69.3452 26.4716 69.8667C26.5237 70.3881 26.5833 70.9398 26.6354 71.5142C26.6726 72.1036 26.7024 72.7762 26.4418 73.5017C26.1886 74.2348 25.5184 74.8015 24.878 75.0056C24.2376 75.2247 23.6345 75.2399 23.0983 75.2323C22.0409 75.1945 21.1325 75.1265 20.3432 75.066C19.9411 75.0283 19.5464 74.9678 19.2113 74.8167C18.8762 74.6731 18.6305 74.4539 18.4816 74.2423C18.1837 73.7964 18.2805 73.4715 18.3475 73.479C18.4294 73.4715 18.5039 73.7057 18.8017 73.9325C19.0996 74.1743 19.5985 74.2952 20.3581 74.2423C21.125 74.2045 22.0856 74.1818 23.0834 74.1667C24.0664 74.1441 25.094 73.9325 25.3769 73.0861C25.6822 72.2245 25.444 70.9852 25.4216 69.9498C25.3993 69.4284 25.3695 68.9296 25.3472 68.4611C25.3323 68.0076 25.295 67.6449 25.1535 67.3955C24.8706 66.8514 24.2972 66.6171 23.9249 66.5642C23.5526 66.5038 23.3143 66.5642 23.277 66.4886Z" fill="#879CAE"/>
<path d="M31.0515 74.4081C31.044 74.4761 30.8058 74.5441 30.4037 74.3854C30.009 74.2267 29.5026 73.8035 29.2048 73.0856C28.8995 72.3752 28.8622 71.4759 28.8474 70.6068C28.8399 70.1609 28.8325 69.6924 28.825 69.2087C28.8399 68.71 28.7729 68.2717 28.8995 67.5839C28.9739 67.2439 29.1675 66.8962 29.4133 66.662C29.659 66.4201 29.9345 66.2614 30.2026 66.1481C30.7387 65.9289 31.2451 65.8685 31.6919 65.8307C32.5855 65.7475 33.3897 65.7324 34.0673 65.7551C35.4225 65.808 36.2416 66.0121 36.2342 66.1632C36.2268 66.3295 35.4002 66.4126 34.1045 66.5637C33.4567 66.6393 32.6823 66.7375 31.8334 66.8736C31.0068 66.9869 30.1058 67.2514 30.0164 67.8484C29.942 68.1734 29.9718 68.7478 29.9494 69.2163C29.9345 69.7 29.9196 70.1685 29.9047 70.6144C29.8601 71.5137 29.8303 72.2467 29.9792 72.8211C30.1132 73.3803 30.4111 73.7808 30.6494 74.0076C30.8728 74.2343 31.0664 74.325 31.0515 74.4081Z" fill="#879CAE"/>
<path d="M34.4992 66.2538C34.462 66.1933 34.6556 65.9666 35.1545 65.8835C35.6236 65.8079 36.4651 65.9213 37.0682 66.7299C37.3661 67.1531 37.4554 67.6821 37.515 68.1506C37.5671 68.6116 37.6267 69.1104 37.6937 69.6318C37.7459 70.1608 37.8054 70.705 37.8576 71.2793C37.8948 71.8688 37.9246 72.5413 37.6639 73.2668C37.4108 73.9999 36.7406 74.5667 36.1002 74.7707C35.4598 74.9899 34.8566 75.005 34.3205 74.9974C33.2631 74.9597 32.3546 74.8916 31.5653 74.8312C31.1632 74.7934 30.7686 74.7329 30.4335 74.5818C30.0984 74.4382 29.8526 74.219 29.7037 74.0074C29.4059 73.5616 29.5027 73.2366 29.5697 73.2442C29.6516 73.2366 29.7261 73.4709 30.0239 73.6976C30.3218 73.9394 30.8207 74.0603 31.5802 74.0074C32.3472 73.9697 33.3078 73.947 34.3056 73.9319C35.2885 73.9092 36.3161 73.6976 36.5991 72.8512C36.9044 71.9897 36.6661 70.7503 36.6438 69.715C36.6214 69.1935 36.5917 68.6947 36.5693 68.2262C36.5544 67.7728 36.5172 67.41 36.3757 67.1606C36.0928 66.6165 35.5194 66.3822 35.1471 66.3293C34.7747 66.2689 34.529 66.3369 34.4992 66.2538Z" fill="#879CAE"/>
<path d="M41.99 74.1815C41.9825 74.2495 41.7442 74.3176 41.3421 74.1589C40.9475 74.0001 40.4411 73.5769 40.1433 72.859C39.838 72.1486 39.8007 71.2493 39.7858 70.3803C39.7784 69.9344 39.7709 69.4658 39.7635 68.9822C39.7784 68.4834 39.7114 68.0451 39.838 67.3574C39.9124 67.0173 40.106 66.6697 40.3518 66.4354C40.5975 66.1936 40.873 66.0349 41.1411 65.9215C41.6772 65.7024 42.1836 65.6419 42.6304 65.6041C43.5239 65.521 44.3281 65.5059 45.0058 65.5285C46.3536 65.5814 47.1801 65.7855 47.1727 65.9366C47.1652 66.1029 46.3387 66.186 45.043 66.3372C44.3952 66.4127 43.6207 66.511 42.7718 66.647C41.9453 66.7604 41.0443 67.0249 40.9549 67.6219C40.8805 67.9469 40.9102 68.5212 40.8879 68.9897C40.873 69.4734 40.8581 69.9419 40.8432 70.3878C40.7985 71.2871 40.7688 72.0202 40.9177 72.5945C41.0517 73.1537 41.3496 73.5543 41.5879 73.781C41.8113 74.0077 42.0049 74.0984 41.99 74.1815Z" fill="#879CAE"/>
<path d="M45.4377 66.0199C45.4005 65.9594 45.5941 65.7327 46.093 65.6496C46.5621 65.574 47.4035 65.6874 48.0067 66.496C48.3046 66.9192 48.3939 67.4482 48.4535 67.9167C48.5056 68.3777 48.5652 68.8765 48.6322 69.3979C48.6843 69.9194 48.7439 70.4711 48.796 71.0454C48.8333 71.6349 48.863 72.3075 48.6024 73.0329C48.3492 73.766 47.6791 74.3328 47.0387 74.5368C46.3983 74.756 45.7951 74.7711 45.259 74.7635C44.2016 74.7258 43.2931 74.6577 42.5038 74.5973C42.1017 74.5595 41.707 74.499 41.3719 74.3479C41.0369 74.2043 40.7911 73.9852 40.6422 73.7736C40.3443 73.3277 40.4411 73.0027 40.5082 73.0103C40.5901 73.0027 40.6645 73.237 40.9624 73.4637C41.2603 73.7055 41.7592 73.8265 42.5187 73.7736C43.2857 73.7358 44.2463 73.7131 45.2441 73.698C46.227 73.6753 47.2546 73.4637 47.5376 72.6173C47.8429 71.7558 47.6046 70.5164 47.5823 69.4811C47.5599 68.9596 47.5301 68.4609 47.5078 67.9923C47.4929 67.5389 47.4557 67.1761 47.3142 66.9267C47.0312 66.3826 46.4579 66.1484 46.0855 66.0955C45.7132 66.0426 45.4675 66.103 45.4377 66.0199Z" fill="#879CAE"/>
<path d="M52.8995 73.9471C52.8921 74.0152 52.6538 74.0832 52.2517 73.9245C51.857 73.7658 51.3507 73.3426 51.0528 72.6246C50.7475 71.9143 50.7103 71.015 50.6954 70.1459C50.6879 69.7 50.6805 69.2315 50.6805 68.7478C50.6954 68.249 50.6284 67.8107 50.7549 67.123C50.8294 66.7829 51.023 66.4353 51.2688 66.201C51.5145 65.9592 51.79 65.8005 52.0581 65.6871C52.5942 65.468 53.1006 65.4075 53.5474 65.3697C54.4409 65.2866 55.2451 65.2715 55.9228 65.2942C57.278 65.3471 58.0971 65.5511 58.0897 65.7023C58.0822 65.8685 57.2557 65.9516 55.96 66.1028C55.3122 66.1784 54.5377 66.2766 53.6888 66.4126C52.8623 66.526 51.9613 66.7905 51.8719 67.3875C51.7974 67.7125 51.8272 68.2868 51.8049 68.7554C51.79 69.239 51.7751 69.7076 51.7602 70.1534C51.7155 71.0527 51.6857 71.7858 51.8347 72.3601C51.9687 72.9194 52.2666 73.3199 52.5049 73.5466C52.7208 73.7733 52.9144 73.864 52.8995 73.9471Z" fill="#879CAE"/>
<path d="M56.34 65.7933C56.3028 65.7329 56.4964 65.5062 56.9953 65.423C57.4644 65.3475 58.3059 65.4608 58.9091 66.2694C59.2069 66.6851 59.2963 67.2216 59.3558 67.6902C59.408 68.1512 59.4675 68.6499 59.5346 69.1714C59.5867 69.6928 59.6463 70.2445 59.6984 70.8189C59.7356 71.4083 59.7654 72.0809 59.5048 72.8064C59.2516 73.5394 58.5814 74.1062 57.941 74.3103C57.3006 74.5294 56.6975 74.5445 56.1613 74.537C55.1039 74.4992 54.1955 74.4312 53.4061 74.3707C53.004 74.3329 52.6094 74.2725 52.2743 74.1213C51.9392 73.9778 51.6935 73.7586 51.5445 73.547C51.2467 73.1011 51.3435 72.7762 51.4105 72.7837C51.4924 72.7762 51.5669 73.0104 51.8647 73.2372C52.1626 73.479 52.6615 73.5999 53.421 73.547C54.188 73.5092 55.1486 73.4865 56.1464 73.4714C57.1294 73.4487 58.157 73.2372 58.4399 72.3907C58.7452 71.5292 58.5069 70.2898 58.4846 69.2545C58.4623 68.7331 58.4325 68.2343 58.4101 67.7657C58.3953 67.3123 58.358 66.9496 58.2165 66.7002C57.9336 66.1561 57.3602 65.9218 56.9879 65.8689C56.6156 65.8084 56.3773 65.8689 56.34 65.7933Z" fill="#879CAE"/>
<path d="M63.5925 73.713C63.5851 73.781 63.3468 73.849 62.9447 73.6903C62.55 73.5316 62.0437 73.1084 61.7458 72.3905C61.4405 71.6801 61.4033 70.7808 61.3884 69.9042C61.3809 69.4583 61.3735 68.9898 61.366 68.5061C61.3809 68.0073 61.3139 67.569 61.4405 66.8813C61.515 66.5412 61.7086 66.1936 61.9543 65.9593C62.2 65.7175 62.4755 65.5588 62.7436 65.4454C63.2798 65.2263 63.7861 65.1658 64.2329 65.128C65.1265 65.0449 65.9307 65.0298 66.6083 65.0525C67.9561 65.1054 68.7827 65.3094 68.7752 65.4606C68.7678 65.6268 67.9487 65.71 66.6455 65.8611C65.9977 65.9367 65.2233 66.0349 64.3744 66.1709C63.5478 66.2843 62.6468 66.5488 62.5575 67.1458C62.483 67.4708 62.5128 68.0451 62.4904 68.5137C62.4755 68.9973 62.4607 69.4659 62.4458 69.9117C62.4011 70.8111 62.3713 71.5441 62.5202 72.1184C62.6543 72.6777 62.9521 73.0782 63.1904 73.3049C63.4138 73.5392 63.6074 73.6299 63.5925 73.713Z" fill="#879CAE"/>
<path d="M67.0324 65.5585C66.9952 65.498 67.1888 65.2713 67.6877 65.1882C68.1568 65.1126 68.9983 65.2259 69.6014 66.0346C69.8993 66.4502 69.9886 66.9868 70.0482 67.4553C70.1003 67.9163 70.1599 68.4151 70.2269 68.9365C70.2791 69.458 70.3386 70.0096 70.3908 70.584C70.428 71.1734 70.4578 71.846 70.1971 72.5715C69.944 73.3046 69.2738 73.8714 68.6334 74.0754C67.993 74.2946 67.3899 74.3097 66.8537 74.3021C65.7963 74.2643 64.8879 74.1963 64.0985 74.1359C63.6964 74.0981 63.3018 74.0376 62.9667 73.8865C62.6316 73.7429 62.3859 73.5237 62.2369 73.3121C61.9391 72.8663 62.0359 72.5413 62.1029 72.5489C62.1848 72.5413 62.2593 72.7756 62.5571 73.0023C62.855 73.2441 63.3539 73.365 64.1134 73.3121C64.8804 73.2743 65.841 73.2517 66.8388 73.2366C67.8217 73.2139 68.8493 73.0023 69.1323 72.1559C69.4376 71.2944 69.1993 70.055 69.177 69.0196C69.1546 68.4982 69.1249 67.9994 69.1025 67.5309C69.0876 67.0774 69.0504 66.7147 68.9089 66.4653C68.626 65.9212 68.0526 65.6869 67.6803 65.634C67.3154 65.5736 67.0697 65.6416 67.0324 65.5585Z" fill="#879CAE"/>
<path d="M74.4195 73.4867C74.4121 73.5547 74.1738 73.6227 73.7717 73.464C73.377 73.3053 72.8707 72.8821 72.5728 72.1642C72.2675 71.4538 72.2303 70.5545 72.2154 69.6854C72.208 69.2396 72.2005 68.771 72.2005 68.2874C72.2154 67.7886 72.1484 67.3503 72.275 66.6626C72.3494 66.3225 72.543 65.9749 72.7888 65.7406C73.0345 65.4988 73.31 65.34 73.5781 65.2267C74.1142 65.0075 74.6206 64.9471 75.0674 64.9093C75.9609 64.8262 76.7652 64.8111 77.4428 64.8337C78.798 64.8866 79.6171 65.0907 79.6097 65.2418C79.6022 65.4081 78.7757 65.4912 77.48 65.6423C76.8322 65.7179 76.0578 65.8162 75.2089 65.9522C74.3823 66.0655 73.4813 66.33 73.3919 66.9271C73.3175 67.252 73.3473 67.8264 73.3249 68.2949C73.31 68.7786 73.2951 69.2471 73.2802 69.693C73.2356 70.5923 73.2058 71.3253 73.3547 71.8997C73.4887 72.4589 73.7866 72.8595 74.0249 73.0862C74.2483 73.3129 74.4344 73.4036 74.4195 73.4867Z" fill="#879CAE"/>
<path d="M77.8669 65.3251C77.8297 65.2646 78.0233 65.0379 78.5222 64.9548C78.9913 64.8792 79.8327 64.9926 80.4359 65.8012C80.7338 66.2168 80.8231 66.7534 80.8827 67.2219C80.9348 67.6829 80.9944 68.1817 81.0614 68.7031C81.1135 69.2321 81.1731 69.7763 81.2252 70.3506C81.2625 70.9401 81.2922 71.6126 81.0316 72.3381C80.7784 73.0712 80.1083 73.638 79.4679 73.842C78.8275 74.0612 78.2243 74.0763 77.6882 74.0687C76.6308 74.0309 75.7223 73.9629 74.933 73.9025C74.5309 73.8647 74.1362 73.8042 73.8012 73.6531C73.4661 73.5095 73.2203 73.2903 73.0714 73.0787C72.7735 72.6329 72.8703 72.3079 72.9374 72.3155C73.0193 72.3079 73.0937 72.5422 73.3916 72.7689C73.6895 73.0107 74.1884 73.1316 74.9479 73.0787C75.7149 73.0409 76.6755 73.0183 77.6733 73.0032C78.6562 72.9805 79.6838 72.7689 79.9668 71.9225C80.2721 71.061 80.0338 69.8216 80.0115 68.7863C79.9891 68.2648 79.9593 67.766 79.937 67.2975C79.9221 66.8441 79.8849 66.4813 79.7434 66.2319C79.4604 65.6878 78.8871 65.4535 78.5147 65.4006C78.1424 65.3477 77.9041 65.4082 77.8669 65.3251Z" fill="#879CAE"/>
<path d="M72.714 41.1945C72.7065 41.2625 72.4682 41.3305 72.0661 41.1718C71.6715 41.0131 71.1651 40.5899 70.8673 39.8719C70.562 39.1616 70.5247 38.2623 70.5098 37.3932C70.5024 36.9473 70.4949 36.4788 70.4949 35.9951C70.5098 35.4963 70.4428 35.058 70.5694 34.3703C70.6439 34.0302 70.8375 33.6826 71.0832 33.4408C71.3289 33.1989 71.6044 33.0403 71.8725 32.9269C72.4087 32.7077 72.915 32.6473 73.3618 32.6095C74.2554 32.5264 75.0596 32.5112 75.7372 32.5339C77.0925 32.5868 77.9116 32.7909 77.9041 32.942C77.8967 33.1083 77.0701 33.1914 75.7744 33.3425C75.1266 33.4181 74.3522 33.5163 73.5033 33.6524C72.6767 33.7657 71.7757 34.0302 71.6864 34.6273C71.6119 34.9522 71.6417 35.5266 71.6193 35.9951C71.6045 36.4788 71.5896 36.9473 71.5747 37.3932C71.53 38.2925 71.5002 39.0255 71.6491 39.5999C71.7832 40.1591 72.081 40.5596 72.3193 40.7864C72.5353 41.0206 72.7289 41.1113 72.714 41.1945Z" fill="#879CAE"/>
<path d="M76.1613 33.0404C76.1241 32.9799 76.3177 32.7532 76.8166 32.6701C77.2857 32.5945 78.1272 32.7079 78.7303 33.5165C79.0282 33.9397 79.1176 34.4687 79.1771 34.9372C79.2293 35.3982 79.2888 35.897 79.3558 36.4185C79.408 36.9399 79.4675 37.4916 79.5197 38.0659C79.5569 38.6554 79.5867 39.3355 79.3261 40.0535C79.0729 40.7865 78.4027 41.3533 77.7623 41.5573C77.1219 41.7765 76.5188 41.7916 75.9826 41.7841C74.9252 41.7463 74.0168 41.6783 73.2274 41.6178C72.8253 41.58 72.4307 41.5196 72.0956 41.3684C71.7605 41.2248 71.5148 41.0057 71.3658 40.7941C71.068 40.3482 71.1648 40.0232 71.2318 40.0308C71.3137 40.0232 71.3882 40.2575 71.686 40.4842C71.9839 40.7261 72.4828 40.847 73.2423 40.7941C74.0093 40.7563 74.9699 40.7336 75.9677 40.7185C76.9506 40.6958 77.9783 40.4842 78.2612 39.6378C78.5665 38.7763 78.3282 37.5369 78.3059 36.5016C78.2836 35.9801 78.2538 35.4814 78.2314 35.0128C78.2165 34.5594 78.1793 34.1966 78.0378 33.9472C77.7549 33.4031 77.1815 33.1689 76.8092 33.116C76.4368 33.0555 76.1911 33.116 76.1613 33.0404Z" fill="#879CAE"/>
<path d="M85.686 76.1236C85.6934 76.116 85.7828 76.1235 85.8796 76.2671C85.9317 76.3351 85.9466 76.5014 85.8498 76.5997C85.7753 76.713 85.6562 76.7961 85.5296 76.8717C84.9935 77.1664 84.1594 77.3932 83.0797 77.5972C82 77.8012 80.6671 77.9826 79.1182 78.1262C77.5545 78.2698 75.8046 78.3227 73.8536 78.4285C69.9591 78.6401 65.32 78.7912 60.1671 78.9575C55.0142 79.1162 49.3474 79.2976 43.4126 79.426C31.5356 79.7359 20.7532 79.9248 12.9568 79.6981C9.05484 79.5999 5.90501 79.4185 3.72321 79.2598C2.62114 79.1842 1.73502 78.8895 1.28078 78.4663C0.819105 78.0506 0.781871 77.6879 0.80421 77.6879C0.848889 77.6577 0.960585 77.9675 1.41482 78.2773C1.8616 78.5872 2.67326 78.7988 3.74555 78.8063C5.9199 78.829 9.07718 78.8819 12.9642 78.8819C20.7532 78.9046 31.4984 78.5872 43.3903 78.2773C55.2748 78.0204 66.0349 77.7861 73.8313 77.6123C75.7748 77.5594 77.5545 77.5594 79.081 77.4763C80.6224 77.3932 81.9479 77.2798 83.0201 77.1438C84.0924 77.0077 84.9264 76.8566 85.4328 76.6526C85.6934 76.5543 85.8275 76.4183 85.7753 76.3049C85.7381 76.1991 85.6636 76.1462 85.686 76.1236Z" fill="#B0BBC0"/>
<path d="M3.03069 79.0255C3.04559 79.0482 2.88921 79.1918 2.51689 79.1918C2.15946 79.1918 1.59353 78.9877 1.17653 78.4058C0.752088 77.8163 0.647838 76.9322 0.618052 76.0328C0.58082 75.126 0.536143 74.0907 0.491465 72.9495C0.327643 68.385 0.178714 62.0823 0.0893571 55.1221C8.32202e-08 48.162 -0.0223393 41.8593 0.0223392 37.2947C0.0670178 32.7302 0.171268 29.9038 0.327642 29.9038C0.484017 29.9038 0.662733 32.7226 0.826554 37.2872C0.990375 41.8517 1.1393 48.1544 1.22866 55.107C1.31802 62.0672 1.34036 68.3699 1.29568 72.942C1.28078 74.0831 1.26589 75.1184 1.251 76.0253C1.22121 76.9246 1.26589 77.6652 1.54886 78.164C1.83182 78.6552 2.25627 78.897 2.54668 78.9575C2.83709 79.0331 3.0158 78.9802 3.03069 79.0255Z" fill="#B0BBC0"/>
<path d="M61.269 23.6759C61.2467 23.6759 61.2095 23.6759 61.1722 23.6835C61.135 23.6835 61.1052 23.6759 61.0829 23.6608C61.068 23.6608 61.0457 23.6533 61.0308 23.6457C61.0159 23.6306 60.9935 23.623 60.9786 23.6155C60.8595 23.5324 60.7478 23.3963 60.6287 23.1998C60.517 23.0034 60.4053 22.7918 60.301 22.5726C60.1968 22.3459 60.1 22.1267 60.018 21.9076C59.9287 21.6884 59.8617 21.507 59.8021 21.371C59.7723 21.3105 59.7351 21.2501 59.6978 21.1821L59.2064 21.2274C59.0798 21.2425 58.9309 21.2425 58.7596 21.235C58.5958 21.2199 58.4468 21.2274 58.3203 21.2576C57.9926 21.3181 57.6873 21.3483 57.4118 21.3483C57.1363 21.3483 56.8608 21.3483 56.5927 21.3408C56.548 21.4995 56.4959 21.7111 56.4214 21.9605C56.3544 22.2099 56.2799 22.4668 56.198 22.7313C56.1161 22.9958 56.0342 23.2452 55.9449 23.4795C55.8555 23.7213 55.7736 23.9027 55.6991 24.0463C55.647 24.0463 55.58 24.0538 55.4981 24.0614C55.4162 24.0689 55.3342 24.0689 55.2449 24.0765C55.1555 24.084 55.0736 24.084 54.9917 24.084C54.9098 24.084 54.8428 24.0765 54.7907 24.0614C54.7534 24.0085 54.7236 23.9782 54.6939 23.9707C54.6641 23.9556 54.6417 23.948 54.6268 23.9405C54.6119 23.9329 54.597 23.9253 54.5896 23.9102C54.5822 23.8951 54.5747 23.8724 54.5747 23.8271C54.5747 23.8044 54.5747 23.7666 54.5822 23.7213C54.5896 23.6759 54.597 23.6306 54.6045 23.5777C54.6119 23.5248 54.6194 23.4719 54.6268 23.4341C54.6343 23.3888 54.6343 23.3585 54.6194 23.3434C54.6417 23.2074 54.6641 23.0638 54.7013 22.9127C54.7385 22.7615 54.7683 22.6179 54.8055 22.4819C54.8353 22.3005 54.88 22.1267 54.9396 21.9453C54.9917 21.764 55.0513 21.5826 55.1109 21.4088C55.2151 21.0914 55.3194 20.7815 55.4162 20.4641C55.513 20.1467 55.6172 19.8369 55.7215 19.5195C55.9151 18.9376 56.1087 18.3557 56.3023 17.7738C56.4959 17.1919 56.7044 16.6175 56.9203 16.0507C56.9948 15.8543 57.0842 15.6729 57.1884 15.5217C57.2554 15.4235 57.3224 15.3328 57.4043 15.2497C57.4863 15.1666 57.5607 15.0834 57.6277 14.9927C57.6873 14.9701 57.7394 14.9474 57.7841 14.9096C57.8288 14.8794 57.8735 14.834 57.9182 14.7887L58.0596 14.7509H58.0447C58.216 14.7434 58.3649 14.7585 58.4841 14.7963C58.6032 14.8416 58.7075 14.8869 58.7894 14.9474C58.8713 15.0079 58.9383 15.0759 58.9904 15.1439C59.0426 15.2119 59.0872 15.2648 59.1245 15.3101C59.2511 15.6653 59.3628 16.0205 59.467 16.3681C59.5713 16.7158 59.6904 17.0785 59.817 17.4413C60.0478 18.1139 60.2861 18.7789 60.5318 19.4288C60.7776 20.0787 61.0456 20.7362 61.3286 21.3861C61.4552 21.6884 61.5892 21.9831 61.7084 22.2779C61.835 22.5726 61.9616 22.8598 62.103 23.1394L61.8573 23.3812C61.8424 23.3888 61.8052 23.4114 61.7531 23.4417C61.7009 23.4719 61.6339 23.5021 61.5669 23.5399C61.4999 23.5777 61.4329 23.6079 61.3807 23.6457C61.3137 23.6457 61.2765 23.6684 61.269 23.6759ZM59.2585 19.8747C59.1915 19.6555 59.1468 19.4893 59.1021 19.3608C59.0649 19.2323 59.0277 19.119 58.9979 19.0132C58.9681 18.9074 58.9309 18.794 58.8862 18.6655C58.8415 18.5371 58.7894 18.3708 58.7149 18.1516L58.4022 17.2675C58.3575 17.1541 58.3203 17.0181 58.2681 16.8594C58.2235 16.7007 58.1713 16.5571 58.1192 16.4362C58.0001 16.746 57.8884 17.0407 57.7916 17.3279C57.6948 17.6151 57.6054 17.9023 57.516 18.1819C57.4267 18.4615 57.3448 18.7487 57.2629 19.0434C57.181 19.3381 57.099 19.6404 57.0171 19.9654C57.0842 19.9805 57.1363 19.988 57.1586 19.9956C57.248 20.0107 57.382 20.0183 57.5682 20.0258C57.7543 20.0334 57.9554 20.0334 58.1713 20.0409C58.3873 20.0409 58.5883 20.0334 58.7894 20.0258C58.9904 20.0107 59.1394 19.9956 59.2436 19.9729L59.2585 19.8747Z" fill="white"/>
<path d="M63.8307 18.8473C63.8605 18.802 63.9424 18.7264 64.069 18.6206C64.1956 18.5148 64.3073 18.4241 64.419 18.3486C64.6126 18.2201 64.7913 18.1445 64.9626 18.1067C65.1338 18.0689 65.32 18.0236 65.5285 17.9707L65.5657 17.9783C65.8636 18.0236 66.1167 18.0765 66.3327 18.1294C66.5412 18.1899 66.772 18.3259 67.0103 18.5526C67.4794 18.9909 67.7326 19.5275 67.7624 20.1472C67.7922 20.6233 67.7177 21.0314 67.539 21.379C67.3603 21.7266 67.1071 22.0591 66.7795 22.3765C66.638 22.505 66.4667 22.641 66.2582 22.7846C66.0497 22.9207 65.8338 23.0416 65.6029 23.1323C65.3721 23.2229 65.1413 23.2834 64.9179 23.3212C64.687 23.3514 64.4785 23.3212 64.2775 23.2381C64.2105 23.2456 64.1509 23.2229 64.1137 23.1852C64.069 23.1474 64.0169 23.1171 63.9498 23.1171C63.9647 23.4043 63.9796 23.699 63.9871 23.9938C63.9945 24.2885 63.9945 24.5832 63.9945 24.8704L64.0988 26.0569C64.002 26.0871 63.9349 26.1173 63.8828 26.14C63.8307 26.1627 63.786 26.1778 63.7339 26.1854C63.6892 26.1929 63.6371 26.1929 63.5775 26.1854C63.5179 26.1778 63.4509 26.1627 63.3616 26.1325C63.3467 26.1249 63.2946 26.1098 63.2126 26.0871C63.1307 26.0644 63.0861 26.0493 63.0712 26.0418C63.0414 26.0191 63.0265 25.9662 63.0265 25.8982L62.7137 20.3059C62.7063 20.1396 62.6988 20.0036 62.6914 19.8978C62.6839 19.792 62.6765 19.6937 62.6691 19.6031C62.6616 19.5124 62.6542 19.4141 62.6467 19.3083C62.6393 19.2025 62.6318 19.0665 62.6244 18.9002C62.6169 18.802 62.6095 18.6886 62.5871 18.5602C62.5648 18.4317 62.5574 18.3183 62.5648 18.2201C62.5871 18.2125 62.6393 18.1899 62.7137 18.1672C62.7882 18.1445 62.8776 18.1143 62.9818 18.0916C63.0861 18.0689 63.2126 18.0463 63.3467 18.0312C63.4882 18.016 63.6296 18.0085 63.7786 18.0236C63.786 18.1294 63.786 18.2125 63.7786 18.273C63.7711 18.3334 63.7711 18.3939 63.7711 18.4468C63.7711 18.4997 63.7711 18.5602 63.7786 18.6206C63.7786 18.6735 63.7935 18.7491 63.8307 18.8473ZM63.9424 22.0667C64.2105 22.1952 64.5083 22.2027 64.8285 22.0969C65.0668 22.0214 65.2976 21.9307 65.521 21.8249C65.7444 21.7191 65.9455 21.5906 66.1093 21.4394C66.2806 21.2883 66.4146 21.1069 66.5114 20.8953C66.6082 20.6837 66.6454 20.4268 66.6305 20.1245C66.6157 19.8071 66.4891 19.5804 66.2657 19.4368C66.0423 19.2932 65.7817 19.2176 65.4912 19.2101C65.2008 19.2025 64.9104 19.2479 64.62 19.3612C64.3296 19.467 64.1137 19.6106 63.9647 19.792C63.9052 19.86 63.8754 19.996 63.8605 20.2076C63.8456 20.4192 63.8381 20.6535 63.8456 20.8953C63.853 21.1447 63.8605 21.379 63.8828 21.5981C63.9126 21.8249 63.9275 21.9836 63.9424 22.0667Z" fill="white"/>
<path d="M72.4986 18.3713C72.4316 18.3864 72.3645 18.3864 72.305 18.3864C72.2454 18.3864 72.1858 18.3864 72.1263 18.394C72.1114 18.3864 72.0741 18.3864 72.0294 18.3864C71.9848 18.3864 71.9475 18.394 71.9326 18.4015C71.7018 18.4771 71.4933 18.5829 71.2997 18.7265C71.1061 18.8701 70.9348 19.0288 70.7859 19.2102C70.637 19.3915 70.5029 19.5805 70.3912 19.7769C70.2795 19.9734 70.1902 20.1548 70.1232 20.3286C70.1306 20.4798 70.1455 20.6762 70.1604 20.9256C70.1753 21.175 70.1976 21.4244 70.2125 21.6813C70.2274 21.9383 70.2349 22.1877 70.2423 22.422C70.2498 22.6562 70.2423 22.8376 70.22 22.9736C70.2051 23.0568 70.153 23.1097 70.0562 23.1474C69.9593 23.1852 69.8476 23.2079 69.7285 23.2155C69.6094 23.2306 69.4828 23.2306 69.3636 23.2306C69.2445 23.2306 69.1477 23.223 69.0881 23.223C69.0434 22.3691 68.9988 21.5226 68.969 20.6838C68.9317 19.845 68.8945 18.9985 68.8498 18.1446C68.8424 18.0463 68.8424 17.9481 68.8498 17.8499C68.8498 17.7516 68.8573 17.6458 68.8573 17.54C68.9317 17.5325 69.0285 17.5249 69.1402 17.4947C69.2519 17.472 69.3413 17.4644 69.4158 17.4796C69.52 17.5022 69.6168 17.54 69.7062 17.6005C69.7955 17.6609 69.8774 17.7667 69.9668 17.9103C69.9966 18.0237 70.0189 18.1446 70.0264 18.2655C70.0338 18.3864 70.0413 18.5073 70.0562 18.6207H70.071C70.1827 18.4998 70.3093 18.3637 70.4359 18.2126C70.5625 18.0615 70.7189 17.933 70.905 17.8121C71.0912 17.6912 71.3071 17.6005 71.5678 17.5325C71.8284 17.4644 72.1411 17.4493 72.5209 17.4947C72.5656 17.5249 72.5954 17.5854 72.6103 17.6685C72.6252 17.7516 72.6252 17.8423 72.6177 17.933C72.6103 18.0237 72.5954 18.1144 72.5805 18.1975C72.5284 18.2806 72.5135 18.3411 72.4986 18.3713Z" fill="white"/>
<path d="M74.293 15.4386C74.4642 15.5142 74.5759 15.6275 74.6429 15.7787C74.71 15.9223 74.7248 16.0734 74.7025 16.2321C74.6727 16.3908 74.6132 16.5268 74.5089 16.6553C74.4047 16.7838 74.2781 16.8594 74.1142 16.8971C73.8834 16.9425 73.6898 16.9123 73.5409 16.8065C73.3919 16.6931 73.2951 16.5571 73.2579 16.3833C73.2207 16.217 73.2356 16.0356 73.31 15.8543C73.3845 15.6729 73.526 15.5217 73.7494 15.4159C73.8685 15.3555 73.9728 15.3404 74.0621 15.363C74.1366 15.3781 74.2185 15.4084 74.293 15.4386ZM73.5781 18.59C73.5707 18.5144 73.5707 18.401 73.5707 18.265C73.5707 18.129 73.5781 18.0307 73.5781 17.9778C73.6302 17.9778 73.7196 17.9627 73.8536 17.9325C73.9877 17.9098 74.077 17.9023 74.1366 17.9174C74.2259 17.9249 74.3078 17.9325 74.3972 17.9551C74.4866 17.9778 74.561 17.9929 74.6355 17.9929C74.6578 18.0685 74.6802 18.2272 74.7025 18.4615C74.7248 18.6958 74.7472 18.9678 74.7621 19.2701C74.777 19.5799 74.7919 19.9049 74.8142 20.2525C74.8291 20.6002 74.844 20.9327 74.8514 21.2425C74.8589 21.5524 74.8663 21.832 74.8738 22.0587C74.8812 22.293 74.8812 22.4517 74.8738 22.5272C74.8663 22.6104 74.8142 22.6633 74.71 22.7011C74.6057 22.7388 74.4866 22.7615 74.3525 22.7766C74.2259 22.7917 74.0993 22.7917 73.9728 22.7842C73.8536 22.7766 73.7717 22.7766 73.7345 22.7766C73.727 22.7011 73.727 22.5499 73.7196 22.3308C73.7121 22.1116 73.7047 21.8622 73.6972 21.5675C73.6898 21.2803 73.6823 20.9705 73.6675 20.6531C73.6526 20.3357 73.6451 20.0258 73.6377 19.7386C73.6302 19.4515 73.6228 19.2021 73.6079 18.9905C73.593 18.8016 73.5855 18.658 73.5781 18.59Z" fill="white"/>
<path d="M76.4077 22.5049C76.3854 22.3765 76.363 22.2178 76.3481 22.0439C76.3333 21.8701 76.3258 21.6888 76.3184 21.4998C76.3109 21.3184 76.3035 21.1371 76.3035 20.9557C76.296 20.7819 76.2886 20.6232 76.2737 20.4947C76.2513 20.2302 76.229 20.0186 76.2216 19.8599C76.2067 19.7012 76.1992 19.5425 76.1918 19.3989C76.1843 19.2553 76.1769 19.0966 76.1694 18.9379C76.162 18.7717 76.1545 18.5601 76.1397 18.2956L76.0801 17.0411C76.0577 16.5423 76.0503 16.036 76.0428 15.5296C76.0354 15.0233 76.0503 14.517 76.095 14.0107C76.2067 13.9653 76.3184 13.9124 76.4375 13.8293C76.5492 13.8217 76.646 13.8142 76.7279 13.8066C76.8098 13.7991 76.8992 13.8368 76.9885 13.92C77.0407 14.0484 77.0704 14.1769 77.0779 14.2978C77.1151 15.0158 77.1524 15.7337 77.1821 16.4516C77.2119 17.162 77.2417 17.8799 77.279 18.5903C77.3162 19.1949 77.3534 19.7995 77.3906 20.3965C77.4353 20.9935 77.4726 21.5981 77.5023 22.2026C77.5098 22.3462 77.4949 22.4445 77.4651 22.5125C77.4353 22.5805 77.3832 22.6258 77.3236 22.641C77.2566 22.6561 77.1821 22.6636 77.1002 22.6561C77.0183 22.6485 76.929 22.641 76.8471 22.6258C76.7651 22.6107 76.6907 22.6032 76.6088 22.6032C76.5343 22.6032 76.4673 22.5729 76.4077 22.5049Z" fill="white"/>
<g opacity="0.5">
<path d="M86.3931 74.2419C85.8421 52.6888 85.2911 31.1357 84.74 9.59018C84.7177 8.78156 84.6283 7.84447 83.9507 7.41371C83.5263 7.14921 82.9901 7.16432 82.4912 7.20211C78.5521 7.4515 84.3305 7.18699 80.503 7.45149C79.0137 21.3114 79.9296 21.1905 80.6594 35.0654C82.3646 67.3573 72.9449 72.0503 68.4696 74.2041C62.4529 77.0909 0.900768 77.892 1.94327 78.6704C2.63578 79.1918 3.55914 79.2447 4.41548 79.275C30.5599 80.2196 56.7638 79.6755 82.8486 77.6426C84.0624 77.5519 85.4698 77.3328 86.0655 76.2596C86.4229 75.6551 86.4155 74.9296 86.3931 74.2419Z" fill="#DCECFF"/>
</g>
</svg>
