<svg width="122" height="24" viewBox="0 0 122 24" fill="none" xmlns="http://www.w3.org/2000/svg">
<rect y="4" width="16" height="16" rx="4" fill="white"/>
<path d="M4.25 12.375L7.25 15.375L11.75 8.625" stroke="#2B3467" stroke-width="1.5" stroke-linecap="round" stroke-linejoin="round"/>
<path d="M25.96 6H30.84C31.64 6 32.3467 6.10667 32.96 6.32C33.5867 6.52 34.1067 6.80667 34.52 7.18C34.9467 7.55333 35.2667 7.99333 35.48 8.5C35.6933 9.00667 35.8 9.56667 35.8 10.18C35.8 11.0733 35.5733 11.8533 35.12 12.52C34.68 13.1867 34.0267 13.68 33.16 14L36.2 20H34.14L31.36 14.36H27.84V20H25.96V6ZM30.84 12.72C31.88 12.72 32.6533 12.4867 33.16 12.02C33.6667 11.5533 33.92 10.94 33.92 10.18C33.92 9.42 33.6667 8.80667 33.16 8.34C32.6533 7.87333 31.88 7.64 30.84 7.64H27.84V12.72H30.84ZM41.9563 20.14C41.3163 20.14 40.7296 20.04 40.1963 19.84C39.6763 19.6267 39.2296 19.32 38.8563 18.92C38.4963 18.5067 38.2096 18.0067 37.9963 17.42C37.7963 16.82 37.6963 16.1333 37.6963 15.36V13.84C37.6963 12.3467 38.0629 11.2133 38.7963 10.44C39.5429 9.65333 40.5629 9.26 41.8563 9.26C43.1496 9.26 44.1629 9.65333 44.8963 10.44C45.6429 11.2133 46.0163 12.36 46.0163 13.88V15.22H39.4563C39.4696 16.4333 39.6963 17.3067 40.1363 17.84C40.5896 18.36 41.1963 18.62 41.9563 18.62C42.2896 18.62 42.5763 18.58 42.8163 18.5C43.0696 18.4067 43.2763 18.2867 43.4363 18.14C43.6096 17.9933 43.7429 17.8267 43.8363 17.64C43.9296 17.4533 43.9963 17.26 44.0363 17.06H45.8163C45.6029 18.1 45.1696 18.8733 44.5163 19.38C43.8629 19.8867 43.0096 20.14 41.9563 20.14ZM41.8763 10.78C41.1163 10.78 40.5229 11.0133 40.0963 11.48C39.6829 11.9333 39.4696 12.7 39.4563 13.78H44.3563C44.3296 12.7 44.1029 11.9333 43.6763 11.48C43.2629 11.0133 42.6629 10.78 41.8763 10.78ZM52.0469 20.14C51.3402 20.14 50.7335 20.0667 50.2269 19.92C49.7335 19.76 49.3202 19.5467 48.9869 19.28C48.6669 19 48.4269 18.6733 48.2669 18.3C48.1069 17.9267 48.0135 17.5133 47.9869 17.06H49.7669C49.7935 17.3 49.8469 17.5133 49.9269 17.7C50.0202 17.8867 50.1535 18.0533 50.3269 18.2C50.5002 18.3333 50.7269 18.44 51.0069 18.52C51.2869 18.5867 51.6335 18.62 52.0469 18.62C52.9135 18.62 53.5135 18.4867 53.8469 18.22C54.1935 17.94 54.3669 17.5733 54.3669 17.12C54.3669 16.9333 54.3402 16.76 54.2869 16.6C54.2335 16.4267 54.1135 16.2667 53.9269 16.12C53.7535 15.9733 53.4935 15.84 53.1469 15.72C52.8002 15.5867 52.3402 15.4667 51.7669 15.36C50.5935 15.1333 49.7135 14.7933 49.1269 14.34C48.5535 13.8733 48.2669 13.18 48.2669 12.26C48.2669 11.38 48.5735 10.66 49.1869 10.1C49.8135 9.54 50.7669 9.26 52.0469 9.26C53.3269 9.26 54.2602 9.54 54.8469 10.1C55.4469 10.66 55.7735 11.38 55.8269 12.26H54.0469C53.9935 11.7933 53.8269 11.4333 53.5469 11.18C53.2669 10.9133 52.7669 10.78 52.0469 10.78C51.3002 10.78 50.7735 10.9067 50.4669 11.16C50.1735 11.4133 50.0269 11.7667 50.0269 12.22C50.0269 12.42 50.0535 12.6 50.1069 12.76C50.1602 12.92 50.2669 13.0667 50.4269 13.2C50.6002 13.32 50.8402 13.4333 51.1469 13.54C51.4535 13.6467 51.8602 13.7467 52.3669 13.84C53.0202 13.96 53.5802 14.1067 54.0469 14.28C54.5269 14.44 54.9135 14.6467 55.2069 14.9C55.5135 15.1533 55.7402 15.46 55.8869 15.82C56.0335 16.1667 56.1069 16.58 56.1069 17.06C56.1069 17.9667 55.7802 18.7067 55.1269 19.28C54.4735 19.8533 53.4469 20.14 52.0469 20.14ZM62.5469 20C61.3735 20 60.5402 19.7533 60.0469 19.26C59.5535 18.7533 59.3069 17.9 59.3069 16.7V10.96H57.8269V9.4H59.3069V7H61.0869V9.4H63.2669V10.96H61.0869V16.7C61.0869 17.3933 61.2002 17.86 61.4269 18.1C61.6535 18.34 62.0469 18.46 62.6069 18.46H63.2669V20H62.5469ZM68.1939 20.12C67.2206 20.12 66.4606 19.8533 65.9139 19.32C65.3672 18.7733 65.0939 18.0133 65.0939 17.04C65.0939 16.0133 65.3872 15.2333 65.9739 14.7C66.5606 14.1533 67.5006 13.88 68.7939 13.88H71.3139V12.86C71.3139 12.14 71.1472 11.62 70.8139 11.3C70.4939 10.9667 69.9939 10.8 69.3139 10.8C68.9672 10.8 68.6739 10.84 68.4339 10.92C68.1939 10.9867 68.0006 11.0867 67.8539 11.22C67.7072 11.34 67.5939 11.48 67.5139 11.64C67.4339 11.8 67.3872 11.96 67.3739 12.12H65.6539C65.6939 11.7067 65.7872 11.3267 65.9339 10.98C66.0806 10.6333 66.3006 10.3333 66.5939 10.08C66.8872 9.82667 67.2539 9.62667 67.6939 9.48C68.1472 9.33333 68.6939 9.26 69.3339 9.26C70.6139 9.26 71.5539 9.56 72.1539 10.16C72.7539 10.7467 73.0539 11.6467 73.0539 12.86V20H71.5139V18.24C71.3806 18.4667 71.2272 18.6933 71.0539 18.92C70.8806 19.1467 70.6606 19.3533 70.3939 19.54C70.1406 19.7133 69.8339 19.8533 69.4739 19.96C69.1139 20.0667 68.6872 20.12 68.1939 20.12ZM68.6939 18.6C69.4939 18.6 70.1272 18.3667 70.5939 17.9C71.0739 17.42 71.3139 16.7733 71.3139 15.96V15.32H68.8739C68.1139 15.32 67.5806 15.46 67.2739 15.74C66.9806 16.0067 66.8339 16.4333 66.8339 17.02C66.8339 17.4867 66.9872 17.8667 67.2939 18.16C67.6006 18.4533 68.0672 18.6 68.6939 18.6ZM79.2492 20.14C78.2226 20.14 77.3959 19.8 76.7692 19.12C76.1559 18.44 75.8492 17.4133 75.8492 16.04V9.4H77.6292V15.94C77.6292 16.8467 77.8159 17.5133 78.1892 17.94C78.5759 18.3667 79.0959 18.58 79.7492 18.58C80.0559 18.58 80.3492 18.5133 80.6292 18.38C80.9092 18.2467 81.1559 18.0667 81.3692 17.84C81.5826 17.6 81.7492 17.32 81.8692 17C82.0026 16.68 82.0692 16.3267 82.0692 15.94V9.4H83.8492V20H82.2692V18.24C82.0426 18.76 81.6692 19.2067 81.1492 19.58C80.6292 19.9533 79.9959 20.14 79.2492 20.14ZM87.0077 9.4H88.5877V11.16C88.8143 10.64 89.201 10.1933 89.7477 9.82C90.3077 9.44667 90.9677 9.26 91.7277 9.26C91.8743 9.26 92.0077 9.26667 92.1277 9.28C92.2477 9.29333 92.361 9.30667 92.4677 9.32C92.5877 9.33333 92.6943 9.34667 92.7877 9.36V11.04C92.6543 11.0133 92.5077 10.9867 92.3477 10.96C92.201 10.9333 92.0343 10.9133 91.8477 10.9C91.6743 10.8733 91.4877 10.86 91.2877 10.86C90.541 10.86 89.9343 11.0933 89.4677 11.56C89.0143 12.0267 88.7877 12.66 88.7877 13.46V20H87.0077V9.4ZM96.9634 20.12C95.9901 20.12 95.2301 19.8533 94.6834 19.32C94.1368 18.7733 93.8634 18.0133 93.8634 17.04C93.8634 16.0133 94.1568 15.2333 94.7434 14.7C95.3301 14.1533 96.2701 13.88 97.5634 13.88H100.083V12.86C100.083 12.14 99.9168 11.62 99.5834 11.3C99.2634 10.9667 98.7634 10.8 98.0834 10.8C97.7368 10.8 97.4434 10.84 97.2034 10.92C96.9634 10.9867 96.7701 11.0867 96.6234 11.22C96.4768 11.34 96.3634 11.48 96.2834 11.64C96.2034 11.8 96.1568 11.96 96.1434 12.12H94.4234C94.4634 11.7067 94.5568 11.3267 94.7034 10.98C94.8501 10.6333 95.0701 10.3333 95.3634 10.08C95.6568 9.82667 96.0234 9.62667 96.4634 9.48C96.9168 9.33333 97.4634 9.26 98.1034 9.26C99.3834 9.26 100.323 9.56 100.923 10.16C101.523 10.7467 101.823 11.6467 101.823 12.86V20H100.283V18.24C100.15 18.4667 99.9968 18.6933 99.8234 18.92C99.6501 19.1467 99.4301 19.3533 99.1634 19.54C98.9101 19.7133 98.6034 19.8533 98.2434 19.96C97.8834 20.0667 97.4568 20.12 96.9634 20.12ZM97.4634 18.6C98.2634 18.6 98.8968 18.3667 99.3634 17.9C99.8434 17.42 100.083 16.7733 100.083 15.96V15.32H97.6434C96.8834 15.32 96.3501 15.46 96.0434 15.74C95.7501 16.0067 95.6034 16.4333 95.6034 17.02C95.6034 17.4867 95.7568 17.8667 96.0634 18.16C96.3701 18.4533 96.8368 18.6 97.4634 18.6ZM104.719 9.4H106.299V11.16C106.525 10.64 106.912 10.1933 107.459 9.82C108.005 9.44667 108.665 9.26 109.439 9.26C110.505 9.26 111.352 9.6 111.979 10.28C112.605 10.96 112.919 11.9867 112.919 13.36V20H111.139V13.46C111.139 12.5533 110.945 11.8867 110.559 11.46C110.172 11.0333 109.625 10.82 108.919 10.82C108.585 10.82 108.272 10.8867 107.979 11.02C107.685 11.1533 107.425 11.34 107.199 11.58C106.985 11.8067 106.812 12.08 106.679 12.4C106.559 12.72 106.499 13.0733 106.499 13.46V20H104.719V9.4ZM119.813 20C118.639 20 117.806 19.7533 117.313 19.26C116.819 18.7533 116.573 17.9 116.573 16.7V10.96H115.093V9.4H116.573V7H118.353V9.4H120.533V10.96H118.353V16.7C118.353 17.3933 118.466 17.86 118.693 18.1C118.919 18.34 119.313 18.46 119.873 18.46H120.533V20H119.813Z" fill="white"/>
</svg>
