<svg width="100" height="100" viewBox="0 0 100 100" fill="none" xmlns="http://www.w3.org/2000/svg">
<path d="M7.90259 87.9238C7.90259 87.9238 -4.334 68.0601 1.64622 47.611C5.54426 34.2814 20.1665 26.9776 28.4184 34.2814C31.933 37.3923 43.2091 34.3864 49.2297 21.5074C60.9293 -3.51955 101.761 11.6795 94.3275 50.1046C90.7299 68.6994 105.276 69.3755 97.8642 87.963L7.90259 87.9238Z" fill="#EBF3FA"/>
<path d="M26.6141 88.1553L26.648 88.1548C26.9249 88.1499 27.1389 87.9236 27.1128 87.664L25.2653 69.2578L23.6533 69.4011L26.3061 87.9065C26.3268 88.0512 26.4591 88.1582 26.6141 88.1553Z" fill="#8CB4F4"/>
<path d="M8.82565 88.1553L8.7917 88.1548C8.51477 88.1499 8.30079 87.9236 8.32686 87.664L10.1744 69.2578L11.7864 69.4011L9.13357 87.9065C9.11291 88.0512 8.9801 88.1582 8.82565 88.1553Z" fill="#8CB4F4"/>
<path d="M39.6463 88.1553L39.6802 88.1548C39.9572 88.1499 40.1711 87.9236 40.1451 87.664L38.2975 69.2578L36.6855 69.4011L39.3384 87.9065C39.359 88.0512 39.4913 88.1582 39.6463 88.1553Z" fill="#8CB4F4"/>
<path d="M9.37554 66.5808L6.09655 50.4251C5.67548 48.2379 7.49256 46.2376 9.85121 46.2916L16.1755 46.4359C18.3571 46.4854 20.2539 47.9424 20.8604 50.0335L25.6579 66.5808H9.37554Z" fill="#8CB4F4"/>
<path d="M11.3594 66.5808L8.08044 50.4251C7.65937 48.2379 9.47644 46.2376 11.8351 46.2916L18.1594 46.4359C20.341 46.4854 22.2378 47.9424 22.8443 50.0335L27.6418 66.5808H11.3594Z" fill="#8CB4F4"/>
<path d="M10.2894 69.5275H35.3103C35.813 69.5275 36.2243 69.1172 36.2243 68.6157V67.4928C36.2243 66.9913 35.813 66.5811 35.3103 66.5811H9.37549V68.6157C9.37549 69.1172 9.78672 69.5275 10.2894 69.5275Z" fill="#8CB4F4"/>
<path d="M22.0313 69.5275H37.9816C38.3864 69.5275 38.718 69.1967 38.718 68.7928V67.3152C38.718 66.9113 38.3864 66.5806 37.9816 66.5806H22.0313C21.6265 66.5806 21.2949 66.9113 21.2949 67.3152V68.7928C21.2949 69.1967 21.6265 69.5275 22.0313 69.5275Z" fill="#8CB4F4"/>
<path d="M58.0982 29.8507H49.0261C48.6094 29.8507 48.269 29.5106 48.269 29.0954V20.3593C48.269 19.9436 48.6099 19.604 49.0261 19.604H58.0982C58.5148 19.604 58.8552 19.9441 58.8552 20.3593V29.0949C58.8557 29.5106 58.5148 29.8507 58.0982 29.8507Z" fill="#C0D8FB"/>
<path d="M57.7052 29.4063H49.4191C49.0389 29.4063 48.7275 29.0956 48.7275 28.7163V20.7378C48.7275 20.3585 49.0389 20.0479 49.4191 20.0479H57.7052C58.0854 20.0479 58.3968 20.3585 58.3968 20.7378V28.7168C58.3968 29.0961 58.0854 29.4063 57.7052 29.4063Z" fill="#DFEBFD"/>
<path d="M53.5617 21.2019C53.6828 21.2019 53.7811 21.1039 53.7811 20.983C53.7811 20.8622 53.6828 20.7642 53.5617 20.7642C53.4405 20.7642 53.3423 20.8622 53.3423 20.983C53.3423 21.1039 53.4405 21.2019 53.5617 21.2019Z" fill="#B7D3F3"/>
<path d="M55.1122 21.2923C55.1712 21.1867 55.3045 21.1485 55.4103 21.2074C55.516 21.2662 55.5544 21.3992 55.4954 21.5047C55.4364 21.6103 55.3031 21.6485 55.1973 21.5896C55.0915 21.5312 55.0532 21.3983 55.1122 21.2923Z" fill="#B7D3F3"/>
<path d="M56.6282 22.4938C56.73 22.4286 56.8658 22.4575 56.9312 22.5591C56.9966 22.6607 56.9676 22.7961 56.8658 22.8614C56.764 22.9267 56.6282 22.8977 56.5628 22.7961C56.4974 22.6946 56.5264 22.5591 56.6282 22.4938Z" fill="#B7D3F3"/>
<path d="M57.3795 24.354C57.5006 24.354 57.5989 24.4522 57.5989 24.5729C57.5989 24.6936 57.5006 24.7917 57.3795 24.7917C57.2585 24.7917 57.1602 24.6936 57.1602 24.5729C57.1602 24.4517 57.258 24.354 57.3795 24.354Z" fill="#B7D3F3"/>
<path d="M56.9957 26.5123C57.0813 26.5977 57.0813 26.7361 56.9957 26.8214C56.9101 26.9068 56.7714 26.9068 56.6858 26.8214C56.6002 26.7361 56.6002 26.5977 56.6858 26.5123C56.7714 26.4269 56.9101 26.4269 56.9957 26.5123Z" fill="#B7D3F3"/>
<path d="M55.6187 27.8897C55.7043 27.9751 55.7043 28.1135 55.6187 28.1989C55.5331 28.2843 55.3944 28.2843 55.3088 28.1989C55.2232 28.1135 55.2232 27.9751 55.3088 27.8897C55.3939 27.8043 55.5331 27.8043 55.6187 27.8897Z" fill="#B7D3F3"/>
<path d="M53.3428 28.5992C53.3428 28.4785 53.4412 28.3804 53.5622 28.3804C53.6832 28.3804 53.7815 28.4785 53.7815 28.5992C53.7815 28.72 53.6832 28.8181 53.5622 28.8181C53.4407 28.8181 53.3428 28.7205 53.3428 28.5992Z" fill="#B7D3F3"/>
<path d="M52.0052 21.2923C51.9461 21.1867 51.8128 21.1485 51.7071 21.2074C51.6013 21.2662 51.5629 21.3992 51.622 21.5047C51.681 21.6103 51.8143 21.6485 51.9201 21.5896C52.0258 21.5312 52.0637 21.3983 52.0052 21.2923Z" fill="#B7D3F3"/>
<path d="M50.4888 22.4938C50.387 22.4286 50.2512 22.4575 50.1858 22.5591C50.1204 22.6607 50.1494 22.7961 50.2512 22.8614C50.3531 22.9267 50.4888 22.8977 50.5543 22.7961C50.6197 22.6946 50.5907 22.5591 50.4888 22.4938Z" fill="#B7D3F3"/>
<path d="M49.7379 24.354C49.6169 24.354 49.5186 24.4522 49.5186 24.5729C49.5186 24.6936 49.6169 24.7917 49.7379 24.7917C49.859 24.7917 49.9573 24.6936 49.9573 24.5729C49.9573 24.4517 49.859 24.354 49.7379 24.354Z" fill="#B7D3F3"/>
<path d="M50.1218 26.5123C50.0362 26.5977 50.0362 26.7361 50.1218 26.8214C50.2074 26.9068 50.3461 26.9068 50.4317 26.8214C50.5173 26.7361 50.5173 26.5977 50.4317 26.5123C50.3461 26.4269 50.2074 26.4269 50.1218 26.5123Z" fill="#B7D3F3"/>
<path d="M51.4983 27.8897C51.4127 27.9751 51.4127 28.1135 51.4983 28.1989C51.5839 28.2843 51.7226 28.2843 51.8082 28.1989C51.8938 28.1135 51.8938 27.9751 51.8082 27.8897C51.7231 27.8043 51.5839 27.8043 51.4983 27.8897Z" fill="#B7D3F3"/>
<path d="M53.5029 24.5724C53.5029 24.4517 53.6013 24.3535 53.7223 24.3535C53.8433 24.3535 53.9417 24.4517 53.9417 24.5724C53.9417 24.6931 53.8433 24.7913 53.7223 24.7913C53.6013 24.7913 53.5029 24.6936 53.5029 24.5724Z" fill="#B7D3F3"/>
<path d="M53.7524 21.8394H53.6924V24.5728H53.7524V21.8394Z" fill="#B7D3F3"/>
<path d="M55.0927 23.3585L53.6401 24.4961L53.751 24.637L55.2035 23.4994L55.0927 23.3585Z" fill="#B7D3F3"/>
<path d="M31.1727 63.1994C29.819 65.5496 28.1165 66.4569 28.1165 66.4569H21.0337C21.0337 66.4569 32.2052 61.4067 31.1727 63.1994Z" fill="#233862"/>
<path d="M39.9079 86.5498C39.8311 87.2913 40.8651 87.4827 42.0639 87.5553C43.2626 87.628 42.8976 87.8689 44.5381 88.1835C46.1786 88.498 46.8422 88.0564 46.9637 87.836C47.0719 87.6407 46.3109 87.3252 45.5003 86.9689C45.3979 86.9242 45.2961 86.8786 45.1938 86.833C44.2813 86.4212 43.7762 85.5953 43.0698 84.8273C42.4008 84.1 41.7825 81.7872 41.7825 81.7872L39.5542 81.2876C39.5542 81.2876 40.1592 83.3698 40.3673 84.258C40.4898 84.7807 40.2945 85.3612 40.1218 85.8029C40.0289 86.0429 39.9349 86.2887 39.9079 86.5498Z" fill="#FFB27D"/>
<path d="M42.0643 87.5552C43.2631 87.6278 42.8981 87.8688 44.5385 88.1833C46.179 88.4979 46.8426 88.0562 46.9641 87.8359C47.0723 87.6406 46.3114 87.325 45.5007 86.9687L45.4879 86.9825C45.4879 86.9825 44.328 87.3618 42.9979 86.9854C41.9138 86.6792 40.8695 86.0196 40.1223 85.8022C40.0293 86.0427 39.9354 86.2886 39.9088 86.5496C39.8321 87.2912 40.8655 87.4825 42.0643 87.5552Z" fill="#0F2549"/>
<path d="M36.5317 60.7921C35.3325 59.9519 27.4001 58.4547 23.3523 58.0214L18.878 54.1465C18.878 54.1465 15.0697 59.7738 15.0392 64.0791C15.025 66.0867 15.9517 66.2859 15.9522 66.2864C15.9522 66.2864 30.295 66.3924 30.9241 66.4572C31.9531 66.5632 33.3108 69.1209 33.6497 71.4505C33.9891 73.78 39.9701 83.2548 39.9701 83.2548C39.9701 83.2548 41.2176 83.6532 41.7941 83.6199C42.4143 83.5836 42.7016 83.3765 42.7016 83.3765C42.7016 83.3765 39.2362 62.6868 36.5317 60.7921Z" fill="#233862"/>
<path d="M36.1979 86.5498C36.1212 87.2913 37.1552 87.4827 38.3539 87.5553C39.5527 87.628 39.1877 87.8689 40.8282 88.1835C42.4686 88.498 43.1322 88.0564 43.2537 87.836C43.3619 87.6407 42.601 87.3252 41.7903 86.9689C41.6885 86.9242 41.5862 86.8786 41.4839 86.833C40.5714 86.4212 40.0662 85.5953 39.3598 84.8273C38.6909 84.1 38.0725 81.7872 38.0725 81.7872L35.8438 81.2876C35.8438 81.2876 36.4488 83.3698 36.6569 84.258C36.7793 84.7807 36.5841 85.3612 36.4114 85.8029C36.3184 86.0429 36.225 86.2887 36.1979 86.5498Z" fill="#FFB27D"/>
<path d="M38.3543 87.5552C39.5531 87.6278 39.1881 87.8688 40.8286 88.1833C42.4691 88.4979 43.1326 88.0562 43.2541 87.8359C43.3624 87.6406 42.6014 87.325 41.7907 86.9687L41.7779 86.9825C41.7779 86.9825 40.6181 87.3618 39.288 86.9854C38.2038 86.6792 37.1595 86.0196 36.4123 85.8022C36.3194 86.0427 36.2254 86.2886 36.1988 86.5496C36.1221 87.2912 37.1556 87.4825 38.3543 87.5552Z" fill="#233862"/>
<path d="M32.7895 60.7921C31.7477 60.0624 28.6143 59.4965 25.1558 59.0765C24.1995 58.9602 23.4145 58.2667 23.1808 57.3343L15.1358 54.1465C15.1358 54.1465 11.3275 59.7738 11.297 64.0791C11.2828 66.0867 12.2095 66.2859 12.21 66.2864C12.21 66.2864 26.5528 66.3924 27.1819 66.4572C28.211 66.5632 29.5686 69.1209 29.9075 71.4505C30.2469 73.78 36.2279 83.2548 36.2279 83.2548C36.2279 83.2548 37.4754 83.6532 38.0519 83.6199C38.6722 83.5836 38.9594 83.3765 38.9594 83.3765C38.9594 83.3765 35.4935 62.6868 32.7895 60.7921Z" fill="#2B478B"/>
<path d="M22.0241 30.7654C20.9188 30.1863 19.2365 30.1078 18.963 30.0715C15.6929 29.6332 13.7248 34.3738 13.6087 35.8102C13.3952 38.4577 11.9914 38.8616 10.0154 40.5198C6.05316 43.8446 7.21503 47.7082 9.38184 49.1436C10.6819 50.0049 12.9732 49.1436 12.9732 49.1436C13.0057 49.1662 19.24 45.6667 22.3129 43.9786C26.92 43.3249 24.8412 32.241 22.0241 30.7654Z" fill="#233862"/>
<path d="M21.3419 42.3473C21.3562 42.3547 19.8888 43.0206 18.8293 42.6712C17.8327 42.3439 16.9551 40.8471 16.9689 40.8447C17.4013 40.7824 17.841 40.3564 17.964 37.834L18.1554 37.8821L21.3758 38.6943C21.3758 38.6943 21.2484 39.712 21.1958 40.6744C21.152 41.4826 21.1614 42.2516 21.3419 42.3473Z" fill="#FFB27D"/>
<path d="M21.3764 38.6944C21.3764 38.6944 21.3764 38.9039 21.2559 39.8506C19.4344 39.3922 18.6316 38.7896 18.0649 38.1001L21.3764 38.6944Z" fill="#ED975D"/>
<path d="M22.0634 38.8219C22.0634 38.8219 17.8051 39.5139 17.414 36.8614C17.023 34.209 16.2103 32.512 18.9123 31.9579C21.6148 31.4044 22.2937 32.3387 22.6399 33.1921C22.9862 34.046 23.1609 38.5736 22.0634 38.8219Z" fill="#FFB27D"/>
<path d="M22.0673 31.8472C22.0673 31.8472 20.1337 34.8927 18.4071 35.6141C16.6806 36.3355 15.8325 35.9694 15.8325 35.9694C15.8325 35.9694 16.6181 34.7813 16.8227 33.1859C16.8832 32.7158 17.1902 32.3124 17.6314 32.1363C18.87 31.6411 21.2665 30.8603 22.0673 31.8472Z" fill="#233862"/>
<path d="M20.3691 32.1422C20.3691 32.1422 21.5025 32.7218 21.9693 33.2655C22.4199 33.7896 22.9403 35.2128 22.9029 35.8517C22.9029 35.8517 23.4622 32.7895 22.2974 31.7369C21.0622 30.6204 20.3691 32.1422 20.3691 32.1422Z" fill="#233862"/>
<path d="M24.7487 48.8273C24.6193 57.4633 24.7133 55.6584 23.7663 56.4779C23.5381 56.6752 22.8967 56.793 22.0526 56.8485C19.3983 57.0241 14.7326 56.5879 14.5551 56.0986C13.9427 54.4055 14.375 53.8795 13.8644 51.2869C13.8113 51.0111 13.7454 50.7127 13.6682 50.3879C13.2422 48.6074 12.828 48.0014 14.3386 45.1413C15.7091 42.5502 17.32 40.4454 17.4484 40.521C21.0634 42.6621 21.1873 40.8675 21.1873 40.8675C21.1873 40.8675 24.8121 44.6153 24.7487 48.8273Z" fill="white"/>
<path d="M21.187 40.8677C21.187 40.8677 24.8871 41.4934 25.3239 43.0912C25.7607 44.6891 28.3313 54.0823 28.3313 54.0823C28.3313 54.0823 26.4405 54.4214 25.5669 53.5499C24.6933 52.6783 22.5269 45.464 22.5269 45.464L21.187 40.8677Z" fill="white"/>
<path d="M22.0524 56.8481C19.3981 57.0238 14.7325 56.5876 14.5549 56.0983C13.9425 54.4052 14.3748 53.8792 13.8643 51.2866L15.1447 47.6899C15.1447 47.6899 14.9332 51.6949 16.1167 52.7485C17.2992 53.8016 20.9638 54.7821 21.5393 55.662C21.8168 56.0846 21.9993 56.5081 22.0524 56.8481Z" fill="#EBF3FF"/>
<path d="M19.0117 55.1637C19.0117 55.1637 21.6306 54.5822 22.0526 54.8138C22.4752 55.0454 23.5077 55.89 23.637 56.1839C23.7664 56.4779 22.6965 55.9611 22.3483 55.8679C22.123 55.8075 21.5297 56.0132 21.2361 56.1108C20.0004 56.5221 19.2429 56.3105 19.2429 56.3105L19.0117 55.1637Z" fill="#FFB27D"/>
<path d="M17.4481 40.5205C17.4481 40.5205 13.7422 40.7364 12.5247 42.4305C10.8114 44.8145 7.41242 54.9753 9.36034 56.3302C11.5542 57.8564 19.3444 56.7297 19.3444 56.7297C19.3444 56.7297 19.6036 55.521 19.2431 54.936C18.8825 54.3511 13.0206 53.4064 12.75 53.1365C12.4795 52.8666 16.1318 47.8733 16.1318 47.0636C16.1318 46.2538 17.4481 40.5205 17.4481 40.5205Z" fill="white"/>
<path d="M22.1797 55.541C22.1797 55.541 22.7282 56.2472 22.9082 56.3316C23.0882 56.416 23.2043 56.3949 23.2043 56.3949L22.8344 55.7309L22.1797 55.541Z" fill="#FFB27D"/>
<path d="M22.0527 54.814L23.648 55.5869C23.648 55.5869 23.5801 55.6978 23.3838 55.689C23.1875 55.6801 22.6917 55.499 22.6917 55.499L22.0527 54.814Z" fill="#FFB27D"/>
<path d="M27.9295 56.646H20.5205C20.5205 56.3207 20.7851 56.0566 21.1113 56.0566H27.9295V56.646Z" fill="#ED7D2B"/>
<path d="M27.908 48.5962H39.3628L36.615 56.6458H25.0864L27.908 48.5962Z" fill="#ED7D2B"/>
<path d="M39.5312 48.5957L36.7835 56.6458H25.2549L28.0769 48.5957H39.5312Z" fill="#F99746"/>
<path d="M33.3556 52.5467C33.2843 52.8544 32.9768 53.1037 32.6684 53.1037C32.36 53.1037 32.1677 52.8544 32.239 52.5467C32.3103 52.239 32.6177 51.9897 32.9262 51.9897C33.2346 51.9897 33.4269 52.239 33.3556 52.5467Z" fill="white"/>
<path d="M17.9594 58.4573H68.1571C68.3681 58.4573 68.5393 58.2865 68.5393 58.076V57.0278C68.5393 56.8173 68.3681 56.6465 68.1571 56.6465H17.9594C17.7483 56.6465 17.5771 56.8173 17.5771 57.0278V58.076C17.5771 58.2865 17.7483 58.4573 17.9594 58.4573Z" fill="#182D4F"/>
<path d="M69.386 88.2897L69.4077 88.2873C69.6649 88.2554 69.8469 88.0267 69.8145 87.7759L65.3411 57.5679L63.7036 57.6145L68.9669 87.986C69.0004 88.1803 69.1853 88.3143 69.386 88.2897Z" fill="#182D4F"/>
<path d="M16.2789 88.2897L16.2572 88.2873C16 88.2554 15.818 88.0267 15.8504 87.7759L20.3237 57.5679L21.9613 57.6145L16.698 87.986C16.6645 88.1803 16.4796 88.3143 16.2789 88.2897Z" fill="#182D4F"/>
<path d="M26.6343 88.2897L26.6127 88.2873C26.3554 88.2554 26.1734 88.0267 26.2059 87.7759L30.6792 57.5679L32.3167 57.6145L27.0534 87.986C27.02 88.1803 26.835 88.3143 26.6343 88.2897Z" fill="#182D4F"/>
<path d="M95.2493 88.8888H6.60252C6.53602 88.8888 6.48145 88.7407 6.48145 88.5603V88.2914C6.48145 88.111 6.53602 87.9629 6.60252 87.9629H95.2493C95.3158 87.9629 95.3703 88.111 95.3703 88.2914V88.5603C95.3703 88.7407 95.3158 88.8888 95.2493 88.8888Z" fill="#2E3552"/>
<path d="M53.0244 88.2652H61.9012C62.3282 87.7455 62.1708 85.8277 62.1063 85.201C62.093 85.0749 62.0837 85.0013 62.0837 85.0013C62.0837 85.0013 59.0526 82.5824 58.636 84.4345C58.6232 84.4924 58.608 84.5493 58.5912 84.6052C58.0669 86.3376 55.7136 87.1247 54.355 87.3441C53.4716 87.4878 53.1454 87.9457 53.0244 88.2652Z" fill="#233862"/>
<path d="M77.2458 59.4902C76.9255 59.4902 62.0407 62.2781 59.5787 65.3188C58.349 66.8376 58.166 84.3796 58.166 84.3796C58.166 84.3796 59.6875 86.2616 62.9738 85.1687C62.9738 85.1687 65.3831 73.1667 65.2056 69.5269C65.1564 68.5204 75.3756 69.3811 77.2458 68.8982C79.116 68.4153 83.6862 64.3559 82.6793 62.3787C81.6719 60.401 77.2458 59.4902 77.2458 59.4902Z" fill="#233862"/>
<path d="M59.6419 55.1948C59.6419 55.1948 56.6393 55.2351 55.9295 55.5388C55.2197 55.8426 53.7789 56.5395 54.1646 56.6464C54.5502 56.7534 56.3894 56.6023 56.7869 56.6631C57.1843 56.724 57.6743 56.6464 57.9178 56.6464C58.1612 56.6464 59.2965 56.6464 59.2965 56.6464L59.6419 55.1948Z" fill="#FFB27D"/>
<path d="M56.1318 48.0064C56.1318 48.0064 55.1082 47.2767 54.114 47.1348C53.5469 47.0539 52.996 46.9533 52.6629 46.836C51.7456 46.5136 49.9103 44.8671 50.0495 44.6743C50.4947 44.0554 52.6374 45.3652 53.0112 45.2244C53.385 45.0835 52.2925 44.3087 52.6723 44.0358C52.871 43.8935 53.3354 44.607 53.7146 44.6787C54.2282 44.7758 54.6295 45.4992 54.7845 45.537C55.0855 45.6106 56.4038 46.5886 56.4038 46.5886L56.1318 48.0064Z" fill="#FFB27D"/>
<path d="M75.7632 39.4844C75.7632 39.4844 73.4778 40.191 71.2259 46.3773C68.974 52.5636 68.1191 52.8978 67.3005 53.1402C66.482 53.3826 59.2974 54.8102 59.2974 54.8102V56.6461H70.3675C70.3675 56.6461 74.5187 52.7064 75.7632 50.0544C77.0077 47.4025 75.7632 39.4844 75.7632 39.4844Z" fill="#ED7D2B"/>
<path d="M49.1016 88.2652H57.9779C58.4048 87.7455 58.2474 85.8277 58.183 85.201C58.1697 85.0749 58.1604 85.0013 58.1604 85.0013C58.1604 85.0013 55.1293 82.5824 54.7126 84.4345C54.6999 84.4924 54.6846 84.5493 54.6679 84.6052C54.1435 86.3376 51.7903 87.1247 50.4317 87.3441C49.5487 87.4878 49.2221 87.9457 49.1016 88.2652Z" fill="#1B3051"/>
<path d="M72.8595 59.4902C72.5388 59.4902 57.6545 62.2781 55.1925 65.3188C53.9628 66.8376 53.7798 84.3796 53.7798 84.3796C53.7798 84.3796 55.3017 86.2616 58.5876 85.1687C58.5876 85.1687 60.9969 73.1667 60.8193 69.5269C60.7701 68.5204 70.9893 69.3811 72.8595 68.8982C74.7297 68.4153 79.3 64.3559 78.293 62.3787C77.2856 60.401 72.8595 59.4902 72.8595 59.4902Z" fill="#2B478B"/>
<path d="M73.7908 41.4451C74.8617 41.3567 75.9842 41.0721 76.9547 40.758C78.1677 40.3654 79.1451 39.7913 78.5155 38.6856C77.935 37.6664 76.995 35.3893 77.0585 33.5029L74.8016 35.3177L73.2684 36.5499C73.2684 36.5499 73.2748 37.2767 73.4425 38.5502C73.473 38.7823 73.5089 39.0331 73.5512 39.3005C73.5852 39.517 73.4858 39.7329 73.2994 39.8482C73.2876 39.8556 73.2763 39.8624 73.265 39.8698C72.502 40.3473 72.8936 41.5187 73.7908 41.4451Z" fill="#FFB27D"/>
<path d="M73.2677 36.2496C73.2677 36.2496 73.1895 36.5136 73.3243 37.4877C74.6912 37.2654 75.9687 36.1774 75.9687 36.1774C75.2727 35.987 75.0198 35.2367 74.5014 35.3069L73.2677 36.2496Z" fill="#ED975D"/>
<path d="M72.004 36.4717C72.004 36.4717 77.2614 37.3433 77.7553 34.0681C78.2486 30.7933 79.26 28.7003 75.9239 28.0054C72.5879 27.3106 71.7458 28.4623 71.3149 29.5155C70.883 30.5686 70.6488 36.1606 72.004 36.4717Z" fill="#FFB27D"/>
<path d="M70.5408 28.0662C70.3151 28.8548 70.9191 29.8152 71.9334 30.1317C73.4391 30.6008 73.1061 32.4436 73.7839 32.4185C74.4613 32.3935 74.7348 31.3595 75.3398 32.1854C75.8558 32.8901 74.9104 33.7254 74.9753 34.1121C75.087 34.7756 76.1288 36.133 77.0673 36.0647C78.0059 35.9965 79.7625 31.546 79.4112 30.169C79.06 28.792 77.6547 27.3399 76.3246 27.1396C74.9945 26.9394 73.1474 27.5121 72.7209 27.5121C72.2945 27.5121 70.6628 27.6402 70.5408 28.0662Z" fill="#2B478B"/>
<path d="M82.7488 44.0294C81.9888 40.9779 79.8884 37.7764 78.4683 37.7788C76.0481 37.7832 72.5694 38.4207 71.1651 41.8775C70.1306 44.4234 68.7508 59.0686 70.3102 60.11C73.8749 62.491 82.1383 67.3513 83.6062 62.3949C84.9515 57.853 84.0676 49.325 82.7488 44.0294Z" fill="#F99746"/>
<path d="M76.8714 40.9927C76.1813 39.201 73.9544 38.5817 72.4359 39.7605C71.6145 40.3979 70.609 41.3058 69.394 42.5965C64.8779 47.3944 63.96 47.3645 63.112 47.2654C62.264 47.1662 55.098 45.6489 55.098 45.6489C55.098 45.6489 54.7311 45.9188 54.5151 46.3555C54.2269 46.9385 54.372 47.336 54.372 47.336C54.0911 47.155 56.9121 49.0949 58.316 49.8683C60.1705 50.8895 62.9645 51.8474 64.0771 52.2111C64.3924 52.3141 64.7328 52.3092 65.0452 52.1968C66.697 51.603 72.2436 49.4384 76.7592 45.6832C77.9486 44.6929 77.5113 42.6539 76.8714 40.9927Z" fill="#F99746"/>
<path d="M78.7117 37.8084L78.1637 36.5771C78.1637 36.5771 73.2595 36.9761 72.4351 39.7606C72.4356 39.7606 76.2369 37.8678 78.7117 37.8084Z" fill="white"/>
<path d="M90.6189 88.1553L90.6529 88.1548C90.9298 88.1499 91.1438 87.9236 91.1177 87.664L89.2702 69.2578L87.6582 69.4011L90.311 87.9065C90.3317 88.0512 90.464 88.1582 90.6189 88.1553Z" fill="#8CB4F4"/>
<path d="M81.1102 88.1553L81.1441 88.1548C81.421 88.1499 81.635 87.9236 81.6089 87.664L79.7619 69.2578L78.1499 69.4011L80.8027 87.9065C80.8229 88.0512 80.9552 88.1582 81.1102 88.1553Z" fill="#8CB4F4"/>
<path d="M63.2592 88.1553L63.2253 88.1548C62.9484 88.1499 62.7344 87.9236 62.7605 87.664L64.608 69.2578L66.22 69.4011L63.5672 87.9065C63.547 88.0512 63.4142 88.1582 63.2592 88.1553Z" fill="#73A2E5"/>
<path d="M90.0973 66.6504L91.8504 51.2775C92.0801 49.0623 91.3374 46.8927 88.1327 46.7249L82.495 46.3824C79.1536 46.2449 77.6454 49.0191 77.2224 51.1548L73.8755 68.0535L90.0973 66.6504Z" fill="#8CB4F4"/>
<path d="M89.1546 69.527H64.1337C63.631 69.527 63.2197 69.1167 63.2197 68.6152V67.4924C63.2197 66.9908 63.631 66.5806 64.1337 66.5806H90.0685V68.6152C90.0685 69.1167 89.6573 69.527 89.1546 69.527Z" fill="#73A2E5"/>
<path d="M89.359 69.527H74.5853C74.1947 69.527 73.8755 69.2085 73.8755 68.8188V67.2887C73.8755 66.8991 74.1947 66.5806 74.5853 66.5806H90.0688V68.8188C90.0688 69.208 89.7495 69.527 89.359 69.527Z" fill="#8CB4F4"/>
</svg>
