<svg width="133" height="133" viewBox="0 0 133 133" fill="none" xmlns="http://www.w3.org/2000/svg">
<path d="M64.541 88.3145H74.3359V98.1094H64.541V88.3145ZM64.541 72.6426H74.3359V82.4375H64.541V72.6426ZM64.541 56.9707H74.3359V66.7657H64.541V56.9707ZM64.541 41.2657H74.3359V51.0606H64.541V41.2657ZM50.8281 88.3145H60.623V98.1094H50.8281V88.3145ZM50.8281 72.6426H60.623V82.4375H50.8281V72.6426ZM50.8281 56.9707H60.623V66.7657H50.8281V56.9707ZM50.8281 41.2657H60.623V51.0606H50.8281V41.2657ZM57.2031 29.0469C48.0059 32.3008 42.9922 36.8828 42.9922 39.3399V105.945H82.1719V31.4707C82.1719 29.0137 78.752 27.0879 76.2949 27.5528C76.2949 27.5528 66.3672 25.793 57.2031 29.0469ZM31.2383 82.4043C29.3457 84.0313 27.3203 87.7832 27.3203 90.2403V105.912H39.0742V78.4864C39.0742 76.0293 37.0488 76.8594 35.1562 78.4864L31.2383 82.4043ZM91.9668 53.0196C89.6426 52.1231 86.0898 52.5215 86.0898 54.9785V105.912H105.68V62.8145C105.68 60.3574 104.086 57.8008 101.762 56.9375L91.9668 53.0196ZM91.9668 66.7657H97.8438V72.6426H91.9668V66.7657ZM91.9668 78.5196H97.8438V84.3965H91.9668V78.5196ZM91.9668 90.2735H97.8438V96.1504H91.9668V90.2735Z" fill="#2B3467"/>
<circle cx="66.5" cy="66.5" r="65" stroke="#2B3467" stroke-width="3" stroke-linecap="round" stroke-dasharray="10 20"/>
</svg>
