<svg width="100" height="100" viewBox="0 0 100 100" fill="none" xmlns="http://www.w3.org/2000/svg">
<rect width="100" height="100" rx="50" fill="#FBFCEE"/>
<g clip-path="url(#clip0_2023_1547)">
<path d="M76.4828 46.8155L76.449 46.6845C76.2396 45.9775 75.8637 45.3324 75.3534 44.8049C74.8431 44.2773 74.2138 43.883 73.5195 43.6558C72.8252 43.4287 72.0868 43.3755 71.3677 43.5007C70.6486 43.626 69.9703 43.9261 69.3912 44.3751C68.8122 44.8242 68.3495 45.4087 68.0432 46.0786C67.7369 46.7484 67.5959 47.4835 67.6326 48.2206C67.6692 48.9577 67.8823 49.6748 68.2535 50.3102C68.6247 50.9456 69.1429 51.4804 69.7636 51.8684L69.8312 51.9026C70.8528 52.5021 72.0663 52.6719 73.2105 52.3754L73.3456 52.3412C74.4808 52.0198 75.4461 51.2612 76.0347 50.2282C76.6233 49.1952 76.7882 47.97 76.494 46.8155H76.4828ZM34.461 42.4291L40.4593 41.7227C40.5602 39.965 41.0676 38.2558 41.9406 36.7325L42.0025 36.647C42.2884 36.1548 42.6123 35.6862 42.9713 35.2457L38.8823 30.546C38.2579 30.9477 37.5759 31.2494 36.8604 31.4403C34.9904 31.9403 33.0009 31.6715 31.3262 30.6928C29.6515 29.714 28.4277 28.1048 27.9221 26.2165C27.6751 25.2827 27.6132 24.3088 27.7398 23.3507C27.8664 22.3926 28.1791 21.4693 28.6599 20.6339C29.1065 19.7296 29.7314 18.9273 30.4961 18.2766C31.2608 17.6258 32.1491 17.1402 33.1063 16.8498C34.0636 16.5594 35.0695 16.4702 36.0621 16.5878C37.0547 16.7055 38.0129 17.0274 38.8779 17.5337C39.7428 18.0401 40.4961 18.7202 41.0914 19.5321C41.6866 20.3441 42.1113 21.2707 42.3391 22.2549C42.5669 23.2391 42.5931 24.2601 42.4161 25.2549C42.2391 26.2497 41.8626 27.1974 41.3098 28.0395C41.2253 28.1876 41.1352 28.33 41.0394 28.4724L45.1622 33.212C46.535 32.2108 48.1148 31.5382 49.7823 31.2451C51.4498 30.952 53.1613 31.046 54.7876 31.5201L56.3646 27.954C55.2721 27.1103 54.4433 25.9659 53.9775 24.6579C53.5117 23.3499 53.4287 21.9338 53.7385 20.5793C54.0482 19.2247 54.7375 17.9893 55.7239 17.021C56.7102 16.0527 57.9516 15.3926 59.2995 15.1198C60.6473 14.847 62.0443 14.9731 63.3231 15.4829C64.6018 15.9928 65.7081 16.8648 66.5093 17.9945C67.3106 19.1241 67.7727 20.4635 67.8404 21.8521C67.9082 23.2407 67.5786 24.6195 66.8912 25.8235C66.1232 27.169 64.9468 28.2282 63.5365 28.8439C62.1262 29.4596 60.5572 29.599 59.0624 29.2414L57.5136 32.7563C59.3151 33.8895 60.7612 35.517 61.6836 37.4494C62.6059 39.3817 62.9665 41.5394 62.7233 43.671L65.6577 44.4856C65.6971 44.4001 65.7422 44.3204 65.7873 44.2406C66.5142 42.9805 67.5929 41.9657 68.8881 41.3234C70.1832 40.6812 71.6371 40.4402 73.0672 40.6306C74.4972 40.8211 75.8398 41.4345 76.9265 42.394C78.0131 43.3535 78.7953 44.6162 79.175 46.0237C79.6671 47.9158 79.399 49.928 78.4292 51.6208C77.4594 53.3136 75.8667 54.5495 73.999 55.0585C72.132 55.5563 70.1462 55.2881 68.4738 54.3122L68.3555 54.3065C67.1876 53.6064 66.2365 52.5899 65.6095 51.3719C64.9825 50.1539 64.7046 48.7829 64.8073 47.4136L61.9912 46.6503C61.8436 47.02 61.6763 47.3813 61.4899 47.7327C60.1533 50.2704 57.909 52.196 55.2156 53.116C55.1311 53.1413 55.0443 53.1585 54.9566 53.1672V54.3065C55.0314 54.2971 55.107 54.2971 55.1819 54.3065H56.4998C56.5728 54.2981 56.6465 54.2981 56.7194 54.3065C58.3021 54.5629 59.0906 55.6282 59.4623 57.0124C59.6162 56.9158 59.7937 56.8646 59.9748 56.8643H61.2928C61.3638 56.8556 61.4357 56.8556 61.5068 56.8643C63.1964 57.1321 63.9793 58.3227 64.3229 59.838C64.4055 59.8154 64.4907 59.8039 64.5763 59.8038H65.8943C65.9673 59.7955 66.0409 59.7955 66.1139 59.8038C69.7298 60.3734 69.6791 65.0959 69.6453 68.1721C69.6453 69.5906 69.7016 71.0204 69.7185 72.4275C69.5552 75.7429 68.0683 78.3292 66.542 80.9724L66.4124 81.2003C65.8403 82.2787 65.0357 83.2132 64.0582 83.9346C63.1749 84.5607 62.1235 84.8986 61.045 84.9031H49.6623C49.1292 84.9229 48.6005 84.7982 48.1311 84.5417C47.6616 84.2853 47.2686 83.9066 46.9927 83.4447C46.4199 82.4641 46.0627 81.3703 45.9451 80.2375L38.8091 69.3228C38.2469 68.5636 37.769 67.744 37.3841 66.879C37.0487 66.1474 36.8392 65.3633 36.7646 64.5605C36.6887 63.7848 36.8028 63.0022 37.0969 62.2818C37.3773 61.6172 37.9055 61.0911 38.5669 60.8178C39.1782 60.584 39.8433 60.5346 40.4818 60.6754C41.3358 60.8576 42.1325 61.2488 42.8023 61.8147L45.2579 63.8541L46.0521 64.5092V52.0792C45.8659 52.0399 45.6884 51.9665 45.5283 51.8627C43.2122 50.3427 41.5348 48.0089 40.8198 45.3116C40.7691 45.1236 40.724 44.9356 40.6846 44.7419L34.8835 45.4255C34.8072 46.4897 34.5016 47.5242 33.9879 48.4561L33.9429 48.5416C33.0026 50.187 31.4594 51.3917 29.6474 51.895C27.8354 52.3982 25.9004 52.1594 24.2612 51.2304L24.1767 51.1848C22.5465 50.2369 21.3525 48.676 20.8546 46.842C20.3567 45.008 20.5953 43.0493 21.5183 41.3923L21.5633 41.3069C22.5026 39.6603 24.0458 38.4546 25.8582 37.9513C27.6706 37.4479 29.6062 37.6875 31.2451 38.6181L31.3295 38.6636C32.7778 39.5083 33.8863 40.8412 34.461 42.4291ZM25.596 48.8435C26.613 49.4149 27.8114 49.5589 28.9326 49.2445C30.0537 48.9301 31.0077 48.1825 31.5886 47.163L31.6281 47.1003C32.193 46.0716 32.3354 44.8595 32.0246 43.7256C31.7137 42.5916 30.9745 41.6267 29.9666 41.0391L29.9046 41.005C28.8842 40.4359 27.6832 40.2962 26.5617 40.616C25.4401 40.9359 24.4882 41.6896 23.912 42.7139L23.8725 42.7709C23.3141 43.8048 23.1783 45.0189 23.4941 46.1529C23.8099 47.2869 24.5523 48.2507 25.5622 48.8378L25.6241 48.872L25.596 48.8435ZM62.2784 71.7724C62.295 71.5747 62.3844 71.3905 62.5289 71.2563C62.6733 71.1221 62.8623 71.0476 63.0585 71.0476C63.2546 71.0476 63.4436 71.1221 63.5881 71.2563C63.7325 71.3905 63.8219 71.5747 63.8385 71.7724V75.384C63.8219 75.5817 63.7325 75.7659 63.5881 75.9001C63.4436 76.0343 63.2546 76.1087 63.0585 76.1087C62.8623 76.1087 62.6733 76.0343 62.5289 75.9001C62.3844 75.7659 62.295 75.5817 62.2784 75.384V71.7724ZM57.6656 70.183C57.6565 70.0738 57.6698 69.9638 57.7048 69.86C57.7399 69.7563 57.7958 69.661 57.8691 69.5803C57.9425 69.4995 58.0316 69.435 58.1308 69.3909C58.2301 69.3469 58.3373 69.3241 58.4457 69.3241C58.5541 69.3241 58.6613 69.3469 58.7606 69.3909C58.8598 69.435 58.9489 69.4995 59.0223 69.5803C59.0956 69.661 59.1515 69.7563 59.1866 69.86C59.2216 69.9638 59.2349 70.0738 59.2258 70.183V75.384C59.2091 75.5817 59.1198 75.7659 58.9753 75.9001C58.8308 76.0343 58.6418 76.1087 58.4457 76.1087C58.2496 76.1087 58.0606 76.0343 57.9161 75.9001C57.7716 75.7659 57.6823 75.5817 57.6656 75.384V70.183ZM46.0521 66.9872C45.9999 66.9583 45.9508 66.9239 45.9056 66.8847C45.4269 66.503 44.7341 65.9333 44.0527 65.3694L41.5858 63.3186C41.163 62.9527 40.6584 62.6966 40.1158 62.5723C39.8402 62.5046 39.5514 62.5164 39.2822 62.6065C39.0807 62.6995 38.9216 62.8665 38.8373 63.0736C38.673 63.505 38.615 63.9703 38.6683 64.4294C38.728 65.01 38.8842 65.5762 39.1301 66.1042C39.4606 66.8348 39.8665 67.5279 40.341 68.1721L47.6347 79.3717C47.7173 79.4982 47.7694 79.6426 47.7868 79.7932C47.8473 80.732 48.1107 81.646 48.5584 82.4706C48.6645 82.6603 48.8196 82.8172 49.0072 82.9245C49.1947 83.0319 49.4075 83.0857 49.6229 83.0801H61.0337C61.728 83.0733 62.4038 82.8527 62.9712 82.4478C63.7101 81.8881 64.3178 81.1704 64.7509 80.3458L64.8861 80.1065C66.2941 77.6513 67.6628 75.2644 67.8092 72.4332L67.736 69.1177C67.7331 69.0703 67.7331 69.0228 67.736 68.9753V68.2063C67.736 65.8023 67.8036 62.1223 65.8267 61.7634H64.5313C64.5707 62.7945 64.5313 63.8541 64.4581 64.8168C64.4581 65.3865 64.3961 65.9162 64.3961 66.4062C64.3776 66.6494 64.269 66.8767 64.092 67.0425C63.915 67.2083 63.6827 67.3004 63.4414 67.3004C63.2002 67.3004 62.9679 67.2083 62.7909 67.0425C62.6139 66.8767 62.5053 66.6494 62.4868 66.4062C62.4868 65.9447 62.5206 65.3523 62.5544 64.6972C62.6895 62.2989 62.8698 59.0974 61.2139 58.7784H59.9748C59.8932 58.7805 59.8117 58.7709 59.7327 58.7499C59.7866 59.9063 59.7697 61.0649 59.682 62.2191C59.6482 62.7888 59.62 63.3186 59.62 63.8085C59.6015 64.0518 59.4929 64.279 59.3159 64.4448C59.1389 64.6106 58.9066 64.7027 58.6654 64.7027C58.4241 64.7027 58.1918 64.6106 58.0148 64.4448C57.8378 64.279 57.7292 64.0518 57.7107 63.8085C57.7107 63.3471 57.7445 62.7546 57.7783 62.0995C57.9135 59.7069 58.0881 56.5054 56.4378 56.1864H55.1819C55.0981 56.1867 55.0147 56.1752 54.934 56.1523V61.1425C54.9155 61.3858 54.8069 61.613 54.63 61.7788C54.453 61.9446 54.2206 62.0367 53.9794 62.0367C53.7381 62.0367 53.5058 61.9446 53.3288 61.7788C53.1518 61.613 53.0432 61.3858 53.0247 61.1425V48.553C53.0247 46.844 52.3432 45.8072 51.4815 45.3686C51.1711 45.208 50.8276 45.1241 50.479 45.1236C50.1348 45.1257 49.7957 45.2076 49.4877 45.3629C48.6316 45.8072 47.9614 46.8725 47.9614 48.5928V68.7703C47.9429 69.0135 47.8343 69.2408 47.6573 69.4066C47.4803 69.5724 47.248 69.6645 47.0067 69.6645C46.7655 69.6645 46.5332 69.5724 46.3562 69.4066C46.1792 69.2408 46.0706 69.0135 46.0521 68.7703V66.9872ZM46.0521 48.4618C46.0915 45.9781 47.2067 44.3717 48.626 43.6425C49.2008 43.3497 49.8354 43.1975 50.479 43.1982C51.1251 43.1963 51.7624 43.3505 52.3376 43.6482C53.7907 44.3887 54.934 46.0408 54.934 48.553V49.96C56.1129 49.432 57.152 48.63 57.9665 47.6191C58.781 46.6082 59.348 45.4171 59.6214 44.1427C59.8948 42.8682 59.8668 41.5465 59.5397 40.2851C59.2126 39.0237 58.5957 37.8582 57.7391 36.8836C56.8825 35.9089 55.8105 35.1526 54.6103 34.6761C53.4101 34.1997 52.1157 34.0166 50.8323 34.1418C49.5489 34.267 48.3129 34.6969 47.2249 35.3965C46.1368 36.0962 45.2275 37.0458 44.5708 38.168L44.5258 38.2478C43.9903 39.1872 43.643 40.2241 43.5038 41.2993C43.3647 42.3745 43.4363 43.4669 43.7147 44.5141C44.1132 46.022 44.9232 47.3861 46.0521 48.4504V48.4618ZM38.8879 26.5925C39.4854 25.5395 39.6449 24.2895 39.3312 23.1175C39.0175 21.9456 38.2563 20.9477 37.2152 20.3433C36.174 19.739 34.9382 19.5777 33.7795 19.895C32.6208 20.2123 31.6342 20.9822 31.0367 22.0352C30.444 23.0685 30.2761 24.2959 30.5692 25.4532L30.603 25.5899C30.9196 26.7391 31.6691 27.7168 32.6906 28.3133C33.712 28.9097 34.924 29.0773 36.0662 28.78L36.2014 28.7401C37.3356 28.418 38.3 27.6593 38.8879 26.6267V26.5925ZM64.5313 24.4734C65.0435 23.5749 65.232 22.5246 65.0645 21.5014C64.897 20.4782 64.384 19.5454 63.6128 18.8618C62.8416 18.1783 61.8599 17.7864 60.835 17.7528C59.8102 17.7192 58.8055 18.046 57.9921 18.6777C57.1788 19.3093 56.6071 20.2066 56.3745 21.2167C56.1419 22.2268 56.2628 23.2872 56.7165 24.2173C57.1702 25.1474 57.9286 25.8896 58.8627 26.3175C59.7968 26.7454 60.8486 26.8326 61.8391 26.564C62.9749 26.2555 63.9432 25.5035 64.5313 24.4734Z" fill="#2B3467"/>
</g>
<defs>
<clipPath id="clip0_2023_1547">
<rect width="70" height="70" fill="white" transform="translate(15 15)"/>
</clipPath>
</defs>
</svg>
