<svg width="1030" height="1030" viewBox="0 0 1030 1030" fill="none" xmlns="http://www.w3.org/2000/svg">
<g clip-path="url(#clip0_2048_26824)">
<path d="M246.047 952.485C243.596 951.384 243.51 951.41 243.045 951.547C243.484 952.149 244.981 953.302 247.311 954.849C240.44 950.662 233.25 946.251 227.454 942.373C233.534 946.405 245.66 954.291 258.646 961.772C258.551 961.711 258.44 961.643 258.345 961.591C259.583 962.305 260.873 963.044 262.224 963.809C271.4 968.917 283.939 975.151 293.287 979.941C294.921 980.706 294.921 980.706 295.549 980.852C294.835 980.345 294.835 980.345 283.466 973.655C265.182 962.889 254.14 956.397 246.047 952.485Z" fill="#2B3467"/>
<path d="M170.651 882.963C169.146 882.318 166.617 881.234 165.688 882.026C160.812 886.144 200.071 921.744 210.383 922.552C214.038 922.836 210.108 916.98 205.205 911.399C198.497 903.763 183.189 889.292 170.651 882.963Z" fill="#2B3467"/>
<path d="M145.728 828.334C141.204 818.6 128.88 801.798 115.645 794.919C113.951 794.222 111.113 793.053 109.246 794.059C100.457 798.831 126.335 836.357 142.202 841.86C148.987 844.225 150.466 838.532 145.728 828.334Z" fill="#2B3467"/>
<path d="M76.3942 691.741C63.9758 694.415 75.1988 729.739 92.4161 742.139C102.805 749.62 109.547 743.584 106.847 729.223C104.817 718.423 95.9249 699.987 82.5174 692.824C80.5136 692.016 78.6216 691.259 76.3942 691.741Z" fill="#2B3467"/>
<path d="M89.939 618.35C90.283 606.905 85.0541 587.635 72.3433 580.661C71.3715 580.283 70.0557 579.784 69.0237 579.646C53.6038 577.591 52.718 612.701 67.7681 629.743C78.2171 641.575 89.4058 635.823 89.939 618.35Z" fill="#2B3467"/>
<path d="M84.8139 468.841C84.3409 468.661 83.7303 468.386 83.2401 468.24C67.8374 463.699 58.4462 494.432 69.6606 512.678C77.7618 525.869 91.5477 520.933 95.5381 503.417C97.9375 492.884 96.2003 475.187 84.8139 468.841Z" fill="#2B3467"/>
<path d="M120.942 395.941C124.846 386.628 125.99 371.038 116.324 365.544C101.635 360.049 88.3649 386.835 94.127 402.519C99.158 416.251 113.95 412.623 120.942 395.941Z" fill="#2B3467"/>
<path d="M162.343 298.748C167.279 290.794 170.745 277.551 162.996 273.037C150.458 268.471 134.238 291.284 137.067 304.552C139.501 315.98 153.674 312.721 162.343 298.748Z" fill="#2B3467"/>
<path d="M216.377 213.877C221.933 207.368 227.153 196.636 221.365 193.145C211.234 189.568 193.355 208.176 193.613 218.881C193.836 228.142 206.599 225.331 216.377 213.877Z" fill="#2B3467"/>
<path d="M260.237 147.89C259.738 154.064 270.092 151.415 280.017 142.842C285.856 137.803 292.332 129.583 288.453 127.106C280.971 124.612 260.925 139.368 260.237 147.89Z" fill="#2B3467"/>
<path d="M361.597 75.8655C356.222 74.2403 335.204 85.909 333.836 91.2746C332.925 94.869 341.069 92.6849 350.607 86.786C356.059 83.4239 363.859 77.4735 361.597 75.8655Z" fill="#2B3467"/>
<path d="M425.839 46.4318C425.968 46.3802 438.326 41.3584 438.653 40.0428C438.627 40.0084 438.584 39.974 438.55 39.9396C434.964 39.1227 412.234 47.7904 411.829 50.1292C411.623 51.3589 417.514 49.8025 425.839 46.4318Z" fill="#2B3467"/>
<path d="M398.31 1016.69C395.704 1016.04 392.789 1015.32 389.788 1014.56C394.045 1015.69 395.326 1016 398.31 1016.69Z" fill="#2B3467"/>
<path d="M371.263 1009.64L374.032 1010.44C378.685 1011.76 384.37 1013.21 389.779 1014.57C386.666 1013.74 381.962 1012.48 373.783 1010.29C371.487 1009.67 371.435 1009.67 371.263 1009.64Z" fill="#2B3467"/>
<path d="M334.705 989.064C329.519 985.426 312.895 975.065 298.369 970.834C296.366 970.353 293.02 969.553 292.298 970.645C289.572 974.772 331.901 996.828 340.484 995.745C343.348 995.384 337.396 990.947 334.705 989.064Z" fill="#2B3467"/>
<path d="M268.888 942.905C276.869 944.401 278.727 939.938 273.421 932.062C268.226 924.357 253.727 911.33 237.731 906.489C235.254 905.921 231.1 904.976 228.821 906.67C220.754 912.68 250.338 939.431 268.888 942.905Z" fill="#2B3467"/>
<path d="M226.602 853.022C223.489 843.537 211.165 827.715 193.501 822.229C191.161 821.713 187.24 820.845 183.929 822.109C171.14 827.019 185.468 853.34 206.813 864.148C221.528 871.604 230.962 866.298 226.602 853.022Z" fill="#2B3467"/>
<path d="M166.204 767.007C182.114 779.175 197.569 773.706 195.728 756.551C194.576 745.82 184.866 728.14 166.875 722.405C164.992 722.001 162.653 721.502 160.193 721.708C142.236 723.187 146.003 751.555 166.204 767.007Z" fill="#2B3467"/>
<path d="M147.585 657.088C161.827 672.05 180.781 666.409 181.968 646.864C182.665 635.342 175.922 616.579 158.731 610.955C157.389 610.68 155.575 610.319 154.207 610.293C134.711 609.889 130.557 639.194 147.585 657.088Z" fill="#2B3467"/>
<path d="M185.838 531.605C188.109 520.865 184.333 503.426 168.819 498.293C168.182 498.164 167.348 497.949 166.703 497.863C148.11 495.231 137.394 521.467 149.598 539.765C160.606 556.292 181.616 551.563 185.838 531.605Z" fill="#2B3467"/>
<path d="M194.197 392.854C175.329 389.061 162.687 414.239 171.072 429.923C179.053 444.851 198.867 440.534 205.274 422.468C208.68 412.855 207.493 397.316 194.197 392.854Z" fill="#2B3467"/>
<path d="M237.404 322.533C241.567 314.226 242.581 300.864 231.788 297.157C215.861 294.045 201.499 315.791 206.711 329.214C211.733 342.147 229.518 338.277 237.404 322.533Z" fill="#2B3467"/>
<path d="M278.787 213.284C266.412 210.945 251.07 229.192 253.323 239.897C255.533 250.362 270.979 246.923 279.561 234.05C284.154 227.162 286.957 216.165 278.787 213.284Z" fill="#2B3467"/>
<path d="M308.182 164.632C309.085 171.691 321.022 168.398 329.467 158.741C334.223 153.307 338.402 144.725 332.804 142.653C323.877 141.071 307.081 156.067 308.182 164.632Z" fill="#2B3467"/>
<path d="M368.374 103.244C368.245 107.234 376.294 105.386 385.032 97.9475C389.418 94.2156 395.094 87.7922 391.671 86.4164C385.333 85.4018 368.563 97.5176 368.374 103.244Z" fill="#2B3467"/>
<path d="M431.843 57.0082C431.705 58.5216 436.745 57.0684 444.467 52.5111C447.28 50.8515 455.011 45.9415 453.626 45.2106C449.602 44.7635 432.092 54.248 431.843 57.0082Z" fill="#2B3467"/>
<path d="M416.715 1019.06C412.483 1018.46 412.251 1018.63 411.907 1018.89C412.913 1019.79 418.495 1020.94 421.737 1021.55C427.078 1022.51 434.224 1023.63 439.582 1024.5L448.784 1025.77C447.95 1025.66 446.737 1025.46 445.611 1025.25C435.919 1023.42 426.45 1020.64 416.715 1019.06Z" fill="#2B3467"/>
<path d="M364.444 984.343C362.173 984.06 356.867 983.389 354.846 985.221C348.749 990.75 379.382 1005.9 393.968 1006.56C400.013 1006.84 401.286 1004.32 397.279 999.985C393.082 995.445 380.457 987.198 364.444 984.343Z" fill="#2B3467"/>
<path d="M356.867 946.732C353.978 939.337 341.379 927.333 322.415 923.799C319.87 923.498 315.596 922.991 311.966 924.195C299.608 928.279 310.427 945.502 330.938 954.402C348.19 961.9 361.279 958.022 356.867 946.732Z" fill="#2B3467"/>
<path d="M285.512 876.711C305.224 891.639 328.512 888.096 325.692 870.58C324.195 861.259 312.68 846.331 291.79 842.316C289.606 842.066 286.88 841.757 284.033 842.084C266.437 844.104 267.237 862.867 285.512 876.711Z" fill="#2B3467"/>
<path d="M304.811 776.044C304.605 765.347 294.723 748.399 273.386 744.177C271.735 743.996 269.508 743.773 267.848 743.833C246.924 744.555 242.779 767.385 260.572 783.869C279.157 801.075 305.198 796.466 304.811 776.044Z" fill="#2B3467"/>
<path d="M295.093 667.234C296.099 655.634 288.291 637.422 267.805 633.243C266.98 633.157 265.887 633.002 265.053 632.959C242.435 631.816 233.285 657.844 249.745 676.478C266.051 694.94 293.175 689.402 295.093 667.234Z" fill="#2B3467"/>
<path d="M274.858 519.971C250.399 517.503 240.225 543.644 253.229 560.979C266.507 578.684 293.098 573.103 296.994 551.787C298.989 540.875 293.434 523.797 274.858 519.971Z" fill="#2B3467"/>
<path d="M269.327 449.967C279.664 466.185 303.942 461.043 309.291 441.497C311.983 431.66 308.56 416.303 292.521 412.958C271.46 410.886 259.652 434.782 269.327 449.967Z" fill="#2B3467"/>
<path d="M330.069 339.627C333.191 331.045 331.72 317.717 318.648 314.922C301.001 313.254 288.694 334.106 295.428 347.237C302.566 361.167 323.937 356.472 330.069 339.627Z" fill="#2B3467"/>
<path d="M357.71 248.573C361.055 241.393 361.27 230.301 351.286 228.099C337.354 226.844 325.228 244.308 329.184 255.203C333.458 266.957 351.054 262.873 357.71 248.573Z" fill="#2B3467"/>
<path d="M388.782 154.107C378.144 153.238 366.259 168.639 368.847 176.808C371.427 184.959 384.301 181.09 390.717 170.221C394.106 164.494 395.74 155.706 388.782 154.107Z" fill="#2B3467"/>
<path d="M427.748 106.013C431.033 101.722 433.794 95.2131 429.649 94.1812C422.82 93.7255 410.737 105.824 411.924 111.921C412.853 116.667 421.35 114.371 427.748 106.013Z" fill="#2B3467"/>
<path d="M457.006 61.6346C456.688 64.2658 461.77 62.4515 467.601 56.9138C470.026 54.6179 474.447 49.6822 472.624 49.0974C469.192 49.0028 457.47 57.7995 457.006 61.6346Z" fill="#2B3467"/>
<path d="M487.02 1028.78C486.943 1028.75 478.85 1025.49 465.847 1024.42C461.461 1024.17 458.786 1024.33 457.892 1024.88C456.757 1025.57 458.872 1027.04 469.399 1028.01C474.705 1028.45 481.783 1028.92 487.089 1029.26C487.373 1029.28 487.373 1029.28 487.7 1029.22C487.554 1029.01 487.554 1029.01 487.02 1028.78Z" fill="#2B3467"/>
<path d="M467.403 1006.04C466.26 1001.43 457.014 994.206 440.047 992.598C437.725 992.495 433.837 992.323 430.294 993.269C422.408 995.367 422.735 1001.05 431.025 1006.2C445.912 1015.46 469.717 1015.36 467.403 1006.04Z" fill="#2B3467"/>
<path d="M450.504 954.935C450.1 947.678 440.158 936.499 419.338 934.392C417.721 934.332 415.562 934.263 413.954 934.367C397.158 935.476 392.462 947.239 404.657 957.678C421.367 971.995 451.364 970.198 450.504 954.935Z" fill="#2B3467"/>
<path d="M404.279 854.612C377.61 853.735 373.044 872.12 384.189 884.579C400.985 903.351 436.512 900.582 436.985 880.452C437.208 871.191 427.207 857.037 404.279 854.612Z" fill="#2B3467"/>
<path d="M427.439 787.051C428.213 776.337 418.745 760.085 395.284 757.488C367.798 756.706 359.292 778.315 373.25 794.42C390.373 814.198 425.831 809.374 427.439 787.051Z" fill="#2B3467"/>
<path d="M370.206 689.488C387.183 709.085 419.854 702.395 422.382 678.808C423.638 667.131 415.227 649.503 392.618 646.881C365.132 646.236 355.491 672.497 370.206 689.488Z" fill="#2B3467"/>
<path d="M373.087 573.817C387.689 592.872 418.933 586.19 422.253 563.309C423.853 552.277 416.835 535.646 396.221 533.239C370.627 532.654 360.427 557.298 373.087 573.817Z" fill="#2B3467"/>
<path d="M426.536 452.418C428.342 442.418 422.872 427.378 405.044 425.254C382.564 424.79 372.364 447.138 382.684 462.066C394.535 479.229 422.812 473.004 426.536 452.418Z" fill="#2B3467"/>
<path d="M434.654 349.472C436.546 340.71 432.642 327.571 418.039 325.774C399.721 325.456 389.883 345.336 397.537 358.071C406.756 373.377 430.69 367.831 434.654 349.472Z" fill="#2B3467"/>
<path d="M445.998 256.992C447.881 249.623 445.482 238.599 434.258 237.172C419.148 236.974 410.333 255.203 417.084 265.703C424.403 277.087 442.239 271.713 445.998 256.992Z" fill="#2B3467"/>
<path d="M452.852 161.106C442.119 161.046 434.25 175.905 438.318 184.074C442.842 193.154 456.413 188.665 459.99 176.902C461.796 170.986 460.773 162.181 452.852 161.106Z" fill="#2B3467"/>
<path d="M461.641 117.054C464.075 122.583 472.692 119.892 476.106 110.725C477.766 106.263 477.929 99.6501 473.113 98.9192C466.397 98.9708 458.898 110.837 461.641 117.054Z" fill="#2B3467"/>
<path d="M494.382 51.4792C490.572 51.6426 484.182 61.4367 485.618 64.9107C486.702 67.5247 491.036 65.2804 493.823 59.502C494.949 57.1803 496.643 51.9264 494.382 51.4792Z" fill="#2B3467"/>
<path d="M518.453 1026.12C506.774 1026.31 504.538 1028.46 504.521 1028.49C503.627 1029.41 505.484 1029.91 510.042 1029.99L510.808 1029.99C514.91 1030.02 520.371 1029.95 524.473 1029.92C525.866 1029.88 529.134 1029.8 530.622 1029.23C530.846 1029.14 531.155 1029.01 531.31 1028.82C531.955 1028.07 529.186 1026.2 518.453 1026.12Z" fill="#2B3467"/>
<path d="M521.007 995.203C503.369 995.719 497.744 1002.45 499.387 1007.07C503.179 1017.74 536.092 1017.59 541.312 1006.89C543.918 1001.52 536.9 995.53 521.007 995.203Z" fill="#2B3467"/>
<path d="M523.123 937.729C499.843 938.545 492.352 950.988 497.228 959.544C506.387 975.624 544.314 973.164 549.259 956.173C551.383 948.864 544.675 938.305 523.123 937.729Z" fill="#2B3467"/>
<path d="M554.444 882.043C556.396 872.704 548.467 859.221 524.731 858.482C499.421 859.479 488.705 875.619 496.703 888.311C508.975 907.796 549.989 903.342 554.444 882.043Z" fill="#2B3467"/>
<path d="M525.797 761.693C497.073 762.949 488.421 784.781 497.985 798.359C512.871 819.495 553.111 813.063 556.955 788.935C558.684 778.143 550.153 762.553 525.797 761.693Z" fill="#2B3467"/>
<path d="M556.999 680.907C558.443 669.135 549.861 652.135 526.279 651.189C497.246 652.6 489.127 678.551 500.668 693.41C516.604 713.901 553.98 705.603 556.999 680.907Z" fill="#2B3467"/>
<path d="M554.702 565.501C555.812 554.366 547.693 538.295 526.167 537.417C499.611 538.733 490.254 564.091 504.203 579.638C520.302 597.592 552.406 588.615 554.702 565.501Z" fill="#2B3467"/>
<path d="M550.66 454.602C551.469 444.507 544.21 429.932 525.531 429.141C502.276 430.336 494.106 453.355 506.327 467.466C520.405 483.709 548.992 475.411 550.66 454.602Z" fill="#2B3467"/>
<path d="M508.623 362.827C520.577 377.41 544.339 370.127 545.474 351.536C546.016 342.688 539.858 329.91 524.49 329.205C505.621 330.237 498.707 350.737 508.623 362.827Z" fill="#2B3467"/>
<path d="M539.618 258.832C539.919 251.386 534.991 240.628 523.097 240.035C507.626 240.947 502.655 259.684 511.857 269.615C521.893 280.424 539.016 273.777 539.618 258.832Z" fill="#2B3467"/>
<path d="M514.325 188.038C521.85 195.424 533.331 189.68 533.512 178.424C533.606 172.448 529.934 163.806 521.472 163.316C509.887 164.081 506.757 180.608 514.325 188.038Z" fill="#2B3467"/>
<path d="M527.449 111.843C527.38 107.458 524.843 100.794 519.631 100.424C511.883 101.043 510.395 114.672 515.839 119.771C520.448 124.079 527.595 120.511 527.449 111.843Z" fill="#2B3467"/>
<path d="M516.742 66.3639C519.167 68.2642 522.074 65.5298 521.721 60.1297C521.515 56.9739 519.993 52.4767 517.688 52.2188C517.593 52.2273 517.464 52.236 517.378 52.2532C514.248 52.9927 513.053 63.4919 516.742 66.3639Z" fill="#2B3467"/>
<path d="M571.808 1023.87C558.572 1025.09 547.779 1028.67 547.418 1028.97L557.007 1028.27L567.74 1027.28C568.78 1027.17 571.55 1026.87 574.164 1026.4C579.591 1025.42 579.737 1024.65 579.78 1024.4C579.075 1023.49 575.153 1023.64 571.808 1023.87Z" fill="#2B3467"/>
<path d="M616.313 1001.09C621.181 995.926 618.205 990.904 603.121 991.755C584.416 993.725 573.218 1002.19 573.425 1007.39C573.803 1016.91 604.497 1011.5 615.187 1002.16C615.539 1001.85 615.995 1001.42 616.313 1001.09Z" fill="#2B3467"/>
<path d="M648.047 949.957C652.648 942.407 649.595 932.252 628.387 933.309C605.287 935.889 593.669 949.036 595.509 957.326C598.984 972.993 637.28 967.619 648.047 949.957Z" fill="#2B3467"/>
<path d="M672.042 874.776C675.662 865.24 670.261 852.29 646.912 853.357C621.792 856.28 608.281 873.323 613.854 885.491C622.428 904.219 663.76 896.609 672.042 874.776Z" fill="#2B3467"/>
<path d="M686.73 781.057C689.336 770.111 682.198 755.132 658.195 756.129C629.72 759.578 619.349 782.115 627.665 794.996C640.608 815.066 680.908 805.556 686.73 781.057Z" fill="#2B3467"/>
<path d="M661.859 645.497C633.178 649.108 624.853 675.688 636.076 689.661C651.59 708.982 688.639 697.838 691.916 672.858C693.464 660.975 685.174 644.637 661.859 645.497Z" fill="#2B3467"/>
<path d="M687.598 557.72C688.149 546.532 679.325 531.115 657.989 531.88C632.971 535.062 624.474 558.958 636.635 573.799C652.106 592.7 686.403 581.874 687.598 557.72Z" fill="#2B3467"/>
<path d="M675.283 447.439C675.043 437.327 666.339 423.371 647.755 423.998C624.982 426.948 619.314 450.492 632.799 463.631C648.391 478.816 675.791 468.369 675.283 447.439Z" fill="#2B3467"/>
<path d="M632.446 324.673C613.045 327.262 610.224 349.86 623.7 360.677C638.097 372.225 658.513 362.715 656.802 345.268C655.942 336.428 647.815 324.201 632.446 324.673Z" fill="#2B3467"/>
<path d="M610.018 267.482C622.29 275.84 636.265 267.68 633.745 253.621C632.421 246.209 625.18 235.924 613.217 236.243C612.753 236.303 612.134 236.363 611.669 236.458C598.322 239.08 597.273 258.806 610.018 267.482Z" fill="#2B3467"/>
<path d="M592.405 186.137C601.813 191.675 610.405 184.985 607.481 174.408C605.89 168.656 599.569 160.22 591.063 160.384C590.736 160.435 590.298 160.47 589.971 160.538C580.115 162.662 581.758 179.886 592.405 186.137Z" fill="#2B3467"/>
<path d="M566.837 98.4374C566.45 98.4976 565.925 98.5922 565.573 98.747C560.112 101.163 563.655 115.102 572.427 118.696C578.06 121.001 582.343 116.762 579.187 109.091C577.398 104.775 572.246 98.403 566.837 98.4374Z" fill="#2B3467"/>
<path d="M549.207 65.5468C551.89 66.2003 552.733 63.3455 549.8 58.6763C547.917 55.6839 543.806 51.3071 541.312 51.2383C541.149 51.2727 540.925 51.3243 540.787 51.4275C538.508 53.1472 544.305 64.3515 549.207 65.5468Z" fill="#2B3467"/>
<path d="M622.703 1017.51C611.669 1019.51 600.893 1022.74 589.808 1024.51C600.145 1022.8 613.888 1020.25 624.156 1018.2C626.298 1017.64 626.745 1017.4 627.106 1017.21C627.089 1017.15 627.054 1017.07 627.037 1017.02C626.212 1016.98 625.326 1017.08 622.703 1017.51Z" fill="#2B3467"/>
<path d="M681.441 981.97C662.718 985.676 644.082 997.465 643.454 1002.47C642.672 1008.69 669.246 1000.72 683.273 991.833C686.317 989.907 688.845 987.852 690.041 986.321C691.228 984.825 694.091 980.087 681.441 981.97Z" fill="#2B3467"/>
<path d="M739.276 936.249C739.723 935.725 740.291 935.003 740.695 934.444C745.692 927.565 746.647 918.244 728.784 920.763C706.011 925.458 689.843 941.933 691.357 950.197C693.576 962.347 724.923 953.224 739.276 936.249Z" fill="#2B3467"/>
<path d="M763.443 838.79C739.87 843.795 723.728 863.589 728.423 875.284C734.77 891.114 770.048 879.875 780.849 858.576C785.51 849.384 784.9 835.892 763.443 838.79Z" fill="#2B3467"/>
<path d="M807.062 763.301C810.089 752.896 806.64 737.461 784.461 740.351C760.278 745.622 746.621 768.073 753.681 781.625C763.477 800.422 799.889 787.92 807.062 763.301Z" fill="#2B3467"/>
<path d="M791.16 629.331C766.839 634.782 756.424 661.06 767.424 675.446C781.433 693.762 813.993 680.09 817.184 654.542C818.585 643.364 812.763 626.648 791.16 629.331Z" fill="#2B3467"/>
<path d="M783.704 516.161C760.131 521.492 754.266 548.054 768.224 561.357C784.547 576.912 811.482 563.42 811.233 539.808C811.129 529.369 803.553 513.719 783.704 516.161Z" fill="#2B3467"/>
<path d="M756.898 451.446C773.135 463.201 794.119 450.638 791.444 430.766C790.085 420.714 780.78 407.446 764.32 409.432C743.335 414.239 741.581 440.362 756.898 451.446Z" fill="#2B3467"/>
<path d="M733.643 312.214C718.455 316.737 719.496 340.323 735.277 349.335C750.327 357.925 765.093 346.996 760.759 330.478C758.471 321.758 749.097 310.202 735.415 311.801C734.881 311.921 734.168 312.059 733.643 312.214Z" fill="#2B3467"/>
<path d="M705.049 257.516C717.63 263.286 727.013 254.145 721.784 241.221C718.852 233.973 709.899 224.299 699.158 225.503C698.753 225.597 698.203 225.7 697.799 225.829C685.44 229.69 690.239 250.723 705.049 257.516Z" fill="#2B3467"/>
<path d="M657.421 152.094C656.871 152.232 656.131 152.43 655.632 152.696C648.331 156.617 656.028 174.752 669.186 178.415C678.19 180.926 682.095 173.892 676.771 164.743C673.443 158.999 665.23 151.286 657.421 152.094Z" fill="#2B3467"/>
<path d="M627.192 112.729C632.386 113.254 632.636 108.326 627.708 102.385C624.285 98.2657 616.881 92.3669 611.85 92.814C611.523 92.9 611.084 93.029 610.809 93.2182C606.578 96.1676 617.904 111.792 627.192 112.729Z" fill="#2B3467"/>
<path d="M576.202 55.0563C572.641 52.2015 566.217 48.2976 563.844 48.418C563.723 48.461 563.534 48.5298 563.465 48.6416C562.365 50.4903 576.004 62.6663 580.407 61.8494C582.11 61.5313 581.009 58.9086 576.202 55.0563Z" fill="#2B3467"/>
<path d="M750.181 967.842C751.901 965.305 747.394 966.56 745.468 967.102C730.04 972.167 700.619 989.493 700.627 992.632C703.225 993.509 723.177 985.074 736.808 977.335C745.124 972.614 749.166 969.338 750.181 967.842Z" fill="#2B3467"/>
<path d="M810.863 901.699C791.41 908.346 771.449 928.536 771.337 936.034C771.208 945.295 796.604 931.787 811.113 916.919C814.148 913.806 816.737 910.522 818.044 908.123C819.652 905.199 822.146 898.707 810.863 901.699Z" fill="#2B3467"/>
<path d="M866.712 835.66C872.697 825.385 874.159 812.701 858.696 816.674C839.751 823.338 822.654 846.082 824.907 857.071C827.702 870.649 854.259 857.037 866.712 835.66Z" fill="#2B3467"/>
<path d="M902.118 738.124C905.756 726.704 903.683 712.404 887.678 716.386C868.294 723.377 855.368 748.786 860.889 761.401C867.838 777.291 894.429 762.278 902.118 738.124Z" fill="#2B3467"/>
<path d="M896.863 604.789C877.272 612.047 869.386 641.197 879.233 654.035C890.465 668.67 913.728 652.659 916.385 628.462C917.71 616.363 912.533 601.023 896.863 604.789Z" fill="#2B3467"/>
<path d="M886.466 492.3C867.615 499.359 865.387 528.208 878.709 539.731C892.529 551.692 910.83 536.429 909.299 514.209C908.585 503.813 901.757 488.671 886.466 492.3Z" fill="#2B3467"/>
<path d="M860.812 430.628C874.856 439.184 888.143 425.418 883.74 406.861C881.392 396.947 872.345 384.332 859.599 387.299C842.726 393.722 845.968 421.582 860.812 430.628Z" fill="#2B3467"/>
<path d="M843.526 309.213C840.017 300.717 830.273 289.831 819.592 292.256C805.144 297.88 813.572 323.65 828.39 330.263C841.212 335.981 849.701 324.175 843.526 309.213Z" fill="#2B3467"/>
<path d="M769.428 209.191C768.835 209.432 768.044 209.759 767.536 210.146C759.349 216.414 772 238.315 785.588 241.385C795.486 243.621 798.789 234.334 792.02 223.31C787.729 216.328 777.891 207.325 769.428 209.191Z" fill="#2B3467"/>
<path d="M711.679 139.497C711.283 139.669 710.733 139.901 710.414 140.202C704.833 145.396 722.386 164.812 732.775 164.941C739.018 165.019 738.734 158.234 732.181 150.719C727.58 145.43 717.879 138.207 711.679 139.497Z" fill="#2B3467"/>
<path d="M671.457 102.763C675.172 102.367 672.936 97.7236 666.563 92.6245C661.593 88.6518 652.605 83.5355 648.649 84.275C648.426 84.3782 648.108 84.533 647.961 84.7308C645.82 87.8092 663.854 103.571 671.457 102.763Z" fill="#2B3467"/>
<path d="M582.119 44.2304C581.646 46.3973 602.329 57.0427 605.176 56.0968C606.466 55.6668 603.852 53.1302 597.393 49.768C591.975 46.9562 584.192 43.8778 582.283 44.1358C582.223 44.1702 582.162 44.2046 582.119 44.2304Z" fill="#2B3467"/>
<path d="M742.776 976.768C756.82 969.433 775.207 959.011 788.864 950.971L789.793 950.386C793.147 948.254 793.25 948.142 793.818 947.523C793.284 947.738 793.044 947.858 791.84 948.503C775.302 957.609 759.546 968.074 742.776 976.768Z" fill="#2B3467"/>
<path d="M870.307 877.863C855.661 886.342 829.448 912.964 829.044 917.272C828.692 921.03 846.7 907.693 861.157 893.479C869.507 885.276 873.214 880.211 873.911 878.207C874.796 875.619 871.769 877.133 870.307 877.863Z" fill="#2B3467"/>
<path d="M927.686 788.994C912.696 797.971 893.81 827.319 895.995 835.11C897.921 841.98 915.078 826.674 926.594 807.817C929.036 803.81 931.091 799.769 932.235 796.708C933.921 792.21 935.572 785.228 927.686 788.994Z" fill="#2B3467"/>
<path d="M962.439 686.392C947.99 695.318 935.968 725.672 940.38 735.965C944.817 746.318 961.432 729.541 968.596 707.468C972.389 695.791 972.982 681.534 962.439 686.392Z" fill="#2B3467"/>
<path d="M973.412 574.083C958.784 583.405 953.71 617.207 962.585 626.984C970.634 635.849 983.921 618.565 985.891 596.673C986.992 584.497 983.844 569.44 973.412 574.083Z" fill="#2B3467"/>
<path d="M978.185 482.979C976.955 472.66 971.176 457.956 960.899 462.445C947.904 470.889 949.246 502.145 960.09 511.329C970.359 520.031 980.67 503.865 978.185 482.979Z" fill="#2B3467"/>
<path d="M948.713 377.634C945.574 367.926 937.266 355.922 928.615 359.619C916.979 367.35 924.822 396.853 937.215 403.413C947.948 409.106 954.286 394.892 948.713 377.634Z" fill="#2B3467"/>
<path d="M880.549 267.801C870.616 274.602 884.144 301.224 896.717 305.455C906.573 308.774 909.334 296.899 901.903 283.167C897.457 274.955 887.894 264.757 880.549 267.801Z" fill="#2B3467"/>
<path d="M843.173 219.733C850.208 220.206 849.46 211.091 841.668 201.34C836.362 194.702 826.231 186.421 820.306 188.786C820.108 188.923 819.833 189.087 819.652 189.25C813.374 195.037 831.838 218.976 843.173 219.733Z" fill="#2B3467"/>
<path d="M777.194 147.442C782.13 147.115 779.378 140.468 771.406 133.495C765.782 128.576 755.402 122.076 750.972 123.735C750.843 123.838 750.646 123.95 750.534 124.07C746.337 128.576 768.508 148.018 777.194 147.442Z" fill="#2B3467"/>
<path d="M675.301 73.5783C675.232 73.6385 675.111 73.7073 675.06 73.7847C673.073 76.7857 697.85 91.3779 702.967 90.2171C705.822 89.5722 701.78 85.1696 694.135 80.6122C688.123 77.0265 678.242 72.5895 675.301 73.5783Z" fill="#2B3467"/>
<path d="M595.612 38.7872C595.595 38.8216 595.561 38.856 595.543 38.8904C596.618 41.1003 621.971 50.1549 623.227 48.7791C623.081 47.6526 617.714 45.202 612.451 43.2758C606.079 40.9283 597.143 38.4089 595.612 38.7872Z" fill="#2B3467"/>
<path d="M873.376 884.613C886.457 871.861 897.568 859.556 900.664 856.091C892.494 864.664 881.873 876.358 873.376 884.613Z" fill="#2B3467"/>
<path d="M968.227 757.523C960.857 767.274 937.972 804.988 938.35 807.473C938.875 807.104 939.864 805.994 943.571 800.483C950.218 790.517 958.199 776.664 964.46 766.448L965.544 764.505C969.603 757.153 969.551 756.654 969.5 756.164C969.138 756.422 968.992 756.585 968.227 757.523Z" fill="#2B3467"/>
<path d="M1006.37 652.29C998.181 663.726 986.511 701.286 988.704 705.818C990.338 709.188 998.164 692.722 1004.21 673.194C1007.33 663.116 1009.1 654.826 1008.72 652.083C1008.42 649.934 1007.24 651.292 1006.37 652.29Z" fill="#2B3467"/>
<path d="M1018.4 539.155C1010.8 550.385 1008.1 589.123 1013.05 594.248C1016.76 598.083 1022.07 581.04 1023.38 561.091C1023.69 556.318 1023.68 552.707 1023.62 550.523C1023.46 545.57 1022.66 534.546 1018.4 539.155Z" fill="#2B3467"/>
<path d="M1015.54 447.981C1013.9 437.783 1009.48 423.474 1004.64 428.487C997.879 438.944 1003.25 473.803 1010.47 478.722C1015.84 482.385 1018.5 466.297 1015.54 447.981Z" fill="#2B3467"/>
<path d="M984.163 344.864C980.723 336.058 973.611 323.736 969.165 328.139C963.738 336.97 975.228 367.59 983.561 371.666C990.089 374.856 990.407 360.832 984.163 344.864Z" fill="#2B3467"/>
<path d="M937.929 276.58C943.898 277.835 941.851 266.184 933.956 253.913C928.891 246.045 920.084 236.518 916.378 239.992C911.966 247.645 929.682 274.843 937.929 276.58Z" fill="#2B3467"/>
<path d="M876.748 194.719C881.599 194.745 877.797 185.794 869.068 176.653C863.28 170.591 853.279 162.869 850.208 165.569C846.829 171.992 869.722 194.685 876.748 194.719Z" fill="#2B3467"/>
<path d="M803.57 127.485C806.899 126.848 801.85 120.356 793.182 114.122C786.671 109.436 776.403 103.941 774.064 105.807C771.811 110.855 798.952 128.362 803.57 127.485Z" fill="#2B3467"/>
<path d="M721.577 75.9431C723.383 75.1176 717.759 70.9729 709.52 67.0862C702.012 63.5435 692.543 60.3447 690.952 61.411C690.127 64.2056 718.172 77.508 721.577 75.9431Z" fill="#2B3467"/>
<path d="M603.456 32.6994C603.456 32.7338 603.456 32.7768 603.464 32.8026C603.61 33.0777 632.283 42.3387 633.65 40.5845C632.764 39.4839 626.418 37.3944 620.896 35.9326C613.225 33.8947 604.419 32.2609 603.456 32.6994Z" fill="#2B3467"/>
<path d="M1029.72 535.13C1029.79 533.178 1029.91 529.902 1030 526.205L1029.72 535.13Z" fill="#2B3467"/>
<path d="M1022.98 428.634L1015.21 391.074C1015.25 391.478 1015.34 391.882 1015.41 392.286C1019.34 414.549 1024.2 439.425 1025.09 442.46L1025.06 442.185L1022.98 428.634Z" fill="#2B3467"/>
<path d="M997.338 337.237C997.432 337.211 997.57 337.176 997.664 337.151C997.836 334.236 991.773 319.127 987.912 310.288C985.96 305.825 981.23 295.257 979.381 293.503C979.295 293.537 979.174 293.572 979.088 293.606C979.08 293.898 979.114 294.277 979.148 294.569C981.083 303.736 994.001 334.047 997.338 337.237Z" fill="#2B3467"/>
<path d="M949.401 245.28C952.007 246.097 945.995 234.669 937.696 223.061C931.573 214.488 928.228 211.306 927.342 210.532C925.046 208.52 925.149 209.75 925.192 210.335C927.179 218.28 945.755 244.137 949.401 245.28Z" fill="#2B3467"/>
<path d="M857.578 140.804C859.47 147.133 882.879 168.415 886.019 167.968C888.246 167.649 881.46 158.879 872.585 150.581C866.273 144.682 857.544 138.009 857.578 140.804Z" fill="#2B3467"/>
<path d="M779.748 86.6915C781.425 91.1543 806.949 106.555 810.226 106.254C812.823 106.013 805.616 99.5382 796.208 93.6566C788.563 88.867 779.92 84.8342 779.748 86.6915Z" fill="#2B3467"/>
<path d="M694.866 48.2891C694.848 48.3407 694.831 48.4009 694.823 48.4525C696.216 51.1267 724.192 62.0129 726.333 60.7058C726.609 59.3988 719.023 55.5809 711.842 52.7863C704.764 50.0432 696.259 47.5754 694.866 48.2891Z" fill="#2B3467"/>
<path d="M605.382 26.2071C605.529 26.3618 634.038 33.3355 636.239 31.9941C635.568 31.0912 628.534 29.3457 622.256 28.1676C616.029 26.9982 606.595 25.6825 605.382 26.2071Z" fill="#2B3467"/>
<path d="M840.834 115.79C840.533 115.541 840.344 115.154 839.922 115.042L862.42 134.527C856.4 129.144 848.144 121.964 840.834 115.79Z" fill="#2B3467"/>
<path d="M864.424 136.255L862.429 134.527C864.82 136.66 866.867 138.526 868.355 139.919L864.424 136.255Z" fill="#2B3467"/>
<path d="M796.681 84.7052C796.716 84.6708 796.767 84.6278 796.81 84.5934C795.649 83.2262 787.092 77.6541 779.206 73.1311C779.086 73.0624 767.338 66.3294 766.409 66.9228C766.521 67.0689 766.693 67.2495 766.831 67.3699C770.546 70.3107 793.981 83.9227 796.681 84.7052Z" fill="#2B3467"/>
<path d="M685.904 35.1844C685.947 35.236 686.007 35.3048 686.05 35.3564C688.871 37.3427 713.631 45.7008 716.151 45.5202C716.176 45.4601 716.219 45.3741 716.245 45.3053C714.955 43.9639 706.88 40.6705 700.146 38.452C695.811 37.0074 686.618 34.3245 685.904 35.1844Z" fill="#2B3467"/>
<path d="M601.091 19.5C601.065 19.543 601.022 19.6032 600.996 19.6462C602.08 20.2137 627.871 23.9284 630.314 23.3609C630.322 23.3093 630.331 23.2319 630.339 23.1803C629.067 22.415 622.909 21.2112 616.02 20.3771C609.476 19.586 602.776 19.1904 601.091 19.5Z" fill="#2B3467"/>
<path d="M691.211 30.9194C690.351 30.3519 681.88 27.3336 674.372 25.1323C673.366 24.84 664.516 22.2517 663.725 22.7075C663.88 22.7935 664.095 22.8967 664.258 22.974C666.451 23.8253 690.394 31.0054 691.211 30.9194Z" fill="#2B3467"/>
<path d="M589.971 13.3776C590.006 13.4034 590.049 13.4292 590.092 13.455C592.233 14.1171 614.112 15.5187 615.814 15.0973C615.823 15.0544 615.84 14.9941 615.857 14.9512C614.688 14.332 608.272 13.4808 602.123 13.1368C597.453 12.8702 590.642 12.8101 589.971 13.3776Z" fill="#2B3467"/>
<path d="M643.833 15.7851C640.264 14.8564 637.624 14.2287 632.369 12.9733C631.957 12.8787 631.587 12.6465 631.14 12.6809L643.833 15.7851Z" fill="#2B3467"/>
<path d="M594.641 8.399C594.641 8.3646 594.641 8.31302 594.641 8.27863C593.575 7.81429 587.898 7.30695 582.437 7.38434C579.419 7.42733 574.422 7.71969 573.837 8.32161C573.906 8.3732 574.018 8.41619 574.104 8.45059C576.34 8.85474 593.411 8.82034 594.641 8.399Z" fill="#2B3467"/>
<path d="M554.444 4.85644C556.878 5.09721 567.774 4.06534 568.66 3.63539C568.668 3.601 568.668 3.55803 568.677 3.52363C567.903 3.11948 562.605 2.8787 558.555 3.34304C555.614 3.67839 554.298 4.21152 554.005 4.44369C553.661 4.71885 554.117 4.79625 554.444 4.85644Z" fill="#2B3467"/>
<path d="M532.273 2.80955C534.767 2.87834 539.575 1.51112 539.867 1.06398C540.314 0.376076 534.148 0.221302 531.869 1.14998C531.585 1.26176 531.327 1.41655 531.207 1.51114C530.915 1.73471 530.235 2.62897 532.273 2.80955Z" fill="#2B3467"/>
<path d="M508.804 2.40552C509.191 2.38833 510.378 2.32815 511.032 1.66603C512.373 0.307415 508.753 -0.148337 505.622 0.0408377C503.876 0.144024 503.283 0.444991 503.842 0.935126C504.177 1.21889 506.37 2.38833 508.804 2.40552Z" fill="#2B3467"/>
<path d="M475.883 2.83522C476.158 2.87821 482.6 3.95307 485.257 3.77249C485.61 3.7209 486.151 3.65211 486.091 3.36834C486.091 3.35975 485.842 2.32789 480.828 1.84636C478.489 1.62279 473.862 1.69159 473.44 2.15593C473.466 2.25912 473.509 2.43967 475.883 2.83522Z" fill="#2B3467"/>
<path d="M412.621 9.68018C412.097 9.74897 411.581 9.85213 411.065 9.95532C408.631 10.4455 404.787 11.2538 400.28 12.363L412.621 9.68018Z" fill="#2B3467"/>
<path d="M463.327 6.92834C463.448 6.89394 463.603 6.81655 463.697 6.73916C462.717 5.44074 445.826 5.09677 444.674 6.3522C444.906 6.50698 445.517 6.66177 450.324 6.84234C461.195 7.25509 462.794 7.01433 463.327 6.92834Z" fill="#2B3467"/>
<path d="M358.08 24.126C364.151 22.4062 370.292 20.953 376.286 18.9839C376.879 18.7689 376.879 18.7689 377 18.6399C374.738 18.5453 352.386 25.2696 350.812 26.1897C353.255 25.5706 355.654 24.8139 358.08 24.126Z" fill="#2B3467"/>
<path d="M430.354 12.4147C444.158 11.9159 445.387 11.5978 445.912 11.4602C445.955 11.4172 446.015 11.3656 446.058 11.3226C444.201 10.179 424.85 10.9271 421.694 12.2599C421.686 12.3029 421.677 12.3545 421.668 12.3975C422.124 12.5522 423.182 12.6726 430.354 12.4147Z" fill="#2B3467"/>
<path d="M274.049 59.5277C274.246 59.3987 274.505 59.2096 274.668 59.0376C273.911 59.2956 269.482 61.3765 258.207 67.8772L248.524 73.5868C245.428 75.4528 245.282 75.556 244.852 75.8741C247.896 74.3607 250.786 72.5636 253.744 70.9126C260.512 67.1205 267.418 63.5606 274.049 59.5277Z" fill="#2B3467"/>
<path d="M332.925 36.5086C338.953 34.6512 349.428 31.3493 351.828 30.0337C351.888 29.9907 351.974 29.9219 352.034 29.8789C352.025 29.8273 352.008 29.7585 352 29.6983C348.336 29.277 323.095 37.4631 322.639 39.2172C323 39.2602 323.757 39.329 332.925 36.5086Z" fill="#2B3467"/>
<path d="M433.631 16.8516C430.269 16.0605 409.121 17.8663 405.44 19.6118C405.423 19.6634 405.406 19.7322 405.389 19.7838C405.939 19.9472 407.306 20.0418 416.603 19.1303C432.238 17.5911 433.313 17.1439 433.666 16.9978C433.657 16.9462 433.64 16.886 433.631 16.8516Z" fill="#2B3467"/>
<path d="M42.6559 308.009C40.7037 312.394 39.6803 314.819 39.1299 316.126L54.3348 283.115C49.3467 293.09 44.1351 304.69 42.6559 308.009Z" fill="#2B3467"/>
<path d="M110.209 196.516C110.338 196.275 110.476 195.923 110.493 195.656C109.59 196.43 107.242 199.328 103.51 204.264L90.6095 222.089C85.3463 229.691 85.2947 230.198 85.2603 230.602C86.4471 229.519 90.3945 224.325 93.4991 220.163C96.8359 215.683 107.07 201.718 110.209 196.516Z" fill="#2B3467"/>
<path d="M159.074 147.4C163.263 143.702 174.701 133.246 177.307 129.265C177.393 129.093 177.487 128.852 177.513 128.663C177.479 128.628 177.436 128.585 177.401 128.56C173.935 128.843 149.047 151.862 148.445 155.336C148.479 155.371 148.514 155.414 148.548 155.448C149.881 155.302 155.007 150.994 159.074 147.4Z" fill="#2B3467"/>
<path d="M235.71 90.5867C235.873 90.4922 251.998 81.0936 254.432 77.783C254.475 77.6626 254.518 77.4735 254.475 77.3531C251.25 76.1406 223.016 93.4157 223.644 96.2104C224.779 96.7005 230.834 93.4244 235.71 90.5867Z" fill="#2B3467"/>
<path d="M320.145 50.2496C320.824 50.0088 336.812 44.3507 338.523 42.416C338.532 42.3644 338.54 42.3042 338.549 42.2526C336.571 40.6016 307.899 50.9977 307.236 53.6031C307.924 54.3598 314.632 52.1929 320.145 50.2496Z" fill="#2B3467"/>
<path d="M409.568 26.5768C415.709 25.588 426.141 23.8252 427.009 23.1803C427.001 23.1545 426.992 23.1287 426.983 23.1029C424.438 22.3548 397.674 26.0179 396.505 28.03C397.021 28.2536 398.982 28.288 409.568 26.5768Z" fill="#2B3467"/>
<path d="M71.8708 778.288C72.834 779.914 73.8058 781.539 74.7948 783.147L57.4399 752.475C63.4428 763.928 69.5316 774.342 71.8708 778.288Z" fill="#2B3467"/>
<path d="M14.0351 635.574C13.8717 635.161 13.6223 634.619 13.3901 634.25C13.4417 634.602 13.5449 635.058 13.6223 635.41C17.6987 651.396 24.381 672.368 29.3174 688.113C29.8076 689.454 29.8076 689.454 30.2462 690.099C30.1 687.932 27.0556 677.184 26.1268 673.942C21.9472 659.341 16.4947 642.315 14.0351 635.574Z" fill="#2B3467"/>
<path d="M2.21875 522.034C2.06395 521.673 1.82315 521.191 1.59955 520.865C1.44475 520.865 1.23834 520.856 1.08354 520.856C-1.89207 526.342 1.83174 575.889 5.37495 577.858C7.17236 577.101 6.95736 564.641 6.85416 560.841C6.47576 547.805 4.60096 529.274 2.21875 522.034Z" fill="#2B3467"/>
<path d="M16.6328 411.849C16.3748 411.316 16.0566 410.645 15.5578 410.602C10.4666 410.189 3.15654 455.677 7.31895 461.834C9.01316 464.345 12.092 457.844 14.4828 446.708C17.0714 434.679 18.585 418.349 16.6328 411.849Z" fill="#2B3467"/>
<path d="M45.6917 342.714C49.751 333.909 54.7304 318.783 53.105 312.712C52.9416 312.403 52.718 311.938 52.4084 311.758C47.386 308.826 31.5447 347.254 34.5633 355.036C35.9651 358.622 40.8499 353.204 45.6917 342.714Z" fill="#2B3467"/>
<path d="M95.7872 251.153C101.188 243.81 108.274 231.264 107.156 226.363C107.07 226.217 106.993 226.002 106.881 225.881C102.719 221.152 81.0123 251.704 82.1733 260.655C82.7237 264.886 88.8298 260.621 95.7872 251.153Z" fill="#2B3467"/>
<path d="M160.657 173.592C166.479 168.166 175.458 158.097 174.752 154.184C174.684 154.072 174.606 153.9 174.512 153.814C170.625 150.005 145.409 174.03 145.813 181.159C146.003 184.486 152.521 181.167 160.657 173.592Z" fill="#2B3467"/>
<path d="M236.681 111.155C242.933 107.131 252.737 99.7359 252.462 97.0273C252.402 96.9499 252.342 96.8295 252.264 96.7607C248.764 93.9317 221.709 111.568 221.468 116.83C221.356 119.255 227.901 116.813 236.681 111.155Z" fill="#2B3467"/>
<path d="M320.635 64.6184C325.219 62.6836 337.121 57.2663 337.19 55.4606C335.014 53.1647 306.488 64.9795 305.722 68.4878C305.37 70.07 311.51 68.4792 320.635 64.6184Z" fill="#2B3467"/>
<path d="M409.731 34.376C415.528 33.0174 425.392 30.6183 426.338 29.7154C425.065 28.9072 397.511 34.0579 395.593 36.7149C396.212 37.2136 400.976 36.4225 409.731 34.376Z" fill="#2B3467"/>
<path d="M141.754 866.556C139.983 865.369 139.69 865.214 139.157 865.249C138.254 868.215 176.257 904.984 183.361 908.011C183.456 907.959 183.585 907.882 183.688 907.83C183.499 907.323 182.94 905.775 174.168 896.6C166.152 888.208 150.896 873.28 141.754 866.556Z" fill="#2B3467"/>
<path d="M82.1133 775.881C80.7631 775.012 79.4903 774.196 78.5873 774.522C72.2576 776.801 100.947 820.733 111.25 824.533C114.948 825.9 114.037 820.208 109.023 810.689C102.857 798.978 91.1003 782.751 82.1133 775.881Z" fill="#2B3467"/>
<path d="M60.6987 724.228C66.8821 728.57 69.4879 722.19 66.6155 709.704C63.7345 697.15 55.1 679.23 46.1818 672.179C44.7714 671.31 43.4384 670.485 42.0366 670.898C33.3591 673.46 48.005 715.328 60.6987 724.228Z" fill="#2B3467"/>
<path d="M48.3835 598.013C48.5125 584.823 43.4901 566.352 35.1395 559.516C34.1849 558.949 32.9895 558.235 31.6909 558.261C20.1668 558.442 23.5552 601.281 36.0081 612.829C42.5699 618.917 48.2373 612.133 48.3835 598.013Z" fill="#2B3467"/>
<path d="M54.8679 483.34C57.2587 472.952 56.8975 455.204 48.6415 448.291C47.9965 447.913 47.1107 447.414 46.3797 447.251C34.7094 444.628 27.4596 479.754 36.567 494.828C42.2947 504.304 51.3591 498.62 54.8679 483.34Z" fill="#2B3467"/>
<path d="M83.0504 377.066C87.1096 367.96 89.7154 352.456 82.7838 346.489C82.4828 346.317 82.0958 346.059 81.7862 345.921C71.3027 341.338 56.9751 370.729 62.3673 385.725C66.0137 395.881 76.6434 391.426 83.0504 377.066Z" fill="#2B3467"/>
<path d="M107.913 289.289C109.814 297.785 120.512 293.967 128.717 281.851C133.946 274.138 138.839 261.076 133.369 256.209C123.333 250.698 105.307 277.646 107.913 289.289Z" fill="#2B3467"/>
<path d="M188.117 199.552C194.06 193.309 200.639 182.827 196.631 179.095C188.401 174.753 167.718 196.448 168.234 205.743C168.612 212.631 178.649 209.501 188.117 199.552Z" fill="#2B3467"/>
<path d="M269.361 116.263C263.565 113.399 241.128 128.731 239.726 136.522C238.806 141.612 248.016 139.11 257.966 131.56C264.262 126.779 271.959 118.877 269.361 116.263Z" fill="#2B3467"/>
<path d="M335.307 78.8922C341.215 75.7708 350.064 70.1902 348.645 68.5134C344.311 66.6045 320.446 78.3247 318.95 83.0971C318.072 85.9175 325.709 83.957 335.307 78.8922Z" fill="#2B3467"/>
<path d="M403.213 45.3566C403.935 46.5175 414.402 43.1811 417.584 42.1321C419.957 41.3496 431.825 37.3941 432.075 36.2505C429.546 35.425 404.133 42.519 403.213 45.3566Z" fill="#2B3467"/>
</g>
<defs>
<clipPath id="clip0_2048_26824">
<rect width="1030" height="1030" fill="white"/>
</clipPath>
</defs>
</svg>
