<svg width="100" height="100" viewBox="0 0 100 100" fill="none" xmlns="http://www.w3.org/2000/svg">
<rect width="100" height="100" rx="50" transform="matrix(-1 0 0 1 100 0)" fill="#FDFFF1"/>
<rect width="70" height="70" transform="matrix(-1 0 0 1 85 15)" fill="#FDFFF1"/>
<path fill-rule="evenodd" clip-rule="evenodd" d="M38.8462 67.455C38.8462 70.1363 43.1634 72.2813 48.4802 72.2813C53.7971 72.2813 58.1142 70.1095 58.1142 67.455C58.1082 66.9393 57.9557 66.435 57.673 65.9964C56.4499 67.9698 52.7974 69.3963 48.4802 69.3963C45.6319 69.3963 40.8903 68.5865 39.2875 65.9964C39.0065 66.4337 38.8541 66.9359 38.8462 67.4497V67.455ZM61.387 66.9509C61.387 70.2275 66.6759 72.8926 73.1935 72.8926C79.7111 72.8926 85 70.2275 85 66.9509C84.9883 66.3194 84.795 65.7033 84.4415 65.1706C82.9392 67.5837 78.4656 69.3373 73.1767 69.3373C69.6862 69.3373 63.8778 68.3452 61.912 65.1706C61.5592 65.7036 61.366 66.3195 61.3535 66.9509H61.387ZM61.32 60.7626C61.32 64.0391 66.6089 66.7043 73.1265 66.7043C79.6441 66.7043 84.933 64.0391 84.933 60.7626C84.9195 60.1313 84.7264 59.5156 84.3745 58.9822C82.8721 61.3953 78.3986 63.1489 73.1097 63.1489C69.6191 63.1489 63.8108 62.1568 61.8449 58.9822C61.4946 59.5163 61.3016 60.1315 61.2864 60.7626H61.32ZM68.8652 45.3345L69.0048 46.8092L74.7964 46.3266C74.3139 46.9139 73.9743 47.5973 73.8022 48.3268L75.1985 48.2088C75.3281 47.7401 75.5396 47.2958 75.824 46.895C76.1132 46.4451 76.5323 46.0855 77.0303 45.86L76.9186 44.6642L68.8652 45.3345ZM72.9477 43.0232C67.6756 43.0232 63.4255 44.6856 63.4255 46.6805C63.4255 48.6754 67.7705 50.3324 73.1265 50.3324C78.4824 50.3324 82.8275 48.6914 82.8275 46.6912C82.8275 44.691 78.622 43.0715 73.3834 43.034L72.9477 43.0232ZM72.9868 41.8113C66.5363 41.8113 61.32 44.4926 61.32 47.753C61.32 51.0134 66.6089 53.7001 73.1265 53.7001C79.6441 53.7001 84.933 51.0349 84.933 47.7637C84.933 44.4926 79.7167 41.8327 73.2717 41.8113H72.9868ZM61.32 54.3758C61.32 57.6523 66.6089 60.3175 73.1265 60.3175C79.6441 60.3175 84.933 57.6523 84.933 54.3758C84.9309 53.7753 84.7612 53.1865 84.4415 52.6705C82.9838 55.1158 78.4768 56.9069 73.1321 56.9069C69.6359 56.9069 63.7494 55.8987 61.8282 52.6705C61.5071 53.1864 61.3337 53.7747 61.3255 54.3758H61.32ZM60.4264 25.7773C59.8891 25.7309 59.3543 25.8881 58.9361 26.2152C58.5179 26.5424 58.2495 27.0136 58.1883 27.5281C58.127 28.0427 58.2778 28.5599 58.6083 28.9692C58.9388 29.3785 59.4229 29.6475 59.9572 29.7187L63.66 30.137L50.111 39.5483L44.3418 34.5826C44.0151 34.2987 43.6017 34.1235 43.1631 34.0829C42.7245 34.0423 42.2839 34.1386 41.9068 34.3573L22.0412 45.9565C21.5746 46.2275 21.2393 46.6653 21.1089 47.1737C20.9785 47.682 21.0637 48.2193 21.3459 48.6673C21.6281 49.1153 22.084 49.4373 22.6135 49.5626C23.1429 49.6878 23.7025 49.6059 24.1691 49.335L42.7333 38.5026L48.6031 43.5595C48.953 43.8589 49.3988 44.0347 49.8669 44.0581C50.3349 44.0815 50.7973 43.951 51.1777 43.6882L66.4637 33.0864L65.9778 37.0386C65.9156 37.5606 66.0718 38.0849 66.4122 38.4962C66.7526 38.9075 67.2493 39.1722 67.7929 39.2319C68.3365 39.2916 68.8825 39.1416 69.3109 38.8147C69.7393 38.4879 70.0149 38.011 70.0771 37.4891L71.1103 29.086V28.9841C71.1718 28.4639 71.0166 27.9415 70.6788 27.5307C70.3409 27.1199 69.8476 26.8539 69.3064 26.7908L60.4264 25.7773ZM22.5215 59.8831L22.6332 61.0843L27.3637 60.6928C26.9739 61.1655 26.6974 61.7147 26.5538 62.3016L27.6708 62.2051C27.7782 61.8224 27.9519 61.4598 28.1846 61.1326C28.4213 60.7672 28.7626 60.4749 29.1676 60.2906L29.0782 59.3147L22.5048 59.8509L22.5215 59.8831ZM25.476 58.0062C21.3487 58.1081 18.0815 59.4005 18.0815 60.9824C18.0815 62.5644 21.6279 63.964 26.0009 63.964C30.3739 63.964 33.9203 62.6234 33.9203 60.9824C33.9203 59.3415 30.5694 58.0759 26.3863 58.0008C26.0791 58.0008 25.7775 58.0008 25.476 58.0008V58.0062ZM25.476 57.0141C20.3881 57.1428 16.339 59.2664 16.339 61.8404C16.339 64.5217 20.6562 66.6667 25.973 66.6667C31.2898 66.6667 35.607 64.4895 35.607 61.8404C35.607 59.1913 31.53 57.116 26.4142 57.0141C26.1015 57.0141 25.7943 57.0141 25.476 57.0141ZM16.7467 66.0768C16.4858 66.4992 16.3452 66.9801 16.339 67.4711C16.339 70.1524 20.6562 72.2974 25.973 72.2974C31.2898 72.2974 35.607 70.1524 35.607 67.4711C35.6043 66.9796 35.4635 66.4979 35.1993 66.0768C34.0097 68.0771 30.3348 69.5357 25.973 69.5357C23.0912 69.5357 18.3049 68.6991 16.7467 66.0768ZM45.0008 54.4508L45.1125 55.652L49.815 55.2713C49.4369 55.7473 49.1702 56.296 49.0331 56.8801L50.1501 56.7835C50.2574 56.4009 50.4311 56.0383 50.6639 55.711C50.8968 55.3432 51.2365 55.0487 51.6413 54.8637L51.5519 53.8931L44.9785 54.4294L45.0008 54.4508ZM47.9664 52.59C43.8336 52.6919 40.5664 53.9896 40.5664 55.5662C40.5664 57.1428 44.1128 58.5478 48.4802 58.5478C52.8476 58.5478 56.3996 57.2072 56.3996 55.5662C56.3996 53.9253 53.0766 52.6705 48.9047 52.59H47.9664ZM48.0055 51.6033C42.9121 51.7267 38.8462 53.8502 38.8462 56.4296C38.8462 59.1109 43.1634 61.2559 48.4802 61.2559C53.7971 61.2559 58.1142 59.1109 58.1142 56.4296C58.1142 53.7483 54.0205 51.6891 48.8935 51.6033C48.5975 51.6033 48.335 51.6033 48.0055 51.6033ZM38.8462 62.0549C38.8462 64.7362 43.1634 66.8812 48.4802 66.8812C53.7971 66.8812 58.1142 64.704 58.1142 62.0549C58.1192 61.554 57.978 61.0617 57.7065 60.6339C56.5225 62.6287 52.842 64.0927 48.4802 64.0927C45.6263 64.0927 40.8177 63.2669 39.2539 60.6339C38.9944 61.0549 38.8539 61.5336 38.8462 62.0228V62.0549Z" fill="#2B3467"/>
</svg>
