<svg width="80" height="80" viewBox="0 0 80 80" fill="none" xmlns="http://www.w3.org/2000/svg">
<path fill-rule="evenodd" clip-rule="evenodd" d="M47.4502 5.85C45.5502 -1.95 34.4502 -1.95 32.5502 5.85C32.2665 7.02208 31.7102 8.11063 30.9263 9.02706C30.1425 9.94349 29.1534 10.6619 28.0394 11.1239C26.9255 11.5858 25.7182 11.7782 24.5159 11.6854C23.3136 11.5927 22.1501 11.2174 21.1202 10.59C14.2602 6.41 6.41021 14.26 10.5902 21.12C13.2902 25.55 10.8952 31.33 5.85521 32.555C-1.94979 34.45 -1.94979 45.555 5.85521 47.445C7.02761 47.729 8.11634 48.2859 9.03277 49.0704C9.9492 49.8548 10.6674 50.8446 11.1289 51.9591C11.5904 53.0736 11.7822 54.2814 11.6886 55.4841C11.5949 56.6867 11.2186 57.8503 10.5902 58.88C6.41021 65.74 14.2602 73.59 21.1202 69.41C22.1499 68.7816 23.3135 68.4053 24.5161 68.3117C25.7188 68.218 26.9266 68.4098 28.0411 68.8713C29.1556 69.3328 30.1454 70.051 30.9299 70.9675C31.7143 71.8839 32.2712 72.9726 32.5552 74.145C34.4502 81.95 45.5552 81.95 47.4452 74.145C47.7302 72.9732 48.2876 71.8852 49.0722 70.9694C49.8568 70.0536 50.8465 69.3359 51.9606 68.8745C53.0748 68.4132 54.2822 68.2212 55.4845 68.3142C56.6868 68.4073 57.8503 68.7827 58.8802 69.41C65.7402 73.59 73.5902 65.74 69.4102 58.88C68.7829 57.8501 68.4075 56.6866 68.3144 55.4843C68.2214 54.282 68.4134 53.0746 68.8747 51.9604C69.3361 50.8462 70.0538 49.8566 70.9696 49.072C71.8854 48.2874 72.9734 47.73 74.1452 47.445C81.9502 45.55 81.9502 34.445 74.1452 32.555C72.9728 32.271 71.8841 31.7141 70.9677 30.9296C70.0512 30.1452 69.333 29.1554 68.8715 28.0409C68.41 26.9264 68.2182 25.7186 68.3119 24.5159C68.4055 23.3133 68.7818 22.1497 69.4102 21.12C73.5902 14.26 65.7402 6.41 58.8802 10.59C57.8505 11.2184 56.687 11.5947 55.4843 11.6883C54.2816 11.782 53.0738 11.5902 51.9593 11.1287C50.8448 10.6672 49.855 9.94898 49.0706 9.03256C48.2861 8.11613 47.7292 7.02739 47.4452 5.855L47.4502 5.85ZM40.0002 55C43.9785 55 47.7938 53.4197 50.6068 50.6066C53.4199 47.7936 55.0002 43.9783 55.0002 40C55.0002 36.0218 53.4199 32.2064 50.6068 29.3934C47.7938 26.5804 43.9785 25 40.0002 25C36.022 25 32.2067 26.5804 29.3936 29.3934C26.5806 32.2064 25.0002 36.0218 25.0002 40C25.0002 43.9783 26.5806 47.7936 29.3936 50.6066C32.2067 53.4197 36.022 55 40.0002 55Z" fill="#2B3467"/>
</svg>
