<svg width="100" height="100" viewBox="0 0 100 100" fill="none" xmlns="http://www.w3.org/2000/svg">
<g clip-path="url(#clip0_2897_1248)">
<path d="M95.2213 24.2593L89.8971 20.5342C89.1822 20.0263 87.8841 19.6312 87.0187 19.6312H78.9854V8.83238H89.5585C90.4427 8.83238 90.5556 8.41852 89.8407 7.92938L84.4977 4.20433C83.7828 3.69637 82.4847 3.30127 81.6193 3.30127H62.8625C61.9782 3.30127 61.8653 3.69637 62.5802 4.20433L67.9044 7.92938C68.6193 8.43734 69.9174 8.83238 70.8017 8.83238H73.4355V14.9655L66.9637 8.49375C66.3429 7.87292 65.9666 8.07984 66.1171 8.94525L67.2459 15.3606C67.3964 16.226 68.0173 17.43 68.6381 18.0509L70.2561 19.6688H57.4818C56.5976 19.6688 56.4847 20.0639 57.1996 20.5718L62.5426 24.2969C63.2575 24.8049 64.5556 25.2 65.421 25.2H73.4355V37.184C73.4355 38.0682 73.8494 38.1811 74.3385 37.4662L78.0636 32.1232C78.5715 31.4083 78.9666 30.1102 78.9666 29.2448V28.3794L89.502 38.9148C90.1229 39.5356 90.4992 39.3287 90.3486 38.4633L89.2198 32.048C89.0693 31.1826 88.4485 29.9785 87.8277 29.3577L83.6511 25.1811H94.9391C95.8233 25.1623 95.955 24.7484 95.2213 24.2593Z" fill="#004460"/>
<path d="M11.8599 63.9358C12.556 63.8417 13.2144 63.7665 13.8352 63.71C14.4561 63.6536 15.1522 63.6348 15.9047 63.6348C16.5632 63.6348 17.2029 63.6536 17.8237 63.71C18.4446 63.7665 19.1406 63.8229 19.8931 63.9358L30.9742 99.3424C29.6384 99.5494 28.3215 99.6434 27.0422 99.6434C25.8005 99.6434 24.5777 99.5494 23.3924 99.3424L21.4171 92.2498H9.69636L7.68333 99.3424C6.49809 99.5494 5.36931 99.6434 4.29696 99.6434C3.07409 99.6434 1.88885 99.5494 0.703613 99.3424L11.8599 63.9358ZM19.7426 86.3048L15.6601 71.4423L11.3707 86.3048H19.7426Z" fill="#F18636"/>
<path d="M5.44457 31.3712L1.02344 28.4739L5.74559 49.3378L17.391 31.3899L13.1769 32.3494C19.7615 17.788 34.1537 8.30607 50.5024 8.30607V0.818359C30.4098 0.837173 12.7441 12.9718 5.44457 31.3712Z" fill="#0087BF"/>
<path d="M100.001 70.2199L95.2785 49.356L83.6331 67.3038L87.8285 66.3444C81.2438 80.9058 66.8517 90.3877 50.5029 90.3877V97.8754C70.6143 97.8754 88.2612 85.7597 95.5607 67.3415L100.001 70.2199Z" fill="#0087BF"/>
</g>
<defs>
<clipPath id="clip0_2897_1248">
<rect width="100" height="100" fill="white"/>
</clipPath>
</defs>
</svg>
