<svg width="84" height="84" viewBox="0 0 84 84" fill="none" xmlns="http://www.w3.org/2000/svg">
<path d="M41.2011 9.22174C39.9457 9.76957 39.7174 10.3859 39.7174 13.4217C39.7174 14.9283 39.8315 16.4576 39.9685 16.8457C40.288 17.7587 41.1554 18.3065 42.2511 18.3065C43.3011 18.2837 43.9859 17.7359 44.2826 16.6402C44.5793 15.613 44.5793 11.7554 44.2598 10.6598C43.8946 9.33587 42.4793 8.67392 41.2011 9.22174Z" fill="#2C3367"/>
<path d="M18.512 18.512C17.7587 19.2424 17.5989 20.1783 18.0326 21C18.3978 21.662 22.187 25.4739 22.8033 25.7935C24.1043 26.4554 26.0217 25.1772 26.0217 23.6478C26.0217 22.7576 25.588 22.1641 23.4652 20.0641C21.4793 18.0783 21.0685 17.8043 20.0641 17.8043C19.425 17.8043 19.037 17.9641 18.512 18.512Z" fill="#2C3367"/>
<path d="M60.6489 20.2239C59.3022 21.5478 58.2065 22.7576 58.1837 22.8946C58.0924 23.8761 58.1152 24.15 58.3891 24.6978C58.7087 25.3826 59.713 26.0217 60.512 26.0217C61.3109 26.0217 62.3152 25.2457 64.2554 23.1457C66.1044 21.137 66.5152 20.4065 66.287 19.4707C66.0587 18.6261 64.9174 17.8043 63.9359 17.8043C63.1598 17.8043 62.863 18.0098 60.6489 20.2239Z" fill="#2C3367"/>
<path d="M41.338 28.0304C40.4478 28.1674 39.0783 29.1489 38.4848 30.0848C37.8685 31.0207 37.3435 32.7554 37.5489 33.0978C37.8 33.5087 37.412 34.6957 36.8641 35.2435C36.5446 35.563 35.7228 35.9054 34.6043 36.1565C33.6457 36.3848 32.8011 36.6587 32.7326 36.7728C32.6641 36.887 32.4587 36.9783 32.2989 36.9783C31.7967 36.9783 29.5141 38.0967 27.5511 39.3065C20.0641 43.8946 15.2935 51.4272 14.1522 60.3522C13.9239 62.2467 14.038 62.7946 14.837 63.2283C15.1109 63.388 24.3098 63.4565 42.2967 63.4565C68.25 63.4565 69.3685 63.4337 69.8707 63.0457C70.487 62.5207 70.5098 61.4478 69.9391 58.4576C68.2957 49.5326 62.7261 42.1141 54.6685 38.0739C53.1163 37.275 49.8293 36.0652 49.3043 36.0652C48.6652 36.0652 47.4326 35.2663 47.1359 34.6728C46.9533 34.3304 46.7935 33.5087 46.7935 32.8696C46.7935 31.5685 46.337 30.2902 45.5837 29.4913C44.625 28.4413 42.7304 27.8022 41.338 28.0304ZM38.4163 40.2196C38.85 40.7217 38.9413 42.2283 38.5761 42.913C38.462 43.1413 37.412 43.6891 36.2478 44.1685C33.8511 45.1272 32.9609 45.6065 31.5 46.7935C28.4641 49.2587 26.8435 49.5326 25.9076 47.7065C25.3141 46.5424 25.4739 45.9033 26.5924 44.8304C29.1033 42.5022 32.55 40.5848 35.6087 39.8315C37.0924 39.4663 37.8685 39.5576 38.4163 40.2196ZM24.3098 53.025C25.4739 54.0065 25.2913 56.7457 24.0359 57.75C22.5978 58.8685 20.7489 57.7957 20.7946 55.8554C20.7946 54.3033 21.2511 53.3446 22.1413 52.9109C23.1913 52.363 23.6022 52.3859 24.3098 53.025Z" fill="#2C3367"/>
<path d="M10.9793 68.6837C10.0435 69.1859 9.13043 70.6239 9.13043 71.6283C9.13043 72.7011 9.63261 73.7739 10.4772 74.4815L11.2304 75.0978H41.9087C75.6457 75.0978 73.363 75.1891 74.413 73.7054C75.5087 72.1989 75.1207 69.9848 73.5685 68.9348L72.7239 68.3641L42.2511 68.3185C13.2163 68.2728 11.7098 68.2957 10.9793 68.6837Z" fill="#2C3367"/>
</svg>
