<svg width="84" height="84" viewBox="0 0 84 84" fill="none" xmlns="http://www.w3.org/2000/svg">
<circle cx="41.9429" cy="41.9429" r="24.1793" stroke="#2C3367" stroke-width="3"/>
<circle cx="41.9429" cy="41.9429" r="19.5163" fill="#2C3367"/>
<path d="M2.76195 9.60978C2.23695 10.112 2.23695 10.1348 2.35108 14.9283C2.41956 18.6033 2.53369 20.0413 2.83043 21C3.60652 23.4652 5.06739 25.4511 6.71087 26.2957L7.60109 26.7522L7.4413 32.7098C7.35 35.9967 7.23587 40.425 7.19022 42.5707C7.12174 44.6935 6.96195 50.6054 6.825 55.6957C6.68804 60.7859 6.55108 66.812 6.52826 69.1174L6.50543 73.2946L7.35 74.0935C8.08043 74.7554 8.37717 74.8696 9.31304 74.8696C10.2489 74.8696 10.5228 74.7554 11.1391 74.1163L11.8924 73.3402L11.7783 67.0859C11.7326 63.6391 11.5728 57.2935 11.4359 52.9565C11.2989 48.6196 11.1391 42.7761 11.0935 39.9457C11.025 37.1152 10.9109 32.9837 10.8196 30.7696L10.6598 26.7522L11.4815 26.4098C12.4859 25.9761 13.9924 24.4924 14.5859 23.3054C15.7728 21.0228 15.8185 20.6804 15.9098 15.1793C15.9554 12.2804 15.9098 9.81522 15.8185 9.65543C15.4304 9.08478 14.4717 9.08478 13.8554 9.63261L13.262 10.1576L13.1935 15.0652C13.1022 19.5848 13.0565 20.0641 12.5772 21.137C12.3033 21.7761 11.7098 22.6435 11.2761 23.0772L10.5 23.8304V16.8456C10.5 9.86087 10.5 9.83804 9.99782 9.49565C9.31304 9.0163 8.85652 9.03913 8.26304 9.58695C7.76087 10.0435 7.76087 10.1576 7.76087 16.937V23.8076L7.21304 23.3054C6.34565 22.4837 5.52391 20.7489 5.27282 19.1739C5.13587 18.3522 5.02174 15.9783 5.02174 13.8554C5.02174 10.3402 4.97609 9.99783 4.56522 9.58695C3.97174 8.99348 3.42391 9.0163 2.76195 9.60978Z" fill="#2C3367"/>
<path d="M73.4772 9.42718C71.4913 10.1804 70.2587 11.2989 69.3 13.2163C68.7522 14.312 68.0446 17.0511 68.0674 18.0326C68.0902 19.1283 68.775 21.7989 69.2772 22.8261C69.9848 24.2185 71.5598 25.9761 72.4728 26.3413C73.112 26.6152 73.2261 26.7978 73.3174 27.5967C73.363 28.1217 73.2717 33.0294 73.1348 38.5304C72.975 44.0087 72.7924 51.1761 72.7011 54.4402C72.6098 57.7044 72.4728 63.0457 72.3815 66.3098C72.2902 69.5967 72.2902 72.587 72.4043 72.9978C72.7467 74.2076 73.637 74.8696 74.9837 74.8696C76.3989 74.8696 77.3348 74.2076 77.5859 73.0435C77.6772 72.6098 77.6772 69.6652 77.5859 66.538C77.4946 63.388 77.4033 59.0283 77.3804 56.837C77.3576 54.6457 77.2435 50.6739 77.1522 48.0489C77.038 45.4011 76.8783 40.0826 76.8098 36.2022C76.7413 32.3446 76.6728 29.1033 76.65 29.012C76.65 28.9435 76.65 28.3728 76.6728 27.7794C76.6956 26.775 76.7413 26.6609 77.4489 26.3641C78.6359 25.8848 80.1196 24.2413 80.8728 22.5978C82.1511 19.7902 81.9228 14.8826 80.4163 12.4859C78.8641 10.0435 75.6456 8.62827 73.4772 9.42718Z" fill="#2C3367"/>
</svg>
