<svg width="84" height="84" viewBox="0 0 84 84" fill="none" xmlns="http://www.w3.org/2000/svg">
<g clip-path="url(#clip0_3126_1380)">
<path d="M58.506 5.8448C55.856 4.86529 52.1756 4.39198 49.0169 4.61305C46.8734 4.76487 43.388 5.68865 41.4124 6.64524C36.9264 8.8001 32.4983 12.9545 32.3948 15.0968C32.2755 18.0426 38.5212 20.7835 42.0586 19.313C42.5199 19.1075 43.5758 18.5113 44.363 17.9696C46.1072 16.7746 49.2872 15.8318 51.1701 15.9489C56.0779 16.2134 59.8407 19.1461 61.239 23.7545C62.1488 26.744 62.0252 29.0582 60.775 31.954C59.4197 35.0775 58.21 36.2141 56.1484 36.3609L55.2152 36.425L45.9836 31.0951C35.4868 25.0348 34.7495 24.714 31.9954 24.8278C29.1054 24.9943 26.9519 25.8482 25.0197 27.6425C23.929 28.6643 23.5998 29.2345 15.1486 43.9639L6.41056 59.2355L6.27086 61.1209C6.09633 63.4319 6.64047 65.5025 7.90036 67.3833L8.82204 68.7543L21.6372 76.2318C30.5298 81.4184 34.7631 83.8101 35.447 83.9952C39.0441 85.0234 42.9004 83.8681 45.3407 81.0564C46.4688 79.7416 70.284 38.4926 71.1566 36.2963C73.7175 29.989 73.5097 22.6338 70.6127 16.7406C69.7456 14.9555 67.7892 12.2268 66.2938 10.7081C65.1371 9.51596 60.238 6.45151 58.506 5.8448ZM47.8475 52.1994C49.0543 53.7612 48.9021 56.2162 47.457 57.715C46.7173 58.4938 46.1429 58.7127 39.6331 60.538C32.3651 62.5809 31.0131 62.8227 29.343 62.3828C27.8735 62.0063 25.9 60.6309 25.0431 59.376C24.2708 58.2485 22.6035 52.4624 22.6432 51.0697C22.6796 49.911 23.7605 48.1758 24.7824 47.6385C26.1524 46.909 27.6029 46.9076 28.9585 47.664C30.3254 48.4008 30.6607 48.9613 31.5111 51.9166L32.0443 53.8235L37.9317 52.1631C41.1597 51.2743 44.2262 50.5281 44.7351 50.5597C45.8462 50.5983 47.1736 51.3122 47.8475 52.1994Z" fill="#2C3367"/>
</g>
<defs>
<clipPath id="clip0_3126_1380">
<rect width="84" height="84" fill="white"/>
</clipPath>
</defs>
</svg>
