<svg width="84" height="84" viewBox="0 0 84 84" fill="none" xmlns="http://www.w3.org/2000/svg">
<path d="M60.4572 12.4701C60.1309 12.6878 59.6647 12.9871 59.385 13.1503C58.6158 13.5585 57.7067 15.0005 57.427 16.2248C57.1706 17.2587 57.1939 17.3676 57.7766 18.075C58.2894 18.7008 58.3827 19.0001 58.2661 19.6258C58.0563 20.7414 58.5691 21.2583 59.3384 20.687C59.7113 20.4149 60.4106 20.2788 61.5062 20.306C62.5784 20.3333 63.3709 20.1972 63.8371 19.9251C64.9327 19.2449 65.9117 19.1633 66.4478 19.6803C67.4968 20.6325 69.1284 23.3533 69.8743 25.3667C70.8067 27.8699 71.879 31.4613 71.879 32.0871C71.879 32.332 72.0888 32.8489 72.3452 33.2298C72.6016 33.638 72.7647 33.9917 72.7181 34.0461C72.6715 34.1277 72.1354 33.9645 71.5526 33.7468C69.9676 33.121 67.7765 33.1754 66.6343 33.8828C65.7019 34.4814 65.2357 34.9984 64.583 36.1139L64.2334 36.7125L63.1145 36.1955C62.4852 35.9234 61.5994 35.5425 61.1565 35.3249C60.7136 35.1344 59.5015 34.9712 58.4759 34.9439C56.7976 34.9439 56.448 35.0528 54.9795 35.8962C54.0704 36.4132 53.138 37.0118 52.8816 37.2294C52.4853 37.5559 52.2289 37.5559 51.2499 37.2566C48.849 36.4948 48.4061 36.1683 48.2196 34.9167C48.0332 33.638 48.2663 30.8627 48.5693 30.8627C49.2919 30.8627 49.828 27.1897 49.2919 26.0197C49.152 25.6932 49.0355 24.9858 49.0355 24.4145C49.0355 23.8431 48.8257 22.9724 48.5693 22.4827C48.3129 22.0201 48.173 21.612 48.2663 21.612C48.6392 21.612 46.5414 19.9523 45.6323 19.5442C44.2803 18.9456 42.1824 19.1361 40.8305 20.034C39.6417 20.7958 38.4063 22.6187 38.1266 24.0063C38.01 24.5505 37.8002 25.53 37.6837 26.1558C37.4972 27.108 37.4972 27.3257 37.7769 27.3257C37.9634 27.3257 38.5928 27.5162 39.1988 27.7338C41.8328 28.7405 43.9074 32.1959 43.9074 35.5697C43.9074 36.5492 43.8141 37.4199 43.6976 37.5015C43.6043 37.5831 43.4412 38.3177 43.3712 39.1068C43.2547 40.6032 41.4365 45.0381 40.644 45.7455C40.4575 45.936 39.8981 46.0992 39.4319 46.0992C38.9424 46.0992 38.5461 46.2081 38.5461 46.3441C38.5461 46.8066 40.8072 47.7317 42.3922 47.8677C42.975 47.9222 45.2593 48.9561 46.0052 49.5002C47.4271 50.5341 49.222 52.4931 50.4574 54.2888C51.11 55.2411 52.5786 57.1185 53.7207 58.4244L55.772 60.846L57.3104 57.2001C59.9211 50.9695 60.2708 50.3709 62.2055 48.82C63.2078 48.0038 63.2544 48.0038 66.3313 48.0038C68.6156 48.0038 69.5946 47.8949 70.1074 47.5957C70.4571 47.378 70.9233 47.1875 71.0864 47.1875C71.2729 47.1875 71.4128 47.0515 71.4128 46.9155C71.4128 46.7522 71.5759 46.6434 71.7624 46.6434C71.9489 46.6434 72.2985 46.5345 72.5316 46.3713C73.7671 45.5823 76.4011 44.1947 76.7041 44.1947C77.6132 44.1947 80.4336 42.7254 81.4593 41.7187C82.8345 40.3855 84 38.3722 84 37.3382C84 36.9029 83.7436 36.0867 83.4173 35.4881C83.0909 34.8895 82.8345 34.2637 82.8345 34.1005C82.8345 33.9372 82.6247 33.4747 82.3683 33.0394C82.1119 32.6313 81.5991 31.5429 81.2262 30.6179C80.8532 29.72 80.2705 28.4956 79.9208 27.9515C78.8486 26.2646 74.2332 21.1767 72.7181 20.0068C72.4617 19.7891 71.4128 18.5647 70.4338 17.286C68.7089 15.0549 68.5224 14.8917 66.0982 13.6401C63.2544 12.1709 61.4362 11.7899 60.4572 12.4701Z" fill="#2C3367"/>
<path d="M6.2156 50.0444C5.77271 50.4253 5.67947 50.7246 5.67947 52.085C5.67947 52.9556 5.77271 53.7447 5.91257 53.8535C6.02912 53.9351 6.40207 53.527 6.75172 52.9012C7.10136 52.3026 7.40439 51.8129 7.45101 51.8129C7.49763 51.8129 7.31115 52.3843 7.05474 53.0645C6.79834 53.7719 6.65848 54.3977 6.72841 54.4793C6.89158 54.6969 8.1503 53.9079 9.05938 53.0373L9.75867 52.3843L9.17593 51.0783C8.6398 49.9083 8.52325 49.7723 7.6608 49.6907C7.07805 49.6363 6.54193 49.7723 6.2156 50.0444Z" fill="#2C3367"/>
<path d="M2.74245 50.5069C1.85669 50.7246 1.74014 50.8334 1.53035 51.8673C1.22733 53.2005 1.32056 53.4726 2.1364 54.044C2.92893 54.5881 4.51399 55.1051 4.51399 54.833C4.51399 54.6969 4.32751 54.316 4.09442 53.9623C3.20865 52.6291 3.30189 52.1938 4.21096 53.2277C4.72378 53.7991 5.21328 54.2616 5.30652 54.2616C5.53962 54.2616 5.28321 52.5203 4.86364 51.3776C4.51399 50.3981 4.0478 50.2076 2.74245 50.5069Z" fill="#2C3367"/>
<path d="M0.807758 54.833C0.551351 54.969 0.318255 55.1595 0.318255 55.2683C0.318255 55.3771 0.225016 55.9485 0.108468 56.5199C-0.101319 57.5266 -0.0780098 57.581 0.831068 58.37C1.36719 58.8053 1.94993 59.159 2.13641 59.159C2.6026 59.159 4.58393 56.792 4.42076 56.4655C4.30421 56.275 4.07111 56.275 3.67485 56.4383C3.34851 56.6015 2.85901 56.7103 2.57929 56.7103C2.18303 56.6831 2.32289 56.5199 3.09211 56.0573C3.72147 55.6764 4.02449 55.3499 3.83802 55.2411C3.37182 54.8874 1.32057 54.6153 0.807758 54.833Z" fill="#2C3367"/>
<path d="M8.03376 54.9146C6.89159 55.4044 6.89159 55.8125 8.03376 56.0301C8.8496 56.1934 8.94284 56.275 8.61651 56.4927C8.38341 56.6559 7.89391 56.6831 7.52095 56.6015C6.58856 56.3838 6.6818 56.7648 7.82398 57.9075C9.03608 59.1046 9.78199 59.1591 10.6678 58.0979C11.2971 57.3361 11.2971 57.2545 11.0407 56.2478C10.8775 55.6764 10.6444 55.0507 10.5046 54.8602C10.2249 54.4521 9.0827 54.4793 8.03376 54.9146Z" fill="#2C3367"/>
<path d="M4.65386 57.581C4.46738 57.9347 4.14105 58.6693 3.90795 59.2135C3.51169 60.2202 3.51169 60.2474 4.0245 60.9004C4.32753 61.2541 4.86365 61.7166 5.21329 61.8799C5.77273 62.1519 5.98251 62.0975 6.82166 61.4989C7.35778 61.0908 7.77736 60.6283 7.77736 60.4378C7.77736 59.8393 6.61187 57.3089 6.26223 57.1457C5.98251 57.0368 5.91258 57.2817 5.91258 58.2884C5.91258 59.2135 5.84265 59.4583 5.67949 59.1591C5.56294 58.9414 5.44639 58.4244 5.44639 58.0163C5.44639 57.0368 5.07343 56.8192 4.65386 57.581Z" fill="#2C3367"/>
<g filter="url(#filter0_dd_3126_1369)">
<path fill-rule="evenodd" clip-rule="evenodd" d="M29.234 76H44.4841C44.56 75.6457 45.0304 74.9903 46.305 75.2028C46.4851 75.2329 46.4645 75.2256 46.3012 75.1675C45.0194 74.7118 34.9439 71.1295 44.0289 57.9312L51.5401 64.8399C51.6919 65.4599 51.1304 68.4005 47.6707 75.2028H49.264L49.7192 76H50.6297L55.8648 66.1684L55.4096 62.4484L47.6707 52.3511C46.6085 50.8454 43.4826 47.9402 39.4766 48.3653L37.4281 46.5053V44.1139H39.4766C40.4629 42.6967 42.299 39.6498 41.7527 38.7995V37.4709H42.208L41.7527 35.6109L42.4356 36.1423C42.6632 34.6366 42.3445 31.1468 39.249 29.2337C35.3796 26.8422 31.7377 30.828 31.5101 31.8908C30.8273 31.5366 29.0974 31.1469 27.6407 32.4224C27.1096 33.1309 26.0474 34.7605 26.0474 35.6109C26.4267 37.2938 27.1399 40.7659 26.9578 41.1911C26.8941 41.3398 26.8304 41.551 26.7268 41.8947C26.4601 42.7785 25.9292 44.5385 24.4541 48.3653C23.8471 48.454 22.4966 48.7906 21.9503 49.4283C21.4041 50.0661 20.964 51.9969 20.8123 52.8827V56.6027C20.2053 58.1971 19.1279 61.864 19.6742 63.7771L18.7637 67.4971C15.2736 66.08 8.20238 62.7674 7.83819 60.8542C6.92774 60.2342 4.78817 59.2599 3.51353 60.3228C2.2389 61.3856 12.694 70.6857 18.0808 75.2028C18.7636 75.5571 20.3569 76.053 21.2673 75.2028C22.1778 74.3526 23.4676 67.2314 23.9987 63.7771L29.234 76ZM27.8681 47.0368C29.4614 45.8854 32.6935 43.2105 32.8756 41.7225C33.0577 40.2344 32.041 38.2681 31.5099 37.471C31.2064 36.851 30.6905 35.3452 31.0547 34.2824C31.5099 32.9538 27.8681 34.8138 29.0062 38.5338C29.9166 41.5099 28.6268 45.4425 27.8681 47.0368Z" fill="#F7F8FC"/>
</g>
<defs>
<filter id="filter0_dd_3126_1369" x="1.40678" y="27.482" width="56.458" height="51.518" filterUnits="userSpaceOnUse" color-interpolation-filters="sRGB">
<feFlood flood-opacity="0" result="BackgroundImageFix"/>
<feColorMatrix in="SourceAlpha" type="matrix" values="0 0 0 0 0 0 0 0 0 0 0 0 0 0 0 0 0 0 127 0" result="hardAlpha"/>
<feOffset dy="1"/>
<feGaussianBlur stdDeviation="1"/>
<feComposite in2="hardAlpha" operator="out"/>
<feColorMatrix type="matrix" values="0 0 0 0 0.392157 0 0 0 0 0.454902 0 0 0 0 0.545098 0 0 0 0.1 0"/>
<feBlend mode="normal" in2="BackgroundImageFix" result="effect1_dropShadow_3126_1369"/>
<feColorMatrix in="SourceAlpha" type="matrix" values="0 0 0 0 0 0 0 0 0 0 0 0 0 0 0 0 0 0 127 0" result="hardAlpha"/>
<feOffset dy="1"/>
<feGaussianBlur stdDeviation="0.5"/>
<feComposite in2="hardAlpha" operator="out"/>
<feColorMatrix type="matrix" values="0 0 0 0 0.392157 0 0 0 0 0.454902 0 0 0 0 0.545098 0 0 0 0.06 0"/>
<feBlend mode="normal" in2="effect1_dropShadow_3126_1369" result="effect2_dropShadow_3126_1369"/>
<feBlend mode="normal" in="SourceGraphic" in2="effect2_dropShadow_3126_1369" result="shape"/>
</filter>
</defs>
</svg>
