<svg width="84" height="84" viewBox="0 0 84 84" fill="none" xmlns="http://www.w3.org/2000/svg">
<path d="M39.2228 3.52846C35.535 4.37074 31.8472 7.17074 30.2081 10.3805C28.774 13.1805 28.8195 12.748 28.7285 22.6277C28.6374 32.8488 28.5919 32.5529 30.2992 32.5529C30.9593 32.5529 31.2553 32.4163 31.6195 31.961C32.0748 31.3691 32.0976 31.0959 32.0976 23.4699C32.0976 17.1642 32.1659 15.3203 32.439 14.2504C33.7593 9.17399 39.3593 5.69106 44.2992 6.89757C46.6894 7.48944 48.1236 8.33172 49.7398 10.0618C50.7415 11.1317 51.3789 12.0878 51.8114 13.1577L52.4488 14.6829L52.5626 23.2878C52.6992 31.4829 52.722 31.9155 53.1317 32.2342C53.8146 32.735 54.9301 32.6211 55.4992 32.0293C56 31.5057 56 31.3919 56 23.4016C56 16.0488 55.9545 15.161 55.5447 13.522C54.6797 10.1756 52.1756 6.80651 49.3301 5.14472C46.5073 3.48293 42.3187 2.82277 39.2228 3.52846Z" fill="#2C3367"/>
<path d="M14.9333 23.265C14.3187 28.5463 12.3382 44.5268 12.065 46.3252C11.9512 47.1902 11.7463 48.8976 11.6098 50.0813C11.3138 52.813 9.46992 67.587 8.99187 70.9106C8.51382 74.3935 8.53659 76.3057 9.10569 77.3756C9.76585 78.6732 10.6309 79.6293 11.7008 80.1984L12.6341 80.6992H42.1138C69.8634 80.6992 71.639 80.6764 72.322 80.2894C74.1886 79.265 75.5772 77.1024 75.5772 75.1447C75.5772 74.5301 75.0764 70 74.439 65.0829C73.8244 60.1431 73.2098 55.2943 73.0959 54.2927C72.5951 50.3089 71.0244 37.561 70.7968 35.8537C70.6602 34.852 70.2049 31.1642 69.7724 27.6585C69.3398 24.1528 68.9301 20.9431 68.8618 20.5333L68.7252 19.8049H62.8293H56.9106V24.0163C56.9106 27.4537 56.9789 28.387 57.2748 28.9561C57.5252 29.4569 57.6163 30.0715 57.548 31.0049C57.4569 32.1431 57.3431 32.439 56.6829 33.1219C55.2943 34.5561 53.3138 34.7382 51.9024 33.5317C50.4911 32.348 50.1268 30.4813 50.9919 28.8423C51.4016 28.0911 51.4472 27.5675 51.4472 24.2667C51.4472 22.2179 51.3789 20.374 51.3106 20.1691C51.1968 19.8504 50.1496 19.8049 41.9772 19.8049H32.7805V23.948C32.7805 27.7041 32.826 28.1821 33.2585 29.0927C34.7382 32.1203 31.9154 35.239 28.774 34.0325C26.839 33.3041 25.9512 30.8683 26.9301 28.9789C27.2488 28.3642 27.3171 27.5447 27.3171 24.0163V19.8049H21.3301H15.3431L14.9333 23.265Z" fill="#2C3367"/>
</svg>
