<svg width="24" height="24" viewBox="0 0 24 24" fill="none" xmlns="http://www.w3.org/2000/svg">
<path d="M21.5352 5.32559H2.46481C1.76161 5.32559 1.19281 4.75679 1.19281 4.05359C1.19281 3.35039 1.76161 2.78159 2.46481 2.78159H8.82241V1.51199C8.82241 0.80879 9.39121 0.23999 10.0944 0.23999H13.908C14.6112 0.23999 15.18 0.80879 15.18 1.51199V2.78399H21.5376C22.2408 2.78399 22.8096 3.35279 22.8096 4.05599C22.8072 4.75679 22.2384 5.32559 21.5352 5.32559ZM10.728 8.50319V19.3104H8.18641V8.50319H10.728ZM15.8136 8.50319V19.3104H13.272V8.50319H15.8136ZM5.64241 20.5824C5.64241 20.9328 5.92801 21.2184 6.27841 21.2184H17.7216C18.072 21.2184 18.3576 20.9352 18.3576 20.5824V7.23119H20.8992V9.77279V12.9504V21.2136C20.8992 22.6176 19.7616 23.7552 18.3576 23.7552H5.64241C4.23841 23.7552 3.10081 22.6176 3.10081 21.2136V12.9528V9.77519V7.23359H5.64241V20.5824Z" fill="#2B3467"/>
</svg>
