<svg width="24" height="24" viewBox="0 0 24 24" fill="none" xmlns="http://www.w3.org/2000/svg">
<path d="M0.23999 21.6264V19.9752H23.76V21.6264H0.23999ZM1.05839 15.5472C1.05839 9.84718 5.54399 4.55038 11.1576 4.14958V4.00318C11.1576 3.28078 11.7432 2.37598 12.4656 2.37598C13.188 2.37598 13.7736 3.28078 13.7736 4.00318V4.31998C18.84 5.35438 22.9128 10.2792 22.9128 15.5472V18.2616H1.05839V15.5472ZM8.24399 10.728C8.95199 10.728 9.52559 10.1544 9.52559 9.44638C9.52559 8.73838 8.95199 8.16478 8.24399 8.16478C7.53599 8.16478 6.96239 8.73838 6.96239 9.44638C6.96239 10.1544 7.53599 10.728 8.24399 10.728ZM5.96399 13.6056C6.53999 13.6056 7.00559 13.14 7.00559 12.564C7.00559 11.988 6.53999 11.5224 5.96399 11.5224C5.39039 11.5224 4.92239 11.9904 4.92239 12.564C4.92239 13.14 5.39039 13.6056 5.96399 13.6056Z" fill="#2B3467"/>
</svg>
