<svg width="24" height="22" viewBox="0 0 24 22" fill="none" xmlns="http://www.w3.org/2000/svg">
<path d="M19.2002 13.9928C18.3098 13.9928 17.5946 13.2368 17.5946 12.296C17.5946 11.3648 18.3098 10.6064 19.2002 10.6064C20.0906 10.6064 20.8034 11.3624 20.8034 12.296C20.8034 13.2368 20.0906 13.9928 19.2002 13.9928ZM4.23143 8.97685L5.61623 4.93765C5.79143 4.39045 7.03703 3.81205 7.64903 3.81205H16.3946C17.0066 3.81205 18.209 4.39045 18.3866 4.93765L19.805 9.01285L4.23143 8.97685ZM4.80263 13.9928C3.91223 13.9928 3.19703 13.2368 3.19703 12.296C3.19703 11.3648 3.91223 10.6064 4.80263 10.6064C5.69303 10.6064 6.40823 11.3624 6.40823 12.296C6.40583 13.2368 5.69063 13.9928 4.80263 13.9928ZM21.7106 8.85925L19.8554 3.93685C19.5026 2.99605 17.9066 2.19685 16.4714 2.19685H14.5202C14.5202 1.27285 13.7642 0.516846 12.8402 0.516846H11.1602C10.2362 0.516846 9.48023 1.27285 9.48023 2.19685H7.53143C6.10343 2.19685 4.49783 2.99605 4.14503 3.93685L2.28983 8.85925C1.55063 8.95285 0.240234 9.84325 0.240234 11.5232L0.300234 18.1088L2.77703 18.116L2.78663 19.6448C2.78663 22.1144 5.95223 22.0736 5.95223 19.6376L6.00263 18.0752L17.9042 18.1088V19.7216C17.9042 22.1576 21.2138 21.8984 21.2138 19.6976L21.1802 18.1352L23.6666 18.0752L23.7578 11.5232C23.7602 9.84325 22.4498 8.95285 21.7106 8.85925Z" fill="#2B3467"/>
</svg>
