<svg width="25" height="24" viewBox="0 0 25 24" fill="none" xmlns="http://www.w3.org/2000/svg">
<path d="M10.1848 2.22189C7.57854 2.48439 5.31917 3.49689 3.67854 5.11876C1.14729 7.62189 0.725417 11.0719 2.59104 13.9406C3.16292 14.8219 4.08167 15.7594 4.89729 16.2938C5.14104 16.4531 5.16917 16.5375 5.14104 17.1281C5.08479 18.2063 4.33479 19.2188 3.05979 19.9594L2.68479 20.175V20.4188V20.6531L3.24729 20.625C5.90979 20.4844 7.94417 19.7438 9.40667 18.3844L9.71604 18.1031L10.2785 18.1406C10.9723 18.1875 11.5067 18.1969 11.5067 18.15C11.5067 18.1313 11.4504 17.9719 11.3754 17.7844C11.3004 17.6063 11.1879 17.2406 11.1317 16.9875C11.0192 16.575 11.0192 16.4438 11.0098 15.75C11.0098 15.15 11.0285 14.8875 11.0942 14.6063C11.3567 13.3875 11.9004 12.3938 12.7629 11.5313C14.1785 10.1156 15.9223 9.41251 17.9942 9.40314C18.9317 9.40314 19.6067 9.50626 20.4504 9.78751C20.7692 9.89064 21.041 9.97501 21.0504 9.97501C21.0973 9.97501 21.0129 9.21564 20.9285 8.81251C20.4317 6.51564 18.7629 4.54689 16.2879 3.32814C15.2567 2.82189 14.1973 2.49376 12.9785 2.31564C12.3035 2.20314 10.8035 2.16564 10.1848 2.22189Z" fill="#2B3467"/>
<path d="M17.4877 10.7813C15.1158 11.0156 13.1846 12.5156 12.6408 14.5688C12.5377 14.9438 12.5283 15.075 12.5283 15.6656C12.5283 16.2469 12.5377 16.3875 12.6408 16.7438C12.9221 17.7938 13.5689 18.7219 14.4971 19.4156C15.0971 19.8656 15.9971 20.2781 16.7752 20.4375C17.5721 20.6063 18.6127 20.6063 19.3252 20.4375L19.6064 20.3719L19.9158 20.6438C20.9189 21.5063 22.0533 21.8906 23.2439 21.7875L23.5721 21.75V21.6188C23.5721 21.4969 23.5439 21.4594 23.3471 21.3469C22.6814 20.9531 22.2502 20.0719 22.3346 19.2656C22.3721 18.8719 22.5033 18.5531 22.7471 18.225C23.0377 17.8406 23.2908 17.3156 23.4221 16.7906C23.5252 16.425 23.5346 16.2938 23.5346 15.6844C23.5346 15.075 23.5252 14.9438 23.4221 14.5688C22.9814 12.9375 21.6408 11.5969 19.8783 11.0344C19.1377 10.8094 18.2283 10.7063 17.4877 10.7813Z" fill="#FDFFF1"/>
</svg>
