<svg width="25" height="24" viewBox="0 0 25 24" fill="none" xmlns="http://www.w3.org/2000/svg">
<path fill-rule="evenodd" clip-rule="evenodd" d="M2.75 12C2.75 6.61522 7.11522 2.25 12.5 2.25C17.8848 2.25 22.25 6.61522 22.25 12C22.25 17.3848 17.8848 21.75 12.5 21.75C7.11522 21.75 2.75 17.3848 2.75 12ZM16.1103 10.1859C16.3511 9.84887 16.273 9.38046 15.9359 9.1397C15.5989 8.89894 15.1305 8.97701 14.8897 9.31407L11.6543 13.8436L10.0303 12.2197C9.73744 11.9268 9.26256 11.9268 8.96967 12.2197C8.67678 12.5126 8.67678 12.9874 8.96967 13.2803L11.2197 15.5303C11.3756 15.6862 11.5921 15.7656 11.8119 15.7474C12.0316 15.7293 12.2322 15.6153 12.3603 15.4359L16.1103 10.1859Z" fill="#BAD7E9"/>
</svg>
