<svg width="24" height="24" viewBox="0 0 24 24" fill="none" xmlns="http://www.w3.org/2000/svg">
<path d="M13.3312 18.3098V17.2035C13.3312 16.9598 13.3781 16.791 13.4812 16.6879C13.5844 16.5848 13.7531 16.5379 13.9969 16.5379H16.875V2.15664C16.875 1.91289 16.9594 1.70664 17.1375 1.53789C17.3156 1.35977 17.5219 1.27539 17.7562 1.27539C18 1.27539 18.2062 1.35977 18.375 1.53789C18.5531 1.71602 18.6375 1.92227 18.6375 2.15664V16.5379H21.075C21.3656 16.5379 21.6187 16.5941 21.8437 16.7066C22.0687 16.8191 22.1812 16.9785 22.1812 17.2035V18.3098H13.3312ZM2.09062 10.2004C2.14687 9.61914 2.30625 9.07539 2.57812 8.55039C2.84062 8.03476 3.17812 7.58477 3.58125 7.20977C3.98437 6.83477 4.4625 6.54414 4.99687 6.31914C5.54062 6.09414 6.10312 5.99102 6.69375 5.99102C7.48125 5.99102 8.22187 6.17852 8.89687 6.54414C9.57187 6.91914 10.125 7.42539 10.5469 8.06289C10.9687 8.70977 11.2219 9.41289 11.2969 10.191H9.96562C9.85312 9.37539 9.4875 8.69102 8.86875 8.14727C8.25 7.59414 7.51875 7.32227 6.69375 7.32227C5.85937 7.32227 5.1375 7.59414 4.51875 8.14727C3.9 8.70039 3.53437 9.38476 3.42187 10.191H2.09062V10.2004ZM4.5375 22.7348C4.2 22.7348 3.89062 22.6035 3.60937 22.3504C3.32812 22.0879 3.15937 21.7785 3.1125 21.4223L1.8 12.9566H1.37812C1.25625 12.9566 1.15312 12.9098 1.06875 12.8254C0.984375 12.741 0.9375 12.6379 0.9375 12.516V11.7941C0.9375 11.6723 0.984375 11.5691 1.06875 11.4848C1.15312 11.4004 1.25625 11.3535 1.37812 11.3535H12C12.1219 11.3535 12.225 11.4004 12.3094 11.4848C12.3937 11.5691 12.4406 11.6723 12.4406 11.7941V12.516C12.4406 12.6379 12.3937 12.741 12.3094 12.8254C12.225 12.9098 12.1219 12.9566 12 12.9566H11.5781L10.2656 21.4223C10.2094 21.7785 10.05 22.0973 9.76875 22.3504C9.4875 22.6129 9.17812 22.7348 8.84062 22.7348H4.5375ZM12.4406 22.7348L13.3219 19.191H22.1719L23.0531 22.7348H12.4406Z" fill="#2B3467"/>
</svg>
