<svg width="48" height="48" viewBox="0 0 48 48" fill="none" xmlns="http://www.w3.org/2000/svg">
<path fill-rule="evenodd" clip-rule="evenodd" d="M4.65087 4.65087C5.51871 3.78304 6.92574 3.78304 7.79357 4.65087L24 20.8573L40.2064 4.65088C41.0743 3.78304 42.4813 3.78304 43.3491 4.65088C44.217 5.51871 44.217 6.92574 43.3491 7.79357L27.1427 24L43.3491 40.2064C44.217 41.0743 44.217 42.4813 43.3491 43.3491C42.4813 44.217 41.0743 44.217 40.2064 43.3491L24 27.1427L7.79357 43.3491C6.92574 44.217 5.51871 44.217 4.65087 43.3491C3.78304 42.4813 3.78304 41.0743 4.65087 40.2064L20.8573 24L4.65087 7.79357C3.78304 6.92574 3.78304 5.51871 4.65087 4.65087Z" fill="#FDFFF1"/>
</svg>
