<svg width="24" height="24" viewBox="0 0 24 24" fill="none" xmlns="http://www.w3.org/2000/svg">
<g clip-path="url(#clip0_115_1582)">
<path d="M6.87402 14.6183L9.47802 17.0975L20.218 6.33593L17.6068 3.85193L6.87402 14.6183Z" fill="#2B3467"/>
<path d="M6.87402 14.6183L9.47802 17.0975L20.218 6.33593L17.6068 3.85193L6.87402 14.6183Z" fill="#2B3467"/>
<path d="M19.589 21.0264C19.5194 21.6792 19.2194 22.1352 18.6746 22.4208C18.2618 22.6392 17.8466 22.6752 17.7842 22.68H3.22103C2.49863 22.6368 1.98503 22.3176 1.64903 21.7032C1.39943 21.2472 1.34183 20.7864 1.33463 20.7024V6.42002C1.33463 5.79602 1.65383 5.27522 2.28503 4.87442C2.71943 4.59842 3.16823 4.46402 3.31463 4.42562H11.897V3.33362H3.18743L3.12983 3.34562C3.10103 3.35282 2.41463 3.50402 1.72583 3.93362C0.753834 4.54082 0.240234 5.40002 0.240234 6.42002V20.7264L0.242634 20.7648C0.247434 20.8368 0.302634 21.4944 0.669834 22.188C1.18583 23.1648 2.05463 23.712 3.17783 23.7744H17.8106H17.8202C17.8874 23.772 18.4898 23.7408 19.1378 23.4144C19.769 23.0952 20.5514 22.4376 20.681 21.1104L20.6834 21.084V10.7664H19.5914V21.0264H19.589Z" fill="#2B3467"/>
<path d="M23.3305 2.15999L23.3089 2.13599L21.6625 0.695986C21.5473 0.578386 21.1465 0.225586 20.5321 0.225586C20.0161 0.225586 19.5145 0.470386 19.0369 0.952786L5.4985 14.5872L4.1665 20.0712L9.5257 18.336L23.1313 4.71359L23.1577 4.68719C23.1889 4.65359 23.4601 4.35599 23.6257 3.92399C23.8777 3.27839 23.7721 2.65199 23.3305 2.15999ZM9.4777 17.1L6.8737 14.6184L17.6065 3.85199L20.2153 6.33839L9.4777 17.1Z" fill="#2B3467"/>
</g>
<defs>
<clipPath id="clip0_115_1582">
<rect width="24" height="24" fill="white"/>
</clipPath>
</defs>
</svg>
