<svg width="24" height="16" viewBox="0 0 24 16" fill="none" xmlns="http://www.w3.org/2000/svg">
<path d="M23.76 13.8896V14.6552C23.76 14.804 23.7 14.948 23.5944 15.0536C23.4888 15.1592 23.3448 15.2192 23.196 15.2192H6.55439C6.40079 15.2192 6.25439 15.1568 6.14639 15.044L6.01439 14.9048C5.63519 14.5088 5.24879 14.1728 4.86719 13.8872H23.76V13.8896Z" fill="#2B3467"/>
<path d="M0.681704 11.5328L1.1113 11.6288C1.5169 11.72 2.6617 12.0344 3.9313 12.9008H23.7577L23.7553 11.4008C23.7553 11.2712 23.7097 11.144 23.6281 11.0432L23.5249 10.9184C23.3545 10.712 22.4257 9.60324 20.8633 8.16804C19.7425 7.13844 18.5569 6.19044 17.3401 5.35284L17.3113 5.33364L17.2993 5.30244C16.7857 4.00164 15.6937 3.28404 14.2273 3.28404C14.1217 3.28404 14.0113 3.28884 13.9033 3.29604L13.8721 3.29844L13.8457 3.28404C10.5169 1.62324 7.0993 0.778442 3.6913 0.778442C3.4729 0.778442 3.2521 0.780842 3.0337 0.788042L2.6737 0.800042C2.4121 0.807242 2.1889 0.996842 2.1385 1.25364L0.249704 10.8728C0.192104 11.1728 0.384104 11.4656 0.681704 11.5328ZM3.3793 6.68004L3.8665 3.68004C3.9481 3.18324 4.4065 2.84004 4.9057 2.90244C7.9105 3.28164 10.2049 3.90084 11.7265 4.74804C13.5841 5.78244 13.8001 6.88644 13.7641 7.45284C13.7473 7.70004 13.6345 7.93284 13.4473 8.09604C13.2769 8.24724 13.0561 8.32884 12.8305 8.32884C12.8089 8.32884 12.7897 8.32884 12.7681 8.32644L4.2385 7.76244C3.9745 7.74564 3.7321 7.61844 3.5689 7.41204C3.4081 7.20564 3.3385 6.93924 3.3793 6.68004Z" fill="#2B3467"/>
<path d="M6.51365 6.77607C6.52085 6.69687 6.55685 6.62247 6.61685 6.56967C6.67685 6.51687 6.75605 6.49287 6.83525 6.49767L9.62885 6.70407C9.70805 6.71127 9.78245 6.74727 9.83525 6.80727C9.88805 6.86727 9.91445 6.94647 9.90725 7.02567L9.87605 7.43127C9.86405 7.58967 9.73205 7.70967 9.57605 7.70967C9.56885 7.70967 9.56165 7.70967 9.55205 7.70967L6.75845 7.50327C6.59285 7.49127 6.46805 7.34487 6.48005 7.17927L6.51365 6.77607Z" fill="#2B3467"/>
</svg>
