<svg width="24" height="25" viewBox="0 0 24 25" fill="none" xmlns="http://www.w3.org/2000/svg">
<g clip-path="url(#clip0_230_39)">
<path d="M19.7568 22.7962C19.7544 23.6722 19.5288 24.229 18.696 24.2266C17.8632 24.2242 17.6808 23.665 17.6832 22.789L17.6544 14.4922C17.6232 14.4946 15.2904 14.1754 14.5056 11.8258C14.5056 11.8258 15.4632 0.730641 19.056 0.740241C19.9728 0.742641 19.7112 3.16904 19.7112 3.16904L19.7568 22.7962ZM9.09596 11.6146H8.67116L9.27116 22.825C9.27116 23.701 8.47916 24.2602 7.64636 24.2602C6.81356 24.2602 6.06476 23.701 6.06476 22.825L6.68876 11.6242L6.23756 11.6146C5.89436 11.6146 4.24316 8.58584 4.24316 8.05544L5.01836 0.793041C5.02076 0.802641 6.10556 0.836241 6.10556 0.836241L6.09116 5.61944C6.09116 6.16904 6.07676 6.59384 6.62396 6.59384C7.17116 6.59384 7.17836 6.17144 7.17836 5.61944V0.836241H8.67116V5.68184C8.67116 6.23144 8.74316 6.58424 9.29036 6.58424C9.83756 6.58424 9.82796 6.23384 9.82796 5.68184V0.836241C9.82796 0.836241 10.6848 0.836241 10.7328 0.836241L11.496 8.05784C11.496 8.59064 9.43436 11.6146 9.09596 11.6146Z" fill="#2B3467"/>
</g>
<defs>
<clipPath id="clip0_230_39">
<rect width="24" height="24" fill="white" transform="translate(0 0.5)"/>
</clipPath>
</defs>
</svg>
