<svg width="24" height="24" viewBox="0 0 24 24" fill="none" xmlns="http://www.w3.org/2000/svg">
<g clip-path="url(#clip0_230_46)">
<path d="M4.66856 0.492965L4.40648 0.755045L5.69336 2.04193L6.98024 3.3288L5.73008 4.57896L4.47536 5.83368L3.18848 4.5468L1.9016 3.25993L1.63496 3.52656L1.37288 3.78865L1.99328 6.10968C2.33792 7.38744 2.6276 8.47681 2.64128 8.53201L2.66888 8.63761H4.95368L7.23344 8.64216L9.06728 10.5038L10.9011 12.3653L10.2301 13.0409L9.55448 13.7167L9.104 13.2662L8.65832 12.8206L7.97816 13.5007L7.30256 14.1763L7.51856 14.3923L7.73456 14.6083L7.6196 14.6544C7.39904 14.7372 6.80144 15.1601 6.25448 15.6197C4.88936 16.7642 3.17504 18.6487 2.76584 19.453L2.65088 19.6829L2.43944 19.4669L2.22344 19.2554L1.54784 19.931L0.867676 20.6112L2.43968 22.1832L4.01624 23.7598L4.69184 23.0842L5.372 22.404L5.16056 22.1926L4.94912 21.9811L5.22032 21.8294C5.8868 21.4526 6.76928 20.6988 7.89992 19.5497C8.98472 18.4418 9.64184 17.6422 9.94064 17.0539L10.0234 16.9022L10.221 17.0952C10.3314 17.2008 10.4415 17.2836 10.4646 17.2745C10.4876 17.2654 10.7955 16.962 11.1447 16.5989L11.7745 15.9415L11.3425 15.505L10.9105 15.073L11.5906 14.3928L12.2708 13.7172L16.3018 17.7713C18.8713 20.3539 20.4066 21.8614 20.5398 21.9396C21.2569 22.344 22.0657 22.2384 22.6357 21.673C23.0034 21.3053 23.1274 20.9974 23.1322 20.4504C23.1368 20.1012 23.1183 20.0275 22.9851 19.7426C22.8104 19.3702 22.7919 19.3519 17.8969 14.443L14.7255 11.2577L16.5411 9.44208L18.3567 7.62192L19.8966 6.62905C20.7423 6.08665 21.4777 5.59488 21.5329 5.53968C21.5881 5.48904 21.9054 4.94664 22.2361 4.34472L22.8474 3.24625L22.0935 2.49696L21.3445 1.75248L20.1954 2.39593L19.0462 3.0348L18.0397 4.6068L17.0331 6.17881L15.1945 8.02201L13.3604 9.86976L11.5724 8.06808L9.78896 6.27096L9.7844 3.89928V1.53216L7.40816 0.893284C6.09824 0.543844 5.00432 0.249844 4.98128 0.240484C4.95368 0.231124 4.81568 0.346085 4.66856 0.492965ZM21.8314 19.8298C22.2774 20.0642 22.3693 20.6525 22.0153 21.0065C21.5096 21.5122 20.7238 21.2042 20.7238 20.4962C20.7238 20.2848 20.8203 20.0412 20.9538 19.9217C21.1741 19.7242 21.5463 19.6874 21.8314 19.8298Z" fill="#2B3467"/>
</g>
<defs>
<clipPath id="clip0_230_46">
<rect width="24" height="24" fill="white"/>
</clipPath>
</defs>
</svg>
