<svg width="24" height="24" viewBox="0 0 24 24" fill="none" xmlns="http://www.w3.org/2000/svg">
<g clip-path="url(#clip0_115_1571)">
<path d="M19.3634 14.9399H19.3346C18.5306 14.9399 17.8778 15.5927 17.8778 16.3967V20.0855C17.8778 20.4911 17.549 20.8199 17.1434 20.8199H6.85458C6.44898 20.8199 6.12018 20.4911 6.12018 20.0855V16.3967C6.12018 15.5927 5.46738 14.9399 4.66338 14.9399H4.63458C3.83058 14.9399 3.18018 15.5927 3.18018 16.3967V22.3055C3.18018 23.1095 3.83298 23.7623 4.63458 23.7623H19.3634C20.1674 23.7623 20.8202 23.1095 20.8202 22.3055V16.3967C20.8202 15.5927 20.1674 14.9399 19.3634 14.9399Z" fill="#2B3467"/>
<path d="M22.385 3.91675L20.0834 1.61275C19.169 0.700749 17.9738 0.249549 16.7762 0.249549C16.6538 0.249549 16.5314 0.254349 16.409 0.263949V0.237549H7.59143V0.263949C7.46903 0.254349 7.34663 0.249549 7.22423 0.249549C6.02663 0.249549 4.83143 0.698349 3.91943 1.61275L1.61543 3.91675C-0.218166 5.75035 -0.218166 8.72395 1.61543 10.5575L1.68263 10.6247C2.59943 11.5415 3.79943 11.9999 5.00183 11.9999C6.20423 11.9999 7.40423 11.5415 8.32103 10.6247L8.56343 10.3823C9.36503 11.3687 10.5842 11.9999 11.9546 11.9999H12.0434C13.4138 11.9999 14.6354 11.3687 15.4346 10.3823L15.677 10.6247C16.5938 11.5415 17.7962 11.9999 18.9962 11.9999C20.1962 11.9999 21.3986 11.5415 22.3154 10.6247L22.3826 10.5575C24.2186 8.72395 24.2186 5.75035 22.385 3.91675ZM20.3066 8.47915L20.2394 8.54635C19.9082 8.87755 19.4666 9.05995 18.9986 9.05995C18.5282 9.05995 18.089 8.87755 17.7578 8.54635L17.5154 8.30395L15.437 6.22555C15.3146 6.10315 15.113 6.11275 15.005 6.24715L13.1522 8.52955C12.8786 8.86795 12.4754 9.05995 12.0434 9.05995H11.9546C11.525 9.05995 11.1194 8.86795 10.8482 8.52955L9.03143 6.28795C8.90423 6.12955 8.66903 6.11755 8.52503 6.26155L6.24263 8.54395C5.91143 8.87515 5.46983 9.05755 5.00183 9.05755C4.53383 9.05755 4.09223 8.87515 3.76103 8.54395L3.69383 8.47675C3.00983 7.79035 3.00983 6.67915 3.69383 5.99515L5.99783 3.69115C6.43463 3.25435 6.95303 3.18955 7.22423 3.18955C7.27223 3.18955 7.54343 3.17275 7.59143 3.17755H16.4114C16.4594 3.17515 16.7306 3.18955 16.7786 3.18955C17.0498 3.18955 17.5706 3.25435 18.0074 3.69115L20.3114 5.99515C20.9906 6.68155 20.9906 7.79275 20.3066 8.47915Z" fill="#2B3467"/>
</g>
<defs>
<clipPath id="clip0_115_1571">
<rect width="24" height="24" fill="white"/>
</clipPath>
</defs>
</svg>
