<svg width="24" height="24" viewBox="0 0 24 24" fill="none" xmlns="http://www.w3.org/2000/svg">
<g clip-path="url(#clip0_386_298)">
<path d="M11.6812 0.975043C10.9312 1.25629 9.75934 2.39067 8.93434 3.62817C8.72809 3.94692 8.67184 4.00317 8.58746 3.98442C8.29684 3.90004 7.38746 3.77817 6.85309 3.74067C5.80309 3.67504 4.84684 3.77817 4.40622 4.00317C3.98434 4.21879 3.80622 4.65942 3.74059 5.66254C3.67497 6.48754 3.80622 7.93129 3.98434 8.58754C4.00309 8.67192 3.94684 8.71879 3.62809 8.93442C2.77497 9.50629 1.77184 10.4344 1.33122 11.0625C0.787465 11.8313 0.79684 12.225 1.38747 13.0313C1.84684 13.65 3.31872 14.9532 3.85309 15.2063C3.98434 15.2719 4.00309 15.3 3.98434 15.3938C3.77809 16.3313 3.67497 17.5407 3.74059 18.3563C3.85309 19.9313 4.18122 20.2032 5.96246 20.25C6.89059 20.2782 7.52809 20.2313 8.23122 20.0813C8.46559 20.0344 8.66246 19.9875 8.67184 19.9875C8.68121 19.9875 8.76559 20.1 8.84997 20.25C9.37496 21.0657 10.4156 22.2094 11.025 22.6407C11.3812 22.8938 11.775 23.0719 11.9906 23.0719C12.2062 23.0719 12.6 22.8938 12.9562 22.6407C13.575 22.2 14.6718 20.9907 15.1125 20.2594C15.1968 20.1282 15.2718 20.0063 15.2718 19.9969C15.2718 19.9875 15.4781 20.025 15.7218 20.0719C16.3781 20.2032 16.9406 20.2594 17.775 20.2594C18.5343 20.2594 18.8718 20.2219 19.2843 20.1094C20.025 19.8938 20.2406 19.3594 20.2406 17.7563C20.2406 16.9782 20.1656 16.1907 20.0437 15.6469C19.95 15.2719 19.95 15.2907 20.1468 15.1875C20.5031 15 21.4031 14.2688 21.9 13.7813C22.725 12.9563 23.0906 12.3563 23.0343 11.8875C22.95 11.1938 21.7406 9.86254 20.3437 8.92504C20.1375 8.78442 19.9687 8.67192 19.9687 8.66254C19.9687 8.66254 20.0062 8.45629 20.0625 8.22192C20.2031 7.51879 20.25 6.87192 20.2312 5.95317C20.1843 4.17192 19.9218 3.86254 18.3468 3.73129C17.5593 3.66567 16.3218 3.76879 15.375 3.98442C15.2812 4.00317 15.2531 3.98442 15.1875 3.85317C15.0468 3.55317 14.2781 2.58754 13.7906 2.10004C12.8437 1.13442 12.1968 0.787543 11.6812 0.975043ZM13.275 5.92504C14.5218 6.20629 15.4968 6.74067 16.3781 7.62192C17.2781 8.52192 17.8218 9.52504 18.1031 10.8375C18.1687 11.1188 18.1875 11.4094 18.1875 12C18.1875 12.5907 18.1687 12.8719 18.1031 13.1625C17.8218 14.4469 17.2781 15.4782 16.3968 16.3594C15.5062 17.25 14.4843 17.8125 13.2468 18.075C12.5812 18.2157 11.4187 18.2157 10.7437 18.075C9.51559 17.8125 8.48434 17.25 7.59371 16.3594C6.71246 15.4782 6.16872 14.4469 5.88747 13.1625C5.77496 12.6282 5.77496 11.3719 5.88747 10.8375C6.16872 9.52504 6.71246 8.52192 7.61246 7.62192C8.62496 6.60942 9.88121 6.00004 11.3156 5.82192C11.7093 5.77504 12.8812 5.83129 13.275 5.92504Z" fill="#2B3467"/>
<path d="M11.7561 7.19067C11.4561 7.80942 11.3248 8.38129 11.3436 8.94379C11.3529 9.27192 11.3904 9.45942 11.456 9.64692C11.5685 9.92817 11.8967 10.3688 11.9998 10.3688C12.1029 10.3688 12.4311 9.92817 12.5436 9.64692C12.7029 9.24379 12.7123 8.61567 12.5623 8.06254C12.4498 7.62192 12.0842 6.77817 11.9998 6.77817C11.9811 6.76879 11.8686 6.95629 11.7561 7.19067Z" fill="#2B3467"/>
<path d="M9.03711 8.70002C8.91524 8.87815 8.70899 9.4219 8.65274 9.71252C8.54024 10.3031 8.68086 10.95 8.99024 11.2406L9.10274 11.3438L9.27149 11.1563C9.36524 11.0531 9.47774 10.8563 9.52461 10.7344C9.61836 10.4625 9.62774 9.93752 9.54336 9.62815C9.47774 9.3844 9.28086 8.8969 9.17774 8.71877L9.10274 8.58752L9.03711 8.70002Z" fill="#2B3467"/>
<path d="M14.7284 8.87818C14.5503 9.24381 14.4659 9.50631 14.4003 9.87193C14.3159 10.3782 14.4659 10.9313 14.7659 11.2126L14.8971 11.3438L15.0096 11.2407C15.3378 10.9313 15.4784 10.2282 15.3284 9.63756C15.244 9.29068 15.0003 8.70943 14.9253 8.65318C14.8878 8.61568 14.8409 8.66256 14.7284 8.87818Z" fill="#2B3467"/>
<path d="M10.5561 11.072C10.3404 11.1376 10.0592 11.4095 9.99355 11.6345C9.92793 11.8688 9.92793 15.272 9.99355 15.5157C10.0686 15.7782 10.3311 16.0126 10.6217 16.0782C10.7811 16.1157 11.2779 16.1251 12.1311 16.1157C13.5842 16.1063 13.6404 16.0876 13.8936 15.7313L14.0248 15.5438V13.5845V11.6251L13.8936 11.4376C13.6311 11.072 13.5936 11.0626 12.0654 11.0532C11.2404 11.0251 10.6592 11.0438 10.5561 11.072Z" fill="#2B3467"/>
<path d="M7.95945 11.8781C7.88445 11.9063 7.77195 11.9906 7.7157 12.0656L7.6032 12.1875L7.59382 13.6875C7.58445 15.1125 7.59382 15.1969 7.66882 15.3375C7.84695 15.6188 7.92195 15.6375 8.83132 15.6563L9.65632 15.6656V13.7531V11.8406L8.8782 11.8313C8.29694 11.8219 8.0532 11.8313 7.95945 11.8781Z" fill="#2B3467"/>
<path d="M14.3533 11.85C14.3346 11.8594 14.3252 12.7312 14.3252 13.7719V15.6656L15.1689 15.6469C16.0971 15.6375 16.1721 15.6094 16.3408 15.3281C16.4252 15.1969 16.4252 15.1125 16.4158 13.6781L16.4064 12.1781L16.2939 12.0563C16.0971 11.8406 15.9564 11.8125 15.1408 11.8125C14.7189 11.8219 14.3627 11.8313 14.3533 11.85Z" fill="#2B3467"/>
</g>
<defs>
<clipPath id="clip0_386_298">
<rect width="24" height="24" fill="white"/>
</clipPath>
</defs>
</svg>
