<svg width="160" height="51" viewBox="0 0 160 51" fill="none" xmlns="http://www.w3.org/2000/svg">
<g clip-path="url(#clip0_3585_67)">
<path d="M9.54733 29.6238C11.0403 10.4484 31.2593 2.04047 47.3218 11.7019C52.1185 14.5876 56.1317 19.203 57.2955 24.777C58.3671 29.8862 54.6617 35.5493 49.0551 35.4035C44.4148 35.2853 41.1226 32.061 37.2033 30.2441C33.763 28.6506 29.3021 29.0538 26.5531 31.7631C25.5868 32.7153 24.1761 31.1299 25.2609 30.3056C27.0285 28.9593 29.1186 28.0831 31.33 27.7615C38.6831 26.6927 42.4066 33.4294 48.8691 32.2327C57.4173 30.6522 52.2864 19.9803 47.8387 16.1228C40.6354 9.8784 28.7226 8.58288 21.2922 14.9164C17.0815 18.5082 14.9696 24.1859 15.4733 29.6238C15.8782 33.8667 9.21811 33.8813 9.54733 29.6238Z" fill="#2B3467"/>
<path d="M8.95639 36.6294C16.4247 40.5581 24.7885 43.2269 33.2576 43.2269C41.7268 43.2269 50.377 41.0407 57.5589 36.6294C59.7547 35.2837 62.0428 38.6035 59.7745 39.8844C58.2058 40.7686 56.2239 41.1573 54.4938 41.6965C46.6025 44.1548 38.2387 45.575 29.9342 45.0552C22.4593 44.5872 15.2659 42.2245 8.02141 40.4075C4.54322 39.5346 5.7926 34.9663 8.95639 36.6294Z" fill="#2B3467"/>
<path d="M3.03046 42.4595C20.3144 51.3856 44.2864 51.4812 61.8584 43.3129C62.4178 43.0615 62.961 42.7764 63.4848 42.4595C65.6626 41.0991 67.9292 44.4189 65.6774 45.7242C64.6156 46.3379 63.3975 46.5889 62.237 46.9565C52.9103 49.9103 43.0222 51.0051 33.2658 51.0051C22.6436 50.9921 12.0872 48.9533 1.80577 46.1468C-1.38436 45.2675 0.0543273 40.9226 3.03046 42.4595Z" fill="#2B3467"/>
<path d="M38.1893 4.847C38.8214 0.230072 30.4856 -0.173161 28.4938 3.28104C27.9704 4.18952 28.8938 5.71015 27.521 6.00974C26.8346 6.16196 26.2239 5.52391 26.3375 4.847C27.1803 -0.106765 33.7136 -1.00878 37.5309 0.991193C38.2608 1.38678 38.8833 1.94938 39.3457 2.63148C39.8082 3.31358 40.0969 4.09515 40.1877 4.91016C40.3292 6.40325 37.9918 6.33362 38.1893 4.847Z" fill="#2B3467"/>
<path d="M74.1383 35.9106C73.2209 35.9106 72.4867 35.6504 71.9358 35.13C71.3849 34.6096 71.1106 33.9155 71.1128 33.0475V17.7959C71.1018 17.4303 71.1725 17.0669 71.3198 16.7311C71.4671 16.3953 71.6875 16.0954 71.9654 15.8526C72.5127 15.3576 73.2319 15.0876 73.9753 15.0979H82.2864C82.9087 15.0979 83.3597 15.2453 83.6346 15.54C83.9141 15.8465 84.0621 16.2475 84.0477 16.6591C84.0483 16.8629 84.007 17.0648 83.9264 17.2526C83.8458 17.4405 83.7275 17.6104 83.5786 17.7522C83.4074 17.9132 83.2043 18.0378 82.982 18.1184C82.7597 18.1989 82.5229 18.2335 82.2864 18.2202H76.3951C75.4403 18.2202 74.963 18.6714 74.963 19.574V22.429C74.963 23.3305 75.4019 23.7817 76.2798 23.7828H81.7284C82.3528 23.7828 82.8022 23.9388 83.0765 24.2508C83.3475 24.5521 83.4948 24.9417 83.4897 25.3439C83.4808 25.7459 83.3131 26.1287 83.0222 26.4111C82.8542 26.5781 82.6518 26.7077 82.4287 26.7915C82.2055 26.8753 81.9668 26.9113 81.7284 26.8969H76.2798C75.4019 26.8969 74.963 27.3288 74.963 28.1925V31.3665C74.963 32.2701 75.4217 32.7214 76.3391 32.7203H82.8346C83.4579 32.7203 83.9073 32.885 84.1827 33.2143C84.4517 33.5275 84.5982 33.9249 84.5959 34.3349C84.5967 34.5387 84.5558 34.7405 84.4755 34.9283C84.3951 35.1162 84.2771 35.2861 84.1284 35.428C83.9566 35.5887 83.7532 35.7131 83.5307 35.7936C83.3082 35.874 83.0713 35.9089 82.8346 35.896L74.1383 35.9106Z" fill="#2B3467"/>
<path d="M93.1259 35.9105C92.2085 35.9105 91.4749 35.6503 90.9251 35.1299C90.3753 34.6096 90.101 33.9154 90.1021 33.0474V16.5472C90.1021 15.9578 90.3133 15.5259 90.7358 15.2517C91.1322 14.9822 91.6022 14.8371 92.084 14.8355C92.5498 14.832 93.0041 14.9781 93.3778 15.2517C93.763 15.5302 93.9556 15.9621 93.9556 16.5472V31.3292C93.9556 31.8506 94.0653 32.2064 94.2848 32.3964C94.5043 32.5864 94.8708 32.6819 95.3844 32.683H101.054C101.641 32.683 102.072 32.8579 102.347 33.2044C102.608 33.5113 102.753 33.8964 102.761 34.2959C102.763 34.706 102.616 35.1033 102.347 35.4166C102.072 35.7404 101.641 35.9105 101.054 35.9105H93.1259Z" fill="#2B3467"/>
<path d="M117.345 36.4367C115.351 36.4612 113.386 35.9674 111.648 35.0052C109.966 34.0737 108.562 32.7247 107.575 31.0927C106.565 29.4441 106.06 27.5786 106.061 25.496C106.061 23.3098 106.566 21.3924 107.575 19.7439C108.563 18.1161 109.992 16.7915 111.702 15.9189C113.445 15.0228 115.399 14.5747 117.564 14.5747C118.978 14.563 120.386 14.7473 121.748 15.1221C123.051 15.4955 124.279 16.0854 125.379 16.8662C125.594 17.0325 125.766 17.2464 125.88 17.4904C125.995 17.7344 126.049 18.0017 126.038 18.2702C126.044 18.7065 125.876 19.1276 125.569 19.4427C125.409 19.6057 125.217 19.7334 125.003 19.8172C124.79 19.901 124.56 19.939 124.331 19.9285C123.937 19.9084 123.556 19.7824 123.23 19.5641C122.397 18.9632 121.467 18.5054 120.479 18.2103C119.55 17.9369 118.586 17.7967 117.616 17.7941C115.378 17.7941 113.534 18.4959 112.086 19.8994C110.637 21.3028 109.912 23.1679 109.911 25.4944C109.911 27.7497 110.599 29.5974 111.975 31.0376C113.351 32.4778 115.141 33.1979 117.345 33.1979C118.546 33.2211 119.737 32.9903 120.84 32.521C121.77 32.1263 122.597 31.5301 123.261 30.7769C123.867 30.0655 124.206 29.3637 124.28 28.6717C124.28 28.1162 123.985 27.8393 123.399 27.8393H119.491C118.284 27.8393 117.681 27.2995 117.681 26.2199C117.67 26.0048 117.709 25.7901 117.794 25.5919C117.88 25.3936 118.01 25.2169 118.174 25.075C118.548 24.7847 119.016 24.6369 119.491 24.6588H125.761C126.57 24.6588 127.157 24.8234 127.523 25.1527C127.888 25.482 128.072 26.1157 128.074 27.0539C128.089 28.7102 127.622 30.3362 126.729 31.7405C125.806 33.1887 124.505 34.3678 122.963 35.1558C121.344 36.0098 119.472 36.4367 117.345 36.4367Z" fill="#2B3467"/>
<path d="M135.508 36.4369C135.031 36.4358 134.569 36.2804 134.191 35.9948C133.991 35.8478 133.831 35.6546 133.726 35.4322C133.62 35.2099 133.572 34.9654 133.585 34.7203V16.5473C133.585 15.9579 133.787 15.526 134.191 15.2518C134.575 14.9813 135.035 14.8358 135.508 14.8356C135.991 14.8265 136.465 14.9726 136.856 15.2518C137.241 15.5303 137.434 15.9622 137.434 16.5473V34.7138C137.448 34.9563 137.403 35.1985 137.303 35.4203C137.202 35.6421 137.049 35.8369 136.856 35.9883C136.472 36.2848 135.996 36.4431 135.508 36.4369Z" fill="#2B3467"/>
<path d="M144.754 35.9105C143.946 35.9105 143.304 35.6763 142.828 35.2077C142.352 34.7392 142.113 34.2274 142.112 33.6725C142.114 33.1789 142.288 32.701 142.606 32.3187L153.503 19.2533C153.637 19.1116 153.716 18.9271 153.723 18.7335C153.723 18.4549 153.503 18.3173 153.065 18.3173H144.479C144.242 18.3306 144.005 18.2957 143.782 18.2149C143.56 18.1341 143.357 18.0091 143.185 17.8477C143.036 17.706 142.918 17.5361 142.838 17.3482C142.757 17.1603 142.716 16.9584 142.718 16.7546C142.709 16.3282 142.855 15.9128 143.131 15.5837C143.406 15.2598 143.854 15.0979 144.479 15.0979H156.313C157.156 15.0979 157.794 15.3149 158.239 15.7457C158.449 15.9442 158.616 16.1829 158.729 16.4472C158.842 16.7115 158.9 16.9957 158.897 17.2825C158.888 17.8971 158.654 18.4879 158.239 18.9472L147.396 31.7406C147.328 31.7997 147.274 31.872 147.236 31.9528C147.198 32.0336 147.177 32.1212 147.175 32.2102C147.175 32.5233 147.414 32.6793 147.891 32.6782H158.354C158.94 32.6782 159.363 32.8531 159.62 33.1996C159.865 33.5129 160 33.8959 160.005 34.2911C160.006 34.7059 159.849 35.106 159.564 35.4117C159.412 35.5776 159.225 35.708 159.016 35.7934C158.806 35.8789 158.58 35.9172 158.354 35.9057L144.754 35.9105Z" fill="#2B3467"/>
</g>
<defs>
<clipPath id="clip0_3585_67">
<rect width="160" height="51" fill="white"/>
</clipPath>
</defs>
</svg>
